<svg xmlns="http://www.w3.org/2000/svg" width="823.881" height="616.089" viewBox="0 0 823.881 616.089">
  <g id="Grupo_136148" data-name="Grupo 136148" transform="translate(-348.06 -3003.74)">
    <path id="Trazado_190418" data-name="Trazado 190418" d="M4.333-12.086l3.1,8.766,3.088-8.766H13.8V0H11.3V-3.3l.249-5.7L8.284,0H6.574L3.32-9,3.569-3.3V0H1.079V-12.086ZM15.439-4.574a5.327,5.327,0,0,1,.515-2.382,3.768,3.768,0,0,1,1.482-1.619,4.323,4.323,0,0,1,2.245-.573,4.09,4.09,0,0,1,2.968,1.112,4.464,4.464,0,0,1,1.282,3.021l.017.614a4.694,4.694,0,0,1-1.154,3.316A4.011,4.011,0,0,1,19.7.166a4.031,4.031,0,0,1-3.1-1.245,4.777,4.777,0,0,1-1.158-3.387Zm2.4.17a3.357,3.357,0,0,0,.481,1.958,1.588,1.588,0,0,0,1.378.678,1.592,1.592,0,0,0,1.361-.669,3.674,3.674,0,0,0,.49-2.141,3.324,3.324,0,0,0-.49-1.945,1.592,1.592,0,0,0-1.378-.69,1.566,1.566,0,0,0-1.361.686A3.735,3.735,0,0,0,17.838-4.4Zm7.213-.154A5.413,5.413,0,0,1,25.994-7.9a3.057,3.057,0,0,1,2.577-1.245,2.751,2.751,0,0,1,2.167.979V-12.75h2.407V0H30.979l-.116-.955A2.823,2.823,0,0,1,28.555.166,3.049,3.049,0,0,1,26.01-1.083,5.587,5.587,0,0,1,25.052-4.557Zm2.4.179a3.546,3.546,0,0,0,.44,1.937,1.433,1.433,0,0,0,1.278.673,1.605,1.605,0,0,0,1.569-.939v-3.55A1.582,1.582,0,0,0,29.186-7.2Q27.451-7.2,27.451-4.379ZM39.138.166a4.409,4.409,0,0,1-3.217-1.212,4.308,4.308,0,0,1-1.241-3.229v-.232a5.426,5.426,0,0,1,.523-2.42,3.838,3.838,0,0,1,1.482-1.644,4.159,4.159,0,0,1,2.187-.577,3.727,3.727,0,0,1,2.9,1.162,4.722,4.722,0,0,1,1.058,3.3v.979H37.113a2.229,2.229,0,0,0,.7,1.411,2.12,2.12,0,0,0,1.482.531,2.589,2.589,0,0,0,2.167-1l1.179,1.32A3.6,3.6,0,0,1,41.18-.261,4.793,4.793,0,0,1,39.138.166Zm-.274-7.379a1.5,1.5,0,0,0-1.158.484,2.5,2.5,0,0,0-.569,1.384h3.337v-.192a1.786,1.786,0,0,0-.432-1.238A1.547,1.547,0,0,0,38.864-7.213ZM46.725,0H44.318V-12.75h2.407Zm1.6-4.574a5.327,5.327,0,0,1,.515-2.382,3.767,3.767,0,0,1,1.482-1.619,4.323,4.323,0,0,1,2.245-.573,4.09,4.09,0,0,1,2.968,1.112,4.464,4.464,0,0,1,1.282,3.021l.017.614a4.694,4.694,0,0,1-1.154,3.316,4.011,4.011,0,0,1-3.1,1.249,4.031,4.031,0,0,1-3.1-1.245,4.777,4.777,0,0,1-1.158-3.387Zm2.4.17a3.357,3.357,0,0,0,.481,1.958,1.588,1.588,0,0,0,1.378.678,1.592,1.592,0,0,0,1.361-.669,3.674,3.674,0,0,0,.49-2.141,3.324,3.324,0,0,0-.49-1.945,1.592,1.592,0,0,0-1.378-.69,1.566,1.566,0,0,0-1.361.686A3.735,3.735,0,0,0,50.726-4.4Zm19.905,0a5.387,5.387,0,0,1-.942,3.324A3.021,3.021,0,0,1,67.145.166a2.8,2.8,0,0,1-2.2-.946V3.453h-2.4V-8.981h2.225l.083.88a2.819,2.819,0,0,1,2.274-1.046A3.041,3.041,0,0,1,69.71-7.919a5.532,5.532,0,0,1,.921,3.387Zm-2.4-.174a3.535,3.535,0,0,0-.444-1.934A1.446,1.446,0,0,0,66.5-7.2a1.571,1.571,0,0,0-1.552.863v3.677a1.6,1.6,0,0,0,1.569.888Q68.232-1.768,68.232-4.582Zm3.511.008a5.326,5.326,0,0,1,.515-2.382A3.768,3.768,0,0,1,73.74-8.575a4.323,4.323,0,0,1,2.245-.573,4.09,4.09,0,0,1,2.968,1.112,4.464,4.464,0,0,1,1.282,3.021l.017.614A4.694,4.694,0,0,1,79.1-1.083,4.011,4.011,0,0,1,76,.166a4.031,4.031,0,0,1-3.1-1.245,4.777,4.777,0,0,1-1.158-3.387Zm2.4.17a3.357,3.357,0,0,0,.481,1.958A1.588,1.588,0,0,0,76-1.768a1.592,1.592,0,0,0,1.361-.669,3.674,3.674,0,0,0,.49-2.141,3.324,3.324,0,0,0-.49-1.945,1.592,1.592,0,0,0-1.378-.69,1.566,1.566,0,0,0-1.361.686A3.736,3.736,0,0,0,74.143-4.4ZM86.776-6.732a6.517,6.517,0,0,0-.863-.066,1.757,1.757,0,0,0-1.785.921V0h-2.4V-8.981H84l.066,1.071a2.223,2.223,0,0,1,2-1.237,2.514,2.514,0,0,1,.747.108ZM95.9-1.768a1.573,1.573,0,0,0,1.079-.365A1.28,1.28,0,0,0,97.41-3.1h2.25a3.077,3.077,0,0,1-.5,1.673A3.286,3.286,0,0,1,97.821-.253a4.2,4.2,0,0,1-1.88.419A3.9,3.9,0,0,1,92.9-1.058,4.845,4.845,0,0,1,91.79-4.441V-4.6a4.79,4.79,0,0,1,1.1-3.312,3.854,3.854,0,0,1,3.03-1.237,3.778,3.778,0,0,1,2.7.959,3.4,3.4,0,0,1,1.033,2.552H97.41a1.648,1.648,0,0,0-.432-1.139,1.439,1.439,0,0,0-1.1-.438,1.445,1.445,0,0,0-1.266.611,3.541,3.541,0,0,0-.427,1.983v.249a3.586,3.586,0,0,0,.423,2A1.463,1.463,0,0,0,95.9-1.768Zm4.756-2.806a5.326,5.326,0,0,1,.515-2.382,3.768,3.768,0,0,1,1.482-1.619,4.323,4.323,0,0,1,2.245-.573,4.09,4.09,0,0,1,2.968,1.112,4.464,4.464,0,0,1,1.282,3.021l.017.614a4.694,4.694,0,0,1-1.154,3.316,4.011,4.011,0,0,1-3.1,1.249,4.031,4.031,0,0,1-3.1-1.245,4.777,4.777,0,0,1-1.158-3.387Zm2.4.17a3.357,3.357,0,0,0,.481,1.958,1.588,1.588,0,0,0,1.378.678,1.592,1.592,0,0,0,1.361-.669,3.674,3.674,0,0,0,.49-2.141,3.324,3.324,0,0,0-.49-1.945,1.592,1.592,0,0,0-1.378-.69,1.566,1.566,0,0,0-1.361.686A3.736,3.736,0,0,0,103.054-4.4Zm9.836-4.578.075,1a3.156,3.156,0,0,1,2.582-1.17,2.4,2.4,0,0,1,2.382,1.37,3.084,3.084,0,0,1,2.7-1.37A2.679,2.679,0,0,1,122.8-8.3a3.911,3.911,0,0,1,.714,2.561V0h-2.407V-5.728a1.71,1.71,0,0,0-.3-1.116,1.324,1.324,0,0,0-1.054-.353,1.5,1.5,0,0,0-1.494,1.029L118.27,0h-2.4V-5.719a1.689,1.689,0,0,0-.307-1.129,1.337,1.337,0,0,0-1.046-.349,1.555,1.555,0,0,0-1.478.847V0h-2.4V-8.981Zm20.553,4.574a5.387,5.387,0,0,1-.942,3.324A3.021,3.021,0,0,1,129.957.166a2.8,2.8,0,0,1-2.2-.946V3.453h-2.4V-8.981h2.225l.083.88a2.819,2.819,0,0,1,2.274-1.046,3.041,3.041,0,0,1,2.582,1.229,5.532,5.532,0,0,1,.921,3.387Zm-2.4-.174a3.535,3.535,0,0,0-.444-1.934A1.446,1.446,0,0,0,129.31-7.2a1.571,1.571,0,0,0-1.552.863v3.677a1.6,1.6,0,0,0,1.569.888Q131.044-1.768,131.044-4.582ZM139.063.166a4.409,4.409,0,0,1-3.217-1.212,4.308,4.308,0,0,1-1.241-3.229v-.232a5.426,5.426,0,0,1,.523-2.42,3.838,3.838,0,0,1,1.482-1.644,4.159,4.159,0,0,1,2.187-.577,3.727,3.727,0,0,1,2.9,1.162,4.722,4.722,0,0,1,1.058,3.3v.979h-5.719a2.228,2.228,0,0,0,.7,1.411,2.12,2.12,0,0,0,1.482.531,2.589,2.589,0,0,0,2.167-1l1.179,1.32A3.6,3.6,0,0,1,141.1-.261,4.793,4.793,0,0,1,139.063.166Zm-.274-7.379a1.5,1.5,0,0,0-1.158.484,2.5,2.5,0,0,0-.569,1.384H140.4v-.192a1.786,1.786,0,0,0-.432-1.238A1.547,1.547,0,0,0,138.789-7.213Zm8.2-3.976v2.208h1.536v1.76H146.99v4.482a1.07,1.07,0,0,0,.191.714.959.959,0,0,0,.73.216,3.826,3.826,0,0,0,.706-.058V-.05a4.939,4.939,0,0,1-1.453.216,2.29,2.29,0,0,1-2.573-2.548V-7.222H143.28v-1.76h1.312v-2.208ZM154,.166a4.409,4.409,0,0,1-3.217-1.212,4.308,4.308,0,0,1-1.241-3.229v-.232a5.426,5.426,0,0,1,.523-2.42,3.838,3.838,0,0,1,1.482-1.644,4.159,4.159,0,0,1,2.187-.577,3.727,3.727,0,0,1,2.9,1.162,4.722,4.722,0,0,1,1.058,3.3v.979h-5.719a2.228,2.228,0,0,0,.7,1.411,2.12,2.12,0,0,0,1.482.531,2.589,2.589,0,0,0,2.167-1l1.179,1.32a3.6,3.6,0,0,1-1.461,1.191A4.793,4.793,0,0,1,154,.166Zm-.274-7.379a1.5,1.5,0,0,0-1.158.484A2.5,2.5,0,0,0,152-5.346h3.337v-.192a1.786,1.786,0,0,0-.432-1.238A1.547,1.547,0,0,0,153.722-7.213Zm7.537-1.768.075,1.038a3.136,3.136,0,0,1,2.582-1.2,2.606,2.606,0,0,1,2.125.838,3.912,3.912,0,0,1,.714,2.507V0h-2.4V-5.744a1.556,1.556,0,0,0-.332-1.108,1.486,1.486,0,0,0-1.1-.344,1.65,1.65,0,0,0-1.519.863V0H159V-8.981Zm11.048,7.213a1.573,1.573,0,0,0,1.079-.365,1.28,1.28,0,0,0,.432-.971h2.25a3.077,3.077,0,0,1-.5,1.673,3.286,3.286,0,0,1-1.341,1.179,4.2,4.2,0,0,1-1.88.419,3.9,3.9,0,0,1-3.038-1.224A4.845,4.845,0,0,1,168.2-4.441V-4.6a4.79,4.79,0,0,1,1.1-3.312,3.854,3.854,0,0,1,3.03-1.237,3.778,3.778,0,0,1,2.7.959,3.4,3.4,0,0,1,1.033,2.552h-2.25a1.648,1.648,0,0,0-.432-1.139,1.439,1.439,0,0,0-1.1-.438,1.445,1.445,0,0,0-1.266.611A3.541,3.541,0,0,0,170.6-4.62v.249a3.586,3.586,0,0,0,.423,2A1.463,1.463,0,0,0,172.308-1.768ZM179.969,0h-2.407V-8.981h2.407Zm-2.548-11.306a1.181,1.181,0,0,1,.361-.888,1.356,1.356,0,0,1,.984-.349,1.36,1.36,0,0,1,.979.349,1.175,1.175,0,0,1,.365.888,1.178,1.178,0,0,1-.369.9,1.363,1.363,0,0,1-.975.349,1.363,1.363,0,0,1-.975-.349A1.178,1.178,0,0,1,177.421-11.306ZM187.149,0a2.664,2.664,0,0,1-.241-.805,2.9,2.9,0,0,1-2.266.971A3.189,3.189,0,0,1,182.455-.6a2.456,2.456,0,0,1-.867-1.926,2.538,2.538,0,0,1,1.058-2.191,5.222,5.222,0,0,1,3.059-.772h1.1V-6a1.48,1.48,0,0,0-.32-1,1.257,1.257,0,0,0-1.009-.374,1.429,1.429,0,0,0-.95.291.987.987,0,0,0-.344.8h-2.4a2.41,2.41,0,0,1,.481-1.444A3.182,3.182,0,0,1,183.63-8.77a4.961,4.961,0,0,1,1.976-.378,3.92,3.92,0,0,1,2.635.834,2.918,2.918,0,0,1,.975,2.345v3.893a4.294,4.294,0,0,0,.357,1.934V0Zm-1.984-1.668a2.066,2.066,0,0,0,.979-.237,1.554,1.554,0,0,0,.664-.635V-4.084h-.9q-1.8,0-1.917,1.245l-.008.141a.96.96,0,0,0,.315.739A1.225,1.225,0,0,0,185.166-1.668Zm10.758-.813a.773.773,0,0,0-.436-.693,4.95,4.95,0,0,0-1.4-.452q-3.2-.672-3.2-2.723a2.468,2.468,0,0,1,.992-2,4,4,0,0,1,2.594-.8,4.307,4.307,0,0,1,2.735.805,2.538,2.538,0,0,1,1.025,2.092h-2.4A1.161,1.161,0,0,0,195.5-7.1a1.405,1.405,0,0,0-1.038-.336,1.436,1.436,0,0,0-.938.274.865.865,0,0,0-.332.7.739.739,0,0,0,.378.643,3.885,3.885,0,0,0,1.274.423,10.407,10.407,0,0,1,1.511.4,2.482,2.482,0,0,1,1.9,2.416A2.343,2.343,0,0,1,197.2-.594a4.548,4.548,0,0,1-2.723.76,4.75,4.75,0,0,1-2-.4,3.363,3.363,0,0,1-1.374-1.1,2.565,2.565,0,0,1-.5-1.515h2.274a1.252,1.252,0,0,0,.473.979,1.877,1.877,0,0,0,1.179.34,1.737,1.737,0,0,0,1.042-.261A.814.814,0,0,0,195.923-2.482Z" transform="translate(659.875 3016.49)" fill="#12263f"/>
    <path id="Trazado_190416" data-name="Trazado 190416" d="M2.443-8.531,5.232-1.57,8.021-8.531H9.48V0H8.355V-3.322l.105-3.586L5.66,0H4.8L2-6.891l.111,3.568V0H.99V-8.531ZM15.211,0a2.277,2.277,0,0,1-.152-.668,2.419,2.419,0,0,1-1.8.785,2.238,2.238,0,0,1-1.538-.53,1.716,1.716,0,0,1-.6-1.345A1.792,1.792,0,0,1,11.868-3.3a3.55,3.55,0,0,1,2.118-.548h1.055v-.5a1.217,1.217,0,0,0-.34-.905,1.366,1.366,0,0,0-1-.337,1.581,1.581,0,0,0-.973.293.863.863,0,0,0-.393.709h-1.09a1.5,1.5,0,0,1,.337-.917,2.3,2.3,0,0,1,.914-.7,3.075,3.075,0,0,1,1.269-.258,2.506,2.506,0,0,1,1.717.548A1.976,1.976,0,0,1,16.125-4.4v2.918a3.567,3.567,0,0,0,.223,1.389V0Zm-1.8-.826a1.905,1.905,0,0,0,.967-.264,1.6,1.6,0,0,0,.662-.686v-1.3h-.85Q12.2-3.076,12.2-1.91a.987.987,0,0,0,.34.8A1.306,1.306,0,0,0,13.412-.826Zm7.477-4.541a3.248,3.248,0,0,0-.533-.041,1.428,1.428,0,0,0-1.447.908V0H17.824V-6.34h1.055l.018.732a1.688,1.688,0,0,1,1.512-.85,1.107,1.107,0,0,1,.48.082Zm3-2.508V-6.34h1.184V-5.5H23.888v3.937a.88.88,0,0,0,.158.572.666.666,0,0,0,.539.191,2.624,2.624,0,0,0,.516-.07V0a3.161,3.161,0,0,1-.832.116,1.35,1.35,0,0,1-1.1-.439A1.888,1.888,0,0,1,22.8-1.57V-5.5H21.65V-6.34H22.8V-7.875Zm3.533,2.3A2.3,2.3,0,0,1,29.3-6.457q2.01,0,2.027,2.268V0H30.24V-4.2a1.459,1.459,0,0,0-.313-1.014,1.256,1.256,0,0,0-.958-.328,1.564,1.564,0,0,0-.926.281,1.91,1.91,0,0,0-.621.738V0H26.338V-9h1.084ZM36.861,0a2.277,2.277,0,0,1-.152-.668,2.419,2.419,0,0,1-1.8.785,2.238,2.238,0,0,1-1.538-.53,1.716,1.716,0,0,1-.6-1.345A1.792,1.792,0,0,1,33.518-3.3a3.55,3.55,0,0,1,2.118-.548h1.055v-.5a1.217,1.217,0,0,0-.34-.905,1.366,1.366,0,0,0-1-.337,1.581,1.581,0,0,0-.973.293.863.863,0,0,0-.393.709h-1.09a1.5,1.5,0,0,1,.337-.917,2.3,2.3,0,0,1,.914-.7,3.075,3.075,0,0,1,1.269-.258,2.506,2.506,0,0,1,1.717.548A1.976,1.976,0,0,1,37.775-4.4v2.918A3.567,3.567,0,0,0,38-.094V0Zm-1.8-.826a1.905,1.905,0,0,0,.967-.264,1.6,1.6,0,0,0,.662-.686v-1.3h-.85q-1.992,0-1.992,1.166a.987.987,0,0,0,.34.8A1.306,1.306,0,0,0,35.062-.826ZM47.326-2.232H43.752L42.949,0h-1.16l3.258-8.531h.984L49.295,0H48.14Zm-3.234-.92h2.9l-1.453-3.99ZM51.451,0H50.367V-9h1.084Zm2.912,0H53.279V-9h1.084Zm4.365.117a2.77,2.77,0,0,1-2.1-.847,3.142,3.142,0,0,1-.809-2.265v-.2a3.8,3.8,0,0,1,.36-1.685,2.811,2.811,0,0,1,1.008-1.16,2.534,2.534,0,0,1,1.4-.419,2.374,2.374,0,0,1,1.922.814A3.526,3.526,0,0,1,61.2-3.311v.451H56.906a2.254,2.254,0,0,0,.548,1.515,1.722,1.722,0,0,0,1.333.577A1.888,1.888,0,0,0,59.76-1a2.444,2.444,0,0,0,.7-.621l.662.516A2.662,2.662,0,0,1,58.728.117Zm-.135-5.684a1.446,1.446,0,0,0-1.1.478,2.321,2.321,0,0,0-.551,1.339h3.176v-.082a2.065,2.065,0,0,0-.445-1.28A1.361,1.361,0,0,0,58.594-5.566Zm7.553,3.885a.8.8,0,0,0-.331-.683,3.187,3.187,0,0,0-1.154-.419,5.457,5.457,0,0,1-1.307-.422,1.859,1.859,0,0,1-.715-.586,1.4,1.4,0,0,1-.231-.809,1.645,1.645,0,0,1,.659-1.318,2.574,2.574,0,0,1,1.685-.539A2.649,2.649,0,0,1,66.5-5.9a1.768,1.768,0,0,1,.671,1.424h-1.09a.979.979,0,0,0-.378-.768,1.416,1.416,0,0,0-.952-.322,1.482,1.482,0,0,0-.926.258.812.812,0,0,0-.334.674.658.658,0,0,0,.311.592,3.821,3.821,0,0,0,1.122.381,5.847,5.847,0,0,1,1.315.434,1.919,1.919,0,0,1,.747.606,1.491,1.491,0,0,1,.243.864A1.623,1.623,0,0,1,66.551-.4a2.851,2.851,0,0,1-1.764.513,3.193,3.193,0,0,1-1.348-.27,2.192,2.192,0,0,1-.917-.753,1.815,1.815,0,0,1-.331-1.046h1.084a1.122,1.122,0,0,0,.437.864,1.693,1.693,0,0,0,1.075.319,1.748,1.748,0,0,0,.987-.249A.765.765,0,0,0,66.146-1.682Zm5.426-1.781a9.059,9.059,0,0,1,.354-2.543,7.387,7.387,0,0,1,1.058-2.215,4.5,4.5,0,0,1,1.459-1.406l.223.715a4.667,4.667,0,0,0-1.4,2,8.687,8.687,0,0,0-.6,3.018l-.006.5A8.733,8.733,0,0,0,73.482.533a4.689,4.689,0,0,0,1.184,1.559l-.223.662A4.644,4.644,0,0,1,72.955,1.3,8.144,8.144,0,0,1,71.572-3.463ZM81.193,0H75.6V-.779l2.953-3.281a7.016,7.016,0,0,0,.905-1.21,2.019,2.019,0,0,0,.249-.964,1.531,1.531,0,0,0-.4-1.1,1.414,1.414,0,0,0-1.078-.428,1.674,1.674,0,0,0-1.257.46,1.757,1.757,0,0,0-.448,1.28H75.439a2.516,2.516,0,0,1,.759-1.9,2.813,2.813,0,0,1,2.03-.727,2.7,2.7,0,0,1,1.881.624A2.129,2.129,0,0,1,80.8-6.363a4.88,4.88,0,0,1-1.605,3L76.91-.885h4.283Zm1.283-.568a.679.679,0,0,1,.167-.469.636.636,0,0,1,.5-.187.655.655,0,0,1,.507.188.665.665,0,0,1,.173.469.629.629,0,0,1-.173.451.667.667,0,0,1-.507.182.648.648,0,0,1-.5-.182A.641.641,0,0,1,82.476-.568Zm8.373-3.07a4.958,4.958,0,0,1-.65,2.83,2.313,2.313,0,0,1-2.033.926,2.33,2.33,0,0,1-2.021-.905,4.706,4.706,0,0,1-.68-2.7V-4.939a4.847,4.847,0,0,1,.65-2.795,2.331,2.331,0,0,1,2.039-.914,2.352,2.352,0,0,1,2.027.882,4.678,4.678,0,0,1,.668,2.722ZM89.765-5.121a3.972,3.972,0,0,0-.387-2.007,1.331,1.331,0,0,0-1.225-.63,1.314,1.314,0,0,0-1.213.627A3.878,3.878,0,0,0,86.549-5.2v1.734a4.036,4.036,0,0,0,.4,2.042,1.329,1.329,0,0,0,1.216.659,1.31,1.31,0,0,0,1.192-.621,3.89,3.89,0,0,0,.407-1.957ZM95.8,0h-1.09V-7.225l-2.186.8v-.984l3.105-1.166h.17Zm7.43-8.537v.92h-.2a2.854,2.854,0,0,0-2.016.75,3.121,3.121,0,0,0-.867,2.045,2.314,2.314,0,0,1,1.84-.773,2.212,2.212,0,0,1,1.778.785,3.028,3.028,0,0,1,.665,2.027,3.019,3.019,0,0,1-.718,2.109,2.472,2.472,0,0,1-1.925.791A2.435,2.435,0,0,1,99.8-.823a3.727,3.727,0,0,1-.762-2.423v-.416a5.616,5.616,0,0,1,1-3.6,3.691,3.691,0,0,1,2.991-1.274Zm-1.424,3.844a1.729,1.729,0,0,0-1.025.334,1.74,1.74,0,0,0-.65.838v.4a2.8,2.8,0,0,0,.475,1.7,1.422,1.422,0,0,0,1.184.645,1.378,1.378,0,0,0,1.151-.539,2.237,2.237,0,0,0,.419-1.412,2.238,2.238,0,0,0-.425-1.421A1.362,1.362,0,0,0,101.806-4.693ZM108.328-3.4a9.063,9.063,0,0,1-.343,2.5,7.407,7.407,0,0,1-1.049,2.212,4.6,4.6,0,0,1-1.479,1.441l-.229-.662a4.711,4.711,0,0,0,1.45-2.147,9.29,9.29,0,0,0,.56-3.231v-.187a9.646,9.646,0,0,0-.258-2.288,7.722,7.722,0,0,0-.718-1.9,4.378,4.378,0,0,0-1.034-1.307l.229-.662A4.577,4.577,0,0,1,106.93-8.2a7.423,7.423,0,0,1,1.049,2.209A9.273,9.273,0,0,1,108.328-3.4Z" transform="translate(704.834 3045.615)" fill="#12263f"/>
    <g id="Grupo_133351" data-name="Grupo 133351" transform="translate(627.992 3075.305)">
      <rect id="Rectángulo_41267" data-name="Rectángulo 41267" width="262.766" height="70.565" rx="35.282" fill="none" stroke="#29083a" stroke-miterlimit="10" stroke-width="3.881"/>
      <text id="Seleccionar" transform="translate(87.284 40.579)" fill="#29083a" font-size="17" font-family="Roboto-Bold, Roboto" font-weight="700"><tspan x="0" y="0">Seleccionar</tspan></text>
    </g>
    <g id="Grupo_133352" data-name="Grupo 133352" transform="translate(350 3547.324)">
      <rect id="Rectángulo_41268" data-name="Rectángulo 41268" width="262.766" height="70.565" rx="35.282" fill="none" stroke="#29083a" stroke-miterlimit="10" stroke-width="3.881"/>
      <text id="Evaluar" transform="translate(103.49 40.591)" fill="#29083a" font-size="17" font-family="Roboto-Bold, Roboto" font-weight="700"><tspan x="0" y="0">Evaluar</tspan></text>
    </g>
    <g id="Grupo_133353" data-name="Grupo 133353" transform="translate(907.233 3547.324)">
      <rect id="Rectángulo_41269" data-name="Rectángulo 41269" width="262.766" height="70.565" rx="35.282" fill="none" stroke="#29083a" stroke-miterlimit="10" stroke-width="3.881"/>
      <text id="Desarrollar" transform="translate(90.432 40.591)" fill="#29083a" font-size="17" font-family="Roboto-Bold, Roboto" font-weight="700"><tspan x="0" y="0">Desar</tspan><tspan y="0" letter-spacing="-0.02em">r</tspan><tspan y="0">ollar</tspan></text>
    </g>
    <g id="Grupo_133354" data-name="Grupo 133354" transform="translate(552.597 3164.411)">
      <rect id="Rectángulo_41270" data-name="Rectángulo 41270" width="192.274" height="66.094" rx="30.66" fill="#b13e8d"/>
      <g id="Grupo" transform="translate(49.214 11.597)">
        <text id="Competencias" transform="translate(0 16)" fill="#fff" font-size="15" font-family="Roboto-Regular, Roboto"><tspan x="0" y="0">Competencias</tspan></text>
        <text id="básicas" transform="translate(23.962 36.189)" fill="#fff" font-size="15" font-family="Roboto-Regular, Roboto"><tspan x="0" y="0">básicas</tspan></text>
      </g>
    </g>
    <g id="Grupo_133355" data-name="Grupo 133355" transform="translate(882.659 3164.411)">
      <rect id="Rectángulo_41271" data-name="Rectángulo 41271" width="192.274" height="66.094" rx="30.66" fill="#b13e8d"/>
      <g id="Grupo-2" data-name="Grupo" transform="translate(49.226 11.597)">
        <text id="Competencias-2" data-name="Competencias" transform="translate(0 16)" fill="#fff" font-size="15" font-family="Roboto-Regular, Roboto"><tspan x="0" y="0">Competencias</tspan></text>
        <text id="genéricas" transform="translate(16.475 36.189)" fill="#fff" font-size="15" font-family="Roboto-Regular, Roboto"><tspan x="0" y="0">genéricas</tspan></text>
      </g>
    </g>
    <g id="Grupo_133356" data-name="Grupo 133356" transform="translate(717.628 3267.422)">
      <rect id="Rectángulo_41272" data-name="Rectángulo 41272" width="192.274" height="66.094" rx="30.66" fill="#b13e8d"/>
      <g id="Grupo-3" data-name="Grupo" transform="translate(49.226 11.597)">
        <text id="Competencias-3" data-name="Competencias" transform="translate(0 16)" fill="#fff" font-size="15" font-family="Roboto-Regular, Roboto"><tspan x="0" y="0">Competencias</tspan></text>
        <text id="específicas" transform="translate(10.227 36.189)" fill="#fff" font-size="15" font-family="Roboto-Regular, Roboto"><tspan x="0" y="0">específicas</tspan></text>
      </g>
    </g>
    <g id="Grupo_133357" data-name="Grupo 133357" transform="translate(717.628 3360.206)">
      <rect id="Rectángulo_41273" data-name="Rectángulo 41273" width="192.274" height="66.094" rx="30.66" fill="#693fb7"/>
      <text id="Comportamiento" transform="translate(38.696 36.057)" fill="#fff" font-size="15" font-family="Roboto-Regular, Roboto"><tspan x="0" y="0">Compo</tspan><tspan y="0" letter-spacing="0.02em">r</tspan><tspan y="0">tamiento</tspan></text>
    </g>
    <g id="Grupo_133358" data-name="Grupo 133358" transform="translate(882.659 3460.188)">
      <rect id="Rectángulo_41274" data-name="Rectángulo 41274" width="192.274" height="66.094" rx="30.66" fill="#6d3c8c"/>
      <g id="Grupo-4" data-name="Grupo" transform="translate(58.068 11.838)">
        <text id="Habilidades" transform="translate(0 16)" fill="#fff" font-size="15" font-family="Roboto-Regular, Roboto"><tspan x="0" y="0">Habilidades</tspan></text>
        <text id="técnicas" transform="translate(11.308 36.189)" fill="#fff" font-size="15" font-family="Roboto-Regular, Roboto"><tspan x="0" y="0">técnicas</tspan></text>
      </g>
    </g>
    <g id="Grupo_133359" data-name="Grupo 133359" transform="translate(552.597 3460.188)">
      <rect id="Rectángulo_41275" data-name="Rectángulo 41275" width="192.274" height="66.094" rx="30.66" fill="#6d3c8c"/>
      <text id="Conocimientos" transform="translate(46.738 36.069)" fill="#fff" font-size="15" font-family="Roboto-Regular, Roboto"><tspan x="0" y="0">Conocimientos</tspan></text>
    </g>
    <path id="Trazado_190417" data-name="Trazado 190417" d="M0,0H281.777" transform="translate(618.486 3027.053)" fill="none" stroke="#707070" stroke-width="1.94"/>
    <g id="Grupo_133360" data-name="Grupo 133360" transform="translate(392.865 3110.586)">
      <line id="Línea_397" data-name="Línea 397" x2="235.127" fill="none" stroke="#29083a" stroke-miterlimit="10" stroke-width="3.881"/>
      <line id="Línea_398" data-name="Línea 398" y2="436.738" transform="translate(1.274)" fill="none" stroke="#29083a" stroke-miterlimit="10" stroke-width="3.881"/>
    </g>
    <g id="Grupo_133361" data-name="Grupo 133361" transform="translate(890.758 3110.586)">
      <line id="Línea_399" data-name="Línea 399" x1="233.469" y1="0.637" fill="none" stroke="#29083a" stroke-miterlimit="10" stroke-width="3.881"/>
      <line id="Línea_400" data-name="Línea 400" y2="436.738" transform="translate(232.207)" fill="none" stroke="#29083a" stroke-miterlimit="10" stroke-width="3.881"/>
    </g>
    <g id="Grupo_133365" data-name="Grupo 133365" transform="translate(542.062 3288.66)">
      <g id="Grupo_133363" data-name="Grupo 133363">
        <g id="Grupo_133362" data-name="Grupo 133362" transform="translate(20.283 5.542)">
          <path id="Trazado_189830" data-name="Trazado 189830" d="M397.233,608.246,380.416,590.6a1.026,1.026,0,0,0-1.769.708v8.341H356.408a1.024,1.024,0,0,0-1.025,1.025v16.567a1.024,1.024,0,0,0,1.025,1.025h22.239V626.6a1.023,1.023,0,0,0,.645.952,1.092,1.092,0,0,0,.38.073,1.024,1.024,0,0,0,.744-.317l16.817-17.65A1.021,1.021,0,0,0,397.233,608.246Zm-39.8-6.551h4.87v14.517h-4.87Zm11.8,14.517h-4.87V601.7h4.87Zm11.473,7.831v-6.8a1.024,1.024,0,0,0-1.025-1.025h-8.268V601.7h8.268a1.024,1.024,0,0,0,1.025-1.025v-6.8l14.372,15.084Z" transform="translate(-311.129 -543.47)" fill="#fee954"/>
          <path id="Trazado_189831" data-name="Trazado 189831" d="M251.784,497.821h-56.42a2.968,2.968,0,0,1-2.966-2.966V420.729a2.968,2.968,0,0,1,2.966-2.966h46.049v15.423a1.024,1.024,0,0,0,1.025,1.025h15.423v20.236a1.025,1.025,0,1,0,2.05,0V433.186a1.025,1.025,0,0,0-.3-.723l-16.448-16.448a1.024,1.024,0,0,0-.723-.3H195.365a5.028,5.028,0,0,0-5.021,5.021v74.126a5.028,5.028,0,0,0,5.021,5.021h56.42a1.025,1.025,0,1,0,0-2.05Zm-8.32-78.612,12.946,12.946H243.464Z" transform="translate(-190.344 -415.713)" fill="#29083a"/>
          <path id="Trazado_189832" data-name="Trazado 189832" d="M306.547,478.52a1.025,1.025,0,1,0,0-2.05h-12.41a1.025,1.025,0,0,0,0,2.05Z" transform="translate(-265.556 -460.179)" fill="#29083a"/>
          <path id="Trazado_189833" data-name="Trazado 189833" d="M275.188,509.575H226.511a1.025,1.025,0,1,0,0,2.05h48.677a1.025,1.025,0,1,0,0-2.05Z" transform="translate(-216.063 -484.407)" fill="#29083a"/>
          <path id="Trazado_189834" data-name="Trazado 189834" d="M275.188,542.68H226.511a1.025,1.025,0,1,0,0,2.05h48.677a1.025,1.025,0,1,0,0-2.05Z" transform="translate(-216.063 -508.635)" fill="#29083a"/>
          <path id="Trazado_189835" data-name="Trazado 189835" d="M275.188,575.785H226.511a1.025,1.025,0,0,0,0,2.05h48.677a1.025,1.025,0,0,0,0-2.05Z" transform="translate(-216.063 -532.863)" fill="#29083a"/>
        </g>
        <circle id="Elipse_5176" data-name="Elipse 5176" cx="20.031" cy="20.031" r="20.031" transform="translate(-4 -4)" fill="#fef7dc"/>
        <circle id="Elipse_5177" data-name="Elipse 5177" cx="1.545" cy="1.545" r="1.545" transform="translate(14.486 1.564)" fill="#693fb7"/>
        <ellipse id="Elipse_5178" data-name="Elipse 5178" cx="1.69" cy="1.709" rx="1.69" ry="1.709" transform="translate(26.457 22.312)" fill="#b13e8d"/>
        <circle id="Elipse_5179" data-name="Elipse 5179" cx="1.873" cy="1.873" r="1.873" transform="translate(1.897 21.985)" fill="#fee954"/>
      </g>
      <g id="Grupo_133364" data-name="Grupo 133364" transform="translate(1.381 0.543)">
        <path id="Trazado_189836" data-name="Trazado 189836" d="M162.682,436.144s-1.441-.568-1.96-.769a3.976,3.976,0,0,0,.653-2.2,4.017,4.017,0,1,0-7.374,2.2l-1.96.763c-1.013.391-2.546.989-2.546,3.083v4.023a.56.56,0,0,0,.562.562h14.6a.56.56,0,0,0,.562-.562v-4.023c0-2.1-1.532-2.692-2.546-3.083Zm-5.317-5.854a2.894,2.894,0,1,1-2.894,2.894A2.9,2.9,0,0,1,157.365,430.29Zm6.74,12.4h-2.192v-1.844a.562.562,0,1,0-1.123,0v1.844h-6.843v-1.844a.562.562,0,1,0-1.123,0v1.844h-2.192v-3.461c0-1.233.72-1.606,1.825-2.033,0,0,1.441-.562,2.356-.916a4.01,4.01,0,0,0,5.116,0c.916.354,2.356.916,2.356.916,1.1.427,1.825.8,1.825,2.033v3.461Z" transform="translate(-142.709 -421.75)" fill="#29083a"/>
        <path id="Trazado_189837" data-name="Trazado 189837" d="M157.13,428.392a2.6,2.6,0,0,0-.946-1.4,14.31,14.31,0,0,0,.849-4.871,14.485,14.485,0,0,0-11.874-14.23,2.609,2.609,0,0,0-5.177,0,14.48,14.48,0,0,0-11.874,14.23,14.31,14.31,0,0,0,.849,4.871,2.608,2.608,0,0,0-.684,3.388,2.635,2.635,0,0,0,2.265,1.306,2.638,2.638,0,0,0,1.013-.208,14.436,14.436,0,0,0,22.038,0,2.569,2.569,0,0,0,1.691.116,2.611,2.611,0,0,0,1.85-3.2Zm-14.56-21.659a1.483,1.483,0,1,1-1.483,1.483A1.485,1.485,0,0,1,142.571,406.733ZM130.148,430.5a1.488,1.488,0,0,1-.36-2.723,1.446,1.446,0,0,1,.739-.2,1.657,1.657,0,0,1,.385.049,1.482,1.482,0,1,1-.769,2.863Zm12.423,4.951a13.3,13.3,0,0,1-10.1-4.639,2.61,2.61,0,0,0,.324-3.052,2.568,2.568,0,0,0-1.587-1.215,2.609,2.609,0,0,0-1.227-.031,13.336,13.336,0,0,1,10.1-17.5,2.609,2.609,0,0,0,4.969,0,13.336,13.336,0,0,1,10.1,17.5,2.609,2.609,0,0,0-2.491,4.3A13.309,13.309,0,0,1,142.571,435.449Zm13.32-5.641a1.452,1.452,0,0,1-.9.69,1.483,1.483,0,0,1-1.673-2.173,1.452,1.452,0,0,1,.9-.69,1.387,1.387,0,0,1,.385-.049,1.487,1.487,0,0,1,1.428,1.1,1.491,1.491,0,0,1-.146,1.129Z" transform="translate(-127.921 -405.603)" fill="#29083a"/>
      </g>
    </g>
    <path id="Trazado_190415" data-name="Trazado 190415" d="M0,0H294.467" transform="translate(612.766 3582.619)" fill="none" stroke="#29083a" stroke-width="3.881"/>
  </g>
</svg>
