<svg xmlns="http://www.w3.org/2000/svg" width="823.881" height="616.089" viewBox="0 0 823.881 616.089">
  <g id="Grupo_136148" data-name="Grupo 136148" transform="translate(-309.21 -2981.25)">
    <path id="Trazado_190415" data-name="Trazado 190415" d="M4.333-12.086l3.1,8.766,3.088-8.766H13.8V0H11.3V-3.3l.249-5.7L8.284,0H6.574L3.32-9,3.569-3.3V0H1.079V-12.086ZM15.439-4.574a5.327,5.327,0,0,1,.515-2.382,3.768,3.768,0,0,1,1.482-1.619,4.323,4.323,0,0,1,2.245-.573,4.09,4.09,0,0,1,2.968,1.112,4.464,4.464,0,0,1,1.282,3.021l.017.614a4.694,4.694,0,0,1-1.154,3.316A4.011,4.011,0,0,1,19.7.166a4.031,4.031,0,0,1-3.1-1.245,4.777,4.777,0,0,1-1.158-3.387Zm2.4.17a3.357,3.357,0,0,0,.481,1.958,1.588,1.588,0,0,0,1.378.678,1.592,1.592,0,0,0,1.361-.669,3.674,3.674,0,0,0,.49-2.141,3.324,3.324,0,0,0-.49-1.945,1.592,1.592,0,0,0-1.378-.69,1.566,1.566,0,0,0-1.361.686A3.735,3.735,0,0,0,17.838-4.4Zm7.213-.154A5.413,5.413,0,0,1,25.994-7.9a3.057,3.057,0,0,1,2.577-1.245,2.751,2.751,0,0,1,2.167.979V-12.75h2.407V0H30.979l-.116-.955A2.823,2.823,0,0,1,28.555.166,3.049,3.049,0,0,1,26.01-1.083,5.587,5.587,0,0,1,25.052-4.557Zm2.4.179a3.546,3.546,0,0,0,.44,1.937,1.433,1.433,0,0,0,1.278.673,1.605,1.605,0,0,0,1.569-.939v-3.55A1.582,1.582,0,0,0,29.186-7.2Q27.451-7.2,27.451-4.379ZM39.138.166a4.409,4.409,0,0,1-3.217-1.212,4.308,4.308,0,0,1-1.241-3.229v-.232a5.426,5.426,0,0,1,.523-2.42,3.838,3.838,0,0,1,1.482-1.644,4.159,4.159,0,0,1,2.187-.577,3.727,3.727,0,0,1,2.9,1.162,4.722,4.722,0,0,1,1.058,3.3v.979H37.113a2.229,2.229,0,0,0,.7,1.411,2.12,2.12,0,0,0,1.482.531,2.589,2.589,0,0,0,2.167-1l1.179,1.32A3.6,3.6,0,0,1,41.18-.261,4.793,4.793,0,0,1,39.138.166Zm-.274-7.379a1.5,1.5,0,0,0-1.158.484,2.5,2.5,0,0,0-.569,1.384h3.337v-.192a1.786,1.786,0,0,0-.432-1.238A1.547,1.547,0,0,0,38.864-7.213ZM46.725,0H44.318V-12.75h2.407Zm1.6-4.574a5.327,5.327,0,0,1,.515-2.382,3.767,3.767,0,0,1,1.482-1.619,4.323,4.323,0,0,1,2.245-.573,4.09,4.09,0,0,1,2.968,1.112,4.464,4.464,0,0,1,1.282,3.021l.017.614a4.694,4.694,0,0,1-1.154,3.316,4.011,4.011,0,0,1-3.1,1.249,4.031,4.031,0,0,1-3.1-1.245,4.777,4.777,0,0,1-1.158-3.387Zm2.4.17a3.357,3.357,0,0,0,.481,1.958,1.588,1.588,0,0,0,1.378.678,1.592,1.592,0,0,0,1.361-.669,3.674,3.674,0,0,0,.49-2.141,3.324,3.324,0,0,0-.49-1.945,1.592,1.592,0,0,0-1.378-.69,1.566,1.566,0,0,0-1.361.686A3.735,3.735,0,0,0,50.726-4.4Zm19.905,0a5.387,5.387,0,0,1-.942,3.324A3.021,3.021,0,0,1,67.145.166a2.8,2.8,0,0,1-2.2-.946V3.453h-2.4V-8.981h2.225l.083.88a2.819,2.819,0,0,1,2.274-1.046A3.041,3.041,0,0,1,69.71-7.919a5.532,5.532,0,0,1,.921,3.387Zm-2.4-.174a3.535,3.535,0,0,0-.444-1.934A1.446,1.446,0,0,0,66.5-7.2a1.571,1.571,0,0,0-1.552.863v3.677a1.6,1.6,0,0,0,1.569.888Q68.232-1.768,68.232-4.582Zm3.511.008a5.326,5.326,0,0,1,.515-2.382A3.768,3.768,0,0,1,73.74-8.575a4.323,4.323,0,0,1,2.245-.573,4.09,4.09,0,0,1,2.968,1.112,4.464,4.464,0,0,1,1.282,3.021l.017.614A4.694,4.694,0,0,1,79.1-1.083,4.011,4.011,0,0,1,76,.166a4.031,4.031,0,0,1-3.1-1.245,4.777,4.777,0,0,1-1.158-3.387Zm2.4.17a3.357,3.357,0,0,0,.481,1.958A1.588,1.588,0,0,0,76-1.768a1.592,1.592,0,0,0,1.361-.669,3.674,3.674,0,0,0,.49-2.141,3.324,3.324,0,0,0-.49-1.945,1.592,1.592,0,0,0-1.378-.69,1.566,1.566,0,0,0-1.361.686A3.736,3.736,0,0,0,74.143-4.4ZM86.776-6.732a6.517,6.517,0,0,0-.863-.066,1.757,1.757,0,0,0-1.785.921V0h-2.4V-8.981H84l.066,1.071a2.223,2.223,0,0,1,2-1.237,2.514,2.514,0,0,1,.747.108ZM95.9-1.768a1.573,1.573,0,0,0,1.079-.365A1.28,1.28,0,0,0,97.41-3.1h2.25a3.077,3.077,0,0,1-.5,1.673A3.286,3.286,0,0,1,97.821-.253a4.2,4.2,0,0,1-1.88.419A3.9,3.9,0,0,1,92.9-1.058,4.845,4.845,0,0,1,91.79-4.441V-4.6a4.79,4.79,0,0,1,1.1-3.312,3.854,3.854,0,0,1,3.03-1.237,3.778,3.778,0,0,1,2.7.959,3.4,3.4,0,0,1,1.033,2.552H97.41a1.648,1.648,0,0,0-.432-1.139,1.439,1.439,0,0,0-1.1-.438,1.445,1.445,0,0,0-1.266.611,3.541,3.541,0,0,0-.427,1.983v.249a3.586,3.586,0,0,0,.423,2A1.463,1.463,0,0,0,95.9-1.768Zm4.756-2.806a5.326,5.326,0,0,1,.515-2.382,3.768,3.768,0,0,1,1.482-1.619,4.323,4.323,0,0,1,2.245-.573,4.09,4.09,0,0,1,2.968,1.112,4.464,4.464,0,0,1,1.282,3.021l.017.614a4.694,4.694,0,0,1-1.154,3.316,4.011,4.011,0,0,1-3.1,1.249,4.031,4.031,0,0,1-3.1-1.245,4.777,4.777,0,0,1-1.158-3.387Zm2.4.17a3.357,3.357,0,0,0,.481,1.958,1.588,1.588,0,0,0,1.378.678,1.592,1.592,0,0,0,1.361-.669,3.674,3.674,0,0,0,.49-2.141,3.324,3.324,0,0,0-.49-1.945,1.592,1.592,0,0,0-1.378-.69,1.566,1.566,0,0,0-1.361.686A3.736,3.736,0,0,0,103.054-4.4Zm9.836-4.578.075,1a3.156,3.156,0,0,1,2.582-1.17,2.4,2.4,0,0,1,2.382,1.37,3.084,3.084,0,0,1,2.7-1.37A2.679,2.679,0,0,1,122.8-8.3a3.911,3.911,0,0,1,.714,2.561V0h-2.407V-5.728a1.71,1.71,0,0,0-.3-1.116,1.324,1.324,0,0,0-1.054-.353,1.5,1.5,0,0,0-1.494,1.029L118.27,0h-2.4V-5.719a1.689,1.689,0,0,0-.307-1.129,1.337,1.337,0,0,0-1.046-.349,1.555,1.555,0,0,0-1.478.847V0h-2.4V-8.981Zm20.553,4.574a5.387,5.387,0,0,1-.942,3.324A3.021,3.021,0,0,1,129.957.166a2.8,2.8,0,0,1-2.2-.946V3.453h-2.4V-8.981h2.225l.083.88a2.819,2.819,0,0,1,2.274-1.046,3.041,3.041,0,0,1,2.582,1.229,5.532,5.532,0,0,1,.921,3.387Zm-2.4-.174a3.535,3.535,0,0,0-.444-1.934A1.446,1.446,0,0,0,129.31-7.2a1.571,1.571,0,0,0-1.552.863v3.677a1.6,1.6,0,0,0,1.569.888Q131.044-1.768,131.044-4.582ZM139.063.166a4.409,4.409,0,0,1-3.217-1.212,4.308,4.308,0,0,1-1.241-3.229v-.232a5.426,5.426,0,0,1,.523-2.42,3.838,3.838,0,0,1,1.482-1.644,4.159,4.159,0,0,1,2.187-.577,3.727,3.727,0,0,1,2.9,1.162,4.722,4.722,0,0,1,1.058,3.3v.979h-5.719a2.228,2.228,0,0,0,.7,1.411,2.12,2.12,0,0,0,1.482.531,2.589,2.589,0,0,0,2.167-1l1.179,1.32A3.6,3.6,0,0,1,141.1-.261,4.793,4.793,0,0,1,139.063.166Zm-.274-7.379a1.5,1.5,0,0,0-1.158.484,2.5,2.5,0,0,0-.569,1.384H140.4v-.192a1.786,1.786,0,0,0-.432-1.238A1.547,1.547,0,0,0,138.789-7.213Zm8.2-3.976v2.208h1.536v1.76H146.99v4.482a1.07,1.07,0,0,0,.191.714.959.959,0,0,0,.73.216,3.826,3.826,0,0,0,.706-.058V-.05a4.939,4.939,0,0,1-1.453.216,2.29,2.29,0,0,1-2.573-2.548V-7.222H143.28v-1.76h1.312v-2.208ZM154,.166a4.409,4.409,0,0,1-3.217-1.212,4.308,4.308,0,0,1-1.241-3.229v-.232a5.426,5.426,0,0,1,.523-2.42,3.838,3.838,0,0,1,1.482-1.644,4.159,4.159,0,0,1,2.187-.577,3.727,3.727,0,0,1,2.9,1.162,4.722,4.722,0,0,1,1.058,3.3v.979h-5.719a2.228,2.228,0,0,0,.7,1.411,2.12,2.12,0,0,0,1.482.531,2.589,2.589,0,0,0,2.167-1l1.179,1.32a3.6,3.6,0,0,1-1.461,1.191A4.793,4.793,0,0,1,154,.166Zm-.274-7.379a1.5,1.5,0,0,0-1.158.484A2.5,2.5,0,0,0,152-5.346h3.337v-.192a1.786,1.786,0,0,0-.432-1.238A1.547,1.547,0,0,0,153.722-7.213Zm7.537-1.768.075,1.038a3.136,3.136,0,0,1,2.582-1.2,2.606,2.606,0,0,1,2.125.838,3.912,3.912,0,0,1,.714,2.507V0h-2.4V-5.744a1.556,1.556,0,0,0-.332-1.108,1.486,1.486,0,0,0-1.1-.344,1.65,1.65,0,0,0-1.519.863V0H159V-8.981Zm11.048,7.213a1.573,1.573,0,0,0,1.079-.365,1.28,1.28,0,0,0,.432-.971h2.25a3.077,3.077,0,0,1-.5,1.673,3.286,3.286,0,0,1-1.341,1.179,4.2,4.2,0,0,1-1.88.419,3.9,3.9,0,0,1-3.038-1.224A4.845,4.845,0,0,1,168.2-4.441V-4.6a4.79,4.79,0,0,1,1.1-3.312,3.854,3.854,0,0,1,3.03-1.237,3.778,3.778,0,0,1,2.7.959,3.4,3.4,0,0,1,1.033,2.552h-2.25a1.648,1.648,0,0,0-.432-1.139,1.439,1.439,0,0,0-1.1-.438,1.445,1.445,0,0,0-1.266.611A3.541,3.541,0,0,0,170.6-4.62v.249a3.586,3.586,0,0,0,.423,2A1.463,1.463,0,0,0,172.308-1.768ZM179.969,0h-2.407V-8.981h2.407Zm-2.548-11.306a1.181,1.181,0,0,1,.361-.888,1.356,1.356,0,0,1,.984-.349,1.36,1.36,0,0,1,.979.349,1.175,1.175,0,0,1,.365.888,1.178,1.178,0,0,1-.369.9,1.363,1.363,0,0,1-.975.349,1.363,1.363,0,0,1-.975-.349A1.178,1.178,0,0,1,177.421-11.306ZM187.149,0a2.664,2.664,0,0,1-.241-.805,2.9,2.9,0,0,1-2.266.971A3.189,3.189,0,0,1,182.455-.6a2.456,2.456,0,0,1-.867-1.926,2.538,2.538,0,0,1,1.058-2.191,5.222,5.222,0,0,1,3.059-.772h1.1V-6a1.48,1.48,0,0,0-.32-1,1.257,1.257,0,0,0-1.009-.374,1.429,1.429,0,0,0-.95.291.987.987,0,0,0-.344.8h-2.4a2.41,2.41,0,0,1,.481-1.444A3.182,3.182,0,0,1,183.63-8.77a4.961,4.961,0,0,1,1.976-.378,3.92,3.92,0,0,1,2.635.834,2.918,2.918,0,0,1,.975,2.345v3.893a4.294,4.294,0,0,0,.357,1.934V0Zm-1.984-1.668a2.066,2.066,0,0,0,.979-.237,1.554,1.554,0,0,0,.664-.635V-4.084h-.9q-1.8,0-1.917,1.245l-.008.141a.96.96,0,0,0,.315.739A1.225,1.225,0,0,0,185.166-1.668Zm10.758-.813a.773.773,0,0,0-.436-.693,4.95,4.95,0,0,0-1.4-.452q-3.2-.672-3.2-2.723a2.468,2.468,0,0,1,.992-2,4,4,0,0,1,2.594-.8,4.307,4.307,0,0,1,2.735.805,2.538,2.538,0,0,1,1.025,2.092h-2.4A1.161,1.161,0,0,0,195.5-7.1a1.405,1.405,0,0,0-1.038-.336,1.436,1.436,0,0,0-.938.274.865.865,0,0,0-.332.7.739.739,0,0,0,.378.643,3.885,3.885,0,0,0,1.274.423,10.407,10.407,0,0,1,1.511.4,2.482,2.482,0,0,1,1.9,2.416A2.343,2.343,0,0,1,197.2-.594a4.548,4.548,0,0,1-2.723.76,4.75,4.75,0,0,1-2-.4,3.363,3.363,0,0,1-1.374-1.1,2.565,2.565,0,0,1-.5-1.515h2.274a1.252,1.252,0,0,0,.473.979,1.877,1.877,0,0,0,1.179.34,1.737,1.737,0,0,0,1.042-.261A.814.814,0,0,0,195.923-2.482Z" transform="translate(621.026 2994)" fill="#12263f"/>
    <path id="Trazado_190416" data-name="Trazado 190416" d="M2.443-8.531,5.232-1.57,8.021-8.531H9.48V0H8.355V-3.322l.105-3.586L5.66,0H4.8L2-6.891l.111,3.568V0H.99V-8.531ZM15.211,0a2.277,2.277,0,0,1-.152-.668,2.419,2.419,0,0,1-1.8.785,2.238,2.238,0,0,1-1.538-.53,1.716,1.716,0,0,1-.6-1.345A1.792,1.792,0,0,1,11.868-3.3a3.55,3.55,0,0,1,2.118-.548h1.055v-.5a1.217,1.217,0,0,0-.34-.905,1.366,1.366,0,0,0-1-.337,1.581,1.581,0,0,0-.973.293.863.863,0,0,0-.393.709h-1.09a1.5,1.5,0,0,1,.337-.917,2.3,2.3,0,0,1,.914-.7,3.075,3.075,0,0,1,1.269-.258,2.506,2.506,0,0,1,1.717.548A1.976,1.976,0,0,1,16.125-4.4v2.918a3.567,3.567,0,0,0,.223,1.389V0Zm-1.8-.826a1.905,1.905,0,0,0,.967-.264,1.6,1.6,0,0,0,.662-.686v-1.3h-.85Q12.2-3.076,12.2-1.91a.987.987,0,0,0,.34.8A1.306,1.306,0,0,0,13.412-.826Zm7.477-4.541a3.248,3.248,0,0,0-.533-.041,1.428,1.428,0,0,0-1.447.908V0H17.824V-6.34h1.055l.018.732a1.688,1.688,0,0,1,1.512-.85,1.107,1.107,0,0,1,.48.082Zm3-2.508V-6.34h1.184V-5.5H23.888v3.937a.88.88,0,0,0,.158.572.666.666,0,0,0,.539.191,2.624,2.624,0,0,0,.516-.07V0a3.161,3.161,0,0,1-.832.116,1.35,1.35,0,0,1-1.1-.439A1.888,1.888,0,0,1,22.8-1.57V-5.5H21.65V-6.34H22.8V-7.875Zm3.533,2.3A2.3,2.3,0,0,1,29.3-6.457q2.01,0,2.027,2.268V0H30.24V-4.2a1.459,1.459,0,0,0-.313-1.014,1.256,1.256,0,0,0-.958-.328,1.564,1.564,0,0,0-.926.281,1.91,1.91,0,0,0-.621.738V0H26.338V-9h1.084ZM36.861,0a2.277,2.277,0,0,1-.152-.668,2.419,2.419,0,0,1-1.8.785,2.238,2.238,0,0,1-1.538-.53,1.716,1.716,0,0,1-.6-1.345A1.792,1.792,0,0,1,33.518-3.3a3.55,3.55,0,0,1,2.118-.548h1.055v-.5a1.217,1.217,0,0,0-.34-.905,1.366,1.366,0,0,0-1-.337,1.581,1.581,0,0,0-.973.293.863.863,0,0,0-.393.709h-1.09a1.5,1.5,0,0,1,.337-.917,2.3,2.3,0,0,1,.914-.7,3.075,3.075,0,0,1,1.269-.258,2.506,2.506,0,0,1,1.717.548A1.976,1.976,0,0,1,37.775-4.4v2.918A3.567,3.567,0,0,0,38-.094V0Zm-1.8-.826a1.905,1.905,0,0,0,.967-.264,1.6,1.6,0,0,0,.662-.686v-1.3h-.85q-1.992,0-1.992,1.166a.987.987,0,0,0,.34.8A1.306,1.306,0,0,0,35.062-.826ZM47.326-2.232H43.752L42.949,0h-1.16l3.258-8.531h.984L49.295,0H48.14Zm-3.234-.92h2.9l-1.453-3.99ZM51.451,0H50.367V-9h1.084Zm2.912,0H53.279V-9h1.084Zm4.365.117a2.77,2.77,0,0,1-2.1-.847,3.142,3.142,0,0,1-.809-2.265v-.2a3.8,3.8,0,0,1,.36-1.685,2.811,2.811,0,0,1,1.008-1.16,2.534,2.534,0,0,1,1.4-.419,2.374,2.374,0,0,1,1.922.814A3.526,3.526,0,0,1,61.2-3.311v.451H56.906a2.254,2.254,0,0,0,.548,1.515,1.722,1.722,0,0,0,1.333.577A1.888,1.888,0,0,0,59.76-1a2.444,2.444,0,0,0,.7-.621l.662.516A2.662,2.662,0,0,1,58.728.117Zm-.135-5.684a1.446,1.446,0,0,0-1.1.478,2.321,2.321,0,0,0-.551,1.339h3.176v-.082a2.065,2.065,0,0,0-.445-1.28A1.361,1.361,0,0,0,58.594-5.566Zm7.553,3.885a.8.8,0,0,0-.331-.683,3.187,3.187,0,0,0-1.154-.419,5.457,5.457,0,0,1-1.307-.422,1.859,1.859,0,0,1-.715-.586,1.4,1.4,0,0,1-.231-.809,1.645,1.645,0,0,1,.659-1.318,2.574,2.574,0,0,1,1.685-.539A2.649,2.649,0,0,1,66.5-5.9a1.768,1.768,0,0,1,.671,1.424h-1.09a.979.979,0,0,0-.378-.768,1.416,1.416,0,0,0-.952-.322,1.482,1.482,0,0,0-.926.258.812.812,0,0,0-.334.674.658.658,0,0,0,.311.592,3.821,3.821,0,0,0,1.122.381,5.847,5.847,0,0,1,1.315.434,1.919,1.919,0,0,1,.747.606,1.491,1.491,0,0,1,.243.864A1.623,1.623,0,0,1,66.551-.4a2.851,2.851,0,0,1-1.764.513,3.193,3.193,0,0,1-1.348-.27,2.192,2.192,0,0,1-.917-.753,1.815,1.815,0,0,1-.331-1.046h1.084a1.122,1.122,0,0,0,.437.864,1.693,1.693,0,0,0,1.075.319,1.748,1.748,0,0,0,.987-.249A.765.765,0,0,0,66.146-1.682Zm5.426-1.781a9.059,9.059,0,0,1,.354-2.543,7.387,7.387,0,0,1,1.058-2.215,4.5,4.5,0,0,1,1.459-1.406l.223.715a4.667,4.667,0,0,0-1.4,2,8.687,8.687,0,0,0-.6,3.018l-.006.5A8.733,8.733,0,0,0,73.482.533a4.689,4.689,0,0,0,1.184,1.559l-.223.662A4.644,4.644,0,0,1,72.955,1.3,8.144,8.144,0,0,1,71.572-3.463ZM81.193,0H75.6V-.779l2.953-3.281a7.016,7.016,0,0,0,.905-1.21,2.019,2.019,0,0,0,.249-.964,1.531,1.531,0,0,0-.4-1.1,1.414,1.414,0,0,0-1.078-.428,1.674,1.674,0,0,0-1.257.46,1.757,1.757,0,0,0-.448,1.28H75.439a2.516,2.516,0,0,1,.759-1.9,2.813,2.813,0,0,1,2.03-.727,2.7,2.7,0,0,1,1.881.624A2.129,2.129,0,0,1,80.8-6.363a4.88,4.88,0,0,1-1.605,3L76.91-.885h4.283Zm1.283-.568a.679.679,0,0,1,.167-.469.636.636,0,0,1,.5-.187.655.655,0,0,1,.507.188.665.665,0,0,1,.173.469.629.629,0,0,1-.173.451.667.667,0,0,1-.507.182.648.648,0,0,1-.5-.182A.641.641,0,0,1,82.476-.568Zm8.373-3.07a4.958,4.958,0,0,1-.65,2.83,2.313,2.313,0,0,1-2.033.926,2.33,2.33,0,0,1-2.021-.905,4.706,4.706,0,0,1-.68-2.7V-4.939a4.847,4.847,0,0,1,.65-2.795,2.331,2.331,0,0,1,2.039-.914,2.352,2.352,0,0,1,2.027.882,4.678,4.678,0,0,1,.668,2.722ZM89.765-5.121a3.972,3.972,0,0,0-.387-2.007,1.331,1.331,0,0,0-1.225-.63,1.314,1.314,0,0,0-1.213.627A3.878,3.878,0,0,0,86.549-5.2v1.734a4.036,4.036,0,0,0,.4,2.042,1.329,1.329,0,0,0,1.216.659,1.31,1.31,0,0,0,1.192-.621,3.89,3.89,0,0,0,.407-1.957ZM95.8,0h-1.09V-7.225l-2.186.8v-.984l3.105-1.166h.17Zm7.43-8.537v.92h-.2a2.854,2.854,0,0,0-2.016.75,3.121,3.121,0,0,0-.867,2.045,2.314,2.314,0,0,1,1.84-.773,2.212,2.212,0,0,1,1.778.785,3.028,3.028,0,0,1,.665,2.027,3.019,3.019,0,0,1-.718,2.109,2.472,2.472,0,0,1-1.925.791A2.435,2.435,0,0,1,99.8-.823a3.727,3.727,0,0,1-.762-2.423v-.416a5.616,5.616,0,0,1,1-3.6,3.691,3.691,0,0,1,2.991-1.274Zm-1.424,3.844a1.729,1.729,0,0,0-1.025.334,1.74,1.74,0,0,0-.65.838v.4a2.8,2.8,0,0,0,.475,1.7,1.422,1.422,0,0,0,1.184.645,1.378,1.378,0,0,0,1.151-.539,2.237,2.237,0,0,0,.419-1.412,2.238,2.238,0,0,0-.425-1.421A1.362,1.362,0,0,0,101.806-4.693ZM108.328-3.4a9.063,9.063,0,0,1-.343,2.5,7.407,7.407,0,0,1-1.049,2.212,4.6,4.6,0,0,1-1.479,1.441l-.229-.662a4.711,4.711,0,0,0,1.45-2.147,9.29,9.29,0,0,0,.56-3.231v-.187a9.646,9.646,0,0,0-.258-2.288,7.722,7.722,0,0,0-.718-1.9,4.378,4.378,0,0,0-1.034-1.307l.229-.662A4.577,4.577,0,0,1,106.93-8.2a7.423,7.423,0,0,1,1.049,2.209A9.273,9.273,0,0,1,108.328-3.4Z" transform="translate(665.984 3023.125)" fill="#12263f"/>
    <path id="Trazado_190417" data-name="Trazado 190417" d="M35.282,0h192.2a35.282,35.282,0,1,1,0,70.565H35.282A35.282,35.282,0,0,1,35.282,0Z" transform="translate(589.143 3052.814)" fill="none" stroke="#29083a" stroke-width="3.881"/>
    <path id="Trazado_190418" data-name="Trazado 190418" d="M5.786-2.482a.773.773,0,0,0-.436-.693,4.95,4.95,0,0,0-1.4-.452Q.747-4.3.747-6.35a2.468,2.468,0,0,1,.992-2,4,4,0,0,1,2.594-.8,4.307,4.307,0,0,1,2.735.805A2.538,2.538,0,0,1,8.093-6.25h-2.4A1.161,1.161,0,0,0,5.362-7.1a1.405,1.405,0,0,0-1.038-.336,1.436,1.436,0,0,0-.938.274.865.865,0,0,0-.332.7.739.739,0,0,0,.378.643A3.885,3.885,0,0,0,4.707-5.4,10.407,10.407,0,0,1,6.217-5a2.482,2.482,0,0,1,1.9,2.416A2.343,2.343,0,0,1,7.064-.594a4.548,4.548,0,0,1-2.723.76,4.75,4.75,0,0,1-2-.4,3.363,3.363,0,0,1-1.374-1.1,2.565,2.565,0,0,1-.5-1.515H2.739a1.252,1.252,0,0,0,.473.979,1.877,1.877,0,0,0,1.179.34A1.737,1.737,0,0,0,5.433-1.8.814.814,0,0,0,5.786-2.482ZM13.8.166a4.409,4.409,0,0,1-3.217-1.212A4.308,4.308,0,0,1,9.338-4.275v-.232a5.426,5.426,0,0,1,.523-2.42,3.838,3.838,0,0,1,1.482-1.644,4.159,4.159,0,0,1,2.187-.577,3.727,3.727,0,0,1,2.9,1.162,4.722,4.722,0,0,1,1.058,3.3v.979H11.771a2.229,2.229,0,0,0,.7,1.411,2.12,2.12,0,0,0,1.482.531,2.589,2.589,0,0,0,2.167-1L17.3-1.453A3.6,3.6,0,0,1,15.838-.261,4.793,4.793,0,0,1,13.8.166Zm-.274-7.379a1.5,1.5,0,0,0-1.158.484A2.5,2.5,0,0,0,11.8-5.346h3.337v-.192A1.786,1.786,0,0,0,14.7-6.776,1.547,1.547,0,0,0,13.522-7.213ZM21.383,0H18.976V-12.75h2.407Zm6.109.166a4.409,4.409,0,0,1-3.217-1.212,4.308,4.308,0,0,1-1.241-3.229v-.232a5.426,5.426,0,0,1,.523-2.42,3.838,3.838,0,0,1,1.482-1.644,4.159,4.159,0,0,1,2.187-.577,3.727,3.727,0,0,1,2.9,1.162,4.722,4.722,0,0,1,1.058,3.3v.979H25.467a2.229,2.229,0,0,0,.7,1.411,2.12,2.12,0,0,0,1.482.531,2.589,2.589,0,0,0,2.167-1L31-1.453A3.6,3.6,0,0,1,29.534-.261,4.793,4.793,0,0,1,27.492.166Zm-.274-7.379a1.5,1.5,0,0,0-1.158.484,2.5,2.5,0,0,0-.569,1.384h3.337v-.192A1.786,1.786,0,0,0,28.4-6.776,1.547,1.547,0,0,0,27.218-7.213Zm9.064,5.445a1.573,1.573,0,0,0,1.079-.365,1.28,1.28,0,0,0,.432-.971h2.25a3.077,3.077,0,0,1-.5,1.673A3.286,3.286,0,0,1,38.2-.253a4.2,4.2,0,0,1-1.88.419,3.9,3.9,0,0,1-3.038-1.224,4.845,4.845,0,0,1-1.112-3.383V-4.6a4.79,4.79,0,0,1,1.1-3.312,3.854,3.854,0,0,1,3.03-1.237,3.778,3.778,0,0,1,2.7.959,3.4,3.4,0,0,1,1.033,2.552h-2.25a1.648,1.648,0,0,0-.432-1.139,1.439,1.439,0,0,0-1.1-.438A1.445,1.445,0,0,0,35-6.6a3.541,3.541,0,0,0-.427,1.983v.249a3.586,3.586,0,0,0,.423,2A1.463,1.463,0,0,0,36.283-1.768Zm8.865,0a1.573,1.573,0,0,0,1.079-.365,1.28,1.28,0,0,0,.432-.971h2.25a3.077,3.077,0,0,1-.5,1.673A3.286,3.286,0,0,1,47.07-.253a4.2,4.2,0,0,1-1.88.419,3.9,3.9,0,0,1-3.038-1.224,4.845,4.845,0,0,1-1.112-3.383V-4.6a4.79,4.79,0,0,1,1.1-3.312,3.854,3.854,0,0,1,3.03-1.237,3.778,3.778,0,0,1,2.7.959,3.4,3.4,0,0,1,1.033,2.552h-2.25a1.648,1.648,0,0,0-.432-1.139,1.439,1.439,0,0,0-1.1-.438,1.445,1.445,0,0,0-1.266.611,3.541,3.541,0,0,0-.427,1.983v.249a3.586,3.586,0,0,0,.423,2A1.463,1.463,0,0,0,45.148-1.768ZM52.81,0H50.4V-8.981H52.81ZM50.261-11.306a1.181,1.181,0,0,1,.361-.888,1.356,1.356,0,0,1,.984-.349,1.36,1.36,0,0,1,.979.349,1.175,1.175,0,0,1,.365.888,1.178,1.178,0,0,1-.369.9,1.363,1.363,0,0,1-.975.349,1.363,1.363,0,0,1-.975-.349A1.178,1.178,0,0,1,50.261-11.306Zm4.15,6.732a5.327,5.327,0,0,1,.515-2.382,3.767,3.767,0,0,1,1.482-1.619,4.323,4.323,0,0,1,2.245-.573,4.09,4.09,0,0,1,2.968,1.112A4.464,4.464,0,0,1,62.9-5.014l.017.614a4.694,4.694,0,0,1-1.154,3.316A4.011,4.011,0,0,1,58.67.166a4.031,4.031,0,0,1-3.1-1.245,4.777,4.777,0,0,1-1.158-3.387Zm2.4.17a3.357,3.357,0,0,0,.481,1.958,1.588,1.588,0,0,0,1.378.678,1.592,1.592,0,0,0,1.361-.669,3.674,3.674,0,0,0,.49-2.141,3.324,3.324,0,0,0-.49-1.945,1.592,1.592,0,0,0-1.378-.69,1.566,1.566,0,0,0-1.361.686A3.735,3.735,0,0,0,56.811-4.4Zm9.795-4.578.075,1.038a3.136,3.136,0,0,1,2.582-1.2,2.606,2.606,0,0,1,2.125.838A3.912,3.912,0,0,1,72.1-5.8V0H69.7V-5.744a1.556,1.556,0,0,0-.332-1.108,1.486,1.486,0,0,0-1.1-.344,1.65,1.65,0,0,0-1.519.863V0h-2.4V-8.981ZM79.123,0a2.664,2.664,0,0,1-.241-.805,2.9,2.9,0,0,1-2.266.971A3.189,3.189,0,0,1,74.429-.6a2.456,2.456,0,0,1-.867-1.926A2.538,2.538,0,0,1,74.62-4.715a5.222,5.222,0,0,1,3.059-.772h1.1V-6a1.48,1.48,0,0,0-.32-1,1.257,1.257,0,0,0-1.009-.374,1.429,1.429,0,0,0-.95.291.987.987,0,0,0-.344.8h-2.4a2.41,2.41,0,0,1,.481-1.444A3.182,3.182,0,0,1,75.6-8.77a4.961,4.961,0,0,1,1.976-.378,3.92,3.92,0,0,1,2.635.834,2.918,2.918,0,0,1,.975,2.345v3.893a4.294,4.294,0,0,0,.357,1.934V0ZM77.139-1.668a2.066,2.066,0,0,0,.979-.237,1.554,1.554,0,0,0,.664-.635V-4.084h-.9q-1.8,0-1.917,1.245L75.96-2.7a.96.96,0,0,0,.315.739A1.225,1.225,0,0,0,77.139-1.668ZM88.08-6.732a6.517,6.517,0,0,0-.863-.066,1.757,1.757,0,0,0-1.785.921V0h-2.4V-8.981H85.3l.066,1.071a2.223,2.223,0,0,1,2-1.237,2.514,2.514,0,0,1,.747.108Z" transform="translate(676.426 3093.394)" fill="#29083a"/>
    <path id="Trazado_190419" data-name="Trazado 190419" d="M35.282,0h192.2a35.282,35.282,0,1,1,0,70.565H35.282A35.282,35.282,0,0,1,35.282,0Z" transform="translate(311.151 3524.834)" fill="none" stroke="#29083a" stroke-width="3.881"/>
    <path id="Trazado_190420" data-name="Trazado 190420" d="M5.055.166A4.409,4.409,0,0,1,1.839-1.046,4.308,4.308,0,0,1,.6-4.275v-.232a5.426,5.426,0,0,1,.523-2.42A3.838,3.838,0,0,1,2.6-8.571,4.159,4.159,0,0,1,4.79-9.147a3.727,3.727,0,0,1,2.9,1.162,4.722,4.722,0,0,1,1.058,3.3v.979H3.03a2.229,2.229,0,0,0,.7,1.411,2.12,2.12,0,0,0,1.482.531,2.589,2.589,0,0,0,2.167-1l1.179,1.32A3.6,3.6,0,0,1,7.1-.261,4.793,4.793,0,0,1,5.055.166ZM4.781-7.213a1.5,1.5,0,0,0-1.158.484,2.5,2.5,0,0,0-.569,1.384H6.392v-.192A1.786,1.786,0,0,0,5.96-6.776,1.547,1.547,0,0,0,4.781-7.213ZM13.364-2.93l1.668-6.051H17.54L14.51,0H12.219L9.189-8.981H11.7ZM23.674,0a2.664,2.664,0,0,1-.241-.805,2.9,2.9,0,0,1-2.266.971A3.189,3.189,0,0,1,18.98-.6a2.456,2.456,0,0,1-.867-1.926,2.538,2.538,0,0,1,1.058-2.191,5.222,5.222,0,0,1,3.059-.772h1.1V-6a1.48,1.48,0,0,0-.32-1,1.257,1.257,0,0,0-1.009-.374,1.429,1.429,0,0,0-.95.291.987.987,0,0,0-.344.8h-2.4a2.41,2.41,0,0,1,.481-1.444A3.182,3.182,0,0,1,20.154-8.77a4.961,4.961,0,0,1,1.976-.378,3.92,3.92,0,0,1,2.635.834,2.918,2.918,0,0,1,.975,2.345v3.893A4.294,4.294,0,0,0,26.1-.141V0ZM21.69-1.668a2.066,2.066,0,0,0,.979-.237,1.554,1.554,0,0,0,.664-.635V-4.084h-.9q-1.8,0-1.917,1.245l-.008.141a.96.96,0,0,0,.315.739A1.225,1.225,0,0,0,21.69-1.668ZM30.115,0H27.708V-12.75h2.407ZM37.47-.913A3.008,3.008,0,0,1,35.013.166a2.837,2.837,0,0,1-2.2-.83A3.543,3.543,0,0,1,32.033-3.1V-8.981h2.4v5.809q0,1.4,1.278,1.4a1.732,1.732,0,0,0,1.677-.848V-8.981h2.407V0H37.536ZM46.808,0a2.664,2.664,0,0,1-.241-.805A2.9,2.9,0,0,1,44.3.166,3.189,3.189,0,0,1,42.114-.6a2.456,2.456,0,0,1-.867-1.926A2.538,2.538,0,0,1,42.3-4.715a5.222,5.222,0,0,1,3.059-.772h1.1V-6a1.48,1.48,0,0,0-.32-1,1.257,1.257,0,0,0-1.009-.374,1.429,1.429,0,0,0-.95.291.987.987,0,0,0-.344.8h-2.4a2.41,2.41,0,0,1,.481-1.444A3.182,3.182,0,0,1,43.289-8.77a4.961,4.961,0,0,1,1.976-.378,3.92,3.92,0,0,1,2.635.834,2.918,2.918,0,0,1,.975,2.345v3.893a4.294,4.294,0,0,0,.357,1.934V0ZM44.824-1.668a2.066,2.066,0,0,0,.979-.237,1.554,1.554,0,0,0,.664-.635V-4.084h-.9q-1.8,0-1.917,1.245l-.008.141a.96.96,0,0,0,.315.739A1.225,1.225,0,0,0,44.824-1.668Zm10.94-5.063A6.517,6.517,0,0,0,54.9-6.8a1.757,1.757,0,0,0-1.785.921V0h-2.4V-8.981h2.266l.066,1.071a2.223,2.223,0,0,1,2-1.237,2.514,2.514,0,0,1,.747.108Z" transform="translate(414.641 3565.426)" fill="#29083a"/>
    <path id="Trazado_190421" data-name="Trazado 190421" d="M35.282,0h192.2a35.282,35.282,0,1,1,0,70.565H35.282A35.282,35.282,0,0,1,35.282,0Z" transform="translate(868.385 3524.834)" fill="none" stroke="#29083a" stroke-width="3.881"/>
    <path id="Trazado_190422" data-name="Trazado 190422" d="M.548-4.557A5.413,5.413,0,0,1,1.49-7.9,3.057,3.057,0,0,1,4.067-9.147a2.751,2.751,0,0,1,2.167.979V-12.75H8.641V0H6.475L6.358-.955A2.823,2.823,0,0,1,4.051.166,3.049,3.049,0,0,1,1.507-1.083,5.587,5.587,0,0,1,.548-4.557Zm2.4.179a3.546,3.546,0,0,0,.44,1.937,1.433,1.433,0,0,0,1.278.673,1.605,1.605,0,0,0,1.569-.939v-3.55A1.582,1.582,0,0,0,4.682-7.2Q2.947-7.2,2.947-4.379ZM14.634.166a4.409,4.409,0,0,1-3.217-1.212,4.308,4.308,0,0,1-1.241-3.229v-.232a5.426,5.426,0,0,1,.523-2.42,3.838,3.838,0,0,1,1.482-1.644,4.159,4.159,0,0,1,2.187-.577,3.727,3.727,0,0,1,2.9,1.162,4.722,4.722,0,0,1,1.058,3.3v.979H12.609a2.229,2.229,0,0,0,.7,1.411,2.12,2.12,0,0,0,1.482.531,2.589,2.589,0,0,0,2.167-1l1.179,1.32A3.6,3.6,0,0,1,16.676-.261,4.793,4.793,0,0,1,14.634.166ZM14.36-7.213A1.5,1.5,0,0,0,13.2-6.73a2.5,2.5,0,0,0-.569,1.384h3.337v-.192a1.786,1.786,0,0,0-.432-1.238A1.547,1.547,0,0,0,14.36-7.213ZM24.554-2.482a.773.773,0,0,0-.436-.693,4.95,4.95,0,0,0-1.4-.452q-3.2-.672-3.2-2.723a2.468,2.468,0,0,1,.992-2,4,4,0,0,1,2.594-.8,4.307,4.307,0,0,1,2.735.805A2.538,2.538,0,0,1,26.861-6.25h-2.4A1.161,1.161,0,0,0,24.13-7.1a1.405,1.405,0,0,0-1.038-.336,1.436,1.436,0,0,0-.938.274.865.865,0,0,0-.332.7.739.739,0,0,0,.378.643,3.885,3.885,0,0,0,1.274.423,10.407,10.407,0,0,1,1.511.4,2.482,2.482,0,0,1,1.9,2.416A2.343,2.343,0,0,1,25.832-.594a4.548,4.548,0,0,1-2.723.76,4.75,4.75,0,0,1-2-.4,3.363,3.363,0,0,1-1.374-1.1,2.565,2.565,0,0,1-.5-1.515h2.274a1.252,1.252,0,0,0,.473.979,1.877,1.877,0,0,0,1.179.34A1.737,1.737,0,0,0,24.2-1.8.814.814,0,0,0,24.554-2.482ZM33.635,0a2.664,2.664,0,0,1-.241-.805,2.9,2.9,0,0,1-2.266.971A3.189,3.189,0,0,1,28.941-.6a2.456,2.456,0,0,1-.867-1.926,2.538,2.538,0,0,1,1.058-2.191,5.222,5.222,0,0,1,3.059-.772h1.1V-6a1.48,1.48,0,0,0-.32-1,1.257,1.257,0,0,0-1.009-.374,1.429,1.429,0,0,0-.95.291.987.987,0,0,0-.344.8h-2.4a2.41,2.41,0,0,1,.481-1.444A3.182,3.182,0,0,1,30.115-8.77a4.961,4.961,0,0,1,1.976-.378,3.92,3.92,0,0,1,2.635.834A2.918,2.918,0,0,1,35.7-5.968v3.893a4.294,4.294,0,0,0,.357,1.934V0ZM31.651-1.668a2.066,2.066,0,0,0,.979-.237,1.554,1.554,0,0,0,.664-.635V-4.084h-.9q-1.8,0-1.917,1.245l-.008.141a.96.96,0,0,0,.315.739A1.225,1.225,0,0,0,31.651-1.668Zm10.94-5.063a6.517,6.517,0,0,0-.863-.066,1.757,1.757,0,0,0-1.785.921V0h-2.4V-8.981h2.266l.066,1.071a2.223,2.223,0,0,1,2-1.237,2.514,2.514,0,0,1,.747.108Zm6.2,0a6.517,6.517,0,0,0-.863-.066,1.757,1.757,0,0,0-1.785.921V0h-2.4V-8.981h2.266l.066,1.071a2.223,2.223,0,0,1,2-1.237,2.514,2.514,0,0,1,.747.108Zm.141,2.158a5.327,5.327,0,0,1,.515-2.382A3.767,3.767,0,0,1,50.93-8.575a4.323,4.323,0,0,1,2.245-.573,4.09,4.09,0,0,1,2.968,1.112,4.464,4.464,0,0,1,1.282,3.021l.017.614a4.694,4.694,0,0,1-1.154,3.316,4.011,4.011,0,0,1-3.1,1.249,4.031,4.031,0,0,1-3.1-1.245,4.777,4.777,0,0,1-1.158-3.387Zm2.4.17a3.357,3.357,0,0,0,.481,1.958,1.588,1.588,0,0,0,1.378.678,1.592,1.592,0,0,0,1.361-.669,3.674,3.674,0,0,0,.49-2.141,3.324,3.324,0,0,0-.49-1.945,1.592,1.592,0,0,0-1.378-.69,1.566,1.566,0,0,0-1.361.686A3.735,3.735,0,0,0,51.332-4.4ZM61.451,0H59.044V-12.75h2.407Zm4.507,0H63.551V-12.75h2.407Zm7.18,0A2.664,2.664,0,0,1,72.9-.805a2.9,2.9,0,0,1-2.266.971A3.189,3.189,0,0,1,68.444-.6a2.456,2.456,0,0,1-.867-1.926,2.538,2.538,0,0,1,1.058-2.191,5.222,5.222,0,0,1,3.059-.772h1.1V-6a1.48,1.48,0,0,0-.32-1,1.257,1.257,0,0,0-1.009-.374,1.429,1.429,0,0,0-.95.291.987.987,0,0,0-.344.8h-2.4a2.41,2.41,0,0,1,.481-1.444A3.182,3.182,0,0,1,69.619-8.77a4.961,4.961,0,0,1,1.976-.378,3.92,3.92,0,0,1,2.635.834,2.918,2.918,0,0,1,.975,2.345v3.893a4.294,4.294,0,0,0,.357,1.934V0ZM71.155-1.668a2.066,2.066,0,0,0,.979-.237A1.554,1.554,0,0,0,72.8-2.54V-4.084h-.9q-1.8,0-1.917,1.245l-.008.141a.96.96,0,0,0,.315.739A1.225,1.225,0,0,0,71.155-1.668ZM82.1-6.732a6.517,6.517,0,0,0-.863-.066,1.757,1.757,0,0,0-1.785.921V0h-2.4V-8.981h2.266l.066,1.071a2.223,2.223,0,0,1,2-1.237,2.514,2.514,0,0,1,.747.108Z" transform="translate(958.817 3565.426)" fill="#29083a"/>
    <path id="Trazado_190423" data-name="Trazado 190423" d="M30.66,0H161.614a30.66,30.66,0,0,1,30.66,30.66v4.774a30.66,30.66,0,0,1-30.66,30.66H30.66A30.66,30.66,0,0,1,0,35.434V30.66A30.66,30.66,0,0,1,30.66,0Z" transform="translate(513.748 3141.921)" fill="#b13e8d"/>
    <g id="Grupo" transform="translate(562.961 3153.519)">
      <text id="competencias" transform="translate(0 16)" fill="#fff" font-size="15" font-family="Roboto-Regular, Roboto"><tspan x="0" y="0">competencias</tspan></text>
      <text id="básicas" transform="translate(23.962 36.189)" fill="#fff" font-size="15" font-family="Roboto-Regular, Roboto"><tspan x="0" y="0">básicas</tspan></text>
    </g>
    <path id="Trazado_190424" data-name="Trazado 190424" d="M30.66,0H161.614a30.66,30.66,0,0,1,30.66,30.66v4.774a30.66,30.66,0,0,1-30.66,30.66H30.66A30.66,30.66,0,0,1,0,35.434V30.66A30.66,30.66,0,0,1,30.66,0Z" transform="translate(843.81 3141.921)" fill="#b13e8d"/>
    <g id="Grupo-2" data-name="Grupo" transform="translate(893.035 3153.519)">
      <text id="competencias-2" data-name="competencias" transform="translate(0 16)" fill="#fff" font-size="15" font-family="Roboto-Regular, Roboto"><tspan x="0" y="0">competencias</tspan></text>
      <text id="genéricas" transform="translate(16.475 36.189)" fill="#fff" font-size="15" font-family="Roboto-Regular, Roboto"><tspan x="0" y="0">genéricas</tspan></text>
    </g>
    <path id="Trazado_190425" data-name="Trazado 190425" d="M30.66,0H161.614a30.66,30.66,0,0,1,30.66,30.66v4.774a30.66,30.66,0,0,1-30.66,30.66H30.66A30.66,30.66,0,0,1,0,35.434V30.66A30.66,30.66,0,0,1,30.66,0Z" transform="translate(678.778 3244.932)" fill="#b13e8d"/>
    <g id="Grupo-3" data-name="Grupo" transform="translate(728.004 3256.529)">
      <text id="competencias-3" data-name="competencias" transform="translate(0 16)" fill="#fff" font-size="15" font-family="Roboto-Regular, Roboto"><tspan x="0" y="0">competencias</tspan></text>
      <text id="específicas" transform="translate(10.227 36.189)" fill="#fff" font-size="15" font-family="Roboto-Regular, Roboto"><tspan x="0" y="0">específicas</tspan></text>
    </g>
    <path id="Trazado_190426" data-name="Trazado 190426" d="M30.66,0H161.614a30.66,30.66,0,0,1,30.66,30.66v4.774a30.66,30.66,0,0,1-30.66,30.66H30.66A30.66,30.66,0,0,1,0,35.434V30.66A30.66,30.66,0,0,1,30.66,0Z" transform="translate(678.778 3337.716)" fill="#693fb7"/>
    <path id="Trazado_190427" data-name="Trazado 190427" d="M4.2-.959A1.952,1.952,0,0,0,5.471-1.4a1.546,1.546,0,0,0,.6-1.1H7.354a2.457,2.457,0,0,1-.469,1.3A3.087,3.087,0,0,1,5.731-.22,3.329,3.329,0,0,1,4.2.146,3.265,3.265,0,0,1,1.63-.934,4.3,4.3,0,0,1,.674-3.889v-.227A4.771,4.771,0,0,1,1.1-6.174a3.236,3.236,0,0,1,1.219-1.4,3.464,3.464,0,0,1,1.879-.5,3.178,3.178,0,0,1,2.216.8A2.853,2.853,0,0,1,7.354-5.2H6.072A1.867,1.867,0,0,0,5.49-6.464,1.811,1.811,0,0,0,4.2-6.958a1.9,1.9,0,0,0-1.6.743,3.491,3.491,0,0,0-.568,2.15v.256A3.422,3.422,0,0,0,2.593-1.7,1.906,1.906,0,0,0,4.2-.959ZM8.518-4.036A4.681,4.681,0,0,1,8.976-6.13,3.415,3.415,0,0,1,10.25-7.566a3.469,3.469,0,0,1,1.864-.505,3.342,3.342,0,0,1,2.618,1.121,4.311,4.311,0,0,1,1,2.981v.1A4.722,4.722,0,0,1,15.289-1.8,3.365,3.365,0,0,1,14.022-.366a3.509,3.509,0,0,1-1.893.513A3.334,3.334,0,0,1,9.518-.974a4.29,4.29,0,0,1-1-2.966Zm1.362.161a3.39,3.39,0,0,0,.612,2.117,1.957,1.957,0,0,0,1.637.8,1.945,1.945,0,0,0,1.641-.809,3.707,3.707,0,0,0,.608-2.267,3.384,3.384,0,0,0-.619-2.113,1.968,1.968,0,0,0-1.644-.809,1.946,1.946,0,0,0-1.619.8A3.68,3.68,0,0,0,9.88-3.875Zm8.826-4.05.037.879a2.927,2.927,0,0,1,2.351-1.025A2.266,2.266,0,0,1,23.357-6.8a3,3,0,0,1,1.029-.923,3.039,3.039,0,0,1,1.5-.352q2.607,0,2.651,2.761V0H27.18V-5.229A1.82,1.82,0,0,0,26.792-6.5a1.71,1.71,0,0,0-1.3-.421,1.8,1.8,0,0,0-1.252.45,1.827,1.827,0,0,0-.579,1.212V0H22.295V-5.193A1.512,1.512,0,0,0,20.6-6.921a1.813,1.813,0,0,0-1.824,1.135V0H17.424V-7.925Zm18.567,4.05a4.745,4.745,0,0,1-.828,2.915A2.653,2.653,0,0,1,34.2.146a2.906,2.906,0,0,1-2.271-.916V3.047H30.579V-7.925h1.238l.066.879a2.791,2.791,0,0,1,2.3-1.025,2.7,2.7,0,0,1,2.26,1.077,4.8,4.8,0,0,1,.831,3Zm-1.355-.154a3.5,3.5,0,0,0-.571-2.117,1.84,1.84,0,0,0-1.567-.776A1.992,1.992,0,0,0,31.934-5.83v3.787a2,2,0,0,0,1.86,1.084,1.832,1.832,0,0,0,1.549-.773A3.822,3.822,0,0,0,35.918-4.028Zm2.717-.007a4.681,4.681,0,0,1,.458-2.095,3.415,3.415,0,0,1,1.274-1.436,3.469,3.469,0,0,1,1.864-.505A3.342,3.342,0,0,1,44.85-6.951a4.311,4.311,0,0,1,1,2.981v.1A4.722,4.722,0,0,1,45.406-1.8,3.365,3.365,0,0,1,44.139-.366a3.509,3.509,0,0,1-1.893.513A3.334,3.334,0,0,1,39.635-.974a4.29,4.29,0,0,1-1-2.966ZM40-3.875a3.39,3.39,0,0,0,.612,2.117,1.957,1.957,0,0,0,1.637.8,1.945,1.945,0,0,0,1.641-.809,3.707,3.707,0,0,0,.608-2.267,3.384,3.384,0,0,0-.619-2.113,1.968,1.968,0,0,0-1.644-.809,1.946,1.946,0,0,0-1.619.8A3.68,3.68,0,0,0,40-3.875ZM51.379-6.709a4.061,4.061,0,0,0-.667-.051A1.786,1.786,0,0,0,48.9-5.625V0H47.549V-7.925h1.318l.022.916a2.11,2.11,0,0,1,1.89-1.062,1.384,1.384,0,0,1,.6.1Zm3.75-3.135v1.919h1.479v1.047H55.129v4.921a1.1,1.1,0,0,0,.2.715A.832.832,0,0,0,56-1a3.281,3.281,0,0,0,.645-.088V0a3.951,3.951,0,0,1-1.04.146A1.687,1.687,0,0,1,54.236-.4a2.36,2.36,0,0,1-.461-1.56V-6.877H52.331V-7.925h1.443V-9.844ZM63.083,0a2.846,2.846,0,0,1-.19-.835,3.023,3.023,0,0,1-2.256.981,2.8,2.8,0,0,1-1.923-.663A2.145,2.145,0,0,1,57.964-2.2,2.24,2.24,0,0,1,58.9-4.12,4.437,4.437,0,0,1,61.552-4.8h1.318v-.623a1.522,1.522,0,0,0-.425-1.132,1.707,1.707,0,0,0-1.252-.421,1.976,1.976,0,0,0-1.216.366,1.079,1.079,0,0,0-.491.886H58.125a1.87,1.87,0,0,1,.421-1.146,2.874,2.874,0,0,1,1.143-.875,3.844,3.844,0,0,1,1.586-.322,3.133,3.133,0,0,1,2.146.685A2.47,2.47,0,0,1,64.226-5.5v3.647A4.459,4.459,0,0,0,64.5-.117V0ZM60.835-1.033a2.381,2.381,0,0,0,1.208-.33,1.994,1.994,0,0,0,.828-.857V-3.845H61.809q-2.49,0-2.49,1.458a1.234,1.234,0,0,0,.425,1A1.633,1.633,0,0,0,60.835-1.033Zm6.79-6.892.037.879a2.927,2.927,0,0,1,2.351-1.025A2.266,2.266,0,0,1,72.275-6.8,3,3,0,0,1,73.3-7.72a3.039,3.039,0,0,1,1.5-.352q2.607,0,2.651,2.761V0H76.1V-5.229A1.82,1.82,0,0,0,75.71-6.5a1.71,1.71,0,0,0-1.3-.421,1.8,1.8,0,0,0-1.252.45,1.827,1.827,0,0,0-.579,1.212V0H71.213V-5.193a1.512,1.512,0,0,0-1.692-1.729A1.813,1.813,0,0,0,67.7-5.786V0H66.342V-7.925ZM80.969,0H79.614V-7.925h1.355ZM79.5-10.027a.809.809,0,0,1,.2-.557.756.756,0,0,1,.6-.227.768.768,0,0,1,.6.227.8.8,0,0,1,.205.557.774.774,0,0,1-.205.549.782.782,0,0,1-.6.22.77.77,0,0,1-.6-.22A.782.782,0,0,1,79.5-10.027ZM86.425.146A3.463,3.463,0,0,1,83.8-.912a3.928,3.928,0,0,1-1.011-2.831v-.249a4.756,4.756,0,0,1,.45-2.106,3.514,3.514,0,0,1,1.26-1.45,3.167,3.167,0,0,1,1.754-.524,2.968,2.968,0,0,1,2.4,1.018,4.408,4.408,0,0,1,.857,2.915v.564H84.148a2.817,2.817,0,0,0,.685,1.893A2.153,2.153,0,0,0,86.5-.959a2.36,2.36,0,0,0,1.216-.293,3.055,3.055,0,0,0,.872-.776l.828.645A3.328,3.328,0,0,1,86.425.146Zm-.168-7.1a1.807,1.807,0,0,0-1.377.6,2.9,2.9,0,0,0-.688,1.674h3.97v-.1a2.581,2.581,0,0,0-.557-1.6A1.7,1.7,0,0,0,86.257-6.958Zm6.108-.967.044,1a2.888,2.888,0,0,1,2.373-1.143q2.512,0,2.534,2.834V0H95.962V-5.244a1.824,1.824,0,0,0-.392-1.267,1.57,1.57,0,0,0-1.2-.41,1.956,1.956,0,0,0-1.157.352,2.387,2.387,0,0,0-.776.923V0H91.084V-7.925ZM101.2-9.844v1.919h1.479v1.047H101.2v4.921a1.1,1.1,0,0,0,.2.715A.832.832,0,0,0,102.07-1a3.281,3.281,0,0,0,.645-.088V0a3.951,3.951,0,0,1-1.04.146A1.687,1.687,0,0,1,100.3-.4a2.36,2.36,0,0,1-.461-1.56V-6.877H98.4V-7.925h1.443V-9.844Zm2.556,5.808a4.681,4.681,0,0,1,.458-2.095,3.415,3.415,0,0,1,1.274-1.436,3.469,3.469,0,0,1,1.864-.505,3.342,3.342,0,0,1,2.618,1.121,4.311,4.311,0,0,1,1,2.981v.1a4.722,4.722,0,0,1-.443,2.076,3.365,3.365,0,0,1-1.267,1.432,3.509,3.509,0,0,1-1.893.513,3.334,3.334,0,0,1-2.611-1.121,4.29,4.29,0,0,1-1-2.966Zm1.362.161a3.39,3.39,0,0,0,.612,2.117,1.957,1.957,0,0,0,1.637.8,1.945,1.945,0,0,0,1.641-.809,3.707,3.707,0,0,0,.608-2.267A3.384,3.384,0,0,0,109-6.149a1.968,1.968,0,0,0-1.644-.809,1.946,1.946,0,0,0-1.619.8A3.68,3.68,0,0,0,105.117-3.875Z" transform="translate(717.474 3373.773)" fill="#fff"/>
    <path id="Trazado_190428" data-name="Trazado 190428" d="M30.66,0H161.614a30.66,30.66,0,0,1,30.66,30.66v4.774a30.66,30.66,0,0,1-30.66,30.66H30.66A30.66,30.66,0,0,1,0,35.434V30.66A30.66,30.66,0,0,1,30.66,0Z" transform="translate(843.81 3437.698)" fill="#6d3c8c"/>
    <g id="Grupo-4" data-name="Grupo" transform="translate(901.877 3449.536)">
      <text id="habilidades" transform="translate(0 16)" fill="#fff" font-size="15" font-family="Roboto-Regular, Roboto"><tspan x="0" y="0">habilidades</tspan></text>
      <text id="técnicas" transform="translate(11.308 36.189)" fill="#fff" font-size="15" font-family="Roboto-Regular, Roboto"><tspan x="0" y="0">técnicas</tspan></text>
    </g>
    <path id="Trazado_190429" data-name="Trazado 190429" d="M30.66,0H161.614a30.66,30.66,0,0,1,30.66,30.66v4.774a30.66,30.66,0,0,1-30.66,30.66H30.66A30.66,30.66,0,0,1,0,35.434V30.66A30.66,30.66,0,0,1,30.66,0Z" transform="translate(513.748 3437.698)" fill="#6d3c8c"/>
    <path id="Trazado_190430" data-name="Trazado 190430" d="M4.2-.959A1.952,1.952,0,0,0,5.471-1.4a1.546,1.546,0,0,0,.6-1.1H7.354a2.457,2.457,0,0,1-.469,1.3A3.087,3.087,0,0,1,5.731-.22,3.329,3.329,0,0,1,4.2.146,3.265,3.265,0,0,1,1.63-.934,4.3,4.3,0,0,1,.674-3.889v-.227A4.771,4.771,0,0,1,1.1-6.174a3.236,3.236,0,0,1,1.219-1.4,3.464,3.464,0,0,1,1.879-.5,3.178,3.178,0,0,1,2.216.8A2.853,2.853,0,0,1,7.354-5.2H6.072A1.867,1.867,0,0,0,5.49-6.464,1.811,1.811,0,0,0,4.2-6.958a1.9,1.9,0,0,0-1.6.743,3.491,3.491,0,0,0-.568,2.15v.256A3.422,3.422,0,0,0,2.593-1.7,1.906,1.906,0,0,0,4.2-.959ZM8.518-4.036A4.681,4.681,0,0,1,8.976-6.13,3.415,3.415,0,0,1,10.25-7.566a3.469,3.469,0,0,1,1.864-.505,3.342,3.342,0,0,1,2.618,1.121,4.311,4.311,0,0,1,1,2.981v.1A4.722,4.722,0,0,1,15.289-1.8,3.365,3.365,0,0,1,14.022-.366a3.509,3.509,0,0,1-1.893.513A3.334,3.334,0,0,1,9.518-.974a4.29,4.29,0,0,1-1-2.966Zm1.362.161a3.39,3.39,0,0,0,.612,2.117,1.957,1.957,0,0,0,1.637.8,1.945,1.945,0,0,0,1.641-.809,3.707,3.707,0,0,0,.608-2.267,3.384,3.384,0,0,0-.619-2.113,1.968,1.968,0,0,0-1.644-.809,1.946,1.946,0,0,0-1.619.8A3.68,3.68,0,0,0,9.88-3.875Zm8.833-4.05.044,1A2.888,2.888,0,0,1,21.13-8.071q2.512,0,2.534,2.834V0H22.31V-5.244a1.824,1.824,0,0,0-.392-1.267,1.57,1.57,0,0,0-1.2-.41,1.956,1.956,0,0,0-1.157.352,2.387,2.387,0,0,0-.776.923V0H17.432V-7.925Zm6.636,3.889a4.681,4.681,0,0,1,.458-2.095,3.415,3.415,0,0,1,1.274-1.436,3.469,3.469,0,0,1,1.864-.505,3.342,3.342,0,0,1,2.618,1.121,4.311,4.311,0,0,1,1,2.981v.1A4.722,4.722,0,0,1,32.12-1.8,3.365,3.365,0,0,1,30.853-.366,3.509,3.509,0,0,1,28.96.146,3.334,3.334,0,0,1,26.349-.974a4.29,4.29,0,0,1-1-2.966Zm1.362.161a3.39,3.39,0,0,0,.612,2.117,1.957,1.957,0,0,0,1.637.8A1.945,1.945,0,0,0,30.6-1.769a3.707,3.707,0,0,0,.608-2.267,3.384,3.384,0,0,0-.619-2.113,1.968,1.968,0,0,0-1.644-.809,1.946,1.946,0,0,0-1.619.8A3.68,3.68,0,0,0,26.711-3.875ZM37.441-.959A1.952,1.952,0,0,0,38.708-1.4a1.546,1.546,0,0,0,.6-1.1h1.282a2.457,2.457,0,0,1-.469,1.3,3.087,3.087,0,0,1-1.154.981,3.329,3.329,0,0,1-1.527.366,3.265,3.265,0,0,1-2.574-1.08,4.3,4.3,0,0,1-.956-2.955v-.227a4.771,4.771,0,0,1,.425-2.058,3.236,3.236,0,0,1,1.219-1.4,3.464,3.464,0,0,1,1.879-.5,3.178,3.178,0,0,1,2.216.8A2.853,2.853,0,0,1,40.591-5.2H39.309a1.867,1.867,0,0,0-.582-1.263,1.811,1.811,0,0,0-1.293-.494,1.9,1.9,0,0,0-1.6.743,3.491,3.491,0,0,0-.568,2.15v.256A3.422,3.422,0,0,0,35.83-1.7,1.906,1.906,0,0,0,37.441-.959ZM43.586,0H42.231V-7.925h1.355ZM42.122-10.027a.809.809,0,0,1,.2-.557.756.756,0,0,1,.6-.227.768.768,0,0,1,.6.227.8.8,0,0,1,.205.557.774.774,0,0,1-.205.549.782.782,0,0,1-.6.22.77.77,0,0,1-.6-.22A.782.782,0,0,1,42.122-10.027Zm4.907,2.1.037.879a2.927,2.927,0,0,1,2.351-1.025A2.266,2.266,0,0,1,51.68-6.8a3,3,0,0,1,1.029-.923,3.039,3.039,0,0,1,1.5-.352q2.607,0,2.651,2.761V0H55.5V-5.229A1.82,1.82,0,0,0,55.115-6.5a1.71,1.71,0,0,0-1.3-.421,1.8,1.8,0,0,0-1.252.45,1.827,1.827,0,0,0-.579,1.212V0H50.618V-5.193a1.512,1.512,0,0,0-1.692-1.729A1.813,1.813,0,0,0,47.1-5.786V0H45.747V-7.925ZM60.374,0H59.019V-7.925h1.355ZM58.909-10.027a.809.809,0,0,1,.2-.557.756.756,0,0,1,.6-.227.768.768,0,0,1,.6.227.8.8,0,0,1,.205.557.774.774,0,0,1-.205.549.782.782,0,0,1-.6.22.77.77,0,0,1-.6-.22A.782.782,0,0,1,58.909-10.027ZM65.83.146A3.463,3.463,0,0,1,63.208-.912,3.928,3.928,0,0,1,62.2-3.743v-.249a4.756,4.756,0,0,1,.45-2.106,3.514,3.514,0,0,1,1.26-1.45,3.167,3.167,0,0,1,1.754-.524,2.968,2.968,0,0,1,2.4,1.018,4.408,4.408,0,0,1,.857,2.915v.564H63.552a2.817,2.817,0,0,0,.685,1.893A2.153,2.153,0,0,0,65.9-.959a2.36,2.36,0,0,0,1.216-.293,3.055,3.055,0,0,0,.872-.776l.828.645A3.328,3.328,0,0,1,65.83.146Zm-.168-7.1a1.807,1.807,0,0,0-1.377.6A2.9,2.9,0,0,0,63.6-4.687h3.97v-.1a2.581,2.581,0,0,0-.557-1.6A1.7,1.7,0,0,0,65.662-6.958Zm6.108-.967.044,1a2.888,2.888,0,0,1,2.373-1.143q2.512,0,2.534,2.834V0H75.366V-5.244a1.824,1.824,0,0,0-.392-1.267,1.57,1.57,0,0,0-1.2-.41,1.956,1.956,0,0,0-1.157.352,2.387,2.387,0,0,0-.776.923V0H70.488V-7.925ZM80.6-9.844v1.919h1.479v1.047H80.6v4.921a1.1,1.1,0,0,0,.2.715A.832.832,0,0,0,81.475-1a3.281,3.281,0,0,0,.645-.088V0a3.951,3.951,0,0,1-1.04.146A1.687,1.687,0,0,1,79.709-.4a2.36,2.36,0,0,1-.461-1.56V-6.877H77.805V-7.925h1.443V-9.844Zm2.556,5.808a4.681,4.681,0,0,1,.458-2.095,3.415,3.415,0,0,1,1.274-1.436,3.469,3.469,0,0,1,1.864-.505,3.342,3.342,0,0,1,2.618,1.121,4.311,4.311,0,0,1,1,2.981v.1A4.722,4.722,0,0,1,89.93-1.8,3.365,3.365,0,0,1,88.663-.366,3.509,3.509,0,0,1,86.77.146,3.334,3.334,0,0,1,84.159-.974a4.29,4.29,0,0,1-1-2.966Zm1.362.161a3.39,3.39,0,0,0,.612,2.117,1.957,1.957,0,0,0,1.637.8,1.945,1.945,0,0,0,1.641-.809,3.707,3.707,0,0,0,.608-2.267A3.384,3.384,0,0,0,88.4-6.149a1.968,1.968,0,0,0-1.644-.809,1.946,1.946,0,0,0-1.619.8A3.68,3.68,0,0,0,84.521-3.875ZM96.687-2.1a1,1,0,0,0-.414-.853,3.983,3.983,0,0,0-1.443-.524A6.822,6.822,0,0,1,93.2-4.006a2.324,2.324,0,0,1-.894-.732,1.752,1.752,0,0,1-.289-1.011A2.056,2.056,0,0,1,92.838-7.4a3.218,3.218,0,0,1,2.106-.674,3.311,3.311,0,0,1,2.186.7,2.21,2.21,0,0,1,.839,1.78H96.606a1.223,1.223,0,0,0-.472-.959,1.77,1.77,0,0,0-1.19-.4,1.852,1.852,0,0,0-1.157.322,1.014,1.014,0,0,0-.417.842.822.822,0,0,0,.388.74,4.776,4.776,0,0,0,1.4.476,7.308,7.308,0,0,1,1.644.542,2.4,2.4,0,0,1,.934.758,1.864,1.864,0,0,1,.3,1.08,2.028,2.028,0,0,1-.85,1.7,3.564,3.564,0,0,1-2.2.641A3.991,3.991,0,0,1,93.3-.19a2.74,2.74,0,0,1-1.146-.941,2.268,2.268,0,0,1-.414-1.307H93.1a1.4,1.4,0,0,0,.546,1.08,2.117,2.117,0,0,0,1.344.4,2.185,2.185,0,0,0,1.234-.311A.956.956,0,0,0,96.687-2.1Z" transform="translate(560.485 3473.768)" fill="#fff"/>
    <path id="Trazado_190431" data-name="Trazado 190431" d="M0,0H281.777" transform="translate(579.637 3004.563)" fill="none" stroke="#707070" stroke-width="1.94"/>
    <path id="Trazado_190432" data-name="Trazado 190432" d="M0,0H235.127" transform="translate(354.016 3088.096)" fill="none" stroke="#29083a" stroke-width="3.881"/>
    <path id="Trazado_190433" data-name="Trazado 190433" d="M0,0V436.738" transform="translate(355.29 3088.096)" fill="none" stroke="#29083a" stroke-width="3.881"/>
    <path id="Trazado_190434" data-name="Trazado 190434" d="M233.469.637,0,0" transform="translate(851.909 3088.096)" fill="none" stroke="#29083a" stroke-width="3.881"/>
    <path id="Trazado_190435" data-name="Trazado 190435" d="M0,0V436.738" transform="translate(1084.116 3088.096)" fill="none" stroke="#29083a" stroke-width="3.881"/>
    <g id="Grupo_133363" data-name="Grupo 133363" transform="translate(503.212 3266.17)">
      <g id="Grupo_133362" data-name="Grupo 133362" transform="translate(20.283 5.542)">
        <path id="Trazado_189830" data-name="Trazado 189830" d="M397.233,608.246,380.416,590.6a1.026,1.026,0,0,0-1.769.708v8.341H356.408a1.024,1.024,0,0,0-1.025,1.025v16.567a1.024,1.024,0,0,0,1.025,1.025h22.239V626.6a1.023,1.023,0,0,0,.645.952,1.092,1.092,0,0,0,.38.073,1.024,1.024,0,0,0,.744-.317l16.817-17.65A1.021,1.021,0,0,0,397.233,608.246Zm-39.8-6.551h4.87v14.517h-4.87Zm11.8,14.517h-4.87V601.7h4.87Zm11.473,7.831v-6.8a1.024,1.024,0,0,0-1.025-1.025h-8.268V601.7h8.268a1.024,1.024,0,0,0,1.025-1.025v-6.8l14.372,15.084Z" transform="translate(-311.129 -543.47)" fill="#fee954"/>
        <path id="Trazado_189831" data-name="Trazado 189831" d="M251.784,497.821h-56.42a2.968,2.968,0,0,1-2.966-2.966V420.729a2.968,2.968,0,0,1,2.966-2.966h46.049v15.423a1.024,1.024,0,0,0,1.025,1.025h15.423v20.236a1.025,1.025,0,1,0,2.05,0V433.186a1.025,1.025,0,0,0-.3-.723l-16.448-16.448a1.024,1.024,0,0,0-.723-.3H195.365a5.028,5.028,0,0,0-5.021,5.021v74.126a5.028,5.028,0,0,0,5.021,5.021h56.42a1.025,1.025,0,1,0,0-2.05Zm-8.32-78.612,12.946,12.946H243.464Z" transform="translate(-190.344 -415.713)" fill="#29083a"/>
        <path id="Trazado_189832" data-name="Trazado 189832" d="M306.547,478.52a1.025,1.025,0,1,0,0-2.05h-12.41a1.025,1.025,0,0,0,0,2.05Z" transform="translate(-265.556 -460.179)" fill="#29083a"/>
        <path id="Trazado_189833" data-name="Trazado 189833" d="M275.188,509.575H226.511a1.025,1.025,0,1,0,0,2.05h48.677a1.025,1.025,0,1,0,0-2.05Z" transform="translate(-216.063 -484.407)" fill="#29083a"/>
        <path id="Trazado_189834" data-name="Trazado 189834" d="M275.188,542.68H226.511a1.025,1.025,0,1,0,0,2.05h48.677a1.025,1.025,0,1,0,0-2.05Z" transform="translate(-216.063 -508.635)" fill="#29083a"/>
        <path id="Trazado_189835" data-name="Trazado 189835" d="M275.188,575.785H226.511a1.025,1.025,0,0,0,0,2.05h48.677a1.025,1.025,0,0,0,0-2.05Z" transform="translate(-216.063 -532.863)" fill="#29083a"/>
      </g>
      <circle id="Elipse_5176" data-name="Elipse 5176" cx="20.031" cy="20.031" r="20.031" transform="translate(-4 -4)" fill="#fef7dc"/>
      <circle id="Elipse_5177" data-name="Elipse 5177" cx="1.545" cy="1.545" r="1.545" transform="translate(14.486 1.564)" fill="#693fb7"/>
      <ellipse id="Elipse_5178" data-name="Elipse 5178" cx="1.69" cy="1.709" rx="1.69" ry="1.709" transform="translate(26.457 22.312)" fill="#b13e8d"/>
      <circle id="Elipse_5179" data-name="Elipse 5179" cx="1.873" cy="1.873" r="1.873" transform="translate(1.897 21.985)" fill="#fee954"/>
    </g>
    <g id="Grupo_133364" data-name="Grupo 133364" transform="translate(504.594 3266.713)">
      <path id="Trazado_189836" data-name="Trazado 189836" d="M162.682,436.144s-1.441-.568-1.96-.769a3.976,3.976,0,0,0,.653-2.2,4.017,4.017,0,1,0-7.374,2.2l-1.96.763c-1.013.391-2.546.989-2.546,3.083v4.023a.56.56,0,0,0,.562.562h14.6a.56.56,0,0,0,.562-.562v-4.023c0-2.1-1.532-2.692-2.546-3.083Zm-5.317-5.854a2.894,2.894,0,1,1-2.894,2.894A2.9,2.9,0,0,1,157.365,430.29Zm6.74,12.4h-2.192v-1.844a.562.562,0,1,0-1.123,0v1.844h-6.843v-1.844a.562.562,0,1,0-1.123,0v1.844h-2.192v-3.461c0-1.233.72-1.606,1.825-2.033,0,0,1.441-.562,2.356-.916a4.01,4.01,0,0,0,5.116,0c.916.354,2.356.916,2.356.916,1.1.427,1.825.8,1.825,2.033v3.461Z" transform="translate(-142.709 -421.75)" fill="#29083a"/>
      <path id="Trazado_189837" data-name="Trazado 189837" d="M157.13,428.392a2.6,2.6,0,0,0-.946-1.4,14.31,14.31,0,0,0,.849-4.871,14.485,14.485,0,0,0-11.874-14.23,2.609,2.609,0,0,0-5.177,0,14.48,14.48,0,0,0-11.874,14.23,14.31,14.31,0,0,0,.849,4.871,2.608,2.608,0,0,0-.684,3.388,2.635,2.635,0,0,0,2.265,1.306,2.638,2.638,0,0,0,1.013-.208,14.436,14.436,0,0,0,22.038,0,2.569,2.569,0,0,0,1.691.116,2.611,2.611,0,0,0,1.85-3.2Zm-14.56-21.659a1.483,1.483,0,1,1-1.483,1.483A1.485,1.485,0,0,1,142.571,406.733ZM130.148,430.5a1.488,1.488,0,0,1-.36-2.723,1.446,1.446,0,0,1,.739-.2,1.657,1.657,0,0,1,.385.049,1.482,1.482,0,1,1-.769,2.863Zm12.423,4.951a13.3,13.3,0,0,1-10.1-4.639,2.61,2.61,0,0,0,.324-3.052,2.568,2.568,0,0,0-1.587-1.215,2.609,2.609,0,0,0-1.227-.031,13.336,13.336,0,0,1,10.1-17.5,2.609,2.609,0,0,0,4.969,0,13.336,13.336,0,0,1,10.1,17.5,2.609,2.609,0,0,0-2.491,4.3A13.309,13.309,0,0,1,142.571,435.449Zm13.32-5.641a1.452,1.452,0,0,1-.9.69,1.483,1.483,0,0,1-1.673-2.173,1.452,1.452,0,0,1,.9-.69,1.387,1.387,0,0,1,.385-.049,1.487,1.487,0,0,1,1.428,1.1,1.491,1.491,0,0,1-.146,1.129Z" transform="translate(-127.921 -405.603)" fill="#29083a"/>
    </g>
    <path id="Trazado_190436" data-name="Trazado 190436" d="M0,0H294.467" transform="translate(573.917 3560.128)" fill="none" stroke="#29083a" stroke-width="3.881"/>
  </g>
</svg>
