<svg xmlns="http://www.w3.org/2000/svg" xmlns:xlink="http://www.w3.org/1999/xlink" width="1331" height="1269" viewBox="0 0 1331 1269">
  <defs>
    <clipPath id="clip-path">
      <rect id="Rectángulo_40618" data-name="Rectángulo 40618" width="167" height="495" fill="#fff"/>
    </clipPath>
    <linearGradient id="linear-gradient" x1="0.5" y1="1" x2="0.5" gradientUnits="objectBoundingBox">
      <stop offset="0" stop-color="#6836bc"/>
      <stop offset="0.256" stop-color="#6d3dc3"/>
      <stop offset="0.637" stop-color="#7e51d6"/>
      <stop offset="1" stop-color="#936bef"/>
    </linearGradient>
    <clipPath id="clip-path-2">
      <rect id="Rectángulo_40707" data-name="Rectángulo 40707" width="366" height="861" transform="translate(1000 456)" fill="#7fc733"/>
    </clipPath>
  </defs>
  <g id="Grupo_133385" data-name="Grupo 133385" transform="translate(1467 2097) rotate(180)">
    <g id="Grupo_128306" data-name="Grupo 128306" transform="translate(-15 21)">
      <g id="Enmascarar_grupo_120" data-name="Enmascarar grupo 120" transform="translate(151 807)" opacity="0.1" clip-path="url(#clip-path)">
        <path id="Unión_16" data-name="Unión 16" d="M173.153,0s-60.438,1.425-67.815,65.853C99.92,113.208,69.771,175.325,54.172,204.924-113.161,472.412,160.58,485.119,160.58,485.119L252.97,332.26S341.415,2.723,255.8,2.546V0Z" transform="translate(136.35 511.524) rotate(180)" fill="url(#linear-gradient)"/>
      </g>
    </g>
    <g id="Enmascarar_grupo_124" data-name="Enmascarar grupo 124" transform="translate(101 780)" clip-path="url(#clip-path-2)">
      <path id="Unión_18" data-name="Unión 18" d="M12870.427,12145.747a189.005,189.005,0,0,1-34.366-3.162,203.738,203.738,0,0,1-43.112-13.025,174.464,174.464,0,0,1-39.048-22.9,133.671,133.671,0,0,1-30.186-32.751,113.966,113.966,0,0,1-16.526-42.574,146.666,146.666,0,0,1-1.323-40.643,125.065,125.065,0,0,1,10.611-38.968c.645-1.4,1.343-2.828,2.138-4.362a107.772,107.772,0,0,1,31.892-36.961,127.526,127.526,0,0,1,20.99-12.571,143.234,143.234,0,0,1,23.134-8.637,158.094,158.094,0,0,1,43.034-5.6c22.224,0,43.942,3.705,66.935,7.626l.038.007,1.7.29c15.8,2.692,28.717,3.946,40.642,3.946a123.1,123.1,0,0,0,32.725-4.009,91.2,91.2,0,0,0,15.412-5.709,83.1,83.1,0,0,0,14.389-8.8,103.529,103.529,0,0,0,16.225-15.473,143.122,143.122,0,0,0,13.031-18.144c7.869-12.807,14.427-27.04,20.765-40.806l.021-.044c5.7-12.369,11.591-25.159,18.437-36.935a165.938,165.938,0,0,1,11.19-16.969,117.74,117.74,0,0,1,13.53-15.11,114.276,114.276,0,0,1,77.188-30.521h.364a117.232,117.232,0,0,1,24.6,2.779,119.285,119.285,0,0,1,24.673,8.243c17.273,8.013,30.256,19.485,37.545,33.183a55.512,55.512,0,0,1,4.923,12.808,64.087,64.087,0,0,1,1.8,12.761c.39,8.492-.63,17.14-1.613,25.5l0,.023c-1.354,11.479-2.751,23.35-.62,35.241a59.8,59.8,0,0,0,3.765,12.8,54.957,54.957,0,0,0,6.075,10.743,67.057,67.057,0,0,0,17.707,16.486c13.815,9.149,31.205,15.188,48.021,21.029l.032.011c9.053,3.143,18.415,6.395,26.917,10.051,9.522,4.095,17.025,8.313,22.934,12.895a102.1,102.1,0,0,1,22.566,24.958,159.029,159.029,0,0,1,15.243,30.52,156.455,156.455,0,0,1,9.413,36.754,99.244,99.244,0,0,1-2.159,37.329,71.744,71.744,0,0,1-4.523,12.4c-6.059-1.324-12.407-2.956-18.874-4.852a465.767,465.767,0,0,0-77.2-15.2,661.371,661.371,0,0,0-75.414-4.13c-17.313,0-35.187.6-53.127,1.789-14.583.964-29.2,2.3-43.437,3.983-6.383.751-12.737,1.577-18.889,2.453-17.428,1.418-35.693,6.1-55.838,14.314-19.8,8.071-38.5,18.413-52.584,26.521-26.25,15.111-54.284,30.833-82.994,42.4a279.72,279.72,0,0,1-43.442,13.794,219.389,219.389,0,0,1-22.4,3.85A197.278,197.278,0,0,1,12870.427,12145.747Z" transform="matrix(0.242, 0.97, -0.97, 0.242, 9675.344, -14708.594)" fill="#7fc733" stroke="rgba(0,0,0,0)" stroke-miterlimit="10" stroke-width="1" opacity="0.1"/>
    </g>
  </g>
</svg>
