<svg xmlns="http://www.w3.org/2000/svg" width="101" height="101" viewBox="0 0 101 101">
  <g id="Grupo_136151" data-name="Grupo 136151" transform="translate(-750 -1527)">
    <circle id="Elipse_1147" data-name="Elipse 1147" cx="50.5" cy="50.5" r="50.5" transform="translate(750 1527)" fill="#6836bf"/>
    <g id="Grupo_133516" data-name="Grupo 133516" transform="translate(-969.01 11619)">
      <path id="Trazado_190195" data-name="Trazado 190195" d="M664.943,111.884s-2.522-.983-4.621-1.8a8.85,8.85,0,1,0-14.546,0c-2.1.815-4.621,1.8-4.621,1.8-2.231.866-5.6,2.174-5.6,6.766V128.7a1.084,1.084,0,0,0,1.084,1.084h32.825a1.084,1.084,0,0,0,1.084-1.084V118.651c0-4.592-3.371-5.9-5.6-6.766M653.049,98.371a6.682,6.682,0,1,1-6.682,6.682,6.689,6.689,0,0,1,6.682-6.682m15.329,29.247h-4.62v-5.336a1.084,1.084,0,0,0-2.168,0v5.336H644.509v-5.336a1.084,1.084,0,1,0-2.168,0v5.336h-4.62v-8.967c0-3.108,2.049-3.9,4.219-4.745,0,0,2.991-1.165,5.4-2.1a8.826,8.826,0,0,0,11.422,0c2.407.935,5.4,2.1,5.4,2.1,2.17.842,4.219,1.637,4.219,4.745Z" transform="translate(1101.402 -10140.262)" fill="#fff"/>
      <path id="Trazado_190196" data-name="Trazado 190196" d="M735.23,111.884s-2.807-1.1-4.613-1.8a8.853,8.853,0,0,0-10.279-13.363,1.084,1.084,0,1,0,.735,2.04,6.682,6.682,0,0,1,6.98,11.021,1.084,1.084,0,0,0,.373,1.778c2.3.891,6.02,2.342,6.02,2.342,2.17.842,4.219,1.637,4.219,4.744v8.968h-7.241a1.084,1.084,0,0,0,0,2.168h8.325a1.084,1.084,0,0,0,1.084-1.084V118.649c0-4.591-3.371-5.9-5.6-6.766" transform="translate(1045.634 -10140.261)" fill="#fff"/>
      <path id="Trazado_190197" data-name="Trazado 190197" d="M778.6,111.884s-2.807-1.1-4.614-1.8a8.853,8.853,0,0,0-10.279-13.363,1.084,1.084,0,1,0,.735,2.04,6.682,6.682,0,0,1,6.98,11.021,1.084,1.084,0,0,0,.374,1.778c2.3.891,6.019,2.342,6.019,2.342,2.17.842,4.219,1.637,4.219,4.744v8.968h-7.241a1.084,1.084,0,0,0,0,2.168h8.325A1.084,1.084,0,0,0,784.2,128.7V118.649c0-4.591-3.372-5.9-5.6-6.766" transform="translate(1016.865 -10140.261)" fill="#fff"/>
      <path id="Trazado_190198" data-name="Trazado 190198" d="M698.581,12.882H673.236a5.731,5.731,0,0,0-11.254,0H636.636a1.084,1.084,0,0,0-1.084,1.084v6.195a1.084,1.084,0,0,0,1.084,1.084h2.013V49.218a1.084,1.084,0,1,0,2.168,0V21.245H694.4V49.218a1.084,1.084,0,1,0,2.168,0V21.245h2.013a1.084,1.084,0,0,0,1.084-1.084V13.966a1.084,1.084,0,0,0-1.084-1.084M697.5,19.077H637.72V15.05h25.243a1.084,1.084,0,0,0,1.084-1.084,3.562,3.562,0,0,1,7.124,0,1.084,1.084,0,0,0,1.084,1.084H697.5Z" transform="translate(1101.402 -10081.908)" fill="#fff"/>
      <path id="Trazado_190199" data-name="Trazado 190199" d="M727.42,20.2a1.7,1.7,0,1,0,1.7,1.7,1.705,1.705,0,0,0-1.7-1.7" transform="translate(1041.59 -10089.842)" fill="#fff"/>
      <path id="Trazado_190200" data-name="Trazado 190200" d="M692.058,61.284a1.085,1.085,0,0,0-1.165,0l-6.749,4.3-6.749-4.3a1.085,1.085,0,0,0-1.165,0L668.9,65.954a1.084,1.084,0,0,0,1.165,1.829l6.749-4.3,6.75,4.3a1.085,1.085,0,0,0,1.165,0l6.749-4.3,6.75,4.3a1.085,1.085,0,0,0,1.165,0l5.75-3.663a2.167,2.167,0,1,0-1.169-1.922c0,.031,0,.062,0,.093l-5.168,3.293Z" transform="translate(1079.615 -10116.266)" fill="#fff"/>
    </g>
  </g>
</svg>
