<svg xmlns="http://www.w3.org/2000/svg" width="101" height="101" viewBox="0 0 101 101">
  <g id="Grupo_136152" data-name="Grupo 136152" transform="translate(-750 -1689)">
    <circle id="Elipse_1145" data-name="Elipse 1145" cx="50.5" cy="50.5" r="50.5" transform="translate(750 1689)" fill="#6836bf"/>
    <g id="Grupo_133517" data-name="Grupo 133517" transform="translate(-1091.89 11778.969)">
      <path id="Trazado_190201" data-name="Trazado 190201" d="M1059.667,32.384a6.433,6.433,0,0,0-3.476-4.5q-.151-.083-.3-.159c-.027-.02-.055-.04-.083-.058a19.4,19.4,0,0,0-6.481-2.293,6.656,6.656,0,1,0-11.166-2.5,34.188,34.188,0,0,1-5.228-3.81q-.825-.807-1.74-1.625a1.258,1.258,0,0,0-1.745,1.81c.092.1.789.811,1.9,1.783,6.464,6.351,7.715,11.568.1,21.864l-7.5-9.241V14.332l14.361-5.795a1.258,1.258,0,0,0,0-2.334L1023.163.092a1.258,1.258,0,0,0-1.729,1.167V33.653l-7.5,9.241c-7.612-10.293-6.362-15.51.1-21.859,1.117-.974,1.815-1.691,1.908-1.787a1.258,1.258,0,0,0-1.746-1.81q-.928.833-1.765,1.651a34.025,34.025,0,0,1-5.2,3.793,6.658,6.658,0,1,0-11.16,2.492,19.461,19.461,0,0,0-6.483,2.291q-.043.028-.084.059-.148.076-.3.159a6.434,6.434,0,0,0-3.476,4.5c-.76,3.961,2.181,8.557,4.782,11.716a1.258,1.258,0,1,0,1.943-1.6c-3.192-3.876-4.7-7.3-4.253-9.642a3.981,3.981,0,0,1,2.217-2.772c2.52-1.386,3.667-.577,4.044-.311,3.8,2.679,4.291,15.41,2.893,27.875-.222,1.551-.434,3.131-.648,4.726l-.16,1.186a1.244,1.244,0,0,0,.088.645l-1.881,2.317a1.258,1.258,0,0,0,.977,2.051h53.946a1.258,1.258,0,0,0,.977-2.051l-1.881-2.317a1.247,1.247,0,0,0,.088-.645l-.16-1.187c-.214-1.594-.427-3.175-.649-4.725-1.4-12.466-.906-25.2,2.894-27.876.377-.266,1.524-1.075,4.044.311a3.98,3.98,0,0,1,2.217,2.772c.449,2.341-1.062,5.765-4.254,9.642a1.258,1.258,0,1,0,1.943,1.6c2.6-3.158,5.542-7.755,4.782-11.716M1023.951,3.123l10.528,4.248-10.528,4.248Zm20.537,13.549a4.141,4.141,0,1,1-4.141,4.141,4.145,4.145,0,0,1,4.141-4.141m-43.591,0a4.141,4.141,0,1,1-4.141,4.141,4.146,4.146,0,0,1,4.141-4.141m-4.73,11.248a23.022,23.022,0,0,1,4.741-.449,14.935,14.935,0,0,0,6.521-1.85c-1.705,3.585-1.739,7.465.518,12.307a9.106,9.106,0,0,0-3.785-.44,1.257,1.257,0,0,0-.9.488,19.853,19.853,0,0,0-2.725,5.146c-.22-6.818-1.4-12.821-4.368-15.2m3.647,30.239c1.066-7.477,2.341-14.209,5.1-18.189h.144c2.715,0,4.335,1.359,7.225,4.95L999.505,60.661q.162-1.214.308-2.5m-1.452,7.9L1022.693,36.1l24.33,29.965ZM1033.1,44.919c2.942-3.655,4.574-4.992,7.369-4.949,2.763,3.98,4.038,10.712,5.1,18.189q.145,1.286.308,2.5Zm11.753-1.8a19.86,19.86,0,0,0-2.724-5.146,1.259,1.259,0,0,0-.9-.488q-.449-.034-.871-.034a8.643,8.643,0,0,0-2.914.474c2.258-4.844,2.224-8.725.516-12.312a15,15,0,0,0,6.545,1.855,22.92,22.92,0,0,1,4.721.448c-2.967,2.381-4.149,8.384-4.369,15.2" transform="translate(869.197 -10076.444)" fill="#fff"/>
    </g>
  </g>
</svg>
