<svg xmlns="http://www.w3.org/2000/svg" xmlns:xlink="http://www.w3.org/1999/xlink" width="190" height="111" viewBox="0 0 190 111">
  <defs>
    <linearGradient id="linear-gradient" x1="0.5" x2="0.5" y2="1" gradientUnits="objectBoundingBox">
      <stop offset="0" stop-color="#f7ca2e" stop-opacity="0"/>
      <stop offset="0.091" stop-color="#f7ca2e" stop-opacity="0.129"/>
      <stop offset="0.283" stop-color="#f7ca2e" stop-opacity="0.388"/>
      <stop offset="0.465" stop-color="#f7ca2e" stop-opacity="0.612"/>
      <stop offset="0.633" stop-color="#f7ca2e" stop-opacity="0.78"/>
      <stop offset="0.784" stop-color="#f7ca2e" stop-opacity="0.902"/>
      <stop offset="0.911" stop-color="#f7ca2e" stop-opacity="0.969"/>
      <stop offset="1" stop-color="#f7ca2e"/>
    </linearGradient>
    <linearGradient id="linear-gradient-2" x1="0.5" x2="0.5" y2="1" gradientUnits="objectBoundingBox">
      <stop offset="0" stop-color="#b13e8d" stop-opacity="0"/>
      <stop offset="0.091" stop-color="#b13e8d" stop-opacity="0.129"/>
      <stop offset="0.283" stop-color="#b13e8d" stop-opacity="0.388"/>
      <stop offset="0.465" stop-color="#b13e8d" stop-opacity="0.612"/>
      <stop offset="0.633" stop-color="#b13e8d" stop-opacity="0.78"/>
      <stop offset="0.784" stop-color="#b13e8d"/>
      <stop offset="0.911" stop-color="#b13e8d" stop-opacity="0.969"/>
      <stop offset="1" stop-color="#b13e8d"/>
    </linearGradient>
    <filter id="Rectángulo_40715" x="41" y="3" width="108" height="108" filterUnits="userSpaceOnUse">
      <feOffset dy="3" input="SourceAlpha"/>
      <feGaussianBlur stdDeviation="3" result="blur"/>
      <feFlood flood-opacity="0.161"/>
      <feComposite operator="in" in2="blur"/>
      <feComposite in="SourceGraphic"/>
    </filter>
    <clipPath id="clip-path">
      <rect id="Rectángulo_41322" data-name="Rectángulo 41322" width="78" height="71.704" fill="#6836bf"/>
    </clipPath>
  </defs>
  <g id="Grupo_136148" data-name="Grupo 136148" transform="translate(-184 -401)">
    <g id="Grupo_128762" data-name="Grupo 128762" transform="translate(0 -911)">
      <rect id="Rectángulo_40586" data-name="Rectángulo 40586" width="190" height="20" transform="translate(184 1357)" fill="none"/>
      <g id="Grupo_108405" data-name="Grupo 108405" transform="translate(213.5 1376)">
        <path id="Rectángulo_5242" data-name="Rectángulo 5242" d="M0,0H12a0,0,0,0,1,0,0V43.333a3,3,0,0,1-3,3H3a3,3,0,0,1-3-3V0A0,0,0,0,1,0,0Z" transform="translate(0 0)" fill="url(#linear-gradient)"/>
      </g>
      <g id="Grupo_108406" data-name="Grupo 108406" transform="translate(344 1364) rotate(180)">
        <path id="Rectángulo_5242-2" data-name="Rectángulo 5242" d="M0,0H12a0,0,0,0,1,0,0V49a3,3,0,0,1-3,3H3a3,3,0,0,1-3-3V0A0,0,0,0,1,0,0Z" transform="translate(0 0)" fill="url(#linear-gradient-2)"/>
      </g>
      <g transform="matrix(1, 0, 0, 1, 184, 1312)" filter="url(#Rectángulo_40715)">
        <path id="Rectángulo_40715-2" data-name="Rectángulo 40715" d="M10,0H80A10,10,0,0,1,90,10V90a0,0,0,0,1,0,0H10A10,10,0,0,1,0,80V10A10,10,0,0,1,10,0Z" transform="translate(50 9)" fill="#f6f6f6"/>
      </g>
    </g>
    <g id="Grupo_133498" data-name="Grupo 133498" transform="translate(240 418.986)">
      <g id="Grupo_133497" data-name="Grupo 133497" clip-path="url(#clip-path)">
        <path id="Trazado_190149" data-name="Trazado 190149" d="M72.339,77.369a5.664,5.664,0,0,0-5.6,4.891H56.779V81.2a.77.77,0,1,0-1.54,0v1.06H39.77V81.2a.77.77,0,1,0-1.54,0v1.06H22.761V81.2a.77.77,0,1,0-1.54,0v1.06H11.263a5.66,5.66,0,1,0,0,1.54h9.958v1.165a.77.77,0,1,0,1.54,0V83.8H38.23v1.165a.77.77,0,1,0,1.54,0V83.8H55.239v1.165a.77.77,0,1,0,1.54,0V83.8h9.959a5.658,5.658,0,1,0,5.6-6.431M5.661,87.15a4.12,4.12,0,1,1,4.121-4.12,4.125,4.125,0,0,1-4.121,4.12m66.679,0a4.12,4.12,0,1,1,4.12-4.12,4.125,4.125,0,0,1-4.12,4.12" transform="translate(-0.001 -47.166)" fill="#6836bf"/>
        <path id="Trazado_190150" data-name="Trazado 190150" d="M88.678,144.74a6.593,6.593,0,1,0-11.5,0,9.546,9.546,0,0,0-5.119,8.449.77.77,0,0,0,.77.77h20.2a.77.77,0,0,0,.77-.77,9.547,9.547,0,0,0-5.119-8.449m-5.749-8.272a5.053,5.053,0,1,1-5.053,5.053,5.059,5.059,0,0,1,5.053-5.053m-9.291,15.951a8,8,0,0,1,4.471-6.413,6.562,6.562,0,0,0,9.64,0,8,8,0,0,1,4.471,6.413Z" transform="translate(-43.93 -82.255)" fill="#6836bf"/>
        <path id="Trazado_190151" data-name="Trazado 190151" d="M29.262,19.031h20.2a.77.77,0,0,0,.77-.77,9.546,9.546,0,0,0-5.119-8.449,6.594,6.594,0,1,0-11.5,0,9.546,9.546,0,0,0-5.119,8.449.77.77,0,0,0,.77.77M39.361,1.54a5.053,5.053,0,1,1-5.053,5.053A5.059,5.059,0,0,1,39.361,1.54m-4.82,9.538a6.562,6.562,0,0,0,9.64,0,8,8,0,0,1,4.471,6.413H30.069a8,8,0,0,1,4.471-6.413" transform="translate(-17.369)" fill="#6836bf"/>
        <path id="Trazado_190152" data-name="Trazado 190152" d="M116.4,19.031h20.2a.77.77,0,0,0,.77-.77,9.546,9.546,0,0,0-5.119-8.449,6.593,6.593,0,1,0-11.5,0,9.546,9.546,0,0,0-5.119,8.449.77.77,0,0,0,.77.77M126.5,1.54a5.053,5.053,0,1,1-5.053,5.053A5.059,5.059,0,0,1,126.5,1.54m-4.82,9.538a6.562,6.562,0,0,0,9.64,0,8,8,0,0,1,4.471,6.413H117.208a8,8,0,0,1,4.471-6.413" transform="translate(-70.491)" fill="#6836bf"/>
        <path id="Trazado_190153" data-name="Trazado 190153" d="M54.033,57.151a1.472,1.472,0,1,0,1.472,1.472,1.474,1.474,0,0,0-1.472-1.472" transform="translate(-32.042 -34.84)" fill="#6836bf"/>
        <path id="Trazado_190154" data-name="Trazado 190154" d="M54.033,71.181a1.472,1.472,0,1,0,1.472,1.472,1.474,1.474,0,0,0-1.472-1.472" transform="translate(-32.042 -43.393)" fill="#6836bf"/>
        <path id="Trazado_190155" data-name="Trazado 190155" d="M141.172,57.151a1.472,1.472,0,1,0,1.472,1.472,1.474,1.474,0,0,0-1.472-1.472" transform="translate(-85.164 -34.84)" fill="#6836bf"/>
        <path id="Trazado_190156" data-name="Trazado 190156" d="M141.172,71.181a1.472,1.472,0,1,0,1.472,1.472,1.474,1.474,0,0,0-1.472-1.472" transform="translate(-85.164 -43.393)" fill="#6836bf"/>
        <path id="Trazado_190157" data-name="Trazado 190157" d="M97.6,108.965a1.472,1.472,0,1,0-1.472-1.472,1.474,1.474,0,0,0,1.472,1.472" transform="translate(-58.603 -64.632)" fill="#6836bf"/>
        <path id="Trazado_190158" data-name="Trazado 190158" d="M97.6,122.993a1.472,1.472,0,1,0-1.472-1.472,1.474,1.474,0,0,0,1.472,1.472" transform="translate(-58.603 -73.184)" fill="#6836bf"/>
      </g>
    </g>
  </g>
</svg>
