<svg xmlns="http://www.w3.org/2000/svg" xmlns:xlink="http://www.w3.org/1999/xlink" width="505" height="293" viewBox="0 0 505 293">
  <defs>
    <clipPath id="clip-path">
      <rect id="Rectángulo_41244" data-name="Rectángulo 41244" width="505" height="288" transform="translate(285 1179)" fill="#dee9f0" stroke="#dee9f0" stroke-width="1"/>
    </clipPath>
  </defs>
  <g id="Grupo_136148" data-name="Grupo 136148" transform="translate(-285 -1179)">
    <path id="Trazado_189674" data-name="Trazado 189674" d="M0,0H505V293H0Z" transform="translate(285 1179)" fill="#d4d4d4"/>
    <g id="Enmascarar_grupo_167" data-name="Enmascarar grupo 167" clip-path="url(#clip-path)">
      <g id="_08" data-name="08" transform="translate(293.794 1191)">
        <g id="Grupo_133290" data-name="Grupo 133290" transform="translate(0 0)">
          <path id="Trazado_189509" data-name="Trazado 189509" d="M248.639,33.3C218.9,1.5,128.156-20.279,99.983,29.065,73.772,74.971,5.2,89.7.27,174.067s59.306,84.912,59.306,84.912c157.791,14.57,291.922-7.2,291.922-7.2C446.375,102.8,287.039,74.37,248.64,33.3Z" transform="translate(0 0)" fill="#fef7dc"/>
          <ellipse id="Elipse_5174" data-name="Elipse 5174" cx="184.992" cy="14.148" rx="184.992" ry="14.148" transform="translate(2.138 233.862)" fill="#94790e"/>
          <g id="Grupo_133261" data-name="Grupo 133261" transform="translate(12.801 24.646)">
            <g id="Grupo_133257" data-name="Grupo 133257" transform="translate(60.702)">
              <rect id="Rectángulo_41245" data-name="Rectángulo 41245" width="280.529" height="209.47" rx="12.636" transform="translate(5.843)" fill="#6d3c8c"/>
              <rect id="Rectángulo_41246" data-name="Rectángulo 41246" width="280.529" height="209.47" rx="12.636" fill="#420b50"/>
              <path id="Trazado_189510" data-name="Trazado 189510" d="M349.65,33.111H92.287A5.878,5.878,0,0,0,86.41,38.99v186.3a5.877,5.877,0,0,0,5.878,5.878H349.65a5.877,5.877,0,0,0,5.878-5.878V38.99A5.878,5.878,0,0,0,349.65,33.111Z" transform="translate(-80.704 -27.406)" fill="#6d3c8c"/>
              <rect id="Rectángulo_41247" data-name="Rectángulo 41247" width="265.224" height="198.06" rx="6.412" transform="translate(11.068 5.396)" fill="#fff8f9"/>
              <g id="Grupo_133255" data-name="Grupo 133255" transform="translate(19.983 33.174)">
                <g id="Grupo_133247" data-name="Grupo 133247" transform="translate(4.354)">
                  <path id="Trazado_189511" data-name="Trazado 189511" d="M344.5,92.87H117.273c-3.068,0-6.143-.057-9.212,0-.135,0-.268,0-.4,0a.957.957,0,0,0,0,1.912H334.882c3.068,0,6.143.057,9.212,0,.135,0,.268,0,.4,0a.957.957,0,0,0,0-1.912Z" transform="translate(-106.735 -65.558)" fill="none" stroke="#94790e" stroke-linecap="round" stroke-miterlimit="10" stroke-width="0.124"/>
                  <path id="Trazado_189512" data-name="Trazado 189512" d="M142.859,64a.957.957,0,0,0-1.912,0V211.091c0,1.987-.038,3.977,0,5.963,0,.087,0,.173,0,.26a.957.957,0,0,0,1.912,0V70.224c0-1.987.038-3.977,0-5.963C142.858,64.174,142.859,64.087,142.859,64Z" transform="translate(-109.585 -63.077)" fill="none" stroke="#94790e" stroke-linecap="round" stroke-miterlimit="10" stroke-width="0.124"/>
                  <path id="Trazado_189513" data-name="Trazado 189513" d="M181.315,64a.957.957,0,0,0-1.912,0V211.091c0,1.987-.038,3.977,0,5.963,0,.087,0,.173,0,.26a.957.957,0,0,0,1.912,0V70.224c0-1.987.038-3.977,0-5.963C181.314,64.174,181.315,64.087,181.315,64Z" transform="translate(-112.789 -63.077)" fill="none" stroke="#94790e" stroke-linecap="round" stroke-miterlimit="10" stroke-width="0.124"/>
                  <path id="Trazado_189514" data-name="Trazado 189514" d="M219.772,64a.957.957,0,0,0-1.912,0V211.091c0,1.987-.038,3.977,0,5.963,0,.087,0,.173,0,.26a.957.957,0,0,0,1.912,0V70.224c0-1.987.038-3.977,0-5.963C219.771,64.174,219.772,64.087,219.772,64Z" transform="translate(-115.994 -63.077)" fill="none" stroke="#94790e" stroke-linecap="round" stroke-miterlimit="10" stroke-width="0.124"/>
                  <path id="Trazado_189515" data-name="Trazado 189515" d="M258.228,64a.957.957,0,0,0-1.912,0V211.091c0,1.987-.038,3.977,0,5.963,0,.087,0,.173,0,.26a.957.957,0,0,0,1.912,0V70.224c0-1.987.038-3.977,0-5.963C258.227,64.174,258.228,64.087,258.228,64Z" transform="translate(-119.198 -63.077)" fill="none" stroke="#94790e" stroke-linecap="round" stroke-miterlimit="10" stroke-width="0.124"/>
                  <path id="Trazado_189516" data-name="Trazado 189516" d="M296.684,64a.957.957,0,0,0-1.912,0V211.091c0,1.987-.038,3.977,0,5.963,0,.087,0,.173,0,.26a.957.957,0,0,0,1.912,0V70.224c0-1.987.038-3.977,0-5.963C296.683,64.174,296.684,64.087,296.684,64Z" transform="translate(-122.403 -63.077)" fill="none" stroke="#94790e" stroke-linecap="round" stroke-miterlimit="10" stroke-width="0.124"/>
                  <path id="Trazado_189517" data-name="Trazado 189517" d="M334.676,64a.957.957,0,0,0-1.912,0V211.091c0,1.987-.038,3.977,0,5.963,0,.087,0,.173,0,.26a.957.957,0,0,0,1.912,0V70.224c0-1.987.038-3.977,0-5.963C334.674,64.174,334.676,64.087,334.676,64Z" transform="translate(-125.569 -63.077)" fill="none" stroke="#94790e" stroke-linecap="round" stroke-miterlimit="10" stroke-width="0.124"/>
                </g>
                <g id="Grupo_133248" data-name="Grupo 133248" transform="translate(79.3 57.698)">
                  <path id="Trazado_189518" data-name="Trazado 189518" d="M205.333,126.021l-6.018.083-10.82,1.18a51.054,51.054,0,0,0,1.809,12.145,10.789,10.789,0,0,0,.46,1.263,10.934,10.934,0,0,0,11.734,6.45l.339-.054h0l9.679-1.532s-7.735-12.85-7.185-19.535Z" transform="translate(-188.495 -126.021)" fill="#fee954"/>
                  <path id="Trazado_189519" data-name="Trazado 189519" d="M197.346,142.938a4.945,4.945,0,0,1-6.377-.913,10.934,10.934,0,0,0,11.734,6.45l.339-.054c-5.8.282-5.7-5.484-5.7-5.484Z" transform="translate(-188.701 -127.354)" fill="#fdab00"/>
                </g>
                <g id="Grupo_133249" data-name="Grupo 133249" transform="translate(149.497 2.919)">
                  <path id="Trazado_189520" data-name="Trazado 189520" d="M274.952,66.848,269,67.74c1.626,6.507-3.927,20.441-3.927,20.441l9.8-.055h0l.343,0A10.948,10.948,0,0,0,286,78.539a51.02,51.02,0,0,0-.181-12.278l-10.868.588Z" transform="translate(-265.073 -66.262)" fill="#fee954"/>
                  <path id="Trazado_189521" data-name="Trazado 189521" d="M280.5,83.027s1.031,5.673-4.733,6.334l.343,0a10.933,10.933,0,0,0,10.535-8.265,4.945,4.945,0,0,1-6.145,1.933Z" transform="translate(-265.964 -67.498)" fill="#fdab00"/>
                </g>
                <g id="Grupo_133250" data-name="Grupo 133250" transform="translate(78.606 7.18)">
                  <path id="Trazado_189522" data-name="Trazado 189522" d="M202.671,70.91l-14.911.654a26.677,26.677,0,0,0,.338,5.519,13.254,13.254,0,0,0,3.126,6.545l0,0a13.44,13.44,0,0,0,11.054,4.517c.129-.009.259-.021.388-.033a66.724,66.724,0,0,0,7.388-1.186C202,82.614,202.671,70.91,202.671,70.91Z" transform="translate(-187.738 -70.91)" fill="#fff"/>
                  <path id="Trazado_189523" data-name="Trazado 189523" d="M197.675,85.591a6.228,6.228,0,0,1-6.129-.8A13.44,13.44,0,0,0,202.6,89.305a4.955,4.955,0,0,1-4.926-3.714Z" transform="translate(-188.055 -72.066)" fill="#dddbdb"/>
                </g>
                <path id="Trazado_189524" data-name="Trazado 189524" d="M210.064,103.065H188.137a2.114,2.114,0,0,0,0,4.229h21.927a2.114,2.114,0,1,0,0-4.229Z" transform="translate(-108.989 -66.409)" fill="#94790e"/>
                <path id="Trazado_189525" data-name="Trazado 189525" d="M203.49,113.116H188.138a2.115,2.115,0,0,0-2.114,2.114h0a2.115,2.115,0,0,0,2.114,2.114H203.49a2.115,2.115,0,0,0,2.114-2.114h0A2.115,2.115,0,0,0,203.49,113.116Z" transform="translate(-108.989 -67.247)" fill="#94790e"/>
                <g id="Grupo_133251" data-name="Grupo 133251" transform="translate(0 1.108)">
                  <path id="Trazado_189526" data-name="Trazado 189526" d="M119.114,71.079l-6.041-.5-10.962.126a51.409,51.409,0,0,0,.626,12.351,11.024,11.024,0,0,0,11.469,8.924l.345-.021h0l9.853-.59s-6.5-13.638-5.293-20.284Z" transform="translate(-101.986 -64.81)" fill="#420b50"/>
                  <path id="Trazado_189527" data-name="Trazado 189527" d="M128.92,64.286l-15.031.2a26.942,26.942,0,0,0,.17,5.567,13.343,13.343,0,0,0,2.946,6.685l0,0A13.532,13.532,0,0,0,128,81.629c.13,0,.261-.013.391-.022a67.142,67.142,0,0,0,7.474-.966c-7.983-4.593-6.944-16.355-6.944-16.355Z" transform="translate(-102.972 -64.286)" fill="#b13e8d"/>
                  <path id="Trazado_189528" data-name="Trazado 189528" d="M123.444,78.87a6.276,6.276,0,0,1-6.145-1,13.532,13.532,0,0,0,10.989,4.888,4.993,4.993,0,0,1-4.845-3.891Z" transform="translate(-103.262 -65.418)" fill="#7f2d6a"/>
                  <path id="Trazado_189529" data-name="Trazado 189529" d="M109.477,87.154a4.98,4.98,0,0,1-6.3-1.538,11.01,11.01,0,0,0,11.132,7.613l.345-.021C108.814,92.924,109.477,87.154,109.477,87.154Z" transform="translate(-102.085 -66.064)" fill="#336285"/>
                </g>
                <g id="Grupo_133252" data-name="Grupo 133252" transform="translate(188.067 5.981)">
                  <path id="Trazado_189530" data-name="Trazado 189530" d="M157.456,99.317l-4.516.677c1.233,4.937-2.98,15.511-2.98,15.511l7.437-.042h.26a8.314,8.314,0,0,0,8.184-7.273,38.768,38.768,0,0,0-.137-9.317l-8.247.446Z" transform="translate(-149.959 -98.872)" fill="#b13e8d"/>
                  <path id="Trazado_189531" data-name="Trazado 189531" d="M161.664,111.595s.783,4.305-3.592,4.806h.26a8.3,8.3,0,0,0,7.994-6.273,3.753,3.753,0,0,1-4.663,1.467Z" transform="translate(-150.635 -99.81)" fill="#7f2d6a"/>
                </g>
                <g id="Grupo_133253" data-name="Grupo 133253" transform="translate(45.063 5.734)">
                  <path id="Trazado_189532" data-name="Trazado 189532" d="M164.516,69.333l-4.779.066-8.592.937a40.536,40.536,0,0,0,1.437,9.644,8.455,8.455,0,0,0,.365,1,8.683,8.683,0,0,0,9.318,5.122l.269-.042h0l7.686-1.217s-6.142-10.2-5.705-15.512Z" transform="translate(-151.145 -69.333)" fill="#fee954"/>
                  <path id="Trazado_189533" data-name="Trazado 189533" d="M158.173,82.766a3.926,3.926,0,0,1-5.064-.725,8.683,8.683,0,0,0,9.318,5.122l.269-.042c-4.6.224-4.523-4.354-4.523-4.354Z" transform="translate(-151.309 -70.392)" fill="#fdab00"/>
                </g>
                <g id="Grupo_133254" data-name="Grupo 133254" transform="translate(118.27 6.883)">
                  <path id="Trazado_189534" data-name="Trazado 189534" d="M237.658,71.222l-4.244.757c1.292,4.626-2.408,14.71-2.408,14.71l7.015-.233h0l.245-.008a7.83,7.83,0,0,0,7.379-6.125,7.637,7.637,0,0,0,.152-.951,36.6,36.6,0,0,0-.372-8.786l-7.769.636Z" transform="translate(-231.007 -70.586)" fill="#420b50"/>
                  <path id="Trazado_189535" data-name="Trazado 189535" d="M241.925,82.713s.85,4.042-3.263,4.628l.245-.008a7.83,7.83,0,0,0,7.379-6.125,3.541,3.541,0,0,1-4.361,1.505Z" transform="translate(-231.645 -71.471)" fill="#180421"/>
                </g>
                <g id="share" transform="translate(40.975 33.542)">
                  <path id="Trazado_189536" data-name="Trazado 189536" d="M262.248,104.939h-19.9a3.677,3.677,0,0,0-3.677,3.677v12.475a3.677,3.677,0,0,0,3.677,3.677h4.284a1.226,1.226,0,0,1,.886.379l3.892,4.072a1.225,1.225,0,0,0,1.772,0l3.892-4.072a1.226,1.226,0,0,1,.886-.379h4.284a3.677,3.677,0,0,0,3.677-3.677V108.616a3.677,3.677,0,0,0-3.677-3.677Z" transform="translate(-238.674 -104.939)" fill="#420b50"/>
                  <path id="Trazado_189537" data-name="Trazado 189537" d="M258.755,116.2a9.864,9.864,0,0,0-2.21.816,8.759,8.759,0,0,0-2.325,1.743,11.046,11.046,0,0,0-2.506,4.6,10.012,10.012,0,0,1,3.7-2.958,6.161,6.161,0,0,1,3.371-.416l.023,3.085,4.905-4.982-4.98-4.907Z" transform="translate(-244.088 -108.362)" fill="#fff"/>
                </g>
              </g>
              <path id="Trazado_189538" data-name="Trazado 189538" d="M351.607,32.864H98.137a5.878,5.878,0,0,0-5.878,5.879v17.8H357.484v-17.8A5.878,5.878,0,0,0,351.607,32.864Z" transform="translate(-81.192 -27.385)" fill="#f7ca18"/>
              <g id="Grupo_133256" data-name="Grupo 133256" transform="translate(20.827 13.026)">
                <path id="Trazado_189539" data-name="Trazado 189539" d="M256.368,41.1H107.425a4.519,4.519,0,0,0,0,9.037H256.368a4.519,4.519,0,1,0,0-9.037Z" transform="translate(-102.907 -41.097)" fill="#f4d6d8"/>
                <path id="Trazado_189540" data-name="Trazado 189540" d="M256.727,41.1H111.732a4.519,4.519,0,0,0,0,9.037H256.727a4.519,4.519,0,1,0,0-9.037Z" transform="translate(-103.265 -41.097)" fill="#fff"/>
                <path id="Trazado_189541" data-name="Trazado 189541" d="M269.422,41.1h-9.847v9.037h9.847a4.519,4.519,0,1,0,0-9.037Z" transform="translate(-115.962 -41.097)" fill="#1d2a47"/>
              </g>
              <path id="Trazado_189542" data-name="Trazado 189542" d="M266.091,43.2a2.584,2.584,0,0,0-.769,3.262l-1.869,1.372a.411.411,0,1,0,.487.663l1.869-1.372a2.584,2.584,0,1,0,.283-3.924Zm2.583,3.519a1.78,1.78,0,1,1,.381-2.487,1.78,1.78,0,0,1-.381,2.487Z" transform="translate(-95.444 -28.205)" fill="#fff"/>
              <path id="Trazado_189543" data-name="Trazado 189543" d="M343.436,42.418a3.574,3.574,0,1,0,3.574,3.574A3.573,3.573,0,0,0,343.436,42.418Z" transform="translate(-101.825 -28.181)" fill="#b13e8d"/>
              <path id="Trazado_189544" data-name="Trazado 189544" d="M354.017,42.418a3.574,3.574,0,1,0,3.574,3.574A3.573,3.573,0,0,0,354.017,42.418Z" transform="translate(-102.707 -28.181)" fill="#fee954"/>
              <path id="Trazado_189545" data-name="Trazado 189545" d="M364.6,42.418a3.574,3.574,0,1,0,3.574,3.574A3.573,3.573,0,0,0,364.6,42.418Z" transform="translate(-103.588 -28.181)" fill="#420b50"/>
            </g>
            <g id="Grupo_133260" data-name="Grupo 133260" transform="translate(0 209.49)">
              <rect id="Rectángulo_41248" data-name="Rectángulo 41248" width="205.12" height="13.399" rx="6.7" transform="translate(140.591)" fill="#180421"/>
              <rect id="Rectángulo_41249" data-name="Rectángulo 41249" width="225.167" height="13.399" rx="6.7" fill="#29083a"/>
              <g id="Grupo_133258" data-name="Grupo 133258" transform="translate(251.02 5.003)">
                <rect id="Rectángulo_41250" data-name="Rectángulo 41250" width="26.873" height="3.391" fill="#1d2a47"/>
                <rect id="Rectángulo_41251" data-name="Rectángulo 41251" width="25.726" height="3.391" transform="translate(0.001 0.001)" fill="#fff8f9"/>
              </g>
              <g id="Grupo_133259" data-name="Grupo 133259" transform="translate(288.205 5.003)">
                <rect id="Rectángulo_41252" data-name="Rectángulo 41252" width="26.873" height="3.391" fill="#1d2a47"/>
                <rect id="Rectángulo_41253" data-name="Rectángulo 41253" width="25.726" height="3.391" transform="translate(0.001 0.001)" fill="#fff8f9"/>
              </g>
            </g>
          </g>
          <g id="Grupo_133272" data-name="Grupo 133272" transform="translate(212.584 76.883)">
            <g id="Grupo_133271" data-name="Grupo 133271">
              <g id="Grupo_133262" data-name="Grupo 133262" transform="translate(56.589)">
                <path id="Trazado_189546" data-name="Trazado 189546" d="M347.34,81.867s-7.515,13.9-11.877,21.778c-9.622,17.376-13.165,31.379-7.4,47.33,0,0-.974,8.2-.949,8.572s7.408,9.4,7.408,9.4l13.56-6.195.835-13.77s5.711-20.272,2.92-36.707-4.692-26.939-4.493-30.411Z" transform="translate(-325.279 -81.867)" fill="#fcedae"/>
                <path id="Trazado_189547" data-name="Trazado 189547" d="M338.1,173.819s7.791-43.544,7.757-69.607c0,0-5.563,46.095-14.272,66.606Z" transform="translate(-325.804 -83.729)" fill="#94790e"/>
              </g>
              <g id="Grupo_133263" data-name="Grupo 133263" transform="translate(0 46.446)">
                <path id="Trazado_189548" data-name="Trazado 189548" d="M338.109,175.2s-11.92-32.4-40.882-40.734h-.006c-9.382-2.7-20.548-2.867-33.676,1.409,0,0,16.138-4.482,25.065,13,.327.633.641,1.3.949,2,8.684,19.81,20.079,30.856,27.359,33.7,4.418,1.725,9.876,6.173,13.486,9.4,2.34,2.1,3.9,3.679,3.9,3.679l3.891-.64-.044-11.474L338.11,175.2Z" transform="translate(-263.546 -132.536)" fill="#fcedae"/>
                <path id="Trazado_189549" data-name="Trazado 189549" d="M289.157,136.483c.519.192,17.1,6.575,43.381,57.819,2.34,2.1,3.9,3.679,3.9,3.679l3.891-.64-.044-11.474C333.709,173.876,314.276,142.335,289.157,136.483Z" transform="translate(-265.68 -132.865)" fill="#94790e"/>
              </g>
              <g id="Grupo_133264" data-name="Grupo 133264" transform="translate(61.479 39.841)">
                <path id="Trazado_189550" data-name="Trazado 189550" d="M357.659,132.711h-.006c-24.4,15.03-27.039,47.756-27.039,47.756l2.6,9.478,2.891,10.522,3.727-.407s1.027-1.847,2.635-4.367c2.483-3.878,6.345-9.346,9.951-12.056,5.94-4.467,13.554-17.5,16.448-37.86.1-.717.221-1.407.359-2.07,3.712-18.291,19.639-18.309,19.639-18.309C375.747,124.835,365.563,127.842,357.659,132.711Z" transform="translate(-330.614 -125.33)" fill="#fcedae"/>
                <path id="Trazado_189551" data-name="Trazado 189551" d="M333.451,190.519l2.891,10.522,3.727-.407s1.027-1.847,2.635-4.367c10.978-53.651,24.536-63.734,24.963-64.043C346.154,144,336.413,177.857,333.451,190.519Z" transform="translate(-330.85 -125.904)" fill="#94790e"/>
              </g>
              <g id="Grupo_133265" data-name="Grupo 133265" transform="translate(18.99 70.852)">
                <path id="Trazado_189552" data-name="Trazado 189552" d="M284.624,164.977c37.861,9,48.932,31.446,48.932,31.446C320.8,170.059,284.624,164.977,284.624,164.977Z" transform="translate(-284.292 -159.645)" fill="#94790e"/>
                <path id="Trazado_189553" data-name="Trazado 189553" d="M289.564,159.234a.368.368,0,0,0-.583.356c.559,3.309,2.049,4.152,2.743,4.367a.366.366,0,0,0,.468-.285c.127-.715.058-2.427-2.629-4.438Z" transform="translate(-284.655 -159.16)" fill="#94790e" opacity="0.7"/>
                <path id="Trazado_189554" data-name="Trazado 189554" d="M294.145,160.425a.368.368,0,0,0-.609.309c.3,3.342,1.717,4.3,2.393,4.569a.367.367,0,0,0,.489-.248C296.6,164.352,296.666,162.641,294.145,160.425Z" transform="translate(-285.035 -159.258)" fill="#94790e" opacity="0.7"/>
                <path id="Trazado_189555" data-name="Trazado 189555" d="M298.707,162.643c-.234,2.988.874,4.043,1.43,4.379a.327.327,0,0,0,.468-.146c.265-.593.576-2.09-1.314-4.415a.328.328,0,0,0-.582.181Z" transform="translate(-285.463 -159.425)" fill="#94790e" opacity="0.7"/>
                <path id="Trazado_189556" data-name="Trazado 189556" d="M303.434,164.171c-.819,2.882.058,4.135.535,4.576a.327.327,0,0,0,.487-.05c.377-.528.979-1.935-.415-4.588a.329.329,0,0,0-.607.063Z" transform="translate(-285.832 -159.558)" fill="#94790e" opacity="0.7"/>
                <path id="Trazado_189557" data-name="Trazado 189557" d="M307.984,166.077c-1.179,2.562-.544,3.853-.164,4.331a.307.307,0,0,0,.46.024c.427-.437,1.19-1.658.277-4.326a.309.309,0,0,0-.573-.03Z" transform="translate(-286.182 -159.722)" fill="#94790e" opacity="0.7"/>
                <path id="Trazado_189558" data-name="Trazado 189558" d="M313.416,167.413c-2.323,1.6-2.438,3.033-2.356,3.638a.308.308,0,0,0,.383.256c.59-.157,1.87-.816,2.451-3.575a.309.309,0,0,0-.478-.318Z" transform="translate(-286.494 -159.843)" fill="#94790e" opacity="0.7"/>
                <path id="Trazado_189559" data-name="Trazado 189559" d="M289.225,167.969c-.682-.253-2.379-.494-4.844,1.789a.369.369,0,0,0,.245.639c3.359.046,4.459-1.269,4.8-1.915a.366.366,0,0,0-.2-.512Z" transform="translate(-284.262 -159.881)" fill="#94790e" opacity="0.7"/>
                <path id="Trazado_189560" data-name="Trazado 189560" d="M293.382,169.443c-.7-.2-2.411-.307-4.689,2.163a.368.368,0,0,0,.294.617c3.352-.218,4.345-1.615,4.63-2.284a.367.367,0,0,0-.236-.5Z" transform="translate(-284.623 -160.009)" fill="#94790e" opacity="0.7"/>
                <path id="Trazado_189561" data-name="Trazado 189561" d="M297.772,170.627c-.646-.072-2.169.088-3.809,2.6a.329.329,0,0,0,.351.5c2.92-.689,3.587-2.066,3.739-2.7a.328.328,0,0,0-.282-.4Z" transform="translate(-285.066 -160.115)" fill="#94790e" opacity="0.7"/>
                <path id="Trazado_189562" data-name="Trazado 189562" d="M301.886,171.558c-.648.057-2.109.515-3.219,3.3a.329.329,0,0,0,.443.421c2.726-1.253,3.108-2.735,3.132-3.385a.328.328,0,0,0-.356-.338Z" transform="translate(-285.461 -160.193)" fill="#94790e" opacity="0.7"/>
                <path id="Trazado_189563" data-name="Trazado 189563" d="M305.371,173.357c-.6.25-1.854,1.128-2.07,4.121a.329.329,0,0,0,.55.267c2.219-2.018,2.135-3.548,1.961-4.174A.328.328,0,0,0,305.371,173.357Z" transform="translate(-285.849 -160.341)" fill="#94790e" opacity="0.7"/>
                <path id="Trazado_189564" data-name="Trazado 189564" d="M309.528,175c-.574.306-1.739,1.3-1.67,4.3a.328.328,0,0,0,.572.213c2.018-2.219,1.79-3.733,1.557-4.341a.327.327,0,0,0-.46-.171Z" transform="translate(-286.228 -160.477)" fill="#94790e" opacity="0.7"/>
              </g>
              <g id="Grupo_133266" data-name="Grupo 133266" transform="translate(71.899 45.099)">
                <path id="Trazado_189565" data-name="Trazado 189565" d="M341.981,195.331s3.237-31.773,44.5-59.4c0,0-40.993,22.191-44.5,59.4Z" transform="translate(-341.981 -131.471)" fill="#94790e"/>
                <path id="Trazado_189566" data-name="Trazado 189566" d="M381.854,131.28c-2.316,3.6-1.636,5.677-1.166,6.477a.468.468,0,0,0,.687.134c.735-.566,2.141-2.239,1.335-6.443a.469.469,0,0,0-.856-.165Z" transform="translate(-345.167 -131.066)" fill="#94790e" opacity="0.7"/>
                <path id="Trazado_189567" data-name="Trazado 189567" d="M376.937,134.745c-2.026,3.771-1.187,5.787-.655,6.548a.467.467,0,0,0,.695.079c.688-.622,1.958-2.4.826-6.529A.469.469,0,0,0,376.937,134.745Z" transform="translate(-344.787 -131.352)" fill="#94790e" opacity="0.7"/>
                <path id="Trazado_189568" data-name="Trazado 189568" d="M371.758,139.471c-1.225,3.622-.186,5.274.395,5.865a.418.418,0,0,0,.624-.034c.513-.65,1.369-2.4-.241-5.873a.419.419,0,0,0-.777.042Z" transform="translate(-344.415 -131.742)" fill="#94790e" opacity="0.7"/>
                <path id="Trazado_189569" data-name="Trazado 189569" d="M366.82,143.569c-.485,3.793.86,5.207,1.546,5.671a.417.417,0,0,0,.6-.156c.375-.738.866-2.628-1.4-5.709a.42.42,0,0,0-.754.2Z" transform="translate(-344.042 -132.077)" fill="#94790e" opacity="0.7"/>
                <path id="Trazado_189570" data-name="Trazado 189570" d="M362.286,147.983c.1,3.6,1.553,4.716,2.258,5.049a.392.392,0,0,0,.54-.233c.242-.741.426-2.568-2.125-5.106a.394.394,0,0,0-.672.29Z" transform="translate(-343.673 -132.442)" fill="#94790e" opacity="0.7"/>
                <path id="Trazado_189571" data-name="Trazado 189571" d="M356.887,151.773a.394.394,0,0,0-.429.593c1.924,3.041,3.747,3.259,4.523,3.184a.393.393,0,0,0,.345-.477c-.171-.761-.948-2.425-4.438-3.3Z" transform="translate(-343.182 -132.79)" fill="#94790e" opacity="0.7"/>
                <path id="Trazado_189572" data-name="Trazado 189572" d="M392.4,141.679c-3.964-1.632-5.885-.589-6.588.019a.468.468,0,0,0-.007.7c.69.622,2.591,1.7,6.587.153a.47.47,0,0,0,.009-.873Z" transform="translate(-345.62 -131.877)" fill="#94790e" opacity="0.7"/>
                <path id="Trazado_189573" data-name="Trazado 189573" d="M388.082,145.814c-3.824-1.937-5.822-1.047-6.57-.5a.468.468,0,0,0-.062.7c.639.673,2.45,1.9,6.554.669a.47.47,0,0,0,.078-.869Z" transform="translate(-345.259 -132.196)" fill="#94790e" opacity="0.7"/>
                <path id="Trazado_189574" data-name="Trazado 189574" d="M382.6,150.088c-3.08-2.274-4.971-1.787-5.712-1.413a.419.419,0,0,0-.159.606c.463.688,1.875,2.039,5.673,1.561a.42.42,0,0,0,.2-.754Z" transform="translate(-344.871 -132.506)" fill="#94790e" opacity="0.7"/>
                <path id="Trazado_189575" data-name="Trazado 189575" d="M372.439,151.614a.418.418,0,0,0-.275.563c.318.766,1.435,2.369,5.253,2.653a.42.42,0,0,0,.342-.7c-2.57-2.838-4.521-2.734-5.321-2.515Z" transform="translate(-344.494 -132.77)" fill="#94790e" opacity="0.7"/>
                <path id="Trazado_189576" data-name="Trazado 189576" d="M369.191,155.283a.419.419,0,0,0-.432.453c.071.826.652,2.692,4.2,4.117a.42.42,0,0,0,.539-.564C371.911,155.806,370.02,155.315,369.191,155.283Z" transform="translate(-344.212 -133.084)" fill="#94790e" opacity="0.7"/>
                <path id="Trazado_189577" data-name="Trazado 189577" d="M364.993,159.085a.418.418,0,0,0-.472.41c-.007.83.394,2.742,3.8,4.5a.42.42,0,0,0,.589-.51c-1.254-3.617-3.09-4.286-3.913-4.4Z" transform="translate(-343.859 -133.4)" fill="#94790e" opacity="0.7"/>
              </g>
              <g id="Grupo_133268" data-name="Grupo 133268" transform="translate(15.677 89.998)">
                <g id="Grupo_133267" data-name="Grupo 133267">
                  <path id="Trazado_189578" data-name="Trazado 189578" d="M328.968,189.285c-5.949-5.952-15.817-12.427-27.919-7.489-16.209,6.612-19.662,26.144-20.4,33.519a.95.95,0,0,0,1.648.735c6.141-6.771,26.744-26.924,47.958-18.761q1.188.454,2.377,1.032a2.564,2.564,0,0,0,.889.259,1.358,1.358,0,0,0,1.4-.625,1.465,1.465,0,0,0-.088-1.482,46.026,46.026,0,0,0-5.87-7.186Z" transform="translate(-280.648 -180.046)" fill="#fcedae"/>
                  <path id="Trazado_189579" data-name="Trazado 189579" d="M290.179,200.826l-.046.063C290.149,200.868,290.165,200.848,290.179,200.826Z" transform="translate(-281.439 -181.778)" fill="#94790e"/>
                  <path id="Trazado_189580" data-name="Trazado 189580" d="M290.184,199.571c1.535-2.082,18.574-22.968,40.871-1.806q1.188.454,2.377,1.032a2.564,2.564,0,0,0,.889.259,1.358,1.358,0,0,0,1.4-.625,1.465,1.465,0,0,0-.088-1.482s-24.246-26.84-45.45,2.623Z" transform="translate(-281.443 -180.522)" fill="#94790e"/>
                </g>
                <path id="Trazado_189581" data-name="Trazado 189581" d="M290.09,200.949c.01-.015.023-.032.04-.054A.6.6,0,0,0,290.09,200.949Z" transform="translate(-281.435 -181.784)" fill="#3c7219"/>
                <path id="Trazado_189582" data-name="Trazado 189582" d="M290.088,200.953l-.024.035Z" transform="translate(-281.433 -181.789)" fill="#3c7219"/>
              </g>
              <g id="Grupo_133269" data-name="Grupo 133269" transform="translate(71.09 79.439)">
                <path id="Trazado_189583" data-name="Trazado 189583" d="M361.311,169.384c-13.72,3.4-18.21,15.354-19.611,24.346a49.819,49.819,0,0,0-.544,10.021,1.581,1.581,0,0,0,.868,1.351,1.469,1.469,0,0,0,1.621-.347,2.766,2.766,0,0,0,.612-.793q.669-1.263,1.418-2.417c13.326-20.66,44.174-16.2,53.857-14.2a1.027,1.027,0,0,0,.971-1.692c-5.345-5.975-20.818-20.832-39.194-16.271Z" transform="translate(-341.098 -168.528)" fill="#fcedae"/>
                <path id="Trazado_189584" data-name="Trazado 189584" d="M341.7,194.258a49.819,49.819,0,0,0-.544,10.021,1.581,1.581,0,0,0,.868,1.351,1.469,1.469,0,0,0,1.621-.347,2.766,2.766,0,0,0,.612-.793q.669-1.263,1.418-2.417c6.048-33.064,34.792-25.105,36.933-24.462-26.652-8.886-36.968,5.644-40.91,16.648Z" transform="translate(-341.098 -169.055)" fill="#94790e"/>
              </g>
              <g id="Grupo_133270" data-name="Grupo 133270" transform="translate(30.211 15.923)">
                <path id="Trazado_189585" data-name="Trazado 189585" d="M334.379,213.79C350.922,157.723,304.3,101.66,304.3,101.66c43.857,64.1,30.082,112.129,30.082,112.129Z" transform="translate(-297.153 -99.439)" fill="#94790e"/>
                <path id="Trazado_189586" data-name="Trazado 189586" d="M317.678,99.576c-3.615,5.638-2.547,8.884-1.809,10.134a.73.73,0,0,0,1.075.207c1.148-.888,3.343-3.508,2.073-10.083a.735.735,0,0,0-1.34-.257Z" transform="translate(-298.055 -99.237)" fill="#94790e" opacity="0.7"/>
                <path id="Trazado_189587" data-name="Trazado 189587" d="M322.823,107.379c-4.045,5.338-3.235,8.657-2.6,9.961a.731.731,0,0,0,1.055.29c1.214-.8,3.607-3.235,2.857-9.889a.734.734,0,0,0-1.314-.362Z" transform="translate(-298.436 -99.892)" fill="#94790e" opacity="0.7"/>
                <path id="Trazado_189588" data-name="Trazado 189588" d="M327.843,117.14c-4.355,4.1-4.133,7.145-3.765,8.388a.652.652,0,0,0,.887.412c1.187-.52,3.657-2.314,3.983-8.286A.656.656,0,0,0,327.843,117.14Z" transform="translate(-298.786 -100.714)" fill="#94790e" opacity="0.7"/>
                <path id="Trazado_189589" data-name="Trazado 189589" d="M332.693,125.779c-5.08,3.158-5.464,6.187-5.349,7.478a.653.653,0,0,0,.787.58c1.267-.275,4.043-1.545,5.543-7.336a.656.656,0,0,0-.981-.721Z" transform="translate(-299.072 -101.441)" fill="#94790e" opacity="0.7"/>
                <path id="Trazado_189590" data-name="Trazado 189590" d="M336.847,134.741c-5.179,2.2-5.976,4.962-6.056,6.179a.614.614,0,0,0,.648.653c1.217-.073,3.982-.852,6.214-6.019a.617.617,0,0,0-.808-.812Z" transform="translate(-299.361 -102.192)" fill="#94790e" opacity="0.7"/>
                <path id="Trazado_189591" data-name="Trazado 189591" d="M343.1,144.18c-5.577-.758-7.672,1.207-8.364,2.211a.614.614,0,0,0,.224.892c1.083.56,3.857,1.305,8.419-1.992A.617.617,0,0,0,343.1,144.18Z" transform="translate(-299.681 -102.968)" fill="#94790e" opacity="0.7"/>
                <path id="Trazado_189592" data-name="Trazado 189592" d="M297.232,108.671a.735.735,0,0,0-.494,1.272c4.9,4.576,8.291,4.109,9.654,3.608a.731.731,0,0,0,.4-1.021c-.668-1.291-2.851-3.924-9.556-3.859Z" transform="translate(-296.503 -100.023)" fill="#94790e" opacity="0.7"/>
                <path id="Trazado_189593" data-name="Trazado 189593" d="M301.087,117.221a.735.735,0,0,0-.394,1.308c5.244,4.178,8.587,3.447,9.908,2.84a.732.732,0,0,0,.316-1.05C310.15,119.084,307.766,116.63,301.087,117.221Z" transform="translate(-296.829 -100.729)" fill="#94790e" opacity="0.7"/>
                <path id="Trazado_189594" data-name="Trazado 189594" d="M306.662,126.686a.656.656,0,0,0-.153,1.21c5.239,2.9,8.074,1.762,9.147,1.032a.653.653,0,0,0,.122-.971c-.858-.973-3.322-2.782-9.117-1.27Z" transform="translate(-297.309 -101.476)" fill="#94790e" opacity="0.7"/>
                <path id="Trazado_189595" data-name="Trazado 189595" d="M320.531,134.852c-1.034-.785-3.807-2.07-9.188.558a.657.657,0,0,0,.09,1.216c5.709,1.809,8.263.13,9.171-.8a.655.655,0,0,0-.072-.977Z" transform="translate(-297.709 -102.121)" fill="#94790e" opacity="0.7"/>
                <path id="Trazado_189596" data-name="Trazado 189596" d="M323.172,142.117c-1.222-.435-4.254-.822-8.589,3.311a.657.657,0,0,0,.453,1.132c5.989,0,7.915-2.376,8.5-3.534a.652.652,0,0,0-.364-.908Z" transform="translate(-297.993 -102.789)" fill="#94790e" opacity="0.7"/>
                <path id="Trazado_189597" data-name="Trazado 189597" d="M327.088,150.09c-1.259-.317-4.313-.415-8.237,4.109a.657.657,0,0,0,.558,1.084c5.962-.569,7.655-3.114,8.128-4.322A.654.654,0,0,0,327.088,150.09Z" transform="translate(-298.352 -103.464)" fill="#94790e" opacity="0.7"/>
              </g>
            </g>
            <path id="Trazado_189598" data-name="Trazado 189598" d="M351.2,196.157H323.079a2.6,2.6,0,0,0-2.6,2.6v43.757a2.6,2.6,0,0,0,2.6,2.6H351.2a2.6,2.6,0,0,0,2.6-2.6V198.757A2.6,2.6,0,0,0,351.2,196.157Z" transform="translate(-268.29 -91.391)" fill="#fee954"/>
            <path id="Trazado_189599" data-name="Trazado 189599" d="M351.2,196.157H348.15c-.264,10-3.221,37.912-27.671,44.749v1.607a2.6,2.6,0,0,0,2.6,2.6H351.2a2.6,2.6,0,0,0,2.6-2.6V198.757A2.6,2.6,0,0,0,351.2,196.157Z" transform="translate(-268.29 -91.391)" fill="#fdab00"/>
          </g>
          <g id="Grupo_133289" data-name="Grupo 133289" transform="translate(25.765 73.353)">
            <path id="Trazado_189600" data-name="Trazado 189600" d="M165.058,186.488c-10.933-5.794-20.1-15.122-27.236-24.4A154.56,154.56,0,0,1,122.511,137.5a58.564,58.564,0,0,0-16.182-19.971c-11.267-8.844-28.975-16.115-51.674-4.16C46.619,117.6,40.5,124.712,36.17,133.5a.009.009,0,0,1,0,0c-17.709,35.954-5.394,99.96,28.655,109.56H172.08s.6-1.179,1.473-3.21a83.788,83.788,0,0,0,5.066-16.137c2.575-12.936,1.9-29.036-13.561-37.228Z" transform="translate(-28.108 -82.278)" fill="#6d3c8c"/>
            <path id="Trazado_189601" data-name="Trazado 189601" d="M45.58,143.754c8.9-6.843,18.489-2.23,18.489-2.23-11.642-8.558-18.489,2.23-18.489,2.23Z" transform="translate(-29.564 -84.871)" fill="#420b50"/>
            <path id="Trazado_189602" data-name="Trazado 189602" d="M45.58,171.578a29.665,29.665,0,0,1,21.941-15.737C48.309,155.1,45.58,171.578,45.58,171.578Z" transform="translate(-29.564 -86.337)" fill="#420b50"/>
            <path id="Trazado_189603" data-name="Trazado 189603" d="M56.843,198.66a29.662,29.662,0,0,1,16.4-21.453c-18.593,4.891-16.4,21.453-16.4,21.453Z" transform="translate(-30.496 -88.12)" fill="#420b50"/>
            <path id="Trazado_189604" data-name="Trazado 189604" d="M165.058,188.381c-10.933-5.794-20.1-15.122-27.236-24.4l-16.9-2.454-31.745-31.72-21.173,2.7s-4.73,2.331,2.847,23.108,2.592,35.846,18.326,40.248,47.085-12.176,55.455,3.417c4.533,8.448,12.642,20.2,19.122,29.2-5.361,6.043-19.3,12.518-40.6,12.194-28.369-.432-28.674-16.412-28.674-16.412-2.2,13.172-22.207,14.252-32.6,10.8s-9.907-14.43-9.907-14.43C14.99,198.958,35.993,135.921,36.168,135.4c-17.709,35.954-5.394,99.96,28.655,109.56H172.08s.6-1.179,1.473-3.21l.122-.286c.016-.037.031-.074.047-.111.027-.064.054-.128.081-.194.017-.042.035-.083.052-.127l.118-.284.059-.145.073-.178c.023-.055.044-.111.067-.167l.068-.17q.044-.11.089-.222c.033-.082.065-.164.1-.248.024-.06.048-.123.073-.185l.068-.173c.024-.063.049-.124.073-.187s.051-.131.076-.2q.056-.145.113-.294c.026-.07.054-.14.08-.211s.048-.126.071-.189l.079-.211c.023-.06.046-.121.067-.183.044-.12.089-.241.134-.364l.059-.163c.031-.083.06-.168.091-.253.022-.059.043-.119.064-.179.033-.094.067-.188.1-.283.016-.047.033-.094.049-.14.048-.137.1-.274.144-.413.017-.048.033-.1.05-.146.035-.1.072-.208.107-.313l.051-.151c.05-.147.1-.3.149-.445a.112.112,0,0,0,.006-.018c.05-.152.1-.3.151-.458.014-.041.027-.083.04-.126.042-.129.083-.259.126-.39l.031-.1c.052-.165.1-.332.156-.5,0-.014.009-.029.013-.042.048-.154.095-.309.143-.466.01-.033.021-.066.03-.1.051-.169.1-.338.152-.509h0q.08-.274.16-.551c0-.015.009-.03.013-.046.048-.169.1-.338.144-.509.006-.019.01-.039.016-.058q.156-.56.307-1.133c0-.011.006-.024.009-.035q.229-.873.443-1.775c0-.008,0-.017.006-.025,3.141-13.291,3.447-30.987-13.019-39.713Z" transform="translate(-28.108 -84.17)" fill="#6d3c8c"/>
            <g id="Grupo_133288" data-name="Grupo 133288" transform="translate(27.269)">
              <g id="Grupo_133285" data-name="Grupo 133285">
                <path id="Trazado_189605" data-name="Trazado 189605" d="M147.806,158.324l-.916-4.352-21.763-4.309-4.357,3.724.143.681,1.912,9.116H148.37l-.411-4.132Z" transform="translate(-63.098 -85.825)" fill="#f5ae97"/>
                <path id="Trazado_189606" data-name="Trazado 189606" d="M147.819,158.646l-25.877-5.124-1.017.869,1.912,9.116h25.545l-.411-4.132Z" transform="translate(-63.111 -86.146)" fill="#ed856e"/>
                <path id="Trazado_189607" data-name="Trazado 189607" d="M103.211,126.88a9.432,9.432,0,0,0-5.116-5.2,7.5,7.5,0,0,0-1.469-.444,4.04,4.04,0,0,0-4.007,1.309c-3.532,4.007,3.746,28.058,7.039,30.911s17.277,6.215,17.277,6.215a40.736,40.736,0,0,1,.462-11.793,13.25,13.25,0,0,1,1.276-3.473l-9.488-2.829-5.973-14.7Z" transform="translate(-60.674 -83.448)" fill="#420b50"/>
                <path id="Trazado_189608" data-name="Trazado 189608" d="M108.656,145.275l-7.524-18.513a12.008,12.008,0,0,0-4.506-5.523,4.04,4.04,0,0,0-4.007,1.309c-3.532,4.007,3.746,28.058,7.039,30.911s17.277,6.215,17.277,6.215a40.736,40.736,0,0,1,.462-11.793Z" transform="translate(-60.674 -83.448)" fill="#420b50"/>
                <g id="Grupo_133273" data-name="Grupo 133273" transform="translate(55.015 60.13)">
                  <path id="Trazado_189609" data-name="Trazado 189609" d="M125.986,146.371l-.408-.074-.7-.126-1.593-.289-.761-.137-.566-.1a1.59,1.59,0,0,0-1.707.856,22.235,22.235,0,0,0-1.562,15.84,1.591,1.591,0,0,0,1.151,1.1l4.493,1.1a1.59,1.59,0,0,0,1.964-1.658c-.249-3.489-.5-10.342.911-14.44a1.586,1.586,0,0,0-1.223-2.071Z" transform="translate(-117.872 -145.618)" fill="#180421"/>
                  <path id="Trazado_189610" data-name="Trazado 189610" d="M121.241,156.261s.628-6.809,2.309-10.366l-.761-.137c-.681,1.772-2.333,6.652-1.548,10.5Z" transform="translate(-118.135 -145.629)" fill="#420b50"/>
                  <path id="Trazado_189611" data-name="Trazado 189611" d="M124.509,154.87a48.7,48.7,0,0,1,1.6-8.522l-.7-.126C124.7,148.525,123.921,151.985,124.509,154.87Z" transform="translate(-118.407 -145.668)" fill="#420b50"/>
                </g>
                <path id="Trazado_189612" data-name="Trazado 189612" d="M105.061,137.642l-.682-4.536-6.669-8.538-4.935-3.133-6.416,2.386L83.5,130.506l4.3,12.606-2.022,13.339s3.346,9.337,3.666,9.738,3.856,3.2,3.856,3.2l10.01,1,4-1.4.4-5.244-4.4-15.3,1.745-10.8Z" transform="translate(-59.993 -83.472)" fill="#fef7dc"/>
                <g id="Grupo_133274" data-name="Grupo 133274" transform="translate(135.757 113.93)">
                  <path id="Trazado_189613" data-name="Trazado 189613" d="M240.312,204.31a25.435,25.435,0,0,0-14.135,4.07l-5.466,3.46-9.908-.958-4.849,12.512,9.528,10.3,2.4,2.59L244.733,204.5a.058.058,0,0,1-.052.015,37.673,37.673,0,0,0-4.37-.208Z" transform="translate(-205.954 -204.308)" fill="#fdab00"/>
                  <path id="Trazado_189614" data-name="Trazado 189614" d="M242.212,204.4a25.435,25.435,0,0,0-14.135,4.07s-3.08,7.969,6.579,10.3l11.979-14.174a.058.058,0,0,1-.052.015,37.673,37.673,0,0,0-4.37-.208Z" transform="translate(-207.758 -204.315)" fill="#fee954"/>
                  <path id="Trazado_189615" data-name="Trazado 189615" d="M241.282,204.4l-24.829,29.38,2.4,2.59,26.854-31.776a.058.058,0,0,1-.052.015,37.676,37.676,0,0,0-4.37-.208Z" transform="translate(-206.829 -204.315)" fill="#fff"/>
                </g>
                <path id="Trazado_189616" data-name="Trazado 189616" d="M163.463,168.555l-49.275-.963v13.373l43.96,5.77s23.722,32.859,37.507,34.623c8.584,1.1,13.75-4.891,16.425-9.564a27.693,27.693,0,0,0,2.329-5.183l-44.712-35.8A10.294,10.294,0,0,0,163.463,168.555Z" transform="translate(-62.55 -87.319)" fill="#0a2240"/>
                <path id="Trazado_189617" data-name="Trazado 189617" d="M157.775,170.7,113.4,167.068l.723,13.853,43.96,5.77s23.722,32.859,37.507,34.623c8.584,1.1,13.75-4.891,16.425-9.564l-45.329-36.294c-1.86-1.488-6.528-4.706-8.909-4.752Z" transform="translate(-62.484 -87.275)" fill="#020b14"/>
                <path id="Trazado_189618" data-name="Trazado 189618" d="M91.231,153.411c-.008-.035-.015-.072-.023-.107A14.7,14.7,0,0,1,91,147.95q.079-.484.156-.941c1.425-8.354,2.634-10.046-3.27-18.745-5.572-8.21-5.984-8.953-5.984-8.953s-9.45,4.054-10.185,11.058c-.315,3,1.769,11.661,4.254,20.581,1.083,3.885,2.242,7.82,3.311,11.357,2.206,7.3,4.034,12.9,4.034,12.9s6.472-6.437,15.745-7.1c0,0-.751-.863-1.8-2.307-1.961-2.707-4.967-7.454-6.03-12.392Z" transform="translate(-59.008 -83.295)" fill="#420b50"/>
                <g id="Grupo_133280" data-name="Grupo 133280">
                  <path id="Trazado_189619" data-name="Trazado 189619" d="M89.3,114.462a3.37,3.37,0,0,0-3.872.839s.246,2.545.312,2.748,1.238.283,1.238.283l3.09-1.1A1.713,1.713,0,0,0,89.3,114.462Z" transform="translate(-60.153 -82.864)" fill="#d38700"/>
                  <g id="Grupo_133275" data-name="Grupo 133275" transform="translate(0 0.949)">
                    <path id="Trazado_189620" data-name="Trazado 189620" d="M69.232,83.588c-6.457,6.465-2.924,27.45-11.375,32.9,0,0,16.923,10.635,22.428-15.1l1.877-16.307s-6.472-7.953-12.929-1.488Z" transform="translate(-57.856 -81.056)" fill="#131e36"/>
                    <path id="Trazado_189621" data-name="Trazado 189621" d="M69.973,85.816c-4.317,6.768-2.932,16.462-5.021,21.077,0,0,2.178-2.942,3.3-11.9s6.48-13.674,12.16-10.568c0,0-6.127-5.375-10.444,1.392Z" transform="translate(-58.447 -81.168)"/>
                    <path id="Trazado_189622" data-name="Trazado 189622" d="M68.394,108.329s3.076-.656,4.072-8.362,1.867-9.529,1.867-9.529a28.071,28.071,0,0,0-3.051,10.669c-.513,6.249-2.888,7.221-2.888,7.221Z" transform="translate(-58.734 -81.838)"/>
                    <path id="Trazado_189623" data-name="Trazado 189623" d="M77.931,98.332c-.668,3.852-2.409,10.291-6.683,11.623-6.44,2.007-4.109,7.071-13.392,6.843,0,0,16.923,10.635,22.428-15.1l.98-8.519,2-6.487-1.615-1.855s-8.049,1.786-3.724,13.5Z" transform="translate(-57.856 -81.371)"/>
                    <path id="Trazado_189624" data-name="Trazado 189624" d="M65.358,119.152c10.713.467,13.354-12.488,13.354-12.488l.03-.261C73.728,117.669,65.358,119.152,65.358,119.152Z" transform="translate(-58.481 -83.169)" fill="#131e36"/>
                  </g>
                  <g id="Grupo_133276" data-name="Grupo 133276" transform="translate(21.992 5.565)">
                    <path id="Trazado_189625" data-name="Trazado 189625" d="M98.01,86.093l-.873,1.059L88.213,98.016s-4.323-3.752-6.107,1.375c-.832,2.408.479,4.3,1.942,5.561.006,0,0,.006.01.013.236.189.46.383.688.539a12.766,12.766,0,0,0,1.741,1.074.815.815,0,0,1,.464.731s.655,6.478-2.045,8.228c0,0,1.561,4.538,5.013,6.122h0L93.5,125l1.269-3.462.3-1.527a3.821,3.821,0,0,0-.024-2.2,4.772,4.772,0,0,1-.011-2.337c.014-.071.022-.143.035-.209.169-.932.4-1.73.4-1.73a5.238,5.238,0,0,0,2.26.9c7.93,1.372,9.97-13.583,9.97-13.583l.493-3.36,1.029-7L99.143,86.537l-1.136-.445Z" transform="translate(-81.847 -86.092)" fill="#f5ae97"/>
                    <path id="Trazado_189626" data-name="Trazado 189626" d="M86.887,101.509c0-.009.009-.018.015-.027a.8.8,0,0,0-1.03-1.1c-.56.244-1.082.861-.852,2.372.446,2.934,2.143,1.882,2.133,1S86.4,102.417,86.887,101.509Z" transform="translate(-82.107 -87.278)" fill="#ed856e"/>
                    <path id="Trazado_189627" data-name="Trazado 189627" d="M99.681,99.038a2.527,2.527,0,0,0-1.35.329,1.766,1.766,0,0,0-.909,1.028.432.432,0,0,0,.235.547.423.423,0,0,0,.547-.235,1.42,1.42,0,0,1,1.386-.832,1.176,1.176,0,0,1,.742.27.942.942,0,0,1,.339.582.421.421,0,0,0,.831-.133,1.923,1.923,0,0,0-1.819-1.555Z" transform="translate(-83.143 -87.171)" fill="#072c35"/>
                    <path id="Trazado_189628" data-name="Trazado 189628" d="M107.352,99.516a2.236,2.236,0,0,0-2.1,1.156.42.42,0,1,0,.674.5,1.5,1.5,0,0,1,1.28-.828,1.381,1.381,0,0,1,1.091.938.42.42,0,1,0,.83-.134,2.2,2.2,0,0,0-1.78-1.633Z" transform="translate(-83.791 -87.209)" fill="#072c35"/>
                    <path id="Trazado_189629" data-name="Trazado 189629" d="M107.082,102.8c-.411-.046-.8.45-.875,1.106s.2,1.224.614,1.269.8-.45.875-1.106S107.494,102.845,107.082,102.8Z" transform="translate(-83.876 -87.484)" fill="#072c35"/>
                    <path id="Trazado_189630" data-name="Trazado 189630" d="M99.642,101.909c-.434-.048-.847.475-.923,1.166s.213,1.291.647,1.338.847-.475.923-1.166S100.076,101.957,99.642,101.909Z" transform="translate(-83.252 -87.41)" fill="#072c35"/>
                    <path id="Trazado_189631" data-name="Trazado 189631" d="M103.837,110.52l-4.814-1.178a.472.472,0,0,0-.587.45c-.011,1.111.213,3.448,2.268,3.809s3.079-1.511,3.46-2.448a.471.471,0,0,0-.329-.633Z" transform="translate(-83.23 -88.028)" fill="#cb6655"/>
                    <path id="Trazado_189632" data-name="Trazado 189632" d="M85.012,107.251a12.557,12.557,0,0,0,1.744,1.065,1.918,1.918,0,0,0,2.24-1.3,3.17,3.17,0,0,1-3.983.23Z" transform="translate(-82.111 -87.836)" fill="#ed856e"/>
                  </g>
                  <g id="Grupo_133278" data-name="Grupo 133278" transform="translate(19.965)">
                    <path id="Trazado_189633" data-name="Trazado 189633" d="M82.053,99.079c-3.148-8.916,1.924-13.634,1.924-13.634C75.5,91.076,82.053,99.079,82.053,99.079Z" transform="translate(-79.636 -80.473)" fill="#b13e8d"/>
                    <g id="Grupo_133277" data-name="Grupo 133277" transform="translate(1.676)">
                      <path id="Trazado_189634" data-name="Trazado 189634" d="M98.05,80.051a8.725,8.725,0,0,0-5.644,1.54H92.4a7.346,7.346,0,0,0-1.144.943c-13.335-.4-9.18,16.351-9.18,16.351.771-2.466,2.295-2.81,3.631-2.54a4.483,4.483,0,0,1,3.117,2.6l.431.973c10.673-2.267,10.317-9.253,10.317-9.253.981,4.515,8.506,6.877,8.506,6.877a8.3,8.3,0,0,0,.911-1.435c2.137-4.313-.383-9.034-.383-9.034-4.055-5.1-7.685-6.805-10.556-7.023Z" transform="translate(-81.464 -80.021)" fill="#131e36"/>
                      <path id="Trazado_189635" data-name="Trazado 189635" d="M99.6,89.266s-2.477,9.31-10.277,9.19c0,0-5.2-6.53-7.2,1.2.771-2.466,2.295-2.81,3.631-2.54a4.483,4.483,0,0,1,3.117,2.6l.431.973c10.673-2.267,10.317-9.253,10.317-9.253.981,4.515,8.506,6.877,8.506,6.877a8.294,8.294,0,0,0,.911-1.435s-8.274-2.184-9.441-7.612Z" transform="translate(-81.52 -80.791)"/>
                      <path id="Trazado_189636" data-name="Trazado 189636" d="M89.924,95.779C96.6,96.127,97.7,90.3,97.7,90.3,95.131,94.333,89.924,95.779,89.924,95.779Z" transform="translate(-82.169 -80.878)"/>
                      <path id="Trazado_189637" data-name="Trazado 189637" d="M103.623,88.938a10.332,10.332,0,0,0,7.152,6.034A23.667,23.667,0,0,1,103.623,88.938Z" transform="translate(-83.311 -80.764)"/>
                      <path id="Trazado_189638" data-name="Trazado 189638" d="M93.3,81.59H93.29a7.346,7.346,0,0,0-1.144.943,8.806,8.806,0,0,1,3.88,2.351s-1.862-4.6,2.914-4.835a8.725,8.725,0,0,0-5.644,1.54Z" transform="translate(-82.354 -80.021)"/>
                    </g>
                  </g>
                  <path id="Trazado_189639" data-name="Trazado 189639" d="M92.753,111.41s.079,4.277,3.188,6.17c.014-.071.022-.143.035-.209.169-.932.4-1.73.4-1.73S93.387,113.487,92.753,111.41Z" transform="translate(-60.764 -82.637)" fill="#ed856e"/>
                  <path id="Trazado_189640" data-name="Trazado 189640" d="M88.976,121.423l-3.551-6.017,1.941,8.36,6.43,3.673-2.8-5.933Z" transform="translate(-60.153 -82.97)" fill="#d38700"/>
                  <path id="Trazado_189641" data-name="Trazado 189641" d="M85.209,115.406l-2.379,3.578,3.763,9.625,4.184-7.1a18.308,18.308,0,0,1-5.568-6.1Z" transform="translate(-59.937 -82.97)" fill="#fee954"/>
                  <g id="Grupo_133279" data-name="Grupo 133279" transform="translate(33.643 35.933)">
                    <path id="Trazado_189642" data-name="Trazado 189642" d="M95.776,121.144l-1.22,6.8,2.6-4.484-1.18-2.313Z" transform="translate(-94.557 -119.381)" fill="#d38700"/>
                    <path id="Trazado_189643" data-name="Trazado 189643" d="M96.054,119.22l-.167,1.763,2.136,5.865-1.267-6.617Z" transform="translate(-94.667 -119.22)" fill="#fee954"/>
                  </g>
                </g>
                <path id="Trazado_189644" data-name="Trazado 189644" d="M106.463,144.335c1.673-10.552,1.05-10.806-2.4-14.351a69.639,69.639,0,0,1-7.231-9.661l.652,3.4s3.05,6.341,6,8.957-.591,10.806,0,16.293,4.264,15.223,4.264,15.223h4.262s-7.229-9.313-5.556-19.866Z" transform="translate(-61.104 -83.38)" fill="#420b50"/>
                <g id="Grupo_133282" data-name="Grupo 133282" transform="translate(12.476 43.29)">
                  <path id="Trazado_189645" data-name="Trazado 189645" d="M92.021,148.9q.079-.484.156-.941l-1.793-.527-6.513-14.417-2.19,10.114s1.157,4.792,1.241,4.956,4.406,5.056,4.406,5.056l4.447,1.7.455-.591a14.7,14.7,0,0,1-.21-5.354Z" transform="translate(-72.317 -127.728)" fill="#180421"/>
                  <path id="Trazado_189646" data-name="Trazado 189646" d="M84.525,155.444l-7.959-1.825c1.083,3.885,2.242,7.82,3.311,11.357,3.131,2.282,8.366,3.889,17.04,3.538.319-.013.633-.027.94-.042-1.961-2.707-4.967-7.454-6.03-12.392l-7.3-.637Z" transform="translate(-71.891 -129.444)" fill="#180421"/>
                  <path id="Trazado_189647" data-name="Trazado 189647" d="M130.054,161.985c-5.293-5.81-15.028-4.2-15.028-4.2l-11.048-2.6-5.172,1.672,1.58,7.627.331,1.6,11.072-.46H132l-.847-1.577-1.1-2.056Z" transform="translate(-73.744 -129.574)" fill="#ed856e"/>
                  <path id="Trazado_189648" data-name="Trazado 189648" d="M115.026,157.78l-11.048-2.6-5.172,1.672,1.58,7.627,10.517-.437h20.254l-1.1-2.056c-5.293-5.81-15.028-4.2-15.028-4.2Z" transform="translate(-73.744 -129.574)" fill="#f5ae97"/>
                  <path id="Trazado_189649" data-name="Trazado 189649" d="M88.667,147.956,83,133.137a9.427,9.427,0,0,0-5.008-5.3c-1.8-.784-3.878-1.005-5.492.751-3.614,3.934,3.165,28.13,6.4,31.05s17.24,5.375,17.24,5.375-1.06-8.922,1.957-14.031l-9.427-3.025Z" transform="translate(-71.466 -127.247)" fill="#420b50"/>
                  <g id="Grupo_133281" data-name="Grupo 133281" transform="translate(23.512 22.922)">
                    <path id="Trazado_189650" data-name="Trazado 189650" d="M105.364,153.1l-.646-.131-.711-.144-1.462-.3-.848-.172-.345-.07a1.309,1.309,0,0,0-.175-.025,1.591,1.591,0,0,0-1.55.846,18.925,18.925,0,0,0-1.794,14.61,1.593,1.593,0,0,0,1.127,1.126l4.471,1.191a1.59,1.59,0,0,0,2-1.618c-.176-3.494-.38-9.155,1.115-13.222A1.586,1.586,0,0,0,105.364,153.1Z" transform="translate(-97.116 -152.252)" fill="#180421"/>
                    <path id="Trazado_189651" data-name="Trazado 189651" d="M99.346,163.41s1.213-7.743,3.379-10.875l-.848-.172S98.673,158.562,99.346,163.41Z" transform="translate(-97.294 -152.261)" fill="#420b50"/>
                    <path id="Trazado_189652" data-name="Trazado 189652" d="M102.706,162.216a45.411,45.411,0,0,1,2.47-9.2l-.711-.144C103.564,155.056,102.252,158.943,102.706,162.216Z" transform="translate(-97.574 -152.304)" fill="#420b50"/>
                  </g>
                </g>
                <g id="Grupo_133284" data-name="Grupo 133284" transform="translate(24.307 80.274)">
                  <g id="Grupo_133283" data-name="Grupo 133283" transform="translate(91.76 53.896)">
                    <path id="Trazado_189653" data-name="Trazado 189653" d="M226.994,230.038a37.62,37.62,0,0,0-4.125-1.456,25.44,25.44,0,0,0-14.709-.168l-6.229,1.741-9.214-3.768-8.243,10.589,6.164,12.6,1.551,3.17,34.859-22.709a.058.058,0,0,1-.055,0Z" transform="translate(-184.474 -226.388)" fill="#fdab00"/>
                    <path id="Trazado_189654" data-name="Trazado 189654" d="M229.078,230.245a37.622,37.622,0,0,0-4.125-1.456,25.44,25.44,0,0,0-14.709-.168s-5.242,6.747,3.34,11.754l15.549-10.129A.058.058,0,0,1,229.078,230.245Z" transform="translate(-186.489 -226.49)" fill="#fee954"/>
                    <path id="Trazado_189655" data-name="Trazado 189655" d="M227.629,230.352A37.622,37.622,0,0,0,223.5,228.9l-32.23,21,1.551,3.17,34.859-22.709a.058.058,0,0,1-.055,0Z" transform="translate(-185.041 -226.597)" fill="#fff"/>
                  </g>
                  <path id="Trazado_189656" data-name="Trazado 189656" d="M151.6,171.939l-39.9-4.346a43.814,43.814,0,0,0-25.872,10.346q-.734.621-1.459,1.294s1.887,18.265,25.719,15.02L141.472,192a5.4,5.4,0,0,1,4.824,2.316l30.443,44.8a29.107,29.107,0,0,0,8.18-1.943c5.257-2.068,11.437-6.31,13.281-14.968l-39.339-46.3a10.852,10.852,0,0,0-7.257-3.957Z" transform="translate(-84.372 -167.592)" fill="#0a2240"/>
                  <path id="Trazado_189657" data-name="Trazado 189657" d="M104.565,193.637c-17.18.969-18.709-14.743-18.709-14.743l-.025-.015q-.734.621-1.459,1.294s1.887,18.265,25.719,15.02l31.381-2.255a5.4,5.4,0,0,1,4.824,2.316l30.443,44.8a29.107,29.107,0,0,0,8.18-1.943l-39.583-47.919s-23.592,2.483-40.772,3.451Z" transform="translate(-84.372 -168.533)" fill="#020b14"/>
                </g>
              </g>
              <g id="Grupo_133287" data-name="Grupo 133287" transform="translate(48.426 48.344)">
                <path id="Trazado_189658" data-name="Trazado 189658" d="M143.436,166.567H112.173a1.489,1.489,0,0,0,0,2.978h31.263a1.489,1.489,0,1,0,0-2.978Z" transform="translate(-110.684 -135.577)" fill="#fdab00"/>
                <path id="Trazado_189659" data-name="Trazado 189659" d="M174.348,166.567H131.982a1.489,1.489,0,0,0,0,2.978h42.366a1.489,1.489,0,1,0,0-2.978Z" transform="translate(-112.335 -135.577)" fill="#fdab00"/>
                <g id="Grupo_133286" data-name="Grupo 133286" transform="translate(19.239)">
                  <path id="Trazado_189660" data-name="Trazado 189660" d="M180.846,132.76H139.5a1.553,1.553,0,0,0-1.515,1.212l-6.276,27.883a1.553,1.553,0,0,0,1.515,1.894h41.345a1.553,1.553,0,0,0,1.515-1.212l6.276-27.883A1.553,1.553,0,0,0,180.846,132.76Z" transform="translate(-131.672 -132.76)" fill="#fdab00"/>
                  <path id="Trazado_189661" data-name="Trazado 189661" d="M182.458,132.76H141.114a1.553,1.553,0,0,0-1.515,1.212l-6.276,27.883a1.553,1.553,0,0,0,1.515,1.894h41.345a1.553,1.553,0,0,0,1.515-1.212l6.276-27.883A1.553,1.553,0,0,0,182.458,132.76Z" transform="translate(-131.806 -132.76)" fill="#fee954"/>
                </g>
              </g>
            </g>
          </g>
        </g>
      </g>
    </g>
  </g>
</svg>
