<svg xmlns="http://www.w3.org/2000/svg" xmlns:xlink="http://www.w3.org/1999/xlink" width="90" height="90" viewBox="0 0 90 90">
  <defs>
    <clipPath id="clip-path">
      <rect id="Rectángulo_41340" data-name="Rectángulo 41340" width="55" height="55" fill="none"/>
    </clipPath>
  </defs>
  <g id="Grupo_136148" data-name="Grupo 136148" transform="translate(-280 -2015)">
    <circle id="Elipse_5201" data-name="Elipse 5201" cx="45" cy="45" r="45" transform="translate(280 2015)" fill="#b13e8d"/>
    <g id="Grupo_133523" data-name="Grupo 133523" transform="translate(298 2033)">
      <g id="Grupo_133522" data-name="Grupo 133522" clip-path="url(#clip-path)">
        <path id="Trazado_190223" data-name="Trazado 190223" d="M50.729,38.461a3.982,3.982,0,0,0-1.888.626,2.29,2.29,0,0,1-1.125.4.863.863,0,0,1-.365-.153V33.8a3.4,3.4,0,0,0-1.067-2.473,3.4,3.4,0,0,0,1.067-2.47v-5.54a.865.865,0,0,1,.364-.153,2.292,2.292,0,0,1,1.126.4,3.98,3.98,0,0,0,1.888.626A4.039,4.039,0,0,0,53.7,23.039a4.274,4.274,0,0,0,0-6.148,4.05,4.05,0,0,0-2.967-1.155,3.98,3.98,0,0,0-1.888.626,2.29,2.29,0,0,1-1.125.4.863.863,0,0,1-.365-.153v-5.54a3.428,3.428,0,0,0-3.429-3.42H41.045a.9.9,0,0,1-.169-.386,2.285,2.285,0,0,1,.406-1.123,3.955,3.955,0,0,0,.628-1.883A4.036,4.036,0,0,0,40.751,1.3a4.3,4.3,0,0,0-6.163,0,4.036,4.036,0,0,0-1.157,2.96,3.958,3.958,0,0,0,.628,1.883,2.281,2.281,0,0,1,.406,1.122.9.9,0,0,1-.17.387h-8.2A3.42,3.42,0,0,0,23.56,8.78a3.415,3.415,0,0,0-2.3-.894H15.718a.885.885,0,0,1-.169-.385,2.277,2.277,0,0,1,.406-1.123,3.952,3.952,0,0,0,.627-1.883,4.033,4.033,0,0,0-1.157-2.96,4.3,4.3,0,0,0-6.163,0A4.033,4.033,0,0,0,8.1,4.493a3.955,3.955,0,0,0,.628,1.883A2.282,2.282,0,0,1,9.137,7.5a.892.892,0,0,1-.17.387H3.429A3.428,3.428,0,0,0,0,11.305V17.1a1.006,1.006,0,0,0,.1.445,2.869,2.869,0,0,0,2.4,1.471,4.155,4.155,0,0,0,2.084-.661,2.131,2.131,0,0,1,.968-.371,2.053,2.053,0,0,1,1.5.589,2.263,2.263,0,0,1,0,3.254,2.05,2.05,0,0,1-1.5.589,2.128,2.128,0,0,1-.968-.371A4.163,4.163,0,0,0,2.5,21.381H2.477A2.844,2.844,0,0,0,.1,22.852,1,1,0,0,0,0,23.3v5.79A3.4,3.4,0,0,0,.95,31.442,3.4,3.4,0,0,0,0,33.8v5.79a1,1,0,0,0,.1.445A2.851,2.851,0,0,0,2.5,41.5a4.163,4.163,0,0,0,2.084-.661,2.128,2.128,0,0,1,.968-.371,2.043,2.043,0,0,1,1.5.589,2.263,2.263,0,0,1,0,3.254,2.047,2.047,0,0,1-1.5.589,2.128,2.128,0,0,1-.968-.371,4.155,4.155,0,0,0-2.083-.66H2.477A2.844,2.844,0,0,0,.1,45.345a1.006,1.006,0,0,0-.1.445v5.79A3.428,3.428,0,0,0,3.429,55H21.256a3.421,3.421,0,0,0,2.419-1,3.422,3.422,0,0,0,2.419,1H43.922A3.428,3.428,0,0,0,47.35,51.58V46.04a.858.858,0,0,1,.364-.153,2.29,2.29,0,0,1,1.126.4,3.979,3.979,0,0,0,1.888.626A4.054,4.054,0,0,0,53.7,45.763a4.273,4.273,0,0,0,0-6.147,4.049,4.049,0,0,0-2.967-1.155M26.095,9.667h8.587a1.011,1.011,0,0,0,.548-.161A2.845,2.845,0,0,0,36.482,7.24a4.14,4.14,0,0,0-.662-2.079,2.112,2.112,0,0,1-.372-.965,2.038,2.038,0,0,1,.59-1.495,2.276,2.276,0,0,1,3.263,0A2.039,2.039,0,0,1,39.892,4.2a2.118,2.118,0,0,1-.372.965,4.129,4.129,0,0,0-.662,2.078A2.844,2.844,0,0,0,40.11,9.506a1.011,1.011,0,0,0,.548.161h3.264a1.41,1.41,0,0,1,1.41,1.406v5.945a1,1,0,0,0,.179.572,2.9,2.9,0,0,0,2.231,1.19,4.164,4.164,0,0,0,2.084-.661,2.13,2.13,0,0,1,.968-.371,2.051,2.051,0,0,1,1.5.589,2.264,2.264,0,0,1,0,3.255,2.042,2.042,0,0,1-1.5.589,2.13,2.13,0,0,1-.968-.371,4.158,4.158,0,0,0-2.084-.661h-.027a2.887,2.887,0,0,0-2.2,1.189,1,1,0,0,0-.179.573v5.945a1.8,1.8,0,0,1-1.871,1.522H41.045a.9.9,0,0,1-.169-.385,2.283,2.283,0,0,1,.406-1.123,3.958,3.958,0,0,0,.628-1.883,4.036,4.036,0,0,0-1.158-2.96,4.3,4.3,0,0,0-6.163,0,4.035,4.035,0,0,0-1.157,2.96,3.961,3.961,0,0,0,.628,1.883,2.28,2.28,0,0,1,.406,1.122.892.892,0,0,1-.17.387h-8.2a3.412,3.412,0,0,0-2.038.677,3.39,3.39,0,0,0,.628-1.967v-5.54a.86.86,0,0,1,.364-.153,2.289,2.289,0,0,1,1.126.4,3.981,3.981,0,0,0,1.888.626,4.051,4.051,0,0,0,2.968-1.155,4.273,4.273,0,0,0,0-6.147,4.059,4.059,0,0,0-2.968-1.155,3.98,3.98,0,0,0-1.888.626,2.292,2.292,0,0,1-1.125.4.864.864,0,0,1-.366-.153V11.074a1.41,1.41,0,0,1,1.41-1.406M2.019,23.617a.93.93,0,0,1,.455-.222,2.289,2.289,0,0,1,1.126.4,3.98,3.98,0,0,0,1.888.626A4.053,4.053,0,0,0,8.456,23.27a4.273,4.273,0,0,0,0-6.147,4.053,4.053,0,0,0-2.967-1.155,3.98,3.98,0,0,0-1.888.626,2.292,2.292,0,0,1-1.125.4.933.933,0,0,1-.457-.223V11.305A1.41,1.41,0,0,1,3.429,9.9H9.355A1.011,1.011,0,0,0,9.9,9.738a2.845,2.845,0,0,0,1.252-2.265,4.133,4.133,0,0,0-.662-2.078,2.123,2.123,0,0,1-.372-.965,2.04,2.04,0,0,1,.591-1.495,2.277,2.277,0,0,1,3.263,0,2.039,2.039,0,0,1,.59,1.495,2.114,2.114,0,0,1-.372.965,4.136,4.136,0,0,0-.662,2.079,2.844,2.844,0,0,0,1.253,2.265,1.009,1.009,0,0,0,.548.161h5.926a1.41,1.41,0,0,1,1.41,1.407V17.25a1,1,0,0,0,.179.572,2.887,2.887,0,0,0,2.206,1.19h.026a4.157,4.157,0,0,0,2.084-.661,2.13,2.13,0,0,1,.968-.371,2.047,2.047,0,0,1,1.5.589,2.262,2.262,0,0,1,0,3.254,2.05,2.05,0,0,1-1.5.589,2.129,2.129,0,0,1-.968-.371,4.163,4.163,0,0,0-2.084-.661,2.9,2.9,0,0,0-2.231,1.19,1,1,0,0,0-.179.572v5.945c0,.613-.292,1.291-1.41,1.291H18.38a.894.894,0,0,1-.169-.385,2.279,2.279,0,0,1,.406-1.124,3.956,3.956,0,0,0,.627-1.883,4.035,4.035,0,0,0-1.158-2.96,4.3,4.3,0,0,0-6.163,0,4.036,4.036,0,0,0-1.158,2.96,3.963,3.963,0,0,0,.628,1.883,2.28,2.28,0,0,1,.406,1.122.9.9,0,0,1-.17.387h-8.2a1.239,1.239,0,0,1-1.41-1.291Zm19.237,29.37H3.429a1.41,1.41,0,0,1-1.41-1.407V46.11a.93.93,0,0,1,.455-.222,2.29,2.29,0,0,1,1.126.4,3.977,3.977,0,0,0,1.888.626,4.055,4.055,0,0,0,2.967-1.155,4.273,4.273,0,0,0,0-6.147,4.049,4.049,0,0,0-2.968-1.155,3.98,3.98,0,0,0-1.888.626,2.289,2.289,0,0,1-1.125.4.932.932,0,0,1-.456-.222V33.8a1.41,1.41,0,0,1,1.41-1.407h8.587a1.013,1.013,0,0,0,.548-.161,2.844,2.844,0,0,0,1.252-2.265,4.134,4.134,0,0,0-.663-2.079,2.124,2.124,0,0,1-.372-.965,2.041,2.041,0,0,1,.591-1.495,2.277,2.277,0,0,1,3.263,0,2.037,2.037,0,0,1,.59,1.495,2.11,2.11,0,0,1-.372.965,4.135,4.135,0,0,0-.662,2.079,2.845,2.845,0,0,0,1.252,2.265,1.013,1.013,0,0,0,.548.161h3.264a1.41,1.41,0,0,1,1.41,1.407v5.79a1,1,0,0,0,.1.445,2.862,2.862,0,0,0,2.4,1.471,4.165,4.165,0,0,0,2.084-.661,2.127,2.127,0,0,1,.968-.371,2.041,2.041,0,0,1,1.5.589,2.263,2.263,0,0,1,0,3.255,2.039,2.039,0,0,1-1.5.589,2.126,2.126,0,0,1-.968-.371,4.159,4.159,0,0,0-2.084-.66h-.025a2.843,2.843,0,0,0-2.372,1.471,1,1,0,0,0-.1.445v5.79a1.41,1.41,0,0,1-1.41,1.407m31.036-8.67a2.046,2.046,0,0,1-1.5.589,2.127,2.127,0,0,1-.968-.371,4.158,4.158,0,0,0-2.084-.66h-.027a2.886,2.886,0,0,0-2.2,1.19,1,1,0,0,0-.179.572V51.58a1.41,1.41,0,0,1-1.41,1.407H26.095a1.41,1.41,0,0,1-1.41-1.407V46.11a.931.931,0,0,1,.455-.222,2.29,2.29,0,0,1,1.126.4,3.979,3.979,0,0,0,1.888.626,4.035,4.035,0,0,0,2.967-1.155,4.272,4.272,0,0,0,0-6.147,4.043,4.043,0,0,0-2.967-1.155,3.981,3.981,0,0,0-1.888.626,2.289,2.289,0,0,1-1.125.4.932.932,0,0,1-.456-.222V33.8a1.41,1.41,0,0,1,1.41-1.407h8.587a1.011,1.011,0,0,0,.548-.161,2.844,2.844,0,0,0,1.253-2.265,4.142,4.142,0,0,0-.662-2.079,2.112,2.112,0,0,1-.372-.965,2.038,2.038,0,0,1,.59-1.495,2.276,2.276,0,0,1,3.263,0,2.039,2.039,0,0,1,.591,1.495,2.118,2.118,0,0,1-.372.965,4.13,4.13,0,0,0-.662,2.079A2.843,2.843,0,0,0,40.11,32.23a1.011,1.011,0,0,0,.548.161h3.264a1.41,1.41,0,0,1,1.41,1.407v5.945a1,1,0,0,0,.179.572,2.906,2.906,0,0,0,2.231,1.19,4.162,4.162,0,0,0,2.083-.661,2.131,2.131,0,0,1,.968-.371,2.045,2.045,0,0,1,1.5.589,2.264,2.264,0,0,1,0,3.255" transform="translate(-0.001)" fill="#fff"/>
      </g>
    </g>
  </g>
</svg>
