<svg xmlns="http://www.w3.org/2000/svg" xmlns:xlink="http://www.w3.org/1999/xlink" width="423.901" height="310.745" viewBox="0 0 423.901 310.745">
  <defs>
    <clipPath id="clip-path">
      <path id="Trazado_189853" data-name="Trazado 189853" d="M1137.1,329.206V547.542H997.55V329.206a4.677,4.677,0,0,1,4.676-4.676H1132.42a4.677,4.677,0,0,1,4.676,4.676h0Z" transform="translate(-997.55 -324.53)" fill="none"/>
    </clipPath>
  </defs>
  <g id="_08" data-name="08" transform="translate(23.601 16.661)">
    <g id="Grupo_133377" data-name="Grupo 133377" transform="translate(-23.601 -16.661)">
      <g id="_04" data-name=" 04">
        <path id="Trazado_189838" data-name="Trazado 189838" d="M279.682,15.993a208.62,208.62,0,0,1-21.246-6.241c-21.015-7.4-72.518-20.783-113.52,7.3C92.084,53.238,9.67,66.643.785,144S57.692,306.357,223.666,298.494s194.876-88.18,187.9-144.877c-6.7-54.405-41.848-116.335-131.889-137.624Z" transform="translate(11.393 -0.002)" fill="#fef7dc"/>
        <ellipse id="Elipse_5180" data-name="Elipse 5180" cx="200.589" cy="11.745" rx="200.589" ry="11.745" transform="translate(0.083 287.255)" fill="#af8a14"/>
        <path id="Trazado_189839" data-name="Trazado 189839" d="M493.94,1083.909c.726,3.776-.538,5.278-1.2,5.786a.422.422,0,0,1-.59-.08c-.01-.013-.018-.027-.027-.04-.422-.718-1.033-2.582,1.048-5.811a.422.422,0,0,1,.77.146Z" transform="translate(-389.494 -887.935)" fill="#76ddba"/>
        <path id="Trazado_189840" data-name="Trazado 189840" d="M524.441,1132.147c-3.558-1.465-5.285-.528-5.915.017a.421.421,0,0,0-.037.594.39.39,0,0,0,.037.037c.62.558,2.326,1.531,5.914.137a.423.423,0,0,0,0-.785Z" transform="translate(-411.702 -927.716)" fill="#76ddba"/>
        <path id="Trazado_189841" data-name="Trazado 189841" d="M503.193,1151.2c-3.432-1.74-5.226-.941-5.9-.446a.423.423,0,0,0-.087.59c.01.013.02.025.032.038.573.605,2.2,1.707,5.885.605a.423.423,0,0,0,.29-.523.419.419,0,0,0-.221-.263Z" transform="translate(-394.008 -943.337)" fill="#76ddba"/>
        <path id="Trazado_189842" data-name="Trazado 189842" d="M49.14,1426.42c.02-.028.037-.054.057-.08C49.167,1426.38,49.15,1426.405,49.14,1426.42Z" transform="translate(-21.134 -1173.235)" fill="#3c7219"/>
        <rect id="Rectángulo_41278" data-name="Rectángulo 41278" width="55.785" height="55.785" rx="19" transform="translate(0 118.703)" fill="#94790e"/>
        <rect id="Rectángulo_41279" data-name="Rectángulo 41279" width="55.785" height="55.785" rx="19" transform="translate(5.442 118.703)" fill="#fee954"/>
        <rect id="Rectángulo_41280" data-name="Rectángulo 41280" width="34.71" height="35.736" rx="12" transform="translate(137.072 198.74)" fill="#94790e"/>
        <rect id="Rectángulo_41281" data-name="Rectángulo 41281" width="34.71" height="35.736" rx="13" transform="translate(140.093 198.74)" fill="#fee954"/>
        <circle id="Elipse_5181" data-name="Elipse 5181" cx="3.29" cy="3.29" r="3.29" transform="translate(118.578 48.328)" fill="#693fb7"/>
        <circle id="Elipse_5182" data-name="Elipse 5182" cx="2.16" cy="2.16" r="2.16" transform="translate(113.465 54.909)" fill="#693fb7"/>
        <path id="Trazado_189843" data-name="Trazado 189843" d="M679.116,49.272c2.584,10.291-5.776,21.758-16.071,24.337s-22.917-1.574-25.5-11.866,5.85-22.834,16.146-25.418,22.844,2.646,25.427,12.947Z" transform="translate(-510.493 -15.733)" fill="#693fb7"/>
        <rect id="Rectángulo_41282" data-name="Rectángulo 41282" width="151.655" height="260.7" rx="31.55" transform="translate(189.389 36.734)" fill="#9572b7"/>
        <path id="Trazado_189844" data-name="Trazado 189844" d="M966.72,123.52H1107.8a5.312,5.312,0,0,1,5.29,5.332V380.957a5.312,5.312,0,0,1-5.29,5.332H966.72a5.312,5.312,0,0,1-5.29-5.332V128.852a5.312,5.312,0,0,1,5.29-5.332Z" transform="translate(-780.465 -88.853)" fill="#29083a"/>
        <path id="Trazado_189845" data-name="Trazado 189845" d="M1132.41,324.532H1002.216a4.677,4.677,0,0,0-4.676,4.676h0V547.542h139.548V329.206a4.676,4.676,0,0,0-4.673-4.676h0Z" transform="translate(-810.52 -256.161)" fill="#9572b7"/>
        <path id="Trazado_189846" data-name="Trazado 189846" d="M1173.011,290.04H1051a4.738,4.738,0,0,0-4.676,4.8h0v224h131.366v-224a4.736,4.736,0,0,0-4.673-4.8h0Z" transform="translate(-851.122 -227.454)" fill="#fef7dc"/>
        <rect id="Rectángulo_41283" data-name="Rectángulo 41283" width="118.957" height="35.29" rx="14.85" transform="translate(199.769 24.03)" fill="#9572b7"/>
        <rect id="Rectángulo_41284" data-name="Rectángulo 41284" width="118.957" height="35.29" rx="14.85" transform="translate(196.141 24.03)" fill="#29083a"/>
        <g id="Grupo_133368" data-name="Grupo 133368" transform="translate(187.021 68.369)" clip-path="url(#clip-path)">
          <g id="Grupo_133367" data-name="Grupo 133367" transform="translate(-0.003 83.432)">
            <path id="Trazado_189847" data-name="Trazado 189847" d="M1084.733,1138.759H1062.7a6.855,6.855,0,0,1,1.034-2.983h0a10.943,10.943,0,1,0-17.162,0h0a6.868,6.868,0,0,1,1.033,2.983h-22.036a5.036,5.036,0,0,0-5.035,5.035v59.179a5.035,5.035,0,0,0,5.035,5.035h59.181a5.035,5.035,0,0,0,5.035-5.035h0v-20.655a7.734,7.734,0,0,0-1.153.605h0a12.157,12.157,0,1,1,0-19.07h0a7.563,7.563,0,0,0,1.154.605V1143.8a5.034,5.034,0,0,0-5.027-5.043h-.022Z" transform="translate(-1016.674 -1068.43)" fill="#8c3074"/>
            <path id="Trazado_189848" data-name="Trazado 189848" d="M1099.56,844.61a12.094,12.094,0,0,0-7.536,2.622h0a8.029,8.029,0,0,1-2.322.993v-21.05a5.035,5.035,0,0,0-5.035-5.035h-59.181a5.035,5.035,0,0,0-5.035,5.035h0v59.181a5.035,5.035,0,0,0,5.035,5.035h20.658a7.63,7.63,0,0,0-.605-1.152h0a12.158,12.158,0,1,1,19.07,0h0a7.6,7.6,0,0,0-.605,1.152h20.655a5.035,5.035,0,0,0,5.035-5.033h0V865.31a7.929,7.929,0,0,1,2.322.993h0a12.154,12.154,0,1,0,7.538-21.688l.007-.007Z" transform="translate(-1016.607 -822.14)" fill="#3f2975"/>
            <path id="Trazado_189849" data-name="Trazado 189849" d="M1401.125,1133.125h-21.042a7.945,7.945,0,0,1,.993-2.324h-.007a12.154,12.154,0,1,0-19.064,0h0a7.942,7.942,0,0,1,.993,2.324h-21.054a5.035,5.035,0,0,0-5.035,5.035V1160.2a6.843,6.843,0,0,1-2.983-1.033h0a10.94,10.94,0,1,0,0,17.159h0a6.846,6.846,0,0,1,2.983-1.033v22.036a5.035,5.035,0,0,0,5.035,5.035h59.181a5.036,5.036,0,0,0,5.035-5.035v-59.164a5.036,5.036,0,0,0-5.035-5.035Z" transform="translate(-1262.767 -1062.655)" fill="#af8f27"/>
            <path id="Trazado_189850" data-name="Trazado 189850" d="M1061.813,1138.759h-22.036a6.866,6.866,0,0,1,1.033-2.983h0a10.943,10.943,0,1,0-17.162,0h0a6.859,6.859,0,0,1,1.035,2.983h-22.036a5.036,5.036,0,0,0-5.035,5.035v59.179a5.035,5.035,0,0,0,5.035,5.035h59.181a5.035,5.035,0,0,0,5.02-5.035v-20.655a7.726,7.726,0,0,0-1.153.605h0a12.157,12.157,0,1,1,0-19.068h0a7.557,7.557,0,0,0,1.154.605v-20.655a5.035,5.035,0,0,0-5.027-5.045h-.011Z" transform="translate(-997.597 -1068.43)" fill="#b13e8d"/>
            <path id="Trazado_189851" data-name="Trazado 189851" d="M1076.64,844.61a12.094,12.094,0,0,0-7.536,2.622h0a7.941,7.941,0,0,1-2.322.993v-21.05a5.035,5.035,0,0,0-5.035-5.035h-59.181a5.035,5.035,0,0,0-5.035,5.035h0v59.181a5.035,5.035,0,0,0,5.035,5.035h20.656a7.766,7.766,0,0,0-.605-1.152h0a12.158,12.158,0,1,1,19.072,0h0a7.467,7.467,0,0,0-.605,1.152h20.655a5.035,5.035,0,0,0,5.035-5.033h0V865.31a7.928,7.928,0,0,1,2.322.993h0a12.154,12.154,0,1,0,7.538-21.688l.007-.007Z" transform="translate(-997.53 -822.14)" fill="#693fb7"/>
            <path id="Trazado_189852" data-name="Trazado 189852" d="M1378.2,1133.113h-21.045a8.052,8.052,0,0,1,.993-2.324h0a12.156,12.156,0,1,0-19.065,0h0a7.944,7.944,0,0,1,.993,2.324h-21.055a5.035,5.035,0,0,0-5.035,5.035h0v22.036a6.845,6.845,0,0,1-2.983-1.033h0a10.94,10.94,0,1,0,0,17.159h0a6.844,6.844,0,0,1,2.983-1.033v22.036a5.035,5.035,0,0,0,5.033,5.035H1378.2a5.035,5.035,0,0,0,5.035-5.035h0v-59.166a5.035,5.035,0,0,0-5.035-5.035h0Z" transform="translate(-1243.69 -1062.643)" fill="#fee954"/>
          </g>
        </g>
        <path id="Trazado_189854" data-name="Trazado 189854" d="M1281.232,1616.89l-20.913,4.663-5.157,1.46a27.042,27.042,0,0,0-13,8.683,39.663,39.663,0,0,0-2.829,3.692.061.061,0,0,1-.049.032h44.227l-.459-3.724-1.818-14.807Z" transform="translate(-1011.729 -1331.837)" fill="#fdab00"/>
        <path id="Trazado_189855" data-name="Trazado 189855" d="M1241.829,1705.53a39.564,39.564,0,0,0-2.83,3.692.061.061,0,0,1-.049.032h44.227l-.459-3.724h-40.89Z" transform="translate(-1011.454 -1405.615)" fill="#fff"/>
        <path id="Trazado_189856" data-name="Trazado 189856" d="M1441.27,1546.49l-13.076-1.09-7.627,8.717,3.27,8.717c-7.765,0-10.955,5.488-12.241,9.352a17.814,17.814,0,0,0-.835,3.724h26.152l11.986-17.436-2.1-3.3-5.525-8.682Z" transform="translate(-1154.458 -1272.333)" fill="#fdab00"/>
        <path id="Trazado_189857" data-name="Trazado 189857" d="M1446.709,1603.707l-12.194,16.979h-22.93a17.811,17.811,0,0,0-.835,3.724H1436.9l11.986-17.436-2.1-3.3-.075.037Z" transform="translate(-1154.449 -1320.833)" fill="#fff"/>
        <path id="Trazado_189858" data-name="Trazado 189858" d="M1332.528,923.26l-8.081,1.162-9.892,1.422-11.7,49.421a14.462,14.462,0,0,0-.263,5.233l8.39,63.252a57.663,57.663,0,0,0,10.392,1.314c5.248.141,11.007-.652,13.44-4.3l-7.253-61.154,4.975-56.346Z" transform="translate(-1064.317 -754.504)" fill="#1f0730"/>
        <path id="Trazado_189859" data-name="Trazado 189859" d="M1389.709,923.252l-7.022,14.7-11.527,40.58,7.386,66.52c5.248.141,11.007-.652,13.44-4.3l-7.253-61.154,4.978-56.346Z" transform="translate(-1121.497 -754.496)" fill="#29193a"/>
        <path id="Trazado_189860" data-name="Trazado 189860" d="M1435.135,907.265c.04-.324.077-.646.116-.969.013-.111.027-.22.038-.329v-.025l.022-.189c.669-5.912.847-10.965.089-13.77-1.677-6.23-16.857-7.942-16.857-7.942l-3.026,2.968-3.026,2.971-8.09,54.27a15.987,15.987,0,0,0,.007,4.765l9.527,62.642s13.477.25,22.186-6.965a19.565,19.565,0,0,0,4.421-5.141L1427.816,945.2s5.3-21.662,7.318-37.939Z" transform="translate(-1149.018 -721.86)" fill="#1f0730"/>
        <path id="Trazado_189861" data-name="Trazado 189861" d="M1539.364,1022.552c-1.362,9.178-9.914,38.2-9.914,38.2l10.908,59.233a19.564,19.564,0,0,0,4.421-5.141l-12.734-54.354s5.305-21.662,7.319-37.939Z" transform="translate(-1253.247 -837.147)" fill="#29193a"/>
        <rect id="Rectángulo_41285" data-name="Rectángulo 41285" width="0.726" height="1.211" transform="matrix(0.985, -0.173, 0.173, 0.985, 279.693, 283.929)" fill="#a9edff"/>
        <path id="Trazado_189862" data-name="Trazado 189862" d="M1433.31,526.632c-6.247.374-5.06-2.186-13.993-1.061s-8.97,5.421-8.97,5.421l-.587,9.884s13.993,4.311,14.243,4.311,9.871-.625,13.244-6.185,2.311-12.744-3.935-12.369Z" transform="translate(-1153.625 -423.254)" fill="#b7a435"/>
        <path id="Trazado_189863" data-name="Trazado 189863" d="M1432.23,531.157c-6.245.374-5.06-2.186-13.993-1.063s-8.97,5.421-8.97,5.421l-.587,9.884s13.993,4.311,14.243,4.311,9.87-.625,13.244-6.185,2.312-12.744-3.937-12.369Z" transform="translate(-1152.727 -427.02)" fill="#b7a435"/>
        <path id="Trazado_189864" data-name="Trazado 189864" d="M1065.354,741.626s-3.638-2.252-6.494-.372-9.408-.132-11.616,2.542-1.234,8.268,1.945,10,16.312,2.822,19.614-.991c2.981-3.446-2.237-9.8-3.269-10.987l-.179-.193Z" transform="translate(-850.898 -602.391)" fill="#f5ae97"/>
        <path id="Trazado_189865" data-name="Trazado 189865" d="M1058.83,741.262c-2.854,1.879-9.408-.133-11.616,2.542s-1.234,8.268,1.945,10c-3.345-3.149-3.12-6.757-1.655-9.218,1.366-2.3,9.512-.726,12.107-2.421s5.333.211,5.333.211l.555-.547c-.111-.121-.174-.2-.174-.2S1061.689,739.382,1058.83,741.262Z" transform="translate(-850.873 -602.397)" fill="#ed856e"/>
        <path id="Trazado_189866" data-name="Trazado 189866" d="M1104.724,766.28c-1.707,7.008.786,9.188.786,9.188C1103.784,771.325,1104.724,766.28,1104.724,766.28Z" transform="translate(-899.237 -623.845)" fill="#ed856e"/>
        <path id="Trazado_189867" data-name="Trazado 189867" d="M1164.682,737.364c-.322-.386-4,.624-4,.624l-2.517.86s3.164,6.831,2.517,12.181l3.317-.786,3.479-3.5-.547-6.348S1165.011,737.751,1164.682,737.364Z" transform="translate(-944.218 -599.704)" fill="#b7a435"/>
        <path id="Trazado_189868" data-name="Trazado 189868" d="M1242.68,582.639c-.812-9.181-1.955-18.856-2.421-25.123a34.924,34.924,0,0,1-.133-6.068c.941-6.45-14.56-9.549-14.56-9.549l-10.278,1.806s-7.144,2-10.346,7.669-8.018,17.211-8.018,17.211-19.4,2.585-24.447,5.441a.9.9,0,0,0-.335,1.221.879.879,0,0,0,.082.121c1.137,1.4,3.39,5.028,3.2,11.633a1.515,1.515,0,0,0,1.477,1.552c.054,0,.109,0,.163-.005,5.214-.427,20.816-1.885,27.936-4.534,0,0-3.714,20.779.989,24.407s31.712,3.492,36.147-1.21c2.059-2.18,1.568-12.987.543-24.578v.005Z" transform="translate(-955.75 -437.085)" fill="#94790e"/>
        <path id="Trazado_189869" data-name="Trazado 189869" d="M1363.86,654.843l2.686-.726c-1.475-1.526,1.734-26.337,1.734-26.337-2.6,5.025-4.42,27.065-4.42,27.065Z" transform="translate(-1115.421 -508.566)" fill="#b7a435"/>
        <path id="Trazado_189870" data-name="Trazado 189870" d="M1421.036,536.495s-.661,5.017,2.969,6.417,13.914-1.256,13.133-8.011l-16.1,1.593Z" transform="translate(-1162.972 -431.259)" fill="#b7a435"/>
        <path id="Trazado_189871" data-name="Trazado 189871" d="M1450.072,569.213a.373.373,0,0,0-.364.364c-.029.221-.055.443-.082.664q-.113.92-.226,1.841-.171,1.4-.335,2.79-.206,1.755-.407,3.511-.229,2-.448,4.009-.232,2.138-.451,4.277-.221,2.16-.421,4.319-.194,2.067-.364,4.133c-.1,1.239-.186,2.478-.257,3.719-.058,1.024-.107,2.051-.121,3.078,0,.211-.007.421-.007.632a.363.363,0,0,0,.726,0c0-.969.037-1.925.086-2.887.059-1.2.139-2.389.228-3.583q.151-2.027.335-4.052.194-2.148.409-4.294t.448-4.309q.221-2.05.451-4.1.206-1.828.421-3.657.176-1.5.355-2.991.121-1.046.255-2.1c.042-.324.1-.649.121-.969v-.042c.035-.2-.174-.364-.354-.364Z" transform="translate(-1184.28 -459.817)" fill="#fffefd"/>
        <path id="Trazado_189872" data-name="Trazado 189872" d="M1463.364,567.333a.686.686,0,1,0,.993.26A.73.73,0,0,0,1463.364,567.333Z" transform="translate(-1197.88 -458.177)" fill="#fee954"/>
        <path id="Trazado_189873" data-name="Trazado 189873" d="M1410.006,566.373c-.163.647-.312,1.3-.459,1.945q-.566,2.507-1.05,5.035-.669,3.488-1.175,7.008c-.372,2.617-.669,5.245-.838,7.882a52.681,52.681,0,0,0-.012,7.488c.024.285.049.568.079.847a.375.375,0,0,0,.364.364.364.364,0,0,0,.364-.364,47.83,47.83,0,0,1-.121-7.369q.1-1.977.3-3.95c.121-1.268.282-2.607.446-3.823.32-2.393.712-4.773,1.157-7.144q.5-2.671,1.09-5.327c.176-.793.374-1.579.553-2.372l.007-.032a.363.363,0,0,0-.7-.189Z" transform="translate(-1150.782 -457.238)" fill="#fffefd"/>
        <path id="Trazado_189874" data-name="Trazado 189874" d="M1428.112,565.061a.657.657,0,1,0,.8.05A.578.578,0,0,0,1428.112,565.061Z" transform="translate(-1168.819 -456.247)" fill="#fee954"/>
        <path id="Trazado_189875" data-name="Trazado 189875" d="M1417.176,633.43,1408.1,635.2s-3.719,11.826-4.281,15.641l-17.234,7.19-1.21,18.619s28.573-3.432,34.886-17.826h0c-.812-9.181-1.955-18.856-2.421-25.123l-.657-.272Z" transform="translate(-1133.325 -513.269)" fill="#b7a435"/>
        <path id="Trazado_189876" data-name="Trazado 189876" d="M1231.086,815.646s-3.638-2.252-6.494-.372-9.409-.132-11.618,2.542-1.234,8.268,1.945,10,16.312,2.823,19.613-.991c2.981-3.446-2.237-9.795-3.269-10.987l-.179-.193Z" transform="translate(-988.84 -664)" fill="#f5ae97"/>
        <path id="Trazado_189877" data-name="Trazado 189877" d="M1224.592,815.289c-2.855,1.88-9.409-.133-11.617,2.542s-1.234,8.268,1.945,10c-3.345-3.149-3.12-6.757-1.655-9.218,1.367-2.3,9.512-.726,12.107-2.421s5.333.211,5.333.211l.555-.547-.174-.2s-3.64-2.247-6.5-.371Z" transform="translate(-988.84 -664.014)" fill="#ed856e"/>
        <path id="Trazado_189878" data-name="Trazado 189878" d="M1328.7,806.756c-.364-.374-4.091.982-4.091.982l-2.542,1.105s3.858,6.822,3.632,12.427l3.375-1.09,3.315-3.923-1.1-6.537s-2.22-2.592-2.585-2.961Z" transform="translate(-1080.638 -657.48)" fill="#b7a435"/>
        <path id="Trazado_189879" data-name="Trazado 189879" d="M1372.323,570.56c-6.948,3.942-10.462,29.021-10.462,29.021s-19.407,6.708-23.79,7.87-4.187,3.915-4.187,3.915c3.39,3.39,4.448,11.76,4.448,11.76,4.765,5.206,27.078-7.739,33.991-12.29s7.475-23.909,6.417-30.891A12.384,12.384,0,0,0,1372.323,570.56Z" transform="translate(-1090.47 -460.94)" fill="#94790e"/>
        <path id="Trazado_189880" data-name="Trazado 189880" d="M1399.41,372.13l-8.086-12.671-10.092,3.072-1.331,10.124s.04,14.934,8,14.624l.325,4.046a3.3,3.3,0,0,0,3.942,2.991c1.532-.325,3.618-1.487,6.417-4.267a57.489,57.489,0,0,1,.808-8.341.826.826,0,0,1,.555-.666,12.451,12.451,0,0,0,1.849-.817c.241-.129.491-.282.743-.443h.013c1.6-1.048,3.13-2.73,2.627-5.206-1.075-5.26-5.766-2.448-5.766-2.448Z" transform="translate(-1128.772 -285.234)" fill="#f5ae97"/>
        <path id="Trazado_189881" data-name="Trazado 189881" d="M1427.59,506.648l.166,2.081c6.241-1.7,5.924-5.868,5.924-5.868a7.574,7.574,0,0,1-6.09,3.789Z" transform="translate(-1168.466 -404.591)" fill="#ed856e"/>
        <path id="Trazado_189882" data-name="Trazado 189882" d="M1501.87,445.191a.8.8,0,0,0-1.154.942l.012.028c.356.954-.429,1.314-.555,2.18s1.4,2.111,2.223-.708c.421-1.455-.007-2.129-.525-2.443Z" transform="translate(-1228.874 -356.497)" fill="#ed856e"/>
        <path id="Trazado_189883" data-name="Trazado 189883" d="M1427.91,429a2.532,2.532,0,0,0-1.281-.5,1.9,1.9,0,0,0-1.987,1.288.416.416,0,0,0,.8.241.933.933,0,0,1,.407-.526,1.162,1.162,0,0,1,.763-.168c.513.05,1.189.456,1.251,1a.419.419,0,0,0,.5.3.428.428,0,0,0,.3-.5A1.749,1.749,0,0,0,1427.91,429Z" transform="translate(-1165.996 -342.692)" fill="#072c35"/>
        <path id="Trazado_189884" data-name="Trazado 189884" d="M1385.34,425.638a2.173,2.173,0,0,0-1.958,1.368.416.416,0,0,0,.79.263c0-.007,0-.015.006-.022a1.371,1.371,0,0,1,1.192-.778c.511,0,.929.5,1.148.979a.419.419,0,0,0,.565.163.425.425,0,0,0,.161-.565,2.208,2.208,0,0,0-1.9-1.41Z" transform="translate(-1131.651 -340.315)" fill="#072c35"/>
        <path id="Trazado_189885" data-name="Trazado 189885" d="M1391.085,443.529c-.409-.008-.753.511-.768,1.165s.3,1.189.713,1.2.753-.511.768-1.165S1391.495,443.54,1391.085,443.529Z" transform="translate(-1137.442 -355.208)" fill="#072c35"/>
        <path id="Trazado_189886" data-name="Trazado 189886" d="M1431.386,444.059c-.431-.01-.793.54-.808,1.229s.32,1.252.753,1.264.795-.542.808-1.229S1431.82,444.069,1431.386,444.059Z" transform="translate(-1170.952 -355.649)" fill="#072c35"/>
        <path id="Trazado_189887" data-name="Trazado 189887" d="M1407.237,482.188l-4.874.525a.467.467,0,0,0-.416.513.41.41,0,0,0,.012.065c.251.969,1.018,2.936,3.073,2.852s2.589-2.346,2.723-3.437a.467.467,0,0,0-.411-.518A.566.566,0,0,0,1407.237,482.188Z" transform="translate(-1147.121 -387.383)" fill="#cb6655"/>
        <path id="Trazado_189888" data-name="Trazado 189888" d="M1487.35,478.862a1.894,1.894,0,0,0,2.027,1.563,12.445,12.445,0,0,0,1.849-.817,3.139,3.139,0,0,1-3.876-.748Z" transform="translate(-1218.206 -384.615)" fill="#ed856e"/>
        <path id="Trazado_189889" data-name="Trazado 189889" d="M1399.722,351.052l-9.2.3-4.861,3.979.786,8.531c1.2-4.52,1.688-5.295,1.688-5.295,1.719-3.482,3,.521,3,.521-.1-.721.977-2.785,1.5-1.177a22.385,22.385,0,0,0,3.073,5.067c4.646,5.8,8.253,2.569,8.253,2.569l3.726-5.478-3.928-5.427-4.046-3.593Z" transform="translate(-1133.566 -278.234)" fill="#ed856e"/>
        <path id="Trazado_189890" data-name="Trazado 189890" d="M1531.044,329.12c-1.044.387-1.261,2.743-1.3,3.679a.176.176,0,0,0,.171.181.181.181,0,0,0,.116-.04C1532.459,330.884,1532.3,328.654,1531.044,329.12Z" transform="translate(-1253.489 -259.929)" fill="#131e36"/>
        <path id="Trazado_189891" data-name="Trazado 189891" d="M1536.84,350.353c-.647-.5-2.193.29-2.785.627a.128.128,0,0,0-.045.176.126.126,0,0,0,.071.057C1536.3,351.917,1537.622,350.951,1536.84,350.353Z" transform="translate(-1257.028 -277.52)" fill="#131e36"/>
        <path id="Trazado_189892" data-name="Trazado 189892" d="M1387.2,324.592s-.694-4.9-6.985-6.608-11.151,2.555-11.151,2.555c-5.449-3.61-8.259,4.145-8.259,4.145-3.321,2.087-1.316,4.6-1.68,8.581a19.285,19.285,0,0,0-.072,2.307c.129,2.852,1.1,4.763,3.3,3.409,2.755-1.7,1.5-6.695,3.447-9.352s2.807.064,2.807.064a2.024,2.024,0,0,1,.86-1.2,1.189,1.189,0,0,1,1.71.931c.726,4.5,7.322,10.447,10.682,8.142,3.575-2.46,5.042.4,5.042.4.288-.4.557-.791.8-1.174,5.9-9.176-.495-12.2-.495-12.2Z" transform="translate(-1111.256 -250.377)" fill="#131e36"/>
        <path id="Trazado_189893" data-name="Trazado 189893" d="M1382.038,382.073c-2.421,1.348-7.615-2.269-8.943-6.537s-3.6-.894-3.6-.894c-4.45-5.1-4.48,7.191-6.4,9.1s-3.035-1.74-3.035-1.74l-.007.007c.129,2.852,1.1,4.763,3.3,3.409,2.755-1.7,1.5-6.695,3.447-9.352s2.807.064,2.807.064a2.023,2.023,0,0,1,.86-1.2,1.189,1.189,0,0,1,1.71.931c.726,4.5,7.322,10.447,10.682,8.142,3.575-2.46,5.042.4,5.042.4.288-.4.557-.791.8-1.174-.042-.084-.08-.168-.115-.255-.59-1.584-4.115-2.25-6.541-.907Z" transform="translate(-1112.25 -296.817)"/>
        <path id="Trazado_189894" data-name="Trazado 189894" d="M1450.35,369.52s1.47,7.288,9.212,7.293A20.22,20.22,0,0,1,1450.35,369.52Z" transform="translate(-1187.41 -293.608)"/>
        <path id="Trazado_189895" data-name="Trazado 189895" d="M1528.52,369.29c1.531,3.42.189,7.82.189,7.82C1531.577,371.418,1528.52,369.29,1528.52,369.29Z" transform="translate(-1252.473 -293.416)"/>
        <path id="Trazado_189896" data-name="Trazado 189896" d="M1376.84,342.17a6.464,6.464,0,0,1,6.76-3.325S1379.367,335.9,1376.84,342.17Z" transform="translate(-1126.225 -267.5)"/>
        <path id="Trazado_189897" data-name="Trazado 189897" d="M1437.82,331.8s8.543-1.833,13.665,3.355C1451.485,335.15,1447.454,328.056,1437.82,331.8Z" transform="translate(-1176.98 -261.303)"/>
        <path id="Trazado_189898" data-name="Trazado 189898" d="M261.191,1563.2l3.269-8.717-7.627-8.717-13.076,1.09-5.525,8.682-2.1,3.3,11.986,17.435h26.152a17.809,17.809,0,0,0-.835-3.724c-1.286-3.865-4.477-9.352-12.241-9.352Z" transform="translate(-176.773 -1272.641)" fill="#fdab00"/>
        <path id="Trazado_189899" data-name="Trazado 189899" d="M337.831,1649.748s-8.15-.228-10.689,9.352a5.321,5.321,0,0,0,.315,3.724h23.448a17.817,17.817,0,0,0-.835-3.724c-1.286-3.865-4.477-9.352-12.241-9.352Z" transform="translate(-252.359 -1359.185)" fill="#fef7dc"/>
        <path id="Trazado_189900" data-name="Trazado 189900" d="M250.5,1621.056l-12.194-16.979-.075-.037-2.1,3.3,11.986,17.435h26.152a17.809,17.809,0,0,0-.835-3.724H250.5Z" transform="translate(-176.773 -1321.141)" fill="#fee954"/>
        <path id="Trazado_189901" data-name="Trazado 189901" d="M261.743,950.45l-10.876,6.5-14.151,53.485-.543,2.051-1.018,2.027-25.4,50.61c4.16,5.932,8.355,9.413,12.2,11.366l.02.01a21.859,21.859,0,0,0,2.154.956,17.743,17.743,0,0,0,14.19-.312l18.151-59.709,14.74-61.9-5.052-2.713-4.4-2.364Z" transform="translate(-154.816 -777.136)" fill="#0a2240"/>
        <path id="Trazado_189902" data-name="Trazado 189902" d="M352.075,1001.52l-24.355,54.2h0l.017.008,1.823.875a13.988,13.988,0,0,0,12-.285l15.356-54.687,12.469-56.7-4.274-2.483-13.039,59.072Z" transform="translate(-253.006 -770.477)" fill="#020b14"/>
        <path id="Trazado_189903" data-name="Trazado 189903" d="M408.059,1222.93l-.542,2.051-1.018,2.027,6.992-.62-5.347-3.405Z" transform="translate(-318.578 -1003.93)" fill="#020b14"/>
        <path id="Trazado_189904" data-name="Trazado 189904" d="M527.3,1635.382a39.941,39.941,0,0,0-2.83-3.692,27.05,27.05,0,0,0-13-8.684l-5.152-1.453L485.4,1616.89l-1.816,14.8-.458,3.724h44.227a.06.06,0,0,1-.054-.034Z" transform="translate(-382.359 -1331.837)" fill="#fef7dc"/>
        <path id="Trazado_189905" data-name="Trazado 189905" d="M527.608,1709.212a39.931,39.931,0,0,0-2.83-3.692h-40.89l-.458,3.724h44.227a.061.061,0,0,1-.05-.032Z" transform="translate(-382.609 -1405.607)" fill="#fee954"/>
        <path id="Trazado_189906" data-name="Trazado 189906" d="M420.371,879.583s-7.461,12.846,1.09,28.332q.848,1.544,1.652,3.117c1.244,2.443,2.394,4.929,3.479,7.449l10.251,23.832-10.826,63.979a28.86,28.86,0,0,0,7.812,2.619h0a32.6,32.6,0,0,0,23.195-4.062V935.568L442.31,882.173s-4.235-8.789-21.941-2.59Z" transform="translate(-327.613 -716.308)" fill="#0a2240"/>
        <path id="Trazado_189907" data-name="Trazado 189907" d="M451.672,1078.1c1.244,2.443,2.394,4.929,3.479,7.449l10.251,23.832-10.826,63.979a28.865,28.865,0,0,0,7.812,2.619h0l4.822-64.412,7.216-5.5-6.5,1.522L451.67,1078.1Z" transform="translate(-356.174 -883.383)" fill="#020b14"/>
        <path id="Trazado_189908" data-name="Trazado 189908" d="M466.549,560.01l-2.714-13.182-4.289-6.561-10.595-.887-5.721,7.449s-1.1,11.118-2.6,23.039c-1.149,9.166-2.53,18.807-3.823,24.229a12.4,12.4,0,0,1-1.472,4.163s9.545,11.7,31.208.818l-1.177-8.673-1.538-11.331.468-3.28,2.247-15.789Z" transform="translate(-342.582 -434.988)" fill="#9572b7"/>
        <path id="Trazado_189909" data-name="Trazado 189909" d="M449.752,720.8l-1.809.07c-1.148,9.166-2.53,18.807-3.823,24.229,6.938,1.749,16.453,1.43,16.453,1.43-.694-4.738,2.542-21.453,2.542-21.453L449.75,720.8Z" transform="translate(-349.89 -585.99)" fill="#180421"/>
        <path id="Trazado_189910" data-name="Trazado 189910" d="M593.146,756.59l-3.006,6.876,1.553,8.155a9.229,9.229,0,0,0,2.525-.421L592.68,759.87l.468-3.28Z" transform="translate(-471.427 -615.779)" fill="#180421"/>
        <path id="Trazado_189911" data-name="Trazado 189911" d="M430.685,532.833l-5.154-.533a54.4,54.4,0,0,0-5.649,4.715c-3.048,2.906-3.858,6.117-3.576,10.8a48.525,48.525,0,0,0,.956,7.48c.942,4.292,2.146,5.449,2.146,5.449s-.206,1.594-.6,3.94h0c-1,6.07-3.224,17.167-6.232,18.665,0,0,6.054,6.054,20.288,4.514,0,0,.4-4.809,1.046-10.241.377-3.186.838-6.588,1.353-9.361.017-.089.032-.178.05-.267.495-2.612,1.034-4.624,1.6-5.3a12.7,12.7,0,0,0,1.878-3.02c1.184-2.713,1.588-6.457-.714-11.322-3.328-7.034-7.387-15.512-7.387-15.512Z" transform="translate(-323.638 -429.095)" fill="#420b50"/>
        <path id="Trazado_189912" data-name="Trazado 189912" d="M826.171,534.144l-6.142,3.774-1.09,9.632,10.152-1.115,12.334-5.126.2-2.906s-9.954-4.671-10.2-4.721S826.171,534.144,826.171,534.144Z" transform="translate(-661.865 -430.243)" fill="#f5ae97"/>
        <path id="Trazado_189913" data-name="Trazado 189913" d="M801.517,539.382l-3.4,1.331-3.677,4.842,2.4,4.68,3.288,3.456,3.789-.335c-3.454-5.293-2.394-13.975-2.394-13.975Z" transform="translate(-641.473 -434.988)" fill="#fee954"/>
        <path id="Trazado_189914" data-name="Trazado 189914" d="M618.366,536.45l-25.4,6.723a5.227,5.227,0,0,1-3.2-.176l-13.5-5.169a57.361,57.361,0,0,0,4.867,12.9c3.231,5.825.932,8.507-1.6,15.175s1.15,21.46,1.15,21.46,2.906-1.226,3.526-2.606c0,0-5.136-10.828,0-22.157,0,0,1.211-4.587.34-7.347l5.954,1.806a10.943,10.943,0,0,0,5.327.26l11.968-2.512.379-.079,12.743-2.674A24.884,24.884,0,0,1,618.366,536.45Z" transform="translate(-459.875 -432.549)" fill="#420b50"/>
        <path id="Trazado_189915" data-name="Trazado 189915" d="M610.712,610.03a42.172,42.172,0,0,0,2.508,6.462l5.954,1.806a10.943,10.943,0,0,0,5.327.26l11.968-2.512a91.439,91.439,0,0,1-15.308,1.7,11.929,11.929,0,0,1-10.451-7.719Z" transform="translate(-488.548 -493.792)" fill="#420b50"/>
        <path id="Trazado_189916" data-name="Trazado 189916" d="M792.714,323.284a12.938,12.938,0,0,0-5.558,2.332,2.06,2.06,0,0,1-3.129-.993l-2.869-17.692-.225-.622a2.047,2.047,0,0,0-2.364-1.574l-19.6,3.251a1.937,1.937,0,0,1-.9-2.294c1.375-4.166.536-9.148-3.719-13.453a5.152,5.152,0,0,0-1.536-1.071c-11.26-5.109-20.99,3.563-19.469,12.925a11.922,11.922,0,0,0,2.25,5.281,1.923,1.923,0,0,1-.251,2.527l-19.716,3.27a2.046,2.046,0,0,0-1.727,2.336l2.948,17.786c-.749.572-1.656,1.279-1.656,1.279l.411,2.151,3.461-.605h0a2.182,2.182,0,0,0,1.454-.553c3.581-3.117,9.034-4.359,14.971-1.8a12.726,12.726,0,0,1,2.785,2.193,12.691,12.691,0,0,1,2.265,13.829,12.524,12.524,0,0,1-1.937,2.973c-4.817,4.312-10.377,4.881-14.763,3.067a2.228,2.228,0,0,0-1.14-.151h0c-.049.007-.1.015-.142.025l-3.821.654-.352.77.635,3.466,2.235-.416,2.725,16.778a2.058,2.058,0,0,0,2.384,1.665L746.1,377.4a1.927,1.927,0,0,1,1.046,2.32,11.96,11.96,0,0,0-.443,5.727c1.553,9.357,13.542,14.456,22.576,6.023a5.069,5.069,0,0,0,1.112-1.507c2.656-5.442,1.858-10.437-.771-13.938a1.932,1.932,0,0,1,.121-2.46l19.614-3.187a2.06,2.06,0,0,0,1.74-2.247l.01-.661L788.166,349.8a2.049,2.049,0,0,1,2.647-1.937,13.08,13.08,0,0,0,6.016.431,12.675,12.675,0,1,0-4.113-25.014Z" transform="translate(-574.414 -227.129)" fill="#9572b7"/>
        <path id="Trazado_189917" data-name="Trazado 189917" d="M770.99,326.957a12.918,12.918,0,0,0-5.558,2.332,2.06,2.06,0,0,1-3.129-.993L759.43,310.6l-.225-.622a2.045,2.045,0,0,0-2.362-1.574l-19.6,3.258a1.937,1.937,0,0,1-.9-2.294c1.375-4.165.538-9.148-3.719-13.453a5.173,5.173,0,0,0-1.536-1.071c-11.26-5.109-20.99,3.563-19.469,12.925a11.923,11.923,0,0,0,2.25,5.281,1.925,1.925,0,0,1-.251,2.528L693.9,318.852a2.046,2.046,0,0,0-1.727,2.322.046.046,0,0,0,0,.015l3.082,18.586.089.28.018.111a2.056,2.056,0,0,0,3.434,1.083c3.581-3.117,9.032-4.359,14.969-1.8a12.64,12.64,0,0,1,2.785,2.193,12.687,12.687,0,0,1,2.264,13.829,12.425,12.425,0,0,1-1.937,2.973c-4.815,4.312-10.377,4.882-14.761,3.067a2.059,2.059,0,0,0-2.906,2.128l.02.111v.3l3.018,18.589a2.058,2.058,0,0,0,2.384,1.665l19.736-3.209a1.927,1.927,0,0,1,1.046,2.321,11.959,11.959,0,0,0-.443,5.727c1.551,9.357,13.542,14.456,22.576,6.024a5.155,5.155,0,0,0,1.112-1.509c2.656-5.449,1.858-10.435-.771-13.938a1.926,1.926,0,0,1,.121-2.458l19.614-3.187a2.06,2.06,0,0,0,1.74-2.247l.01-.661-2.936-17.677a2.057,2.057,0,0,1,2.647-1.943,13.088,13.088,0,0,0,6.017.431,12.678,12.678,0,1,0-4.111-25.019Z" transform="translate(-556.333 -230.192)" fill="#6d3c8c"/>
        <path id="Trazado_189918" data-name="Trazado 189918" d="M696.942,715.109c-2.574-2.332-8.767.605-11.866-.847s-6.373,1.3-6.373,1.3-.052.077-.144.22c-.847,1.331-5.1,8.365-1.653,11.344,3.814,3.3,16.654.32,19.55-1.849s3.058-7.839.485-10.172Z" transform="translate(-542.54 -580.197)" fill="#f5ae97"/>
        <path id="Trazado_189919" data-name="Trazado 189919" d="M711.743,715.109c-2.574-2.332-8.767.605-11.866-.847s-6.373,1.3-6.373,1.3-.052.077-.144.22l.629.461s2.436-2.285,5.248-.979,10.645-1.424,12.328.652c1.8,2.225,2.549,5.764-.307,9.361C714.156,723.114,714.316,717.443,711.743,715.109Z" transform="translate(-557.341 -580.197)" fill="#ed856e"/>
        <path id="Trazado_189920" data-name="Trazado 189920" d="M469.054,613.05l-5.747,2.555-1.127,4.081,1.64,6.383,2.616,5.585,8.132,4.168,1.985-.354c.017-.089.032-.178.05-.267.495-2.612,1.034-4.624,1.6-5.3a12.7,12.7,0,0,0,1.878-3.02l-5.218-.5Z" transform="translate(-364.922 -496.306)" fill="#180421"/>
        <path id="Trazado_189921" data-name="Trazado 189921" d="M440.49,669.44c.942,4.292,2.146,5.449,2.146,5.449s-.206,1.595-.6,3.94h0c.025.121,1.762,8.5,6.733,10.581a41.194,41.194,0,0,0,8.368,2.354c.389-3.288.869-6.809,1.4-9.627-1.527-1.367-8.288-7.082-8.288-7.082l-9.766-5.613Z" transform="translate(-346.869 -543.241)" fill="#180421"/>
        <path id="Trazado_189922" data-name="Trazado 189922" d="M654,712.48,649.71,716.7s.533,5.085.632,5.818,1.5,5.188,1.5,5.188H657.9c-1.048-5.188.847-14.892.847-14.892L654,712.482Z" transform="translate(-521.01 -579.065)" fill="#fee954"/>
        <path id="Trazado_189923" data-name="Trazado 189923" d="M448.5,590.459l-5.788-16.321a7.494,7.494,0,0,0-3.917-4.272c-2.161-1.009-4-2.517-6.034.86-3.243,5.375-.521,18.663,4.874,28.252.584,1.041,1.2,2.037,1.844,2.976a7.649,7.649,0,0,0,4.406,3.085c1.177.3,2.716.677,4.542,1.075a128.151,128.151,0,0,0,24.5,3.026s-1.563-12.328,1.475-17.539l-25.9-1.145Z" transform="translate(-339.275 -459.345)" fill="#420b50"/>
        <path id="Trazado_189924" data-name="Trazado 189924" d="M504.058,496.593a3.577,3.577,0,0,0-3.858,1.668s.78,2.6.889,2.8,1.346.04,1.346.04l2.991-1.776a1.817,1.817,0,0,0-1.37-2.73Z" transform="translate(-396.567 -399.272)" fill="#d38700"/>
        <path id="Trazado_189925" data-name="Trazado 189925" d="M353.175,325.089c-5.392,8.058,2.6,29.179-5.085,36.583,0,0,19.8,7.592,20.242-20.331l-1.392-17.362s-8.372-6.948-13.765,1.108Z" transform="translate(-269.961 -253.385)" fill="#131e36"/>
        <path id="Trazado_189926" data-name="Trazado 189926" d="M375.308,333.652c-3.1,7.932.332,17.741-.892,22.974,0,0,1.662-3.511.991-13.076s3.935-15.566,10.486-13.5c0,.007-7.483-4.329-10.586,3.6Z" transform="translate(-291.502 -259.775)"/>
        <path id="Trazado_189927" data-name="Trazado 189927" d="M399.645,376.93a29.784,29.784,0,0,0-.983,11.733c.749,6.611-1.522,8.112-1.522,8.112s3.067-1.316,2.52-9.54S399.645,376.93,399.645,376.93Z" transform="translate(-310.787 -299.775)"/>
        <path id="Trazado_189928" data-name="Trazado 189928" d="M366.333,334.98s-8.011,3.511-1.1,14.815c.1,4.146-.392,11.208-4.567,13.474-6.3,3.414-2.825,8.207-12.535,9.877,0,0,19.8,7.592,20.242-20.331l-.726-9.069.753-7.166Z" transform="translate(-269.994 -264.859)"/>
        <path id="Trazado_189929" data-name="Trazado 189929" d="M391.51,478.109c11.249-1.717,11.334-15.74,11.334-15.74l-.023-.278C399.918,474.844,391.51,478.109,391.51,478.109Z" transform="translate(-306.101 -370.657)" fill="#131e36"/>
        <path id="Trazado_189930" data-name="Trazado 189930" d="M491.325,334.307l-.364-7.5-11.306-2.039-1.274-.228-.691,1.281-7.057,13.143s-5.266-3.016-6.071,2.686c-.371,2.678,1.383,4.379,3.166,5.39,0,0,.007,0,.013.012.285.149.557.305.827.419a13.55,13.55,0,0,0,2.034.759.863.863,0,0,1,.634.666s2.014,6.608-.438,8.985c0,0,2.559,4.4,6.477,5.342h0l4.408,2.741.605-3.863v-1.651a3.981,3.981,0,0,0-.484-2.289,5.065,5.065,0,0,1-.491-2.431v-.225c-.015-1.006.062-1.883.062-1.883a5.57,5.57,0,0,0,2.542.471c8.536-.2,7.585-16.19,7.585-16.19Z" transform="translate(-366.863 -256.169)" fill="#f5ae97"/>
        <path id="Trazado_189931" data-name="Trazado 189931" d="M484.35,421.336a.046.046,0,0,1,.008-.032.853.853,0,0,0-1.3-.931c-.533.364-.949,1.12-.4,2.644,1.068,2.963,2.617,1.519,2.421.605S484.032,422.381,484.35,421.336Z" transform="translate(-381.754 -335.811)" fill="#ed856e"/>
        <path id="Trazado_189932" data-name="Trazado 189932" d="M553.86,397.626a2.677,2.677,0,0,0-1.331.62,1.875,1.875,0,0,0-.734,1.257.457.457,0,0,0,.364.521.45.45,0,0,0,.52-.364c.03-.584.726-1.065,1.273-1.152a1.242,1.242,0,0,1,.827.129,1,1,0,0,1,.473.537.446.446,0,0,0,.837-.31,2.072,2.072,0,0,0-2.225-1.239Z" transform="translate(-439.51 -316.982)" fill="#072c35"/>
        <path id="Trazado_189933" data-name="Trazado 189933" d="M598.4,391.847a2.37,2.37,0,0,0-1.945,1.633.447.447,0,1,0,.806.384h0c.2-.525.615-1.09,1.162-1.127a1.476,1.476,0,0,1,1.331.751.446.446,0,0,0,.837-.31,2.345,2.345,0,0,0-2.191-1.333Z" transform="translate(-476.647 -312.189)" fill="#072c35"/>
        <path id="Trazado_189934" data-name="Trazado 189934" d="M606.318,410.981c-.438.037-.743.634-.684,1.331s.463,1.232.9,1.2.743-.634.684-1.331S606.756,410.944,606.318,410.981Z" transform="translate(-484.318 -328.115)" fill="#072c35"/>
        <path id="Trazado_189935" data-name="Trazado 189935" d="M562.792,414.225c-.461.04-.785.669-.726,1.4s.484,1.3.949,1.261.785-.669.726-1.405-.488-1.294-.949-1.261Z" transform="translate(-448.055 -330.814)" fill="#072c35"/>
        <path id="Trazado_189936" data-name="Trazado 189936" d="M573.725,457.518l-5.253-.241a.5.5,0,0,0-.518.589c.216,1.16.931,3.546,3.149,3.5s2.894-2.2,3.1-3.258a.5.5,0,0,0-.475-.585Z" transform="translate(-452.955 -366.65)" fill="#cb6655"/>
        <path id="Trazado_189937" data-name="Trazado 189937" d="M488.7,456.07a13.328,13.328,0,0,0,2.034.749,2.036,2.036,0,0,0,2.066-1.809C492.685,455.184,491.45,456.973,488.7,456.07Z" transform="translate(-386.995 -364.764)" fill="#ed856e"/>
        <path id="Trazado_189938" data-name="Trazado 189938" d="M444.579,337.82c-7.669,7.607.8,14.589.8,14.589C440.268,343.775,444.579,337.82,444.579,337.82Z" transform="translate(-347.598 -267.223)" fill="#b13e8d"/>
        <path id="Trazado_189939" data-name="Trazado 189939" d="M466.905,289.715a9.26,9.26,0,0,0-5.558,2.765h0a7.708,7.708,0,0,0-1,1.217c-13.963,2.327-6.2,18.908-6.2,18.908.3-2.725,1.816-3.4,3.258-3.39a4.761,4.761,0,0,1,3.779,2.059l.649.926c10.645-4.554,8.839-11.753,8.839-11.753,1.95,4.5,10.268,5.409,10.268,5.409a8.646,8.646,0,0,0,.652-1.682c1.331-4.929-2.255-9.322-2.255-9.322C474.066,290.381,469.94,289.358,466.905,289.715Z" transform="translate(-356.448 -227.129)" fill="#131e36"/>
        <path id="Trazado_189940" data-name="Trazado 189940" d="M480.871,340.67s-.664,10.2-8.807,11.68c0,0-6.759-5.727-7.243,2.728.3-2.725,1.816-3.4,3.258-3.39a4.761,4.761,0,0,1,3.779,2.059l.649.926c10.645-4.554,8.839-11.753,8.839-11.753,1.95,4.5,10.268,5.409,10.268,5.409a8.643,8.643,0,0,0,.652-1.682s-9.061-.565-11.393-5.976Z" transform="translate(-367.119 -269.595)"/>
        <path id="Trazado_189941" data-name="Trazado 189941" d="M504.28,357c7.022-1.013,6.973-7.3,6.973-7.3C509.406,354.425,504.28,357,504.28,357Z" transform="translate(-399.963 -277.111)"/>
        <path id="Trazado_189942" data-name="Trazado 189942" d="M582.7,340.872a25.15,25.15,0,0,1-8.687-4.812A10.948,10.948,0,0,0,582.7,340.872Z" transform="translate(-458.002 -265.758)"/>
        <path id="Trazado_189943" data-name="Trazado 189943" d="M508.356,290.04A9.261,9.261,0,0,0,502.8,292.8h0a7.711,7.711,0,0,0-1,1.217,9.347,9.347,0,0,1,4.522,1.65c-.007.005-2.9-4.4,2.032-5.632Z" transform="translate(-397.899 -227.454)"/>
        <path id="Trazado_189944" data-name="Trazado 189944" d="M537.41,476.162s.961,4.436,4.587,5.766V481.7c-.015-1.006.062-1.883.062-1.883s-3.561-1.628-4.649-3.66Z" transform="translate(-427.538 -382.368)" fill="#ed856e"/>
        <path id="Trazado_189945" data-name="Trazado 189945" d="M505.134,512.695,500.2,507.16l3.739,8.306,7.449,2.5-4.138-5.6Z" transform="translate(-396.567 -408.17)" fill="#d38700"/>
        <path id="Trazado_189946" data-name="Trazado 189946" d="M491.577,507.16l-1.737,4.215,5.9,9.247,2.9-8.256a19.423,19.423,0,0,1-7.054-5.2Z" transform="translate(-387.944 -408.17)" fill="#fee954"/>
        <path id="Trazado_189947" data-name="Trazado 189947" d="M566.2,527.869l.127,7.33,1.784-5.2-1.7-2.166Z" transform="translate(-451.501 -425.374)" fill="#d38700"/>
        <path id="Trazado_189948" data-name="Trazado 189948" d="M565.07,516.91l.189,1.869,3.429,5.665-2.679-6.628Z" transform="translate(-450.561 -416.285)" fill="#fee954"/>
        <g id="like" transform="translate(309.137 126.363)">
          <path id="Trazado_189949" data-name="Trazado 189949" d="M1762.5,670.42h-30.909a5.711,5.711,0,0,0-5.711,5.711v19.382a5.711,5.711,0,0,0,5.711,5.712h6.66a1.905,1.905,0,0,1,1.377.589l6.046,6.324a1.9,1.9,0,0,0,2.691.06c.02-.02.042-.04.06-.06l6.046-6.324a1.905,1.905,0,0,1,1.377-.589h6.66a5.712,5.712,0,0,0,5.712-5.712V676.131a5.711,5.711,0,0,0-5.711-5.711Z" transform="translate(-1725.88 -670.42)" fill="#fee954"/>
        </g>
      </g>
      <g id="Grupo_133371" data-name="Grupo 133371" transform="translate(133.6 23.792)">
        <g id="Grupo_133369" data-name="Grupo 133369" transform="translate(0 8.566)">
          <path id="Trazado_189950" data-name="Trazado 189950" d="M689.1,129.228h-7.954a2.215,2.215,0,0,1-2.211-2.211V113.994a.514.514,0,0,1,.2-.411l3.254-3.254a1.983,1.983,0,0,1,2.8,0l.013.013,2.927,3.142h.967a2.355,2.355,0,0,1,1.47,4.193,2.352,2.352,0,0,1,0,3.677,2.351,2.351,0,0,1,0,3.679,2.353,2.353,0,0,1-1.467,4.193Zm-9.136-15.014v12.8a1.183,1.183,0,0,0,1.182,1.182H689.1a1.325,1.325,0,1,0,0-2.651h-1.023a.515.515,0,0,1,0-1.029H689.1a1.325,1.325,0,1,0,0-2.651h-1.023a.515.515,0,0,1,0-1.029H689.1a1.328,1.328,0,0,0,1.326-1.326,1.3,1.3,0,0,0-1.227-1.321l-.1,0-1.023-.005a.515.515,0,0,1,0-1.029H689.1c.034,0,.065,0,.1,0a1.326,1.326,0,0,0,1.226-1.321,1.352,1.352,0,0,0-1.326-1.328h-3.585a.516.516,0,0,1,0-1.031h1.207l-2.265-2.429a.951.951,0,0,0-1.34.005l-3.157,3.157Z" transform="translate(-678.93 -109.75)" fill="#fff"/>
          <path id="Trazado_189951" data-name="Trazado 189951" d="M781.838,129.236h-7.954a2.353,2.353,0,0,1-1.467-4.193,2.351,2.351,0,0,1,0-3.679,2.352,2.352,0,0,1,0-3.677,2.354,2.354,0,0,1,1.47-4.192h.967l2.927-3.144a.1.1,0,0,1,.014-.013,1.983,1.983,0,0,1,2.8,0l3.254,3.254a.515.515,0,0,1,.2.411v13.023a2.215,2.215,0,0,1-2.212,2.212Zm-7.954-3.68a1.325,1.325,0,0,0,0,2.651h7.954a1.183,1.183,0,0,0,1.182-1.182v-12.8l-3.157-3.157a.95.95,0,0,0-1.338-.005l-2.265,2.429h1.209a.516.516,0,0,1,0,1.031h-3.583a1.329,1.329,0,0,0-1.326,1.328,1.3,1.3,0,0,0,1.227,1.321l.1,0h1.024a.515.515,0,1,1,0,1.029l-1.021.005c-.034,0-.067,0-.1,0a1.328,1.328,0,0,0-1.229,1.321,1.35,1.35,0,0,0,1.325,1.326h1.024a.515.515,0,1,1,0,1.029h-1.024a1.325,1.325,0,0,0,0,2.651h1.024a.515.515,0,1,1,0,1.029h-1.024Z" transform="translate(-756.004 -109.758)" fill="#fff"/>
        </g>
        <path id="Trazado_189952" data-name="Trazado 189952" d="M760,64.976a.515.515,0,0,1-.515-.515V59.175a.515.515,0,1,1,1.029,0v5.286A.515.515,0,0,1,760,64.976Z" transform="translate(-745.983 -58.66)" fill="#fff"/>
        <g id="Grupo_133370" data-name="Grupo 133370" transform="translate(7.578 3.058)">
          <path id="Trazado_189953" data-name="Trazado 189953" d="M726.928,81.517a.513.513,0,0,1-.434-.238l-2.284-3.588a.515.515,0,0,1,.869-.553l2.284,3.588a.515.515,0,0,1-.158.711.5.5,0,0,1-.275.08Z" transform="translate(-724.129 -76.899)" fill="#fff"/>
          <path id="Trazado_189954" data-name="Trazado 189954" d="M781.752,81.517a.515.515,0,0,1-.433-.791l2.284-3.588a.515.515,0,0,1,.869.553l-2.284,3.588a.515.515,0,0,1-.434.238Z" transform="translate(-771.664 -76.899)" fill="#fff"/>
        </g>
      </g>
      <g id="Grupo_133374" data-name="Grupo 133374" transform="translate(13.967 127.38)">
        <path id="Trazado_189955" data-name="Trazado 189955" d="M166.614,682.544a.734.734,0,0,1-.734-.734v-5.177a.734.734,0,0,1,.734-.734h5.177a.734.734,0,1,1,0,1.467h-4.443v4.443A.734.734,0,0,1,166.614,682.544Z" transform="translate(-165.88 -675.788)" fill="#693fb7"/>
        <path id="Trazado_189956" data-name="Trazado 189956" d="M327.61,837.794h-5.177a.734.734,0,1,1,0-1.467h4.443v-4.443a.734.734,0,0,1,1.467,0v5.177A.734.734,0,0,1,327.61,837.794Z" transform="translate(-291.134 -800.584)" fill="#693fb7"/>
        <g id="Grupo_133372" data-name="Grupo 133372" transform="translate(0 13.465)">
          <path id="Trazado_189957" data-name="Trazado 189957" d="M208.754,791.168a4.3,4.3,0,1,1,4.3-4.3A4.308,4.308,0,0,1,208.754,791.168Zm0-7.14a2.837,2.837,0,1,0,2.837,2.836A2.841,2.841,0,0,0,208.754,784.027Z" transform="translate(-196.884 -774.99)" fill="#693fb7"/>
          <path id="Trazado_189958" data-name="Trazado 189958" d="M178.87,767.716h-2.238a.732.732,0,0,1-.691-.486l-1-2.784a9.059,9.059,0,0,1-1.291-.535l-2.674,1.263a.734.734,0,0,1-.832-.145l-1.583-1.583a.734.734,0,0,1-.145-.832l1.263-2.674a8.812,8.812,0,0,1-.534-1.291l-2.784-1a.732.732,0,0,1-.486-.691v-2.238a.732.732,0,0,1,.486-.69l2.784-1a9.261,9.261,0,0,1,.534-1.291l-1.263-2.674a.734.734,0,0,1,.145-.832l1.583-1.583a.733.733,0,0,1,.832-.145l2.674,1.263a9.044,9.044,0,0,1,1.291-.535l1-2.784a.732.732,0,0,1,.691-.487h2.238a.732.732,0,0,1,.69.487l1,2.784a9.043,9.043,0,0,1,1.291.535l2.674-1.263a.73.73,0,0,1,.832.145l1.583,1.583a.734.734,0,0,1,.145.832l-1.263,2.674a9.04,9.04,0,0,1,.536,1.291l2.784,1a.732.732,0,0,1,.486.69v2.238a.732.732,0,0,1-.486.691l-2.784,1a9.04,9.04,0,0,1-.536,1.291l1.263,2.674a.734.734,0,0,1-.145.832l-1.583,1.583a.734.734,0,0,1-.832.145l-2.674-1.263a9.057,9.057,0,0,1-1.291.535l-1,2.784A.732.732,0,0,1,178.87,767.716Zm-1.722-1.467h1.206l.947-2.644a.738.738,0,0,1,.492-.459,7.6,7.6,0,0,0,1.673-.692.734.734,0,0,1,.673-.024l2.54,1.2.853-.853-1.2-2.54a.734.734,0,0,1,.024-.673,7.525,7.525,0,0,0,.692-1.673.734.734,0,0,1,.459-.492l2.644-.948v-1.206l-2.644-.947a.738.738,0,0,1-.459-.492,7.607,7.607,0,0,0-.692-1.673.729.729,0,0,1-.024-.673l1.2-2.54-.853-.853-2.54,1.2a.734.734,0,0,1-.673-.023,7.526,7.526,0,0,0-1.673-.692.734.734,0,0,1-.492-.459l-.947-2.644h-1.206l-.947,2.644a.738.738,0,0,1-.492.459,7.6,7.6,0,0,0-1.673.692.728.728,0,0,1-.673.023l-2.54-1.2-.853.853,1.2,2.54a.734.734,0,0,1-.024.673,7.566,7.566,0,0,0-.692,1.673.734.734,0,0,1-.459.492l-2.644.947v1.206l2.644.948a.738.738,0,0,1,.459.492,7.6,7.6,0,0,0,.692,1.673.729.729,0,0,1,.024.673l-1.2,2.54.853.853,2.54-1.2a.734.734,0,0,1,.673.024,7.6,7.6,0,0,0,1.673.692.734.734,0,0,1,.492.459Zm11.74-9.285Z" transform="translate(-165.88 -743.97)" fill="#693fb7"/>
        </g>
        <g id="Grupo_133373" data-name="Grupo 133373" transform="translate(19.74 0)">
          <path id="Trazado_189959" data-name="Trazado 189959" d="M297.528,709.645a3.3,3.3,0,1,1,3.3-3.3A3.3,3.3,0,0,1,297.528,709.645Zm0-5.13a1.832,1.832,0,1,0,1.832,1.832A1.834,1.834,0,0,0,297.528,704.515Z" transform="translate(-288.792 -697.612)" fill="#693fb7"/>
          <path id="Trazado_189960" data-name="Trazado 189960" d="M276.049,692.8h-1.608a.732.732,0,0,1-.691-.487l-.683-1.9a6.766,6.766,0,0,1-.769-.318l-1.83.865a.731.731,0,0,1-.832-.145l-1.138-1.138a.733.733,0,0,1-.145-.832l.865-1.83a6.755,6.755,0,0,1-.318-.769l-1.9-.683a.732.732,0,0,1-.486-.691v-1.609a.732.732,0,0,1,.486-.69l1.9-.683a6.747,6.747,0,0,1,.318-.769l-.865-1.83a.734.734,0,0,1,.145-.832l1.138-1.138a.734.734,0,0,1,.832-.145l1.83.865a6.721,6.721,0,0,1,.769-.318l.683-1.9a.732.732,0,0,1,.691-.486h1.608a.732.732,0,0,1,.691.486l.683,1.9a6.73,6.73,0,0,1,.769.318l1.83-.865a.73.73,0,0,1,.832.145l1.138,1.138a.734.734,0,0,1,.145.832l-.865,1.83a6.753,6.753,0,0,1,.32.769l1.9.683a.732.732,0,0,1,.487.69v1.609a.732.732,0,0,1-.487.691l-1.9.683a6.744,6.744,0,0,1-.318.769l.865,1.83a.733.733,0,0,1-.145.832l-1.138,1.138a.734.734,0,0,1-.832.145l-1.83-.865a6.764,6.764,0,0,1-.769.318l-.683,1.9a.732.732,0,0,1-.69.487Zm-1.093-1.467h.577l.632-1.763a.738.738,0,0,1,.492-.459,5.185,5.185,0,0,0,1.155-.479.735.735,0,0,1,.673-.024l1.695.8.408-.408-.8-1.695a.734.734,0,0,1,.024-.673,5.174,5.174,0,0,0,.479-1.155.734.734,0,0,1,.459-.492l1.764-.632v-.577l-1.764-.632a.737.737,0,0,1-.459-.492,5.225,5.225,0,0,0-.479-1.155.729.729,0,0,1-.024-.673l.8-1.695-.408-.408-1.695.8a.734.734,0,0,1-.673-.023,5.167,5.167,0,0,0-1.155-.479.734.734,0,0,1-.492-.459l-.632-1.764h-.577l-.632,1.764a.738.738,0,0,1-.492.459,5.221,5.221,0,0,0-1.155.479.734.734,0,0,1-.673.023l-1.695-.8-.408.408.8,1.695a.734.734,0,0,1-.024.673,5.166,5.166,0,0,0-.479,1.155.73.73,0,0,1-.459.492l-1.764.632v.577l1.764.632a.738.738,0,0,1,.459.492,5.182,5.182,0,0,0,.479,1.155.729.729,0,0,1,.024.673L269.9,689l.408.408,1.695-.8a.735.735,0,0,1,.673.024,5.169,5.169,0,0,0,1.155.479.734.734,0,0,1,.492.459Zm8.29-6.466Z" transform="translate(-266.51 -675.33)" fill="#693fb7"/>
        </g>
      </g>
      <g id="Grupo_133375" data-name="Grupo 133375" transform="translate(318.099 130.546)">
        <path id="Trazado_189961" data-name="Trazado 189961" d="M1817.081,824.16a.691.691,0,1,0,.691.691A.692.692,0,0,0,1817.081,824.16Z" transform="translate(-1810.176 -802.566)" fill="#693fb7"/>
        <path id="Trazado_189962" data-name="Trazado 189962" d="M1798.551,824.16a.691.691,0,1,0,.691.691A.692.692,0,0,0,1798.551,824.16Z" transform="translate(-1794.753 -802.566)" fill="#693fb7"/>
        <path id="Trazado_189963" data-name="Trazado 189963" d="M1780.021,824.16a.691.691,0,1,0,.691.691A.692.692,0,0,0,1780.021,824.16Z" transform="translate(-1779.33 -802.566)" fill="#693fb7"/>
        <path id="Trazado_189964" data-name="Trazado 189964" d="M1780.021,805.64a.691.691,0,1,0,.691.691A.692.692,0,0,0,1780.021,805.64Z" transform="translate(-1779.33 -787.151)" fill="#693fb7"/>
        <path id="Trazado_189965" data-name="Trazado 189965" d="M1780.021,787.11a.691.691,0,1,0,.691.691A.692.692,0,0,0,1780.021,787.11Z" transform="translate(-1779.33 -771.728)" fill="#693fb7"/>
        <path id="Trazado_189966" data-name="Trazado 189966" d="M1790.946,703.391v1.4a.453.453,0,1,0,.905,0v-1.4a2.525,2.525,0,0,0-2.027-2.458s-.944-.369-1.554-.605a3.2,3.2,0,1,0-5.358,0c-.61.237-1.554.605-1.554.605a2.527,2.527,0,0,0-2.027,2.458v4.27a.453.453,0,0,0,.906,0v-4.27c0-.979.573-1.274,1.449-1.615,0,0,1.143-.446,1.871-.728a3.181,3.181,0,0,0,.848.5l-.817,3.737a.451.451,0,0,0,.089.379l1.561,1.948a.454.454,0,0,0,.708,0l1.561-1.948a.455.455,0,0,0,.089-.379l-.817-3.737a3.2,3.2,0,0,0,.848-.5c.728.282,1.871.728,1.871.728C1790.372,702.117,1790.946,702.412,1790.946,703.391Zm-5.355-7.107a2.3,2.3,0,1,1-2.3,2.3A2.3,2.3,0,0,1,1785.59,696.284Zm1.073,8.987-1.073,1.34-1.073-1.34.766-3.506q.151.015.307.015c.1,0,.206-.005.307-.015Z" transform="translate(-1779.33 -695.378)" fill="#693fb7"/>
        <path id="Trazado_189967" data-name="Trazado 189967" d="M1852.174,751.613s-.944-.369-1.554-.605a3.2,3.2,0,1,0-5.359,0c-.61.236-1.554.605-1.554.605a2.527,2.527,0,0,0-2.027,2.458v6.013a.453.453,0,0,0,.453.453h11.616a.453.453,0,0,0,.453-.453v-6.013A2.526,2.526,0,0,0,1852.174,751.613Zm-4.234-4.648a2.3,2.3,0,1,1-2.3,2.3A2.3,2.3,0,0,1,1847.94,746.965Zm1.073,8.987-1.073,1.34-1.073-1.34.766-3.506a3.141,3.141,0,0,0,.614,0Zm4.282,3.68h-10.711v-5.56c0-.979.573-1.274,1.449-1.615,0,0,1.144-.446,1.871-.728a3.183,3.183,0,0,0,.848.5l-.816,3.737a.451.451,0,0,0,.089.379l1.561,1.948a.454.454,0,0,0,.708,0l1.561-1.948a.45.45,0,0,0,.089-.379l-.817-3.737a3.169,3.169,0,0,0,.847-.5c.728.282,1.871.728,1.871.728.875.34,1.448.635,1.448,1.615v5.56Z" transform="translate(-1831.226 -737.561)" fill="#693fb7"/>
        <path id="Trazado_189968" data-name="Trazado 189968" d="M1864.875,695.37h-5.587a2.43,2.43,0,0,0-2.428,2.428v1.985a2.43,2.43,0,0,0,2.428,2.428h4.016a1.851,1.851,0,0,1,1.078,2.344.451.451,0,0,0,.189.464.456.456,0,0,0,.255.079.443.443,0,0,0,.247-.074c1.471-.957,1.955-2.1,1.474-3.486a2.432,2.432,0,0,0,.756-1.755V697.8A2.43,2.43,0,0,0,1864.875,695.37Zm1.522,4.413a1.526,1.526,0,0,1-.654,1.246.452.452,0,0,0-.157.543c.005.012.01.023.015.033a1.7,1.7,0,0,1-.262,2.039,2.642,2.642,0,0,0-1.838-2.322.457.457,0,0,0-.126-.018h-4.089a1.523,1.523,0,0,1-1.522-1.522V697.8a1.523,1.523,0,0,1,1.522-1.522h5.587a1.523,1.523,0,0,1,1.522,1.522v1.985Z" transform="translate(-1843.861 -695.37)" fill="#693fb7"/>
      </g>
      <text id="Estrategia" transform="translate(214.611 45.879)" fill="#fff" font-size="16" font-family="Roboto-Bold, Roboto" font-weight="700"><tspan x="0" y="0">Est</tspan><tspan y="0" letter-spacing="-0.01em">r</tspan><tspan y="0">ategia</tspan></text>
      <g id="Grupo_133376" data-name="Grupo 133376" transform="translate(145.138 203.885)">
        <path id="Trazado_189969" data-name="Trazado 189969" d="M760,1138.819h-1.975v-.753a.287.287,0,1,0-.573,0v.753h-3.8v-.753a.287.287,0,1,0-.573,0v.753h-3.8v-.753a.287.287,0,1,0-.573,0v.753h-3.8v-.753a.287.287,0,0,0-.574,0v.753h-3.8v-.753a.287.287,0,1,0-.573,0v.753h-1.975a1.052,1.052,0,0,0-1.051,1.051v21a1.052,1.052,0,0,0,1.051,1.051H760a1.052,1.052,0,0,0,1.051-1.051v-21A1.052,1.052,0,0,0,760,1138.819Zm.478,22.047a.479.479,0,0,1-.478.478H737.961a.479.479,0,0,1-.478-.478v-21a.479.479,0,0,1,.478-.478h1.975v.753a.287.287,0,1,0,.573,0v-.753h3.8v.753a.287.287,0,1,0,.573,0v-.753h3.8v.753a.287.287,0,1,0,.573,0v-.753h3.8v.753a.287.287,0,1,0,.573,0v-.753h3.8v.753a.287.287,0,1,0,.573,0v-.753H760a.479.479,0,0,1,.478.478v21Z" transform="translate(-736.91 -1137.78)" fill="#693fb7"/>
        <path id="Trazado_189970" data-name="Trazado 189970" d="M773.172,1171.207a.288.288,0,0,0-.287-.287H755.437a.288.288,0,0,0-.287.287v14.951a.288.288,0,0,0,.287.287h17.449a.288.288,0,0,0,.287-.287Zm-17.449,7.763H759.5v3.164h-3.774Zm4.348,0h3.8v3.164h-3.8Zm3.8,3.737v3.166h-3.8v-3.166Zm.573,0h3.8v3.166h-3.8Zm0-.573v-3.164h3.8v3.164Zm0-10.64h3.8v3.422h-3.8Zm0,4h3.8v2.907h-3.8Zm4.378,0H772.6v2.907h-3.774Zm0,3.481H772.6v3.164h-3.774Zm3.774-4.052h-3.774V1171.5H772.6Zm-8.725-3.422v6.9h-8.152v-6.9Zm-8.152,11.214H759.5v3.166h-3.774Zm13.1,3.166v-3.166H772.6v3.166Z" transform="translate(-752.092 -1165.364)" fill="#693fb7"/>
      </g>
    </g>
  </g>
</svg>
