<svg xmlns="http://www.w3.org/2000/svg" xmlns:xlink="http://www.w3.org/1999/xlink" width="185.357" height="180.306" viewBox="0 0 185.357 180.306">
  <defs>
    <clipPath id="clip-path">
      <rect id="Rectángulo_15686" data-name="Rectángulo 15686" width="90.153" height="180.306" fill="#cab8e9"/>
    </clipPath>
    <linearGradient id="linear-gradient" x1="0.666" y1="-0.309" x2="0.346" y2="1.251" gradientUnits="objectBoundingBox">
      <stop offset="0" stop-color="#ffc431"/>
      <stop offset="1" stop-color="#ff8300"/>
    </linearGradient>
    <linearGradient id="linear-gradient-2" x1="0.666" y1="-0.309" x2="0.346" y2="1.251" gradientUnits="objectBoundingBox">
      <stop offset="0" stop-color="#84088c"/>
      <stop offset="0.999" stop-color="#b13f8c"/>
    </linearGradient>
  </defs>
  <g id="Grupo_133383" data-name="Grupo 133383" transform="translate(-1200.024 -794.08)">
    <circle id="Elipse_5187" data-name="Elipse 5187" cx="76.709" cy="76.709" r="76.709" transform="translate(1212.787 807.705)" fill="#fef7dc"/>
    <g id="Grupo_128125" data-name="Grupo 128125" transform="translate(1200.024 794.08)">
      <g id="Grupo_86567" data-name="Grupo 86567" transform="translate(181.077 151.133)">
        <g id="Grupo_86552" data-name="Grupo 86552" transform="translate(0 0)">
          <path id="Trazado_139715" data-name="Trazado 139715" d="M528.179,464.77a.575.575,0,1,1-.575-.575.576.576,0,0,1,.575.575" transform="translate(-527.029 -460.217)" fill="#7fc733"/>
          <path id="Trazado_139716" data-name="Trazado 139716" d="M528.179,475.145a.575.575,0,1,1-.575-.575.576.576,0,0,1,.575.575" transform="translate(-527.029 -466.615)" fill="#7fc733"/>
          <path id="Trazado_139717" data-name="Trazado 139717" d="M528.179,485.52a.575.575,0,1,1-.575-.575.575.575,0,0,1,.575.575" transform="translate(-527.029 -473.011)" fill="#7fc733"/>
          <path id="Trazado_139718" data-name="Trazado 139718" d="M528.179,495.9a.575.575,0,1,1-.575-.575.576.576,0,0,1,.575.575" transform="translate(-527.029 -479.409)" fill="#7fc733"/>
          <path id="Trazado_139719" data-name="Trazado 139719" d="M528.179,506.27a.575.575,0,1,1-.575-.575.576.576,0,0,1,.575.575" transform="translate(-527.029 -485.806)" fill="#7fc733"/>
          <path id="Trazado_139720" data-name="Trazado 139720" d="M528.179,516.645a.575.575,0,1,1-.575-.575.576.576,0,0,1,.575.575" transform="translate(-527.029 -492.203)" fill="#7fc733"/>
          <path id="Trazado_139721" data-name="Trazado 139721" d="M528.179,527.02a.575.575,0,1,1-.575-.575.576.576,0,0,1,.575.575" transform="translate(-527.029 -498.6)" fill="#7fc733"/>
          <path id="Trazado_139722" data-name="Trazado 139722" d="M536.345,454.4a.575.575,0,1,1-.575-.575.575.575,0,0,1,.575.575" transform="translate(-532.064 -453.82)" fill="#7fc733"/>
          <path id="Trazado_139723" data-name="Trazado 139723" d="M536.345,464.77a.575.575,0,1,1-.575-.575.575.575,0,0,1,.575.575" transform="translate(-532.064 -460.217)" fill="#7fc733"/>
          <path id="Trazado_139724" data-name="Trazado 139724" d="M536.345,475.145a.575.575,0,1,1-.575-.575.575.575,0,0,1,.575.575" transform="translate(-532.064 -466.615)" fill="#7fc733"/>
          <path id="Trazado_139725" data-name="Trazado 139725" d="M536.345,485.52a.575.575,0,1,1-.575-.575.575.575,0,0,1,.575.575" transform="translate(-532.064 -473.011)" fill="#7fc733"/>
          <path id="Trazado_139726" data-name="Trazado 139726" d="M536.345,495.9a.575.575,0,1,1-.575-.575.575.575,0,0,1,.575.575" transform="translate(-532.064 -479.409)" fill="#7fc733"/>
          <path id="Trazado_139727" data-name="Trazado 139727" d="M536.345,506.27a.575.575,0,1,1-.575-.575.575.575,0,0,1,.575.575" transform="translate(-532.064 -485.806)" fill="#7fc733"/>
          <path id="Trazado_139728" data-name="Trazado 139728" d="M536.345,516.645a.575.575,0,1,1-.575-.575.575.575,0,0,1,.575.575" transform="translate(-532.064 -492.203)" fill="#7fc733"/>
        </g>
      </g>
      <g id="Grupo_86580" data-name="Grupo 86580" transform="translate(0)">
        <g id="Grupo_86585" data-name="Grupo 86585" transform="translate(0 0)" clip-path="url(#clip-path)">
          <g id="Grupo_86584" data-name="Grupo 86584">
            <g id="Grupo_86583" data-name="Grupo 86583" clip-path="url(#clip-path)">
              <g id="Grupo_86582" data-name="Grupo 86582" style="mix-blend-mode: multiply;isolation: isolate">
                <g id="Grupo_86581" data-name="Grupo 86581">
                  <g id="Grupo_86580-2" data-name="Grupo 86580" clip-path="url(#clip-path)">
                    <path id="Trazado_139743" data-name="Trazado 139743" d="M90.14,166.855a76.715,76.715,0,1,1,0-153.43V0a90.14,90.14,0,1,0,0,180.28Z" transform="translate(0 -0.152)" fill="#cab8e9"/>
                  </g>
                </g>
              </g>
            </g>
          </g>
        </g>
      </g>
      <path id="Trazado_187909" data-name="Trazado 187909" d="M1773.12,772.953a6.5,6.5,0,0,0-6.262-6.491v-.015a76.467,76.467,0,0,1-.482-152.932v-.009c.207,0,.412-.011.614-.031s.4-.049.591-.085h0a6.5,6.5,0,0,0,0-12.774h0a6.541,6.541,0,0,0-1.059-.109h0c-.049,0-.1-.007-.145-.007-.108,0-.213.011-.319.016a89.468,89.468,0,0,0,.368,178.93c.065,0,.127.01.192.01.035,0,.068,0,.1-.005l.138,0v-.009A6.5,6.5,0,0,0,1773.12,772.953Z" transform="translate(-1677.017 -600.092)" fill="#cab8e9"/>
      <path id="Trazado_187910" data-name="Trazado 187910" d="M2018.4,728.591a88.884,88.884,0,0,0-15.479-50.219h-.017a6.5,6.5,0,1,0-11.2,6.593l-.022.014a76.211,76.211,0,0,1-.767,88.3l.019.014a6.5,6.5,0,1,0,10.583,7.5A88.893,88.893,0,0,0,2018.4,728.591Z" transform="translate(-1838.723 -638.704)" fill="#cab8e9"/>
      <ellipse id="Elipse_5189" data-name="Elipse 5189" cx="7.329" cy="7.329" rx="7.329" ry="7.329" transform="translate(39.89 157.202) rotate(-80.839)" fill="url(#linear-gradient)"/>
      <circle id="Elipse_4758" data-name="Elipse 4758" cx="6.69" cy="6.69" r="6.69" transform="translate(167.878 65.36) rotate(-80.839)" fill="url(#linear-gradient-2)"/>
      <circle id="Elipse_5188" data-name="Elipse 5188" cx="6.69" cy="6.69" r="6.69" transform="translate(45.076 174.944) rotate(-80.839)" fill="url(#linear-gradient-2)"/>
    </g>
    <g id="_08" data-name="08" transform="translate(1218.429 810.445)">
      <g id="Grupo_133382" data-name="Grupo 133382" transform="translate(0 0)">
        <path id="Trazado_189971" data-name="Trazado 189971" d="M78.889,137.824c-.72,0-1.448-.015-2.161-.037a.536.536,0,0,1-.512-.55.527.527,0,0,1,.55-.512c1.389.052,2.8.052,4.182,0a.531.531,0,0,1,.037,1.062c-.691.022-1.389.037-2.087.037Zm6.276-.319a.531.531,0,0,1-.527-.475.543.543,0,0,1,.475-.587c1.381-.141,2.77-.334,4.137-.572a.532.532,0,1,1,.186,1.047c-1.389.245-2.808.438-4.211.587h-.052Zm-12.627,0h-.059c-1.4-.149-2.822-.342-4.211-.587a.532.532,0,1,1,.186-1.047c1.367.238,2.756.431,4.137.579a.532.532,0,0,1-.052,1.062Zm20.923-1.441a.532.532,0,0,1-.126-1.047c1.344-.334,2.7-.72,4.018-1.144a.531.531,0,1,1,.327,1.01c-1.344.438-2.718.824-4.092,1.166a.829.829,0,0,1-.126.015Zm-29.219-.015a.347.347,0,0,1-.126-.015c-1.367-.342-2.748-.735-4.085-1.174a.531.531,0,1,1,.327-1.01c1.322.431,2.666.817,4.018,1.151a.532.532,0,0,1,.386.646.523.523,0,0,1-.512.4Zm37.241-2.577a.531.531,0,0,1-.193-1.025c1.285-.52,2.57-1.092,3.818-1.7a.533.533,0,1,1,.468.958c-1.27.616-2.577,1.2-3.892,1.731a.48.48,0,0,1-.2.037Zm-45.255-.022a.637.637,0,0,1-.2-.037c-1.307-.527-2.614-1.114-3.877-1.731a.533.533,0,0,1,.468-.958c1.248.609,2.525,1.181,3.81,1.7a.533.533,0,0,1-.2,1.025Zm52.831-3.677a.527.527,0,0,1-.46-.267.534.534,0,0,1,.193-.728c1.2-.691,2.392-1.441,3.543-2.213a.529.529,0,0,1,.594.876c-1.174.787-2.384,1.552-3.61,2.258a.5.5,0,0,1-.267.074Zm-60.4-.022a.521.521,0,0,1-.267-.074c-1.218-.706-2.429-1.463-3.6-2.258a.529.529,0,0,1,.594-.876c1.151.78,2.34,1.523,3.535,2.213a.534.534,0,0,1,.193.728.527.527,0,0,1-.46.267Zm67.381-4.694a.524.524,0,0,1-.416-.2.53.53,0,0,1,.089-.743c1.092-.854,2.169-1.76,3.2-2.689a.531.531,0,0,1,.713.787c-1.047.943-2.147,1.864-3.261,2.733a.543.543,0,0,1-.327.111Zm-74.363-.022a.543.543,0,0,1-.327-.111c-1.114-.869-2.206-1.79-3.253-2.733a.531.531,0,0,1,.713-.787c1.032.928,2.109,1.835,3.2,2.689a.528.528,0,0,1-.327.943Zm80.624-5.615a.548.548,0,0,1-.371-.149.536.536,0,0,1-.015-.75c.966-1,1.909-2.043,2.8-3.1a.533.533,0,1,1,.817.683c-.906,1.077-1.864,2.139-2.845,3.157a.518.518,0,0,1-.379.163Zm-86.885-.03a.507.507,0,0,1-.379-.163c-.98-1.018-1.939-2.08-2.845-3.157a.532.532,0,0,1,.067-.75.538.538,0,0,1,.75.067c.891,1.062,1.835,2.109,2.8,3.1a.529.529,0,0,1-.015.75.548.548,0,0,1-.371.149Zm92.307-6.417a.493.493,0,0,1-.312-.1.533.533,0,0,1-.119-.743c.817-1.122,1.6-2.288,2.34-3.461a.534.534,0,0,1,.906.564c-.75,1.2-1.552,2.377-2.384,3.521a.535.535,0,0,1-.431.215ZM30,112.935a.535.535,0,0,1-.431-.215c-.832-1.144-1.634-2.332-2.384-3.528a.534.534,0,0,1,.906-.564c.735,1.174,1.523,2.34,2.34,3.461a.533.533,0,0,1-.119.743A.542.542,0,0,1,30,112.935Zm102.2-7.1a.627.627,0,0,1-.253-.059.529.529,0,0,1-.215-.72c.654-1.226,1.27-2.481,1.835-3.751a.534.534,0,0,1,.973.438c-.572,1.285-1.2,2.57-1.872,3.818a.538.538,0,0,1-.468.282ZM25.531,105.79a.529.529,0,0,1-.468-.282c-.661-1.248-1.292-2.533-1.872-3.825a.529.529,0,0,1,.966-.431c.564,1.27,1.181,2.533,1.835,3.758a.532.532,0,0,1-.223.72.506.506,0,0,1-.253.059Zm110.111-7.635a.569.569,0,0,1-.186-.03.541.541,0,0,1-.319-.683c.475-1.3.914-2.637,1.292-3.974a.534.534,0,0,1,1.025.3c-.386,1.359-.832,2.718-1.315,4.04A.534.534,0,0,1,135.642,98.154ZM22.1,98.087a.527.527,0,0,1-.5-.349c-.483-1.329-.921-2.689-1.315-4.048A.529.529,0,0,1,21.3,93.4c.379,1.337.817,2.674,1.292,3.974a.534.534,0,0,1-.319.683.5.5,0,0,1-.178.03Zm115.867-8.029a.4.4,0,0,1-.111-.015.529.529,0,0,1-.409-.631c.29-1.352.535-2.741.728-4.115a.533.533,0,1,1,1.055.149c-.193,1.4-.446,2.808-.735,4.189a.531.531,0,0,1-.52.423ZM19.782,89.992a.531.531,0,0,1-.52-.423c-.29-1.381-.535-2.785-.735-4.189a.533.533,0,1,1,1.055-.149c.193,1.374.431,2.763.72,4.115a.535.535,0,0,1-.409.631A.573.573,0,0,1,19.782,89.992ZM139.14,81.717H139.1a.53.53,0,0,1-.49-.564c.1-1.381.149-2.785.149-4.174a.531.531,0,0,1,.535-.527h0a.522.522,0,0,1,.527.535c0,1.419-.052,2.845-.149,4.248a.534.534,0,0,1-.527.5ZM18.616,81.643a.529.529,0,0,1-.527-.5c-.1-1.4-.149-2.837-.149-4.248v-.141A.531.531,0,1,1,19,76.763V76.9c0,1.389.045,2.793.141,4.174a.526.526,0,0,1-.49.564h-.037Zm120.532-8.356a.529.529,0,0,1-.527-.5c-.1-1.389-.238-2.785-.423-4.159a.539.539,0,0,1,.453-.6.534.534,0,0,1,.6.453c.193,1.4.342,2.822.431,4.226a.527.527,0,0,1-.5.564h-.037ZM18.631,73.079h-.037a.531.531,0,0,1-.49-.564c.1-1.411.253-2.83.446-4.226a.533.533,0,0,1,1.055.149c-.193,1.374-.342,2.77-.438,4.152a.527.527,0,0,1-.527.49ZM138,64.946a.531.531,0,0,1-.52-.423c-.282-1.359-.624-2.718-1-4.055a.529.529,0,0,1,1.018-.29c.386,1.359.728,2.748,1.018,4.13a.535.535,0,0,1-.409.631.572.572,0,0,1-.111.015ZM19.812,64.738a.4.4,0,0,1-.111-.015.529.529,0,0,1-.409-.631c.3-1.382.646-2.77,1.032-4.122a.534.534,0,0,1,1.025.3c-.386,1.33-.728,2.7-1.018,4.055a.531.531,0,0,1-.52.423Zm115.875-7.9a.527.527,0,0,1-.5-.349c-.475-1.307-1-2.607-1.56-3.877a.529.529,0,0,1,.966-.431c.572,1.292,1.107,2.622,1.589,3.951a.541.541,0,0,1-.319.683.5.5,0,0,1-.178.03Zm-113.542-.2a.569.569,0,0,1-.186-.03.541.541,0,0,1-.319-.683c.483-1.322,1.025-2.644,1.6-3.937a.534.534,0,1,1,.973.438c-.564,1.263-1.1,2.562-1.575,3.862a.534.534,0,0,1-.5.349Zm110.118-7.509a.529.529,0,0,1-.468-.282c-.654-1.226-1.352-2.444-2.087-3.625a.534.534,0,1,1,.906-.564c.75,1.2,1.463,2.436,2.124,3.684a.532.532,0,0,1-.223.72.506.506,0,0,1-.253.059ZM25.59,48.963a.627.627,0,0,1-.253-.059.529.529,0,0,1-.215-.72c.668-1.24,1.381-2.481,2.132-3.677a.533.533,0,1,1,.9.572c-.735,1.174-1.441,2.392-2.095,3.61a.538.538,0,0,1-.468.282ZM127.8,41.981a.522.522,0,0,1-.431-.223c-.817-1.122-1.679-2.236-2.57-3.3a.533.533,0,1,1,.817-.683c.906,1.084,1.79,2.213,2.614,3.357a.533.533,0,0,1-.119.743.542.542,0,0,1-.312.1Zm-97.729-.149a.493.493,0,0,1-.312-.1.533.533,0,0,1-.119-.743c.832-1.136,1.716-2.265,2.622-3.342a.533.533,0,1,1,.817.683c-.891,1.062-1.76,2.169-2.577,3.283a.535.535,0,0,1-.431.215Zm92.315-6.313a.534.534,0,0,1-.386-.163c-.966-1-1.976-1.976-3-2.9a.531.531,0,1,1,.713-.787c1.047.943,2.072,1.939,3.053,2.956a.529.529,0,0,1-.015.75.548.548,0,0,1-.371.149ZM35.5,35.393a.548.548,0,0,1-.371-.149.536.536,0,0,1-.015-.75c.98-1.01,2.013-2.005,3.068-2.949a.531.531,0,0,1,.713.787c-1.032.928-2.043,1.9-3.008,2.9a.549.549,0,0,1-.379.163Zm80.632-5.519a.543.543,0,0,1-.327-.111c-1.092-.854-2.228-1.686-3.372-2.466a.529.529,0,1,1,.594-.876c1.166.795,2.325,1.634,3.431,2.5a.528.528,0,0,1-.327.943Zm-74.363-.111a.51.51,0,0,1-.416-.208.53.53,0,0,1,.089-.743c1.114-.869,2.273-1.708,3.446-2.5a.529.529,0,0,1,.594.876c-1.151.772-2.288,1.6-3.387,2.451a.543.543,0,0,1-.327.111Zm67.389-4.612a.5.5,0,0,1-.267-.074c-1.2-.7-2.436-1.359-3.684-1.968a.533.533,0,1,1,.468-.958c1.263.624,2.525,1.292,3.743,2.005a.534.534,0,0,1,.193.728.527.527,0,0,1-.46.267Zm-60.392-.1a.527.527,0,0,1-.461-.267.534.534,0,0,1,.193-.728c1.226-.706,2.488-1.374,3.758-2a.533.533,0,1,1,.468.958c-1.248.609-2.488,1.263-3.691,1.961a.58.58,0,0,1-.267.074Zm52.838-3.61a.637.637,0,0,1-.2-.037c-1.285-.52-2.607-1-3.922-1.433a.531.531,0,0,1,.327-1.01c1.344.438,2.689.928,4,1.463a.533.533,0,0,1-.2,1.025ZM56.347,21.37a.531.531,0,0,1-.193-1.025c1.315-.527,2.659-1.018,4-1.448a.531.531,0,0,1,.327,1.01c-1.322.423-2.644.906-3.937,1.426a.48.48,0,0,1-.2.037ZM93.6,18.83a.347.347,0,0,1-.126-.015c-1.344-.334-2.718-.631-4.085-.869A.532.532,0,1,1,89.57,16.9c1.389.245,2.793.542,4.159.884a.532.532,0,0,1,.386.646.523.523,0,0,1-.512.4Zm-29.219-.052a.531.531,0,0,1-.512-.4.541.541,0,0,1,.386-.646c1.367-.334,2.77-.631,4.159-.869a.532.532,0,1,1,.186,1.047c-1.367.238-2.741.527-4.092.854a.827.827,0,0,1-.126.015ZM85.3,17.359h-.059c-1.374-.149-2.778-.245-4.167-.3A.531.531,0,1,1,81.11,16c1.411.052,2.837.149,4.241.3a.532.532,0,0,1-.052,1.062Zm-12.627-.022a.529.529,0,0,1-.052-1.055c1.4-.141,2.83-.238,4.241-.282a.531.531,0,0,1,.037,1.062c-1.389.045-2.793.141-4.167.282H72.68Z" transform="translate(-4.615 -4.116)" fill="#693fb7"/>
        <circle id="Elipse_5183" data-name="Elipse 5183" cx="12.946" cy="12.946" r="12.946" transform="translate(61.328)" fill="#693fb7"/>
        <circle id="Elipse_5184" data-name="Elipse 5184" cx="12.946" cy="12.946" r="12.946" transform="translate(122.656 60.845)" fill="#693fb7"/>
        <circle id="Elipse_5185" data-name="Elipse 5185" cx="12.946" cy="12.946" r="12.946" transform="translate(0 60.102)" fill="#693fb7"/>
        <g id="Grupo_133380" data-name="Grupo 133380" transform="translate(32.537 31.425)">
          <path id="Trazado_189972" data-name="Trazado 189972" d="M43.809,90.655a12.647,12.647,0,0,0,5.3,10.7,11.636,11.636,0,0,0,6.113,2.184,6.769,6.769,0,0,0,1.151-.1,11.045,11.045,0,0,0,1.708,7.182c2.362,3.855,5.608,6.581,8.913,7.479a17.758,17.758,0,0,0,4.612.631,12.2,12.2,0,0,0,7.034-1.991,8.2,8.2,0,0,0,2.993-6.031h0v-6.172a.771.771,0,0,0,0-.319V75.065h0V49.529A7.064,7.064,0,0,0,77.96,43.58a11.135,11.135,0,0,0-7.078-1.129,12.335,12.335,0,0,0-7.591,3.788,8.792,8.792,0,0,0-2.161,7.442A12.808,12.808,0,0,0,50.486,57,11.621,11.621,0,0,0,46.81,68.083a7.984,7.984,0,0,0,3.58,5.207,8,8,0,0,0-1.248,3.253A8.378,8.378,0,0,0,49.38,80.3a12.627,12.627,0,0,0-5.556,10.361Z" transform="translate(-43.807 -42.31)" fill="#e6ebef"/>
          <path id="Trazado_189973" data-name="Trazado 189973" d="M137.541,88.793a8.486,8.486,0,0,0,.238-3.758,8,8,0,0,0-1.248-3.253,7.966,7.966,0,0,0,3.58-5.207,11.661,11.661,0,0,0-3.677-11.082,12.808,12.808,0,0,0-10.643-3.32,8.792,8.792,0,0,0-2.161-7.442,12.375,12.375,0,0,0-7.591-3.788,11.235,11.235,0,0,0-7.078,1.129,7.074,7.074,0,0,0-3.677,5.949V83.549h0v29.145a.772.772,0,0,0,0,.319v6.172h0a8.2,8.2,0,0,0,2.993,6.031,12.2,12.2,0,0,0,7.034,1.991,17.674,17.674,0,0,0,4.612-.631c3.305-.891,6.558-3.617,8.913-7.479a11.1,11.1,0,0,0,1.708-7.182,6.771,6.771,0,0,0,1.151.1,11.689,11.689,0,0,0,6.113-2.184,12.921,12.921,0,0,0-.253-21.057Z" transform="translate(-59.618 -44.496)" fill="#fee954"/>
          <g id="Grupo_133379" data-name="Grupo 133379" transform="translate(2.919 3.31)">
            <path id="Trazado_189974" data-name="Trazado 189974" d="M85.693,109.07a.882.882,0,0,0,0-.342V79.591h0V54.063a7.161,7.161,0,0,0-3.714-6.016A11.282,11.282,0,0,0,74.857,46.9a12.438,12.438,0,0,0-7.635,3.81,8.871,8.871,0,0,0-2.2,7.405,12.891,12.891,0,0,0-10.6,3.35,11.713,11.713,0,0,0-3.7,11.148,8.069,8.069,0,0,0,3.55,5.214,8.038,8.038,0,0,0-1.218,3.216,8.537,8.537,0,0,0,.223,3.743,13,13,0,0,0-.208,21.146,11.751,11.751,0,0,0,6.15,2.2,6.653,6.653,0,0,0,1.077-.089,11.209,11.209,0,0,0,1.723,7.138c2.369,3.877,5.63,6.61,8.957,7.509a17.837,17.837,0,0,0,4.635.631,12.271,12.271,0,0,0,7.071-2.005,8.281,8.281,0,0,0,3.023-6.09h0v-6.165Zm-3.922,10.978c-2.54,1.79-6.425,2.213-10.4,1.144-2.941-.795-5.868-3.275-8.029-6.818a9.567,9.567,0,0,1-1.5-6.209A6.2,6.2,0,0,1,65.3,103.3a.075.075,0,0,1,.022-.007,6.8,6.8,0,0,0,4.234,1.419A7.251,7.251,0,0,0,73.6,103.5a.781.781,0,0,0-.876-1.292,5.563,5.563,0,0,1-6.885-8.7.783.783,0,0,0-1.055-1.159,7.279,7.279,0,0,0-2.213,6.462,7.166,7.166,0,0,0,1.567,3.342,7.729,7.729,0,0,0-3.446,4.2c-2.161.706-4.88-.386-6.737-1.679a11.454,11.454,0,0,1-.059-18.4,6.355,6.355,0,0,0,3.535,2.971,5.47,5.47,0,0,0,1.686.26,5.181,5.181,0,0,0,3.3-1.151.781.781,0,1,0-1-1.2,3.814,3.814,0,0,1-3.513.609,4.885,4.885,0,0,1-2.8-2.518,6.665,6.665,0,0,1-.512-3.922,6.033,6.033,0,0,1,2.057-3.788,3.829,3.829,0,0,1,3.885-.579.781.781,0,1,0,.668-1.411,5.43,5.43,0,0,0-5.511.765c-.134.1-.26.215-.386.334a6.388,6.388,0,0,1-3.06-4.323,10.024,10.024,0,0,1,3.231-9.663,11.26,11.26,0,0,1,9.73-2.874,4.972,4.972,0,0,0-.015,4.932.794.794,0,0,0,.676.386.753.753,0,0,0,.394-.111.777.777,0,0,0,.275-1.07,3.3,3.3,0,0,1,4.635-4.449.784.784,0,0,0,.854-1.315,4.993,4.993,0,0,0-5.385.082,7.213,7.213,0,0,1,1.745-6.447,10.927,10.927,0,0,1,6.685-3.305,9.731,9.731,0,0,1,6.128.943,5.6,5.6,0,0,1,2.934,4.865V65a8.145,8.145,0,0,1-4.858-.386A5.9,5.9,0,0,1,75.9,60.918a4.478,4.478,0,0,1,1.315-4.531.781.781,0,0,0-1-1.2A6,6,0,0,0,74.4,61.327a7.362,7.362,0,0,0,4.263,4.716,9.228,9.228,0,0,0,3.61.706,10.614,10.614,0,0,0,1.864-.171V79.442a5.461,5.461,0,0,1-5.051,3.045,4.994,4.994,0,0,1-4.248-3.573,7.254,7.254,0,0,0,1.76-2.83,7.369,7.369,0,0,0-1.909-7.509.783.783,0,1,0-1.077,1.136,5.672,5.672,0,1,1-8.675,7.175.78.78,0,0,0-1.315.839,7.373,7.373,0,0,0,6.15,3.342,6.624,6.624,0,0,0,.862-.052,7.141,7.141,0,0,0,2.912-1.062,6.54,6.54,0,0,0,5.422,4.085q.223.022.446.022a7.114,7.114,0,0,0,4.739-2.005v24.926A6.878,6.878,0,0,0,73.1,113.475a.782.782,0,0,0,.772.661.64.64,0,0,0,.119-.007.785.785,0,0,0,.654-.891,5.338,5.338,0,0,1,9.507-4.085v6.15a6.756,6.756,0,0,1-2.362,4.761Z" transform="translate(-47.737 -46.767)" fill="#693fb7"/>
            <path id="Trazado_189975" data-name="Trazado 189975" d="M84.127,111.073a5.944,5.944,0,0,0,4.761-9.559.784.784,0,1,0-1.24.958,4.38,4.38,0,1,1-7.635,4.04.782.782,0,0,0-1.485.49,6.1,6.1,0,0,0,5.088,4.055c.171.015.342.022.505.022Z" transform="translate(-55.648 -60.773)" fill="#693fb7"/>
            <path id="Trazado_189976" data-name="Trazado 189976" d="M133.717,84.81a8.649,8.649,0,0,0,.223-3.743,8.219,8.219,0,0,0-1.218-3.216,8.025,8.025,0,0,0,3.55-5.214,11.713,11.713,0,0,0-3.7-11.148,12.866,12.866,0,0,0-10.6-3.35,8.9,8.9,0,0,0-2.2-7.405,12.4,12.4,0,0,0-7.635-3.81,11.282,11.282,0,0,0-7.123,1.144,7.151,7.151,0,0,0-3.714,6.016V79.6h0v29.138a.882.882,0,0,0,0,.342v6.165h0a8.333,8.333,0,0,0,3.023,6.09,12.271,12.271,0,0,0,7.071,2.005,17.923,17.923,0,0,0,4.635-.631c3.327-.9,6.588-3.632,8.957-7.509a11.2,11.2,0,0,0,1.723-7.138,6.583,6.583,0,0,0,1.077.089,11.687,11.687,0,0,0,6.15-2.2,13,13,0,0,0-.208-21.146Zm-.683,19.861c-1.857,1.292-4.575,2.392-6.737,1.679a7.7,7.7,0,0,0-3.446-4.2,7.2,7.2,0,0,0,1.567-3.342,7.279,7.279,0,0,0-2.213-6.462A.783.783,0,0,0,121.15,93.5a5.564,5.564,0,0,1-6.885,8.7.781.781,0,0,0-.876,1.292,7.21,7.21,0,0,0,4.04,1.211,6.994,6.994,0,0,0,2.756-.55,6.892,6.892,0,0,0,1.478-.869.075.075,0,0,0,.022.007,6.184,6.184,0,0,1,3.461,4.865,9.567,9.567,0,0,1-1.5,6.209c-2.161,3.535-5.088,6.016-8.029,6.818-3.974,1.07-7.858.646-10.4-1.144a6.755,6.755,0,0,1-2.362-4.761v-6.15a5.338,5.338,0,0,1,9.507,4.085.78.78,0,0,0,.654.891c.045,0,.082.007.119.007a.782.782,0,0,0,.772-.661,6.878,6.878,0,0,0-11.052-6.492V82.04a7.114,7.114,0,0,0,4.739,2.005,2.985,2.985,0,0,0,.446-.022,6.547,6.547,0,0,0,5.422-4.085A7.141,7.141,0,0,0,116.374,81a6.7,6.7,0,0,0,.862.052,7.4,7.4,0,0,0,6.15-3.342.78.78,0,1,0-1.315-.839A5.672,5.672,0,1,1,113.4,69.7a.783.783,0,0,0-1.077-1.136,7.369,7.369,0,0,0-1.909,7.509,7.066,7.066,0,0,0,1.76,2.83,5,5,0,0,1-4.248,3.573,5.466,5.466,0,0,1-5.051-3.045V66.561a10.615,10.615,0,0,0,1.864.171,9.229,9.229,0,0,0,3.61-.706,7.379,7.379,0,0,0,4.263-4.716,5.986,5.986,0,0,0-1.827-6.142.781.781,0,0,0-1,1.2A4.488,4.488,0,0,1,111.1,60.9a5.9,5.9,0,0,1-3.372,3.691,8.262,8.262,0,0,1-4.858.386v-10.7a5.6,5.6,0,0,1,2.934-4.865,9.724,9.724,0,0,1,6.128-.943,10.85,10.85,0,0,1,6.685,3.305,7.213,7.213,0,0,1,1.745,6.447,4.993,4.993,0,0,0-5.385-.082.784.784,0,1,0,.854,1.315,3.3,3.3,0,0,1,4.635,4.449.783.783,0,0,0,.275,1.07.773.773,0,0,0,.394.111.794.794,0,0,0,.676-.386,4.991,4.991,0,0,0-.015-4.932,11.26,11.26,0,0,1,9.73,2.874,10.024,10.024,0,0,1,3.231,9.663,6.388,6.388,0,0,1-3.06,4.323c-.126-.111-.253-.23-.386-.334a5.415,5.415,0,0,0-5.511-.765.781.781,0,0,0,.668,1.411,3.846,3.846,0,0,1,3.885.579A6.014,6.014,0,0,1,132.41,81.3a6.657,6.657,0,0,1-.513,3.922,4.885,4.885,0,0,1-2.8,2.518,3.818,3.818,0,0,1-3.513-.609.781.781,0,1,0-1,1.2,5.168,5.168,0,0,0,3.3,1.151,5.739,5.739,0,0,0,1.686-.26,6.35,6.35,0,0,0,3.535-2.971,11.454,11.454,0,0,1-.059,18.4Z" transform="translate(-61.513 -46.772)" fill="#693fb7"/>
            <path id="Trazado_189977" data-name="Trazado 189977" d="M117.079,106a.785.785,0,0,0-.988.5,4.38,4.38,0,1,1-7.635-4.04.784.784,0,0,0-1.24-.958,5.944,5.944,0,0,0,4.761,9.559c.171,0,.342-.007.505-.022a6.092,6.092,0,0,0,5.088-4.055.785.785,0,0,0-.5-.988Z" transform="translate(-62.73 -60.769)" fill="#693fb7"/>
          </g>
        </g>
        <circle id="Elipse_5186" data-name="Elipse 5186" cx="12.946" cy="12.946" r="12.946" transform="translate(59.429 123.407) rotate(-9.22)" fill="#693fb7"/>
        <g id="Grupo_133381" data-name="Grupo 133381" transform="translate(126.369 64.574)">
          <path id="Trazado_189978" data-name="Trazado 189978" d="M181.363,101.637a3.483,3.483,0,1,1,3.483-3.483A3.488,3.488,0,0,1,181.363,101.637Zm0-5.422a1.939,1.939,0,1,0,1.939,1.939A1.94,1.94,0,0,0,181.363,96.215Z" transform="translate(-172.131 -88.929)" fill="#fff"/>
          <path id="Trazado_189979" data-name="Trazado 189979" d="M180.219,105.4h-1.7a.778.778,0,0,1-.728-.512l-.72-2.013a7.726,7.726,0,0,1-.81-.334l-1.939.914a.759.759,0,0,1-.876-.156l-1.2-1.2a.786.786,0,0,1-.156-.876L173,99.277a6.4,6.4,0,0,1-.334-.81l-2.013-.72a.768.768,0,0,1-.512-.728v-1.7a.778.778,0,0,1,.512-.728l2.013-.72a7.723,7.723,0,0,1,.334-.81l-.914-1.939a.759.759,0,0,1,.156-.876l1.2-1.2a.786.786,0,0,1,.876-.156l1.939.914a6.4,6.4,0,0,1,.81-.334l.72-2.013a.768.768,0,0,1,.728-.512h1.7a.778.778,0,0,1,.728.512l.72,2.013a7.721,7.721,0,0,1,.81.334l1.939-.914a.759.759,0,0,1,.876.156l1.2,1.2a.786.786,0,0,1,.156.876l-.914,1.939a6.4,6.4,0,0,1,.334.81l2.013.72a.768.768,0,0,1,.512.728v1.7a.778.778,0,0,1-.512.728l-2.013.72a7.728,7.728,0,0,1-.334.81l.914,1.939a.759.759,0,0,1-.156.876l-1.2,1.2a.785.785,0,0,1-.876.156l-1.939-.914a6.4,6.4,0,0,1-.81.334l-.72,2.013A.778.778,0,0,1,180.219,105.4Zm-1.151-1.552h.609l.668-1.864a.769.769,0,0,1,.52-.483,5.682,5.682,0,0,0,1.226-.505.758.758,0,0,1,.713-.022l1.79.847.431-.431-.847-1.79a.8.8,0,0,1,.022-.713,5.532,5.532,0,0,0,.505-1.226.754.754,0,0,1,.483-.52l1.864-.668V95.86l-1.864-.668a.769.769,0,0,1-.483-.52,5.683,5.683,0,0,0-.505-1.226.757.757,0,0,1-.022-.713l.847-1.79-.431-.431-1.79.847a.8.8,0,0,1-.713-.022,5.533,5.533,0,0,0-1.226-.505.754.754,0,0,1-.52-.483l-.668-1.864h-.609l-.668,1.864a.769.769,0,0,1-.52.483,5.682,5.682,0,0,0-1.225.505.757.757,0,0,1-.713.022l-1.79-.847-.431.431.847,1.79a.8.8,0,0,1-.022.713,5.533,5.533,0,0,0-.505,1.226.754.754,0,0,1-.483.52l-1.864.668v.609l1.864.668a.769.769,0,0,1,.483.52,5.684,5.684,0,0,0,.505,1.226.758.758,0,0,1,.022.713l-.847,1.79.431.431,1.79-.847a.78.78,0,0,1,.713.022,5.532,5.532,0,0,0,1.225.505.754.754,0,0,1,.52.483Zm8.764-6.833Z" transform="translate(-170.14 -86.94)" fill="#fff"/>
        </g>
        <path id="Trazado_189980" data-name="Trazado 189980" d="M19.192,86.63H9.2A4.351,4.351,0,0,0,4.85,90.975v3.55A4.351,4.351,0,0,0,9.2,98.87h7.19c.535.193,2.555,1.144,1.931,4.2a.812.812,0,0,0,.334.832.8.8,0,0,0,.453.141.822.822,0,0,0,.446-.134c2.629-1.716,3.5-3.758,2.637-6.239a4.349,4.349,0,0,0,1.352-3.142v-3.55A4.351,4.351,0,0,0,19.192,86.63Zm2.726,7.9a2.733,2.733,0,0,1-1.166,2.228.8.8,0,0,0-.282.973.149.149,0,0,0,.03.059,3.048,3.048,0,0,1-.468,3.647,4.735,4.735,0,0,0-3.29-4.159.767.767,0,0,0-.223-.03H9.2a2.728,2.728,0,0,1-2.726-2.726v-3.55A2.728,2.728,0,0,1,9.2,88.242h10a2.728,2.728,0,0,1,2.726,2.726v3.55Z" transform="translate(-1.248 -22.287)" fill="#fff"/>
        <path id="Trazado_189981" data-name="Trazado 189981" d="M97.106,22.091a.333.333,0,0,1-.141-.037c-.3-.163-7.257-4.078-8.126-8.712a4.967,4.967,0,0,1,1.2-4.234s.015-.015.015-.022A4.263,4.263,0,0,1,93.088,7.83h0A5.25,5.25,0,0,1,97.1,9.977,5.25,5.25,0,0,1,101.11,7.83h0a4.276,4.276,0,0,1,3.038,1.255s.015.015.015.022a4.967,4.967,0,0,1,1.2,4.234c-.869,4.642-7.828,8.549-8.126,8.712a.307.307,0,0,1-.141.037ZM90.466,9.479A4.414,4.414,0,0,0,89.4,13.237c.758,4.033,6.714,7.665,7.7,8.244.988-.579,6.945-4.211,7.7-8.244a4.437,4.437,0,0,0-1.062-3.758,3.709,3.709,0,0,0-2.629-1.084h0a4.975,4.975,0,0,0-3.773,2.213.284.284,0,0,1-.238.134h0a.284.284,0,0,1-.238-.134A4.957,4.957,0,0,0,93.1,8.394h0a3.722,3.722,0,0,0-2.629,1.084Z" transform="translate(-22.833 -2.014)" fill="#fff" stroke="#fff" stroke-miterlimit="10" stroke-width="1"/>
        <path id="Trazado_189982" data-name="Trazado 189982" d="M97.618,168.52A6.886,6.886,0,0,0,90.74,175.4c0,5.86,6.336,10.733,6.61,10.933a.446.446,0,0,0,.535,0c.267-.208,6.61-5.073,6.61-10.933A6.886,6.886,0,0,0,97.618,168.52Zm0,16.89c-1.2-.988-5.986-5.244-5.986-10.012a5.986,5.986,0,1,1,11.973,0C103.6,180.159,98.814,184.422,97.618,185.41Z" transform="translate(-23.344 -43.354)" fill="#fff" stroke="#fff" stroke-miterlimit="10" stroke-width="0.5"/>
        <path id="Trazado_189983" data-name="Trazado 189983" d="M99.148,173.92a2.458,2.458,0,1,0,2.458,2.458A2.461,2.461,0,0,0,99.148,173.92Zm0,4.256a1.8,1.8,0,1,1,1.8-1.8A1.807,1.807,0,0,1,99.148,178.176Z" transform="translate(-24.875 -44.743)" fill="#fff"/>
      </g>
    </g>
  </g>
</svg>
