<svg xmlns="http://www.w3.org/2000/svg" xmlns:xlink="http://www.w3.org/1999/xlink" width="190" height="110.333" viewBox="0 0 190 110.333">
  <defs>
    <linearGradient id="linear-gradient" x1="0.5" x2="0.5" y2="1" gradientUnits="objectBoundingBox">
      <stop offset="0" stop-color="#f7ca2e" stop-opacity="0"/>
      <stop offset="0.091" stop-color="#f7ca2e" stop-opacity="0.129"/>
      <stop offset="0.283" stop-color="#f7ca2e" stop-opacity="0.388"/>
      <stop offset="0.465" stop-color="#f7ca2e" stop-opacity="0.612"/>
      <stop offset="0.633" stop-color="#f7ca2e" stop-opacity="0.78"/>
      <stop offset="0.784" stop-color="#f7ca2e" stop-opacity="0.902"/>
      <stop offset="0.911" stop-color="#f7ca2e" stop-opacity="0.969"/>
      <stop offset="1" stop-color="#f7ca2e"/>
    </linearGradient>
    <linearGradient id="linear-gradient-2" x1="0.5" x2="0.5" y2="1" gradientUnits="objectBoundingBox">
      <stop offset="0" stop-color="#b13e8d" stop-opacity="0"/>
      <stop offset="0.091" stop-color="#b13e8d" stop-opacity="0.129"/>
      <stop offset="0.283" stop-color="#b13e8d" stop-opacity="0.388"/>
      <stop offset="0.465" stop-color="#b13e8d" stop-opacity="0.612"/>
      <stop offset="0.633" stop-color="#b13e8d" stop-opacity="0.78"/>
      <stop offset="0.784" stop-color="#b13e8d"/>
      <stop offset="0.911" stop-color="#b13e8d" stop-opacity="0.969"/>
      <stop offset="1" stop-color="#b13e8d"/>
    </linearGradient>
    <filter id="Rectángulo_40717" x="41" y="1" width="108" height="108" filterUnits="userSpaceOnUse">
      <feOffset dy="3" input="SourceAlpha"/>
      <feGaussianBlur stdDeviation="3" result="blur"/>
      <feFlood flood-opacity="0.161"/>
      <feComposite operator="in" in2="blur"/>
      <feComposite in="SourceGraphic"/>
    </filter>
    <clipPath id="clip-path">
      <rect id="Rectángulo_41288" data-name="Rectángulo 41288" width="76.667" height="76.667" fill="none"/>
    </clipPath>
  </defs>
  <g id="Grupo_136148" data-name="Grupo 136148" transform="translate(-180 -2555)">
    <g id="Grupo_133394" data-name="Grupo 133394" transform="translate(0 2155)">
      <rect id="Rectángulo_40586" data-name="Rectángulo 40586" width="190" height="20" transform="translate(180 442)" fill="none"/>
      <g id="Grupo_108405" data-name="Grupo 108405" transform="translate(209.5 464)">
        <path id="Rectángulo_5242" data-name="Rectángulo 5242" d="M0,0H12a0,0,0,0,1,0,0V43.333a3,3,0,0,1-3,3H3a3,3,0,0,1-3-3V0A0,0,0,0,1,0,0Z" transform="translate(0 0)" fill="url(#linear-gradient)"/>
      </g>
      <g id="Grupo_108406" data-name="Grupo 108406" transform="translate(340 452) rotate(180)">
        <path id="Rectángulo_5242-2" data-name="Rectángulo 5242" d="M0,0H12a0,0,0,0,1,0,0V49a3,3,0,0,1-3,3H3a3,3,0,0,1-3-3V0A0,0,0,0,1,0,0Z" transform="translate(0 0)" fill="url(#linear-gradient-2)"/>
      </g>
      <g transform="matrix(1, 0, 0, 1, 180, 400)" filter="url(#Rectángulo_40717)">
        <path id="Rectángulo_40717-2" data-name="Rectángulo 40717" d="M10,0H80A10,10,0,0,1,90,10V90a0,0,0,0,1,0,0H10A10,10,0,0,1,0,80V10A10,10,0,0,1,10,0Z" transform="translate(50 7)" fill="#f6f6f6"/>
      </g>
    </g>
    <g id="Grupo_133398" data-name="Grupo 133398" transform="translate(237.667 2568.522)">
      <g id="Grupo_133397" data-name="Grupo 133397" clip-path="url(#clip-path)">
        <path id="Trazado_189995" data-name="Trazado 189995" d="M67.135,23.339a5.306,5.306,0,0,0,1.759-.3l.658-.231a28.564,28.564,0,0,1,3.888-1.144,16.839,16.839,0,0,1,3.431-.355,17.571,17.571,0,0,1,3.459.365,30.032,30.032,0,0,1,3.888,1.137l.686.237a5.325,5.325,0,0,0,6.377-7.623,14.85,14.85,0,0,0-6.12-5.8c-.273-.144-.551-.278-.832-.406a7.62,7.62,0,1,0-14.9.015c-.28.128-.56.257-.832.4a14.937,14.937,0,0,0-6.117,5.786l0,.005a5.322,5.322,0,0,0,4.653,7.914M76.881,2.813A4.806,4.806,0,1,1,72.075,7.62a4.812,4.812,0,0,1,4.806-4.806M64.943,16.789a12.307,12.307,0,0,1,4.978-4.67c.2-.106.406-.2.611-.293a7.612,7.612,0,0,0,12.7-.009c.2.1.41.187.61.292a12.217,12.217,0,0,1,4.977,4.68,2.512,2.512,0,0,1-3,3.6l-.68-.236a32.34,32.34,0,0,0-4.249-1.235,20.34,20.34,0,0,0-4.008-.422,19.618,19.618,0,0,0-4,.411,30.992,30.992,0,0,0-4.264,1.248l-.659.231a2.508,2.508,0,0,1-3.019-3.594" transform="translate(-38.548)" fill="#693fb7"/>
        <path id="Trazado_189996" data-name="Trazado 189996" d="M88.938,142.217a5.288,5.288,0,0,0-4.067-.224l-.659.231a28.551,28.551,0,0,1-3.888,1.145,16.846,16.846,0,0,1-3.431.355,17.575,17.575,0,0,1-3.459-.365,30,30,0,0,1-3.888-1.137l-.686-.238a5.325,5.325,0,0,0-6.377,7.623,14.853,14.853,0,0,0,6.12,5.8c.273.144.551.278.832.406a7.62,7.62,0,1,0,14.9-.015c.28-.128.56-.257.832-.4a14.941,14.941,0,0,0,6.117-5.786l0-.006a5.345,5.345,0,0,0,.373-4.356,5.288,5.288,0,0,0-2.718-3.034m-12.054,20a4.806,4.806,0,1,1,4.806-4.806,4.812,4.812,0,0,1-4.806,4.806m11.938-13.976a12.307,12.307,0,0,1-4.978,4.67c-.2.105-.406.2-.612.292a7.612,7.612,0,0,0-12.7.009c-.2-.095-.411-.186-.61-.292a12.215,12.215,0,0,1-4.976-4.679,2.512,2.512,0,0,1,.977-3.415,2.515,2.515,0,0,1,2.026-.183l.68.236a32.307,32.307,0,0,0,4.249,1.235,20.374,20.374,0,0,0,4.007.422,19.625,19.625,0,0,0,4-.411,30.975,30.975,0,0,0,4.263-1.248l.659-.231a2.508,2.508,0,0,1,3.2,1.536,2.53,2.53,0,0,1-.179,2.059" transform="translate(-38.55 -88.365)" fill="#693fb7"/>
        <path id="Trazado_189997" data-name="Trazado 189997" d="M157.412,69.261a7.618,7.618,0,0,0-1.613.173c-.128-.28-.257-.56-.4-.832a14.937,14.937,0,0,0-5.786-6.117l-.006,0a5.342,5.342,0,0,0-4.355-.373,5.322,5.322,0,0,0-3.257,6.784l.231.659a28.56,28.56,0,0,1,1.144,3.888,16.838,16.838,0,0,1,.355,3.431,17.572,17.572,0,0,1-.365,3.459,29.953,29.953,0,0,1-1.137,3.888l-.237.686a5.323,5.323,0,0,0,7.623,6.377,14.846,14.846,0,0,0,5.8-6.12c.144-.273.278-.551.406-.832a7.619,7.619,0,1,0,1.6-15.069m-4.49,14.584a12.213,12.213,0,0,1-4.68,4.977,2.511,2.511,0,0,1-3.6-3l.236-.681a32.291,32.291,0,0,0,1.235-4.249,20.346,20.346,0,0,0,.422-4.008,19.613,19.613,0,0,0-.411-4,30.921,30.921,0,0,0-1.248-4.263l-.231-.659a2.5,2.5,0,0,1,2.36-3.338,2.553,2.553,0,0,1,1.233.319,12.3,12.3,0,0,1,4.671,4.978c.106.2.2.406.293.611a7.612,7.612,0,0,0,.009,12.7c-.095.2-.186.411-.292.61m4.49-2.158a4.806,4.806,0,1,1,4.806-4.806,4.812,4.812,0,0,1-4.806,4.806" transform="translate(-88.365 -38.547)" fill="#693fb7"/>
        <path id="Trazado_189998" data-name="Trazado 189998" d="M23.038,84.864l-.231-.659a28.615,28.615,0,0,1-1.145-3.887,16.878,16.878,0,0,1-.355-3.432,17.6,17.6,0,0,1,.365-3.459,29.971,29.971,0,0,1,1.137-3.888l.237-.686a5.325,5.325,0,0,0-7.623-6.377,14.851,14.851,0,0,0-5.8,6.12c-.144.273-.278.551-.406.831a7.62,7.62,0,1,0,.015,14.9c.128.28.258.56.4.832a14.942,14.942,0,0,0,5.786,6.117l.005,0a5.367,5.367,0,0,0,2.6.672,5.317,5.317,0,0,0,5.015-7.084M2.814,76.877A4.806,4.806,0,1,1,7.62,81.684a4.812,4.812,0,0,1-4.806-4.807M18.848,88.995a2.533,2.533,0,0,1-2.058-.179,12.307,12.307,0,0,1-4.671-4.978c-.105-.2-.2-.406-.292-.611a7.612,7.612,0,0,0-.009-12.7c.1-.2.187-.411.292-.61a12.222,12.222,0,0,1,4.679-4.976,2.512,2.512,0,0,1,3.6,3l-.235.68a32.338,32.338,0,0,0-1.236,4.249,20.346,20.346,0,0,0-.421,4.007,19.633,19.633,0,0,0,.41,4,31.007,31.007,0,0,0,1.248,4.263l.231.658a2.512,2.512,0,0,1-1.536,3.2" transform="translate(0 -38.544)" fill="#693fb7"/>
        <path id="Trazado_189999" data-name="Trazado 189999" d="M13.129,27.652a1.407,1.407,0,0,0,1.407-1.407V15.493H25.287a1.407,1.407,0,1,0,0-2.813H13.129a1.407,1.407,0,0,0-1.407,1.407V26.245a1.407,1.407,0,0,0,1.407,1.407" transform="translate(-7.31 -7.908)" fill="#693fb7"/>
        <path id="Trazado_190000" data-name="Trazado 190000" d="M165.772,151.249a1.407,1.407,0,0,0-1.407,1.407v10.752H153.613a1.407,1.407,0,0,0,0,2.814h12.158a1.407,1.407,0,0,0,1.407-1.407V152.656a1.407,1.407,0,0,0-1.407-1.407" transform="translate(-94.924 -94.326)" fill="#693fb7"/>
        <path id="Trazado_190001" data-name="Trazado 190001" d="M152.656,15.493h10.752V26.244a1.407,1.407,0,0,0,2.814,0V14.086a1.407,1.407,0,0,0-1.407-1.407H152.656a1.407,1.407,0,1,0,0,2.814" transform="translate(-94.326 -7.907)" fill="#693fb7"/>
        <path id="Trazado_190002" data-name="Trazado 190002" d="M26.244,163.407H15.493V152.656a1.407,1.407,0,1,0-2.814,0v12.158a1.407,1.407,0,0,0,1.407,1.407H26.244a1.407,1.407,0,0,0,0-2.814" transform="translate(-7.907 -94.326)" fill="#693fb7"/>
      </g>
    </g>
  </g>
</svg>
