<svg xmlns="http://www.w3.org/2000/svg" width="503.655" height="443.622" viewBox="0 0 503.655 443.622">
  <g id="_08" data-name="08" transform="translate(0 0.001)">
    <g id="Grupo_133430" data-name="Grupo 133430">
      <g id="Grupo_133425" data-name="Grupo 133425">
        <path id="Trazado_190003" data-name="Trazado 190003" d="M296.92,20.19S183.66-37.9,125.61,42.98-4.18,159.65.19,259.58,109.33,438.57,287.01,426.63,520.62,317.75,499.38,195.44,296.92,20.19,296.92,20.19Z" fill="#fef7dc"/>
        <g id="Grupo_133415" data-name="Grupo 133415">
          <ellipse id="Elipse_5190" data-name="Elipse 5190" cx="240.34" cy="18.43" rx="240.34" ry="18.43" transform="translate(6.03 406.76)" fill="#af8a14"/>
          <g id="Grupo_133414" data-name="Grupo 133414">
            <rect id="Rectángulo_41293" data-name="Rectángulo 41293" width="223.04" height="329.23" rx="11.97" transform="translate(66.9 19.85)" fill="#9572b7"/>
            <rect id="Rectángulo_41294" data-name="Rectángulo 41294" width="223.04" height="329.23" rx="11.97" transform="translate(75.14 19.85)" fill="#29083a"/>
            <g id="Grupo_133411" data-name="Grupo 133411">
              <rect id="Rectángulo_41295" data-name="Rectángulo 41295" width="177.63" height="281.78" rx="6.13" transform="translate(92.41 47.25)" fill="#fee954"/>
              <rect id="Rectángulo_41296" data-name="Rectángulo 41296" width="177.63" height="281.78" rx="6.13" transform="translate(97.85 42.25)" fill="#fceb86"/>
              <rect id="Rectángulo_41297" data-name="Rectángulo 41297" width="177.63" height="281.78" rx="6.13" transform="translate(104.74 37.86)" fill="#fcf8e3"/>
            </g>
            <rect id="Rectángulo_41298" data-name="Rectángulo 41298" width="153.93" height="114.62" rx="6.75" transform="translate(118.04 51.32)" fill="#693fb7"/>
            <g id="Grupo_133412" data-name="Grupo 133412">
              <path id="Trazado_190004" data-name="Trazado 190004" d="M147.85,57.55a.535.535,0,0,0-1.07,0v98.08c0,1.32-.03,2.65,0,3.98v.17a.535.535,0,0,0,1.07,0V61.7c0-1.32.03-2.65,0-3.98v-.17Z" fill="#fff8f9"/>
              <path id="Trazado_190005" data-name="Trazado 190005" d="M180.68,57.55a.535.535,0,0,0-1.07,0v98.08c0,1.32-.03,2.65,0,3.98v.17a.535.535,0,0,0,1.07,0V61.7c0-1.32.03-2.65,0-3.98v-.17Z" fill="#fff8f9"/>
              <path id="Trazado_190006" data-name="Trazado 190006" d="M213.52,57.55a.535.535,0,0,0-1.07,0v98.08c0,1.32-.03,2.65,0,3.98v.17a.535.535,0,0,0,1.07,0V61.7c0-1.32.03-2.65,0-3.98v-.17Z" fill="#fff8f9"/>
              <path id="Trazado_190007" data-name="Trazado 190007" d="M246.36,57.55a.535.535,0,0,0-1.07,0v98.08c0,1.32-.03,2.65,0,3.98v.17a.535.535,0,0,0,1.07,0V61.7c0-1.32.03-2.65,0-3.98v-.17Z" fill="#fff8f9"/>
            </g>
            <g id="Grupo_133413" data-name="Grupo 133413">
              <path id="Trazado_190008" data-name="Trazado 190008" d="M263.89,66.8H133.22c-1.76,0-3.53-.03-5.3,0h-.23a.535.535,0,0,0,0,1.07H258.37c1.76,0,3.53.03,5.3,0h.23a.535.535,0,0,0,0-1.07Z" fill="#fff8f9"/>
              <path id="Trazado_190009" data-name="Trazado 190009" d="M263.89,94.93H133.22c-1.76,0-3.53-.03-5.3,0h-.23a.535.535,0,0,0,0,1.07H258.37c1.76,0,3.53.03,5.3,0h.23a.535.535,0,0,0,0-1.07Z" fill="#fff8f9"/>
              <path id="Trazado_190010" data-name="Trazado 190010" d="M263.89,123.06H133.22c-1.76,0-3.53-.03-5.3,0h-.23a.535.535,0,0,0,0,1.07H258.37c1.76,0,3.53.03,5.3,0h.23a.535.535,0,0,0,0-1.07Z" fill="#fff8f9"/>
              <path id="Trazado_190011" data-name="Trazado 190011" d="M263.89,151.2H133.22c-1.76,0-3.53-.03-5.3,0h-.23a.535.535,0,0,0,0,1.07H258.37c1.76,0,3.53.03,5.3,0h.23a.535.535,0,0,0,0-1.07Z" fill="#fff8f9"/>
            </g>
            <path id="Trazado_190012" data-name="Trazado 190012" d="M121.36,176.62h12.65a2.475,2.475,0,0,1,2.47,2.47v12.65a2.475,2.475,0,0,1-2.47,2.47H121.36a2.475,2.475,0,0,1-2.47-2.47V179.09a2.475,2.475,0,0,1,2.47-2.47Z" fill="#fee954"/>
            <path id="Trazado_190013" data-name="Trazado 190013" d="M121.36,206.28h12.65a2.475,2.475,0,0,1,2.47,2.47V221.4a2.475,2.475,0,0,1-2.47,2.47H121.36a2.475,2.475,0,0,1-2.47-2.47V208.75a2.475,2.475,0,0,1,2.47-2.47Z" fill="#b13e8d"/>
            <path id="Trazado_190014" data-name="Trazado 190014" d="M250.54,178.36H143.65a1.763,1.763,0,0,0-1.76,1.76h0a1.763,1.763,0,0,0,1.76,1.76H250.54a1.763,1.763,0,0,0,1.76-1.76h0A1.763,1.763,0,0,0,250.54,178.36Z" fill="#b13e8d"/>
            <path id="Trazado_190015" data-name="Trazado 190015" d="M209.79,186.38H143.65a1.76,1.76,0,1,0,0,3.52h66.14a1.76,1.76,0,0,0,0-3.52Z" fill="#b13e8d"/>
            <path id="Trazado_190016" data-name="Trazado 190016" d="M194.26,209.22H143.65a1.76,1.76,0,1,0,0,3.52h50.61a1.76,1.76,0,0,0,0-3.52Z" fill="#fee954"/>
            <path id="Trazado_190017" data-name="Trazado 190017" d="M238.24,217.23H143.65a1.763,1.763,0,0,0-1.76,1.76h0a1.763,1.763,0,0,0,1.76,1.76h94.59a1.763,1.763,0,0,0,1.76-1.76h0A1.763,1.763,0,0,0,238.24,217.23Z" fill="#fee954"/>
            <path id="Trazado_190018" data-name="Trazado 190018" d="M121.36,242.01h12.65a2.475,2.475,0,0,1,2.47,2.47v12.65a2.475,2.475,0,0,1-2.47,2.47H121.36a2.475,2.475,0,0,1-2.47-2.47V244.48a2.475,2.475,0,0,1,2.47-2.47Z" fill="#fee954"/>
            <path id="Trazado_190019" data-name="Trazado 190019" d="M121.36,271.67h12.65a2.475,2.475,0,0,1,2.47,2.47v12.65a2.475,2.475,0,0,1-2.47,2.47H121.36a2.475,2.475,0,0,1-2.47-2.47V274.14a2.475,2.475,0,0,1,2.47-2.47Z" fill="#b13e8d"/>
            <path id="Trazado_190020" data-name="Trazado 190020" d="M250.54,243.75H143.65a1.763,1.763,0,0,0-1.76,1.76h0a1.763,1.763,0,0,0,1.76,1.76H250.54a1.763,1.763,0,0,0,1.76-1.76h0A1.763,1.763,0,0,0,250.54,243.75Z" fill="#b13e8d"/>
            <path id="Trazado_190021" data-name="Trazado 190021" d="M209.79,251.77H143.65a1.76,1.76,0,1,0,0,3.52h66.14a1.76,1.76,0,0,0,0-3.52Z" fill="#b13e8d"/>
            <path id="Trazado_190022" data-name="Trazado 190022" d="M194.26,274.61H143.65a1.76,1.76,0,0,0,0,3.52h50.61a1.76,1.76,0,0,0,0-3.52Z" fill="#fee954"/>
            <path id="Trazado_190023" data-name="Trazado 190023" d="M238.24,282.62H143.65a1.763,1.763,0,0,0-1.76,1.76h0a1.763,1.763,0,0,0,1.76,1.76h94.59a1.763,1.763,0,0,0,1.76-1.76h0A1.763,1.763,0,0,0,238.24,282.62Z" fill="#fee954"/>
          </g>
        </g>
        <g id="Grupo_133424" data-name="Grupo 133424">
          <g id="Grupo_133416" data-name="Grupo 133416">
            <path id="Trazado_190024" data-name="Trazado 190024" d="M360.36,433.43H290.8a.279.279,0,0,0,.08-.05,61.827,61.827,0,0,1,4.45-5.8c5.5-6.35,12.28-11.35,20.45-13.66l8.1-2.29,32.89-7.33,2.86,23.28.72,5.86Z" fill="#fdab00"/>
            <path id="Trazado_190025" data-name="Trazado 190025" d="M360.27,433.52H290.71a.279.279,0,0,0,.08-.05,61.827,61.827,0,0,1,4.45-5.8h64.32l.72,5.86Z" fill="#fff"/>
          </g>
          <path id="Trazado_190026" data-name="Trazado 190026" d="M310.51,291.71l3.25,118s14.34,4.89,29.91,3.16a43.062,43.062,0,0,0,21.05-7.74L345.87,294.54l23.1-86.63L350.5,190.73l-13.6,15.56-25.06,76.32a26.991,26.991,0,0,0-1.33,9.1Z" fill="#1f0730"/>
          <path id="Trazado_190027" data-name="Trazado 190027" d="M325.58,293.25l18.08,119.62a43.062,43.062,0,0,0,21.05-7.74L345.86,294.54l23.1-86.63-12.9-12-30.47,97.33Z" fill="#29193a"/>
          <g id="Grupo_133418" data-name="Grupo 133418">
            <g id="Grupo_133417" data-name="Grupo 133417">
              <path id="Trazado_190028" data-name="Trazado 190028" d="M459.35,367.82l-43.44,54.33a.125.125,0,0,0,0-.09,63.385,63.385,0,0,1-1.75-7.1c-1.52-8.27-1.19-16.68,2.11-24.5l3.27-7.76,14.82-30.27,19.97,12.3,5.02,3.09Z" fill="#fdab00"/>
              <path id="Trazado_190029" data-name="Trazado 190029" d="M459.37,367.95l-43.44,54.33a.125.125,0,0,0,0-.09,63.385,63.385,0,0,1-1.75-7.1l40.17-50.23,5.02,3.09Z" fill="#fff"/>
            </g>
            <path id="Trazado_190030" data-name="Trazado 190030" d="M339.14,305.93l74.91,79.71c23.18-8.21,25.11-37.67,25.11-37.67l-60.63-52.32a6.181,6.181,0,0,1-1.46-7.48c2.48-4.83,7.08-14.13,14.15-29.78,11.34-25.07,2.83-50.48,2.63-51.06h0l-13.38-12.68-21.25,10.38-6.28,29.73-18.22,49.55a20.966,20.966,0,0,0,4.4,21.6Z" fill="#1f0730"/>
            <path id="Trazado_190031" data-name="Trazado 190031" d="M370.77,293.93l68.38,54.04-60.63-52.32a6.181,6.181,0,0,1-1.46-7.48c2.48-4.83,7.08-14.13,14.15-29.78,11.34-25.07,2.83-50.48,2.63-51.06.13.63,6.52,31.43-8.51,57.43-15.19,26.28-14.58,29.16-14.58,29.16Z" fill="#29193a"/>
          </g>
          <path id="Trazado_190032" data-name="Trazado 190032" d="M393.86,207.33s9.84,7.4,6.23,9.96-15.64-4.59-18.52,2.15c-5.86,13.72-13.54,5.82-16.74,1.54s-16.61,12.14-17.69-.59c-.66-7.78-32.51,4.91-13.75-12.18,15.88-14.47,60.48-.88,60.48-.88Z" fill="#fee954"/>
          <g id="Grupo_133419" data-name="Grupo 133419">
            <path id="Trazado_190033" data-name="Trazado 190033" d="M303.77,10.71s-3.52,7.58,2.8,20.21l.2.4s4.84,28.72,16.55,51.79l15.85,37.07,10.04,4.74,9.11-7.97-9.31-26.67-.92-3.52-9.25-16.2L328.36,27.95a17.428,17.428,0,0,0-.48-15.44c-2.26-4.41-4.83-5.72-6.76-5.97a5.332,5.332,0,0,0-2.95.41,14.853,14.853,0,0,0-1.73.06,23.264,23.264,0,0,0-4.54.87l-8.13,2.84Z" fill="#f5ae97"/>
            <path id="Trazado_190034" data-name="Trazado 190034" d="M319.03,30.64c.11.06,4.56,1.44,7.87.52l10.54,39.96s-6.19,4.81-8.5,3.82c.15.08,3.81,1.99,9.5-1.84l8.53,17.69,2.05-.52-.92-3.52-9.25-16.2L328.37,27.94s-5.68,3.43-9.33,2.7Z" fill="#ed856e"/>
            <path id="Trazado_190035" data-name="Trazado 190035" d="M311.9,7.87s8.74,5.81,6.82,14.71c-1.16,5.36-6.47,6.38-10.52,6.35a7.856,7.856,0,0,1-7.07-4.53c-2.06-4.39-3.87-11.14,2.64-13.69l8.13-2.84Z" fill="#f5ae97"/>
            <path id="Trazado_190036" data-name="Trazado 190036" d="M309.17,13.77s2.74-6.15,9-6.83l2.05,4.62,3.74-.54-.32.43a13.349,13.349,0,0,1-6.3,4.57c-3.9,1.33-9.04,2.31-8.17-2.24Z" fill="#f5ae97"/>
            <path id="Trazado_190037" data-name="Trazado 190037" d="M316.44,7a14.853,14.853,0,0,1,1.73-.06s-7.39,2.52-9,6.84c.98-4.91,7.28-6.77,7.28-6.77Z" fill="#ed856e"/>
            <path id="Trazado_190038" data-name="Trazado 190038" d="M306.22,27.09c4.05.03,9.37-.99,10.52-6.35a12.134,12.134,0,0,0,.13-4.39c-3.58,1.34-7.97,2.32-8.02-.85a4.872,4.872,0,0,1,.31-1.74s0,3.87,5.16,1.38a14.867,14.867,0,0,1,2.04-.83,8.508,8.508,0,0,1,1.05-.3c2.87-.67,3.9-.19,3.9-.19a10.541,10.541,0,0,1-3.08,1.99,11.922,11.922,0,0,1,.49,6.76c-1.16,5.36-6.47,6.39-10.52,6.35a7.834,7.834,0,0,1-6.21-3.11,7.837,7.837,0,0,0,4.22,1.27Z" fill="#ed856e"/>
          </g>
          <g id="Grupo_133421" data-name="Grupo 133421">
            <g id="Grupo_133420" data-name="Grupo 133420">
              <path id="Trazado_190039" data-name="Trazado 190039" d="M378.52,96.81l-.02.02c-.43.22-.85.45-1.26.62a19.758,19.758,0,0,1-3.09,1.11,1.3,1.3,0,0,0-.97,1s-3.18,9.97.48,13.62c0,0-4.86,8.11-11.9,8.2s-5.79-6.65-4.79-7.99c.58-.77.76-2.49.81-4.01s-.06-2.85-.06-2.85c-1.13.78-3.85.66-3.85.66-12.92-.47-11.17-24.67-11.17-24.67l.34-5.45.7-11.35,17.15-2.87,1.93-.32,1.02,1.95,10.43,20.04s8.04-4.46,9.15,4.19c.51,4.06-2.18,6.6-4.9,8.1Z" fill="#f5ae97"/>
              <path id="Trazado_190040" data-name="Trazado 190040" d="M375.99,88.62a1.288,1.288,0,0,1,1.98-1.38c.8.57,1.42,1.71.55,4.01-1.67,4.47-3.99,2.25-3.69.87s1.62-1.86,1.16-3.45a.09.09,0,0,0-.01-.05Z" fill="#ed856e"/>
              <path id="Trazado_190041" data-name="Trazado 190041" d="M377.24,97.45a20.6,20.6,0,0,1-3.09,1.1s-2.9-.04-3.09-2.78c.17.27,2.01,3,6.19,1.68Z" fill="#ed856e"/>
            </g>
            <path id="Trazado_190042" data-name="Trazado 190042" d="M343.15,77.7s2.81,1.4,6.68-4.9c0,0-.04,7.43,15.3,8.88,0,0,6.04.34,9.15,2.84l1.29-8.65L351.17,62.1l-5.52-.99L343.16,77.7Z" fill="#ed856e"/>
            <path id="Trazado_190043" data-name="Trazado 190043" d="M337.1,112.9c-3.37,11.88,1.34,15.07,1.34,15.07a30.193,30.193,0,0,1,4.66-6,35.846,35.846,0,0,1,13.87-8.6,12.463,12.463,0,0,0,.75-6.86,10.453,10.453,0,0,1-5.29.45c-2.46-.45-5.24-1.99-7.11-6.18a1.2,1.2,0,0,1-.06-.17c-.07-.13-.13-.28-.19-.42a36.808,36.808,0,0,1-2.38-11.1,51.37,51.37,0,0,1,.47-11.39c5.56-2.55,7.05-8.49,7.05-8.49s.07,10.28,14.45,11.15a19.167,19.167,0,0,1,5.71,1.17c1.69.64,3.38,1.61,3.91,2.98,0,0,6.7-3.65,8.73,2.29a8.178,8.178,0,0,1,.46,2.89,7.04,7.04,0,0,1-1.25,4.01,7.57,7.57,0,0,1-1.46,1.57,24.469,24.469,0,0,1-6.2,3.16,1.982,1.982,0,0,0-.52.13,2.82,2.82,0,0,0-1.8,2.29c-.73,5.19-4,25.67-11.16,34.8a1.523,1.523,0,0,0,.97,2.45c3.16.45,8.75.17,14.2-5.44,6.88-7.08,18.17-5.27,21.67-4.49a2.758,2.758,0,0,0,2.45-.62,4.706,4.706,0,0,0,1.48-2.63c1.05-5.59-2.16-10.49-6.48-19.67,0,0-4.58-10.14-2.67-29.4.8-8.1-3.71-15.53-10.2-20.29h0c-8.95-6.57-21.65-8.07-29.39.76,0,0-10.02-6.57-13.63,13.8-2.85,16.12.23,33.61-2.37,42.78Z" fill="#131e36"/>
            <path id="Trazado_190044" data-name="Trazado 190044" d="M356.15,63.83s1.15,8.08,11.95,9.15a13.019,13.019,0,0,1,5.13,1.55c1.82,1.03,3.64,2.68,3.61,5.14,0,0,1.29-7.94-10.74-9.53a11.893,11.893,0,0,1-4.71-1.71c-1.88-1.16-4.22-2.86-5.25-4.6Z" fill="#000102"/>
            <path id="Trazado_190045" data-name="Trazado 190045" d="M365.1,101.56a13.294,13.294,0,0,1-7.24,7.86l-.08-.06c.04-1.52-.06-2.85-.06-2.85a18.765,18.765,0,0,0,7.38-4.95Z" fill="#ed856e"/>
            <path id="Trazado_190046" data-name="Trazado 190046" d="M383.52,89.69h-.05a8.242,8.242,0,0,0-.46-2.89c-2.03-5.94-8.73-2.29-8.73-2.29-.54-1.37-2.22-2.34-3.92-2.98a19.167,19.167,0,0,0-5.71-1.17c-14.38-.87-14.45-11.15-14.45-11.15s-1.49,5.94-7.06,8.49c3.13-2.02,7.4-12.01,7.4-12.01s3.07,11.48,14.08,11.84,10.3,5.06,10.3,5.06,10.28-3.62,8.59,7.09Z" fill="#000102"/>
            <path id="Trazado_190047" data-name="Trazado 190047" d="M340.83,87.01s.28,28.47-2.73,32.67C338.1,119.68,344.49,115.23,340.83,87.01Z" fill="#000102"/>
            <path id="Trazado_190048" data-name="Trazado 190048" d="M361.08,135.64a1.523,1.523,0,0,0,.97,2.45c3.16.45,8.75.17,14.2-5.44,6.88-7.08,18.17-5.27,21.67-4.49a2.758,2.758,0,0,0,2.45-.62,4.706,4.706,0,0,0,1.48-2.63c-17.86-8.13-41.47,18.93-34.24,6.32s6.4-30.29,6.4-30.29c8.74-3.71,8.21-7.25,8.21-7.25a7.57,7.57,0,0,1-1.46,1.57,24.469,24.469,0,0,1-6.2,3.16,1.982,1.982,0,0,0-.52.13,2.82,2.82,0,0,0-1.8,2.29c-.73,5.19-4,25.67-11.16,34.8Z" fill="#000102"/>
            <path id="Trazado_190049" data-name="Trazado 190049" d="M343.09,121.97a35.846,35.846,0,0,1,13.87-8.6,12.463,12.463,0,0,0,.75-6.86,10.453,10.453,0,0,1-5.29.45c-1.41,1.76-2.78,3.47-3.97,4.94a30.83,30.83,0,0,0-5.37,10.06h0Z" fill="#000102"/>
            <path id="Trazado_190050" data-name="Trazado 190050" d="M388.7,92.67a136.287,136.287,0,0,0,4.31,15.69c2.88,8.45-2.44,13.36-2.44,13.36s3.14-7.37.57-13.85a26.915,26.915,0,0,1-1.41-4.55c-.64-3.04-1.42-7.65-1.02-10.65Z" fill="#000102"/>
            <path id="Trazado_190051" data-name="Trazado 190051" d="M383.84,97.78a79.9,79.9,0,0,1-1.65,21.03S387.24,111.59,383.84,97.78Z" fill="#000102"/>
            <path id="Trazado_190052" data-name="Trazado 190052" d="M348.41,96.59l8.03.07a.76.76,0,0,1,.74.94c-.42,1.75-1.71,5.33-5.08,5.08s-4.23-3.6-4.46-5.22a.76.76,0,0,1,.77-.86Z" fill="#cb6655"/>
            <path id="Trazado_190053" data-name="Trazado 190053" d="M363.05,84.47q-3.795.4-7.55,1.11v-.55a24.052,24.052,0,0,1,4.82,2.04,13.268,13.268,0,0,1,1.81,1.21c.29.23-.12.63-.4.4a15.466,15.466,0,0,0-3.21-1.89,27.54,27.54,0,0,0-2.65-1.05c-.17-.06-.34-.11-.52-.17-.25-.08-.29-.49,0-.55q3.825-.72,7.7-1.13c.36-.04.36.53,0,.57h0Z" fill="#0e4959"/>
            <path id="Trazado_190054" data-name="Trazado 190054" d="M344.6,82.16q1.98,1.215,3.96,2.42a.335.335,0,0,1-.17.62,13.7,13.7,0,0,0-4.47,1.31c-.39.19-.72-.39-.34-.58a14.712,14.712,0,0,1,4.81-1.4l-.17.62q-1.98-1.215-3.96-2.42a.336.336,0,0,1,.34-.58h0Z" fill="#0e4959"/>
            <path id="Trazado_190055" data-name="Trazado 190055" d="M355.48,84.06a16.133,16.133,0,0,1,4.23-.96c.37-.03.36.54,0,.57a15.418,15.418,0,0,0-4.08.94c-.34.13-.49-.42-.15-.55h0Z" fill="#ed856e"/>
            <path id="Trazado_190056" data-name="Trazado 190056" d="M347.09,81.45a11.2,11.2,0,0,1,2.48,2.33.293.293,0,0,1,0,.4.284.284,0,0,1-.4,0,10.9,10.9,0,0,0-2.36-2.24.291.291,0,0,1-.1-.39.28.28,0,0,1,.39-.1h0Z" fill="#ed856e"/>
          </g>
          <g id="Grupo_133423" data-name="Grupo 133423">
            <g id="Grupo_133422" data-name="Grupo 133422">
              <path id="Trazado_190057" data-name="Trazado 190057" d="M383.7,124.38l11.09,9.31,7.48-8.38,15.48-39.08a347.5,347.5,0,0,1,23.07-43.87c12.24-13.72,2.09-24.56,2.09-24.56l-8.29-2.33a22.174,22.174,0,0,0-4.58-.58,14.207,14.207,0,0,0-1.73.04,5.429,5.429,0,0,0-2.97-.22c-1.91.37-4.39,1.85-6.37,6.39a24.455,24.455,0,0,0-1.28,16.14L400.23,76.86,385.9,113.37l-.54,2.72-1.65,8.29Z" fill="#f5ae97"/>
              <path id="Trazado_190058" data-name="Trazado 190058" d="M434.62,15.47s-8.36,6.34-5.88,15.11c1.49,5.28,6.86,5.96,10.9,5.68a7.861,7.861,0,0,0,6.78-4.97c1.78-4.51,3.17-11.37-3.5-13.5l-8.29-2.32Z" fill="#f5ae97"/>
              <path id="Trazado_190059" data-name="Trazado 190059" d="M430.03,14.89c-1.08-.02-1.73.04-1.73.04s7.54,2.05,9.41,6.26c-1.28-4.84-7.69-6.3-7.69-6.3Z" fill="#ed856e"/>
              <path id="Trazado_190060" data-name="Trazado 190060" d="M441.49,34.3c-4.04.28-9.41-.4-10.9-5.67a12.16,12.16,0,0,1-.41-4.37c3.66,1.11,8.1,1.81,7.95-1.35a4.627,4.627,0,0,0-.42-1.72s.24,3.87-5.06,1.7a15.059,15.059,0,0,0-2.09-.7,7.945,7.945,0,0,0-1.07-.23c-2.9-.49-4,.58-4,.58s1.42.63,3.3,1.27a11.956,11.956,0,0,0-.07,6.78c1.49,5.28,6.86,5.97,10.9,5.67a7.823,7.823,0,0,0,6-3.49,7.855,7.855,0,0,1-4.14,1.53Z" fill="#ed856e"/>
            </g>
            <path id="Trazado_190061" data-name="Trazado 190061" d="M386.33,114.97l.51,1.46,13.84-33.87,8.97,2.82-7.82-5.7,16.36-39.06a15.737,15.737,0,0,0,8.46,1.71,21.388,21.388,0,0,1-8.97-5.08L400.22,76.87l-14.33,36.51.43,1.6Z" fill="#ed856e"/>
            <path id="Trazado_190062" data-name="Trazado 190062" d="M402.23,125.39s5.04-.67,4.79-2.43-3.68-1.51-8.22-2.12-1.31-5.95-6.66-6.26-3.03-9.99-5.55-6.86-.7,5.64-.7,5.64v10.6l2.26,4.09,9.18,3.03,4.9-5.69Z" fill="#fee954"/>
            <path id="Trazado_190063" data-name="Trazado 190063" d="M333.38,208.21c32.82,20.93,60.48-.87,60.48-.87-7.2-13.5-5.86-35.17-3.99-48.89,1.03-7.59,2.23-12.74,2.23-12.74l9.96-19.96c.08-.16.14-.28.18-.35l.02-.05.02-.04s-13.54,1.23-16.38-11.94c0,0-5.61,13.37-20.6,14.79l3.22-9.35s-7.05,4.02-10.26,1.77-1.29-7.21-1.29-7.21-6.52.95-12.88,7.3a32.361,32.361,0,0,0-3.43,4.05c1.66,1.88,1.39,5.14.06,7.4h0a6.633,6.633,0,0,1-.68.96c-5.6,6.49-6.98,10.58-5.31,16.64.92,3.33,2.75,7.25,5.31,12.49,1.45,2.97,1.37,7.44.78,12.17-.43,3.45-1.13,7.05-1.71,10.3a202.559,202.559,0,0,1-5.73,23.52Z" fill="#9572b7"/>
          </g>
          <path id="Trazado_190064" data-name="Trazado 190064" d="M340.03,162.21c1.45,2.97,1.37,7.44.78,12.17a33.325,33.325,0,0,1,10.46-1.77c16.85-.32,38.53-13.71,16.55-9.47s-33.1-13.42-33.1-13.42c.92,3.33,2.75,7.25,5.31,12.49Z" fill="#745a93"/>
          <path id="Trazado_190065" data-name="Trazado 190065" d="M378.31,138.24c3.28,4.17,12.37,5.86,11.56,20.21,1.03-7.59,2.23-12.74,2.23-12.74l9.96-19.96c-1.26,2.43-7.72,14.13-14.92,12.49C379.11,136.41,374.87,133.88,378.31,138.24Z" fill="#745a93"/>
          <path id="Trazado_190066" data-name="Trazado 190066" d="M340.72,132.12c.12-.17,4.09-5.58,4.61-8.02.2-.93-.41-2.21-1.24-3.43a32.361,32.361,0,0,0-3.43,4.05C342.32,126.6,342.05,129.86,340.72,132.12Z" fill="#745a93"/>
        </g>
      </g>
      <g id="Grupo_133426" data-name="Grupo 133426">
        <path id="Trazado_190067" data-name="Trazado 190067" d="M129.28,280.99a.275.275,0,0,1-.19-.47l3.11-3.11a.272.272,0,0,1,.39,0l.98.98v-4.15h-4.15l.98.98a.272.272,0,0,1,0,.39l-3.11,3.11a.276.276,0,1,1-.39-.39l2.91-2.91-1.26-1.26a.279.279,0,0,1-.06-.3.272.272,0,0,1,.25-.17h5.08a.269.269,0,0,1,.27.27v5.08a.273.273,0,0,1-.17.25.279.279,0,0,1-.3-.06l-1.26-1.26-2.91,2.91a.273.273,0,0,1-.19.08Z" fill="#fff"/>
        <path id="Trazado_190068" data-name="Trazado 190068" d="M120.86,283.94a.275.275,0,0,1-.19-.47l3.83-3.83a.272.272,0,0,1,.39,0l.55.55v-2.61h-2.61l.55.55a.266.266,0,0,1,0,.38l-2.31,2.31a.276.276,0,0,1-.39-.39l2.11-2.11-.82-.82a.279.279,0,0,1-.06-.3.273.273,0,0,1,.25-.17h3.54a.269.269,0,0,1,.27.27v3.54a.273.273,0,0,1-.17.25.279.279,0,0,1-.3-.06l-.82-.82-3.63,3.63a.273.273,0,0,1-.19.08Z" fill="#fff"/>
        <path id="Trazado_190069" data-name="Trazado 190069" d="M127.19,287.23a.275.275,0,0,1-.19-.47l2.31-2.31a.266.266,0,0,1,.38,0l.55.55v-2.61h-2.61l.55.55a.272.272,0,0,1,0,.39l-3.83,3.83a.276.276,0,0,1-.39-.39l3.63-3.63-.82-.82a.279.279,0,0,1-.06-.3.273.273,0,0,1,.25-.17h3.54a.269.269,0,0,1,.27.27v3.54a.273.273,0,0,1-.17.25.279.279,0,0,1-.3-.06l-.82-.82-2.11,2.11a.273.273,0,0,1-.19.08Z" fill="#fff"/>
        <path id="Trazado_190070" data-name="Trazado 190070" d="M120.86,287.23a.275.275,0,0,1-.19-.47l3.89-3.89a.276.276,0,0,1,.39.39l-3.89,3.89a.273.273,0,0,1-.19.08Z" fill="#fff"/>
        <path id="Trazado_190071" data-name="Trazado 190071" d="M125.43,275.89a.275.275,0,0,1-.19-.47l1.64-1.64a.276.276,0,1,1,.39.39l-1.64,1.64a.273.273,0,0,1-.19.08Z" fill="#fff"/>
        <path id="Trazado_190072" data-name="Trazado 190072" d="M132.2,282.73a.275.275,0,0,1-.19-.47l1.64-1.64a.276.276,0,0,1,.39.39l-1.64,1.64a.273.273,0,0,1-.19.08Z" fill="#fff"/>
      </g>
      <g id="Grupo_133427" data-name="Grupo 133427">
        <path id="Trazado_190073" data-name="Trazado 190073" d="M129.28,250.94a.275.275,0,0,1-.19-.47l3.11-3.11a.272.272,0,0,1,.39,0l.98.98v-4.15h-4.15l.98.98a.272.272,0,0,1,0,.39l-3.11,3.11a.276.276,0,0,1-.39-.39l2.91-2.91-1.26-1.26a.279.279,0,0,1-.06-.3.272.272,0,0,1,.25-.17h5.08a.269.269,0,0,1,.27.27v5.08a.273.273,0,0,1-.17.25.279.279,0,0,1-.3-.06l-1.26-1.26-2.91,2.91a.273.273,0,0,1-.19.08Z" fill="#693fb7"/>
        <path id="Trazado_190074" data-name="Trazado 190074" d="M120.86,253.89a.275.275,0,0,1-.19-.47l3.83-3.83a.272.272,0,0,1,.39,0l.55.55v-2.61h-2.61l.55.55a.266.266,0,0,1,0,.38l-2.31,2.31a.276.276,0,1,1-.39-.39l2.11-2.11-.82-.82a.279.279,0,0,1-.06-.3.272.272,0,0,1,.25-.17h3.54a.269.269,0,0,1,.27.27v3.54a.272.272,0,0,1-.17.25.279.279,0,0,1-.3-.06l-.82-.82-3.63,3.63a.273.273,0,0,1-.19.08Z" fill="#693fb7"/>
        <path id="Trazado_190075" data-name="Trazado 190075" d="M127.19,257.18a.275.275,0,0,1-.19-.47l2.31-2.31a.266.266,0,0,1,.38,0l.55.55v-2.61h-2.61l.55.55a.272.272,0,0,1,0,.39l-3.83,3.83a.276.276,0,0,1-.39-.39l3.63-3.63-.82-.82a.279.279,0,0,1-.06-.3.272.272,0,0,1,.25-.17h3.54a.269.269,0,0,1,.27.27v3.54a.273.273,0,0,1-.17.25.279.279,0,0,1-.3-.06l-.82-.82-2.11,2.11a.273.273,0,0,1-.19.08Z" fill="#693fb7"/>
        <path id="Trazado_190076" data-name="Trazado 190076" d="M120.86,257.18a.275.275,0,0,1-.19-.47l3.89-3.89a.276.276,0,0,1,.39.39l-3.89,3.89a.273.273,0,0,1-.19.08Z" fill="#693fb7"/>
        <path id="Trazado_190077" data-name="Trazado 190077" d="M125.43,245.84a.275.275,0,0,1-.19-.47l1.64-1.64a.276.276,0,1,1,.39.39l-1.64,1.64a.273.273,0,0,1-.19.08Z" fill="#693fb7"/>
        <path id="Trazado_190078" data-name="Trazado 190078" d="M132.2,252.68a.275.275,0,0,1-.19-.47l1.64-1.64a.276.276,0,0,1,.39.39l-1.64,1.64a.273.273,0,0,1-.19.08Z" fill="#693fb7"/>
      </g>
      <g id="Grupo_133428" data-name="Grupo 133428">
        <path id="Trazado_190079" data-name="Trazado 190079" d="M129.28,185.93a.275.275,0,0,1-.19-.47l3.11-3.11a.272.272,0,0,1,.39,0l.98.98v-4.15h-4.15l.98.98a.272.272,0,0,1,0,.39l-3.11,3.11a.276.276,0,0,1-.39-.39l2.91-2.91-1.26-1.26a.279.279,0,0,1-.06-.3.272.272,0,0,1,.25-.17h5.08a.269.269,0,0,1,.27.27v5.08a.273.273,0,0,1-.17.25.279.279,0,0,1-.3-.06l-1.26-1.26-2.91,2.91a.273.273,0,0,1-.19.08Z" fill="#693fb7"/>
        <path id="Trazado_190080" data-name="Trazado 190080" d="M120.86,188.88a.275.275,0,0,1-.19-.47l3.83-3.83a.272.272,0,0,1,.39,0l.55.55v-2.61h-2.61l.55.55a.266.266,0,0,1,0,.38l-2.31,2.31a.276.276,0,0,1-.39-.39l2.11-2.11-.82-.82a.279.279,0,0,1-.06-.3.272.272,0,0,1,.25-.17h3.54a.269.269,0,0,1,.27.27v3.54a.272.272,0,0,1-.17.25.279.279,0,0,1-.3-.06l-.82-.82-3.63,3.63a.273.273,0,0,1-.19.08Z" fill="#693fb7"/>
        <path id="Trazado_190081" data-name="Trazado 190081" d="M127.19,192.17a.275.275,0,0,1-.19-.47l2.31-2.31a.266.266,0,0,1,.38,0l.55.55v-2.61h-2.61l.55.55a.272.272,0,0,1,0,.39l-3.83,3.83a.276.276,0,1,1-.39-.39l3.63-3.63-.82-.82a.279.279,0,0,1-.06-.3.272.272,0,0,1,.25-.17h3.54a.269.269,0,0,1,.27.27v3.54a.273.273,0,0,1-.17.25.279.279,0,0,1-.3-.06l-.82-.82-2.11,2.11a.273.273,0,0,1-.19.08Z" fill="#693fb7"/>
        <path id="Trazado_190082" data-name="Trazado 190082" d="M120.86,192.17a.275.275,0,0,1-.19-.47l3.89-3.89a.276.276,0,0,1,.39.39l-3.89,3.89a.273.273,0,0,1-.19.08Z" fill="#693fb7"/>
        <path id="Trazado_190083" data-name="Trazado 190083" d="M125.43,180.83a.275.275,0,0,1-.19-.47l1.64-1.64a.276.276,0,0,1,.39.39l-1.64,1.64a.273.273,0,0,1-.19.08Z" fill="#693fb7"/>
        <path id="Trazado_190084" data-name="Trazado 190084" d="M132.2,187.67a.275.275,0,0,1-.19-.47l1.64-1.64a.276.276,0,0,1,.39.39l-1.64,1.64a.273.273,0,0,1-.19.08Z" fill="#693fb7"/>
      </g>
      <g id="Grupo_133429" data-name="Grupo 133429">
        <path id="Trazado_190085" data-name="Trazado 190085" d="M129.28,215.6a.275.275,0,0,1-.19-.47l3.11-3.11a.272.272,0,0,1,.39,0l.98.98v-4.15h-4.15l.98.98a.272.272,0,0,1,0,.39l-3.11,3.11a.276.276,0,1,1-.39-.39l2.91-2.91-1.26-1.26a.279.279,0,0,1-.06-.3.272.272,0,0,1,.25-.17h5.08a.269.269,0,0,1,.27.27v5.08a.273.273,0,0,1-.17.25.279.279,0,0,1-.3-.06l-1.26-1.26-2.91,2.91a.273.273,0,0,1-.19.08Z" fill="#fff"/>
        <path id="Trazado_190086" data-name="Trazado 190086" d="M120.86,218.55a.275.275,0,0,1-.19-.47l3.83-3.83a.272.272,0,0,1,.39,0l.55.55v-2.61h-2.61l.55.55a.266.266,0,0,1,0,.38l-2.31,2.31a.276.276,0,0,1-.39-.39l2.11-2.11-.82-.82a.279.279,0,0,1-.06-.3.272.272,0,0,1,.25-.17h3.54a.269.269,0,0,1,.27.27v3.54a.272.272,0,0,1-.17.25.279.279,0,0,1-.3-.06l-.82-.82-3.63,3.63a.273.273,0,0,1-.19.08Z" fill="#fff"/>
        <path id="Trazado_190087" data-name="Trazado 190087" d="M127.19,221.84a.275.275,0,0,1-.19-.47l2.31-2.31a.266.266,0,0,1,.38,0l.55.55V217h-2.61l.55.55a.272.272,0,0,1,0,.39l-3.83,3.83a.276.276,0,1,1-.39-.39l3.63-3.63-.82-.82a.279.279,0,0,1-.06-.3.272.272,0,0,1,.25-.17h3.54a.269.269,0,0,1,.27.27v3.54a.273.273,0,0,1-.17.25.279.279,0,0,1-.3-.06l-.82-.82-2.11,2.11a.273.273,0,0,1-.19.08Z" fill="#fff"/>
        <path id="Trazado_190088" data-name="Trazado 190088" d="M120.86,221.84a.275.275,0,0,1-.19-.47l3.89-3.89a.276.276,0,1,1,.39.39l-3.89,3.89a.273.273,0,0,1-.19.08Z" fill="#fff"/>
        <path id="Trazado_190089" data-name="Trazado 190089" d="M125.43,210.5a.275.275,0,0,1-.19-.47l1.64-1.64a.276.276,0,0,1,.39.39l-1.64,1.64a.273.273,0,0,1-.19.08Z" fill="#fff"/>
        <path id="Trazado_190090" data-name="Trazado 190090" d="M132.2,217.34a.275.275,0,0,1-.19-.47l1.64-1.64a.276.276,0,0,1,.39.39l-1.64,1.64a.273.273,0,0,1-.19.08Z" fill="#fff"/>
      </g>
    </g>
  </g>
</svg>
