<svg xmlns="http://www.w3.org/2000/svg" width="944.123" height="634.744" viewBox="0 0 944.123 634.744">
  <g id="Grupo_136148" data-name="Grupo 136148" transform="translate(-328 -4724)">
    <g id="Grupo_133461" data-name="Grupo 133461" transform="translate(-42.145 -3)">
      <g id="_08" data-name="08" transform="translate(370.145 4727)">
        <g id="Grupo_133460" data-name="Grupo 133460">
          <g id="Grupo_133452" data-name="Grupo 133452" transform="translate(110.09 49.094)">
            <g id="Grupo_133448" data-name="Grupo 133448" transform="translate(107.821 27.012)">
              <path id="Trazado_190092" data-name="Trazado 190092" d="M449.712,111.509c-.044-.262-5.433-27.1-24.667-38.773A36.833,36.833,0,0,0,405.659,67.4a56.648,56.648,0,0,0-21.219,4.626c-97.7,40.595-99.747,76.99-99.169,83.874l.033.4-.371.153a108.019,108.019,0,0,0-11.815,5.891c-34.758,20.423-23.2,68.578-20.532,78.026l.142.513-.5.164a89.169,89.169,0,0,0-18.546,8.771.945.945,0,0,0-.109.076c-26.434,21.11-16.888,55.65-14.706,62.36l.164.524-.524.175c-17.477,5.968-25.583,20.292-25.507,45.09,0,.5.022,1,.033,1.495l.022.611-.022.076a1,1,0,0,0-.044.284,1.522,1.522,0,0,0,.055.349l.022.065v.065c1.593,31.518,30.373,47.217,36.122,50.032l.436.218-.164.458c-2.389,6.862-3.1,15.143-2.117,24.612,2.651,39.111,28.823,50.065,36.777,52.5l.469.142-.087.48c-1.7,9.775.764,20.27,8.008,25.867,1.2,1.222,3.818,3.306,3.818,3.306,12.012,10.517,24.438,21.4,82.51,45.908,11.335,4.789,22.288,7.211,32.544,7.211a59.2,59.2,0,0,0,37.235-12.775,74.051,74.051,0,0,0,20.968-26.172,1.13,1.13,0,0,0,.1-.469v-420.8ZM447.64,246.494H444.4c-13.692,0-24.841-11.575-24.841-25.812v-3.371l.425-.109a6.2,6.2,0,1,0-2.924,0l.426.109V221.3l.022.2c.393,14.139,10.877,25.78,24.394,27.078h.087l.076.044a1.023,1.023,0,0,0,.393.087h5.182V356.988H420.387c-13.692,0-24.841-11.575-24.841-25.812V290.81l.426-.109a6.2,6.2,0,1,0-2.924,0l.426.109v28.583H362.489c-13.692,0-24.841-11.575-24.841-25.812V274.347c.665.033,1.506.011,1.669.011h19.212l.185-.022c13.572-.4,24.754-11.324,26.009-25.4v-.076l.033-.076a1.2,1.2,0,0,0,.087-.436V226.3l.425-.109a6.2,6.2,0,1,0-2.924,0l.426.109v10.408h-3.24c-13.692,0-24.841-11.575-24.841-25.812v-.753l.425-.109a6.2,6.2,0,1,0-2.924,0l.425.109v1.375l.022.2c.393,14.139,10.877,25.78,24.394,27.089h.087l.087.044a.941.941,0,0,0,.393.087h5.182v7.4c0,14.237-11.139,25.812-24.841,25.812H339.328c-.164,0-.993,0-1.669.055V247.585a1.039,1.039,0,1,0-2.073,0v7.331c-.207,0-.524-.022-.982,0h-3.218c-13.692,0-24.841-11.575-24.841-25.812V191.717l.426-.109a6.2,6.2,0,1,0-2.924,0l.426.109v38.009l.022.2c.393,14.139,10.877,25.78,24.394,27.089h.087l5.629.131a9.377,9.377,0,0,0,.982,0v37.093l.022.2C336,308.571,346.485,320.211,360,321.52h.087l.076.044a1.023,1.023,0,0,0,.393.087h32.925V331.83l.022.2c.393,14.139,10.877,25.78,24.394,27.089h.087l.076.044a1.022,1.022,0,0,0,.393.087H447.65V433.89h-3.644c-13.692,0-24.841-11.575-24.841-25.812v-.7l.447-.087a6.449,6.449,0,1,0-7.353-6.36,6.48,6.48,0,0,0,4.429,6.208l.393.12v1.44l.022.2c.393,14.139,10.877,25.78,24.394,27.089h.087l.076.044a1.023,1.023,0,0,0,.393.087h5.586v72.168H421.991c-13.692,0-24.841-11.575-24.841-25.812V445.083l.426-.109a6.2,6.2,0,1,0-2.924,0l.426.109V470.7H364.093c-13.692,0-24.841-11.575-24.841-25.812v-19.2c.665.011,1.506-.022,1.669-.022h19.212l.185-.022c13.572-.4,24.754-11.324,26.009-25.4v-.076l.033-.076a1.2,1.2,0,0,0,.087-.436V378.48l.426-.109a6.2,6.2,0,1,0-2.924,0l.426.109v19.157c0,14.226-11.139,25.812-24.841,25.812H340.921c-.175,0-1.025.022-1.669.1V398.892a1.039,1.039,0,1,0-2.073,0V409.54H304.7c-13.692,0-24.841-11.575-24.841-25.812V362.606c.447-.022.916-.044.949-.044H288.1c.131,0,.655-.076.655-.076,13.517-1.309,23.914-12.993,24.307-27.176v-.142l.011-4.713.426-.109a6.2,6.2,0,1,0-2.924,0l.426.109v4.091c0,14.226-11.139,25.812-24.841,25.812h-5.346s-.5.011-.949.033v-9.328a1.039,1.039,0,1,0-2.073,0v33.307l.022.2c.393,14.139,10.877,25.78,24.394,27.089h.087l.087.044a.936.936,0,0,0,.393.076h34.42v33.755l.022.2c.393,14.139,10.877,25.78,24.394,27.089h.087l.076.044a1.023,1.023,0,0,0,.393.087h32.925v10.179l.022.2c.393,14.139,10.877,25.78,24.394,27.089h.087l.076.044a1.022,1.022,0,0,0,.393.087H447.65v21.6l-.055.109a73.111,73.111,0,0,1-20.161,24.983,57.012,57.012,0,0,1-35.795,12.448c-9.961,0-20.718-2.411-31.987-7.157-6.295-2.651-12.273-5.248-17.772-7.7l-.371-.164.065-.545v-20c0-14.237,11.139-25.812,24.841-25.812h.753l.1.425a6.234,6.234,0,0,0,6.011,4.931,6.475,6.475,0,0,0,0-12.939,6.234,6.234,0,0,0-6.011,4.931l-.1.425h-1.353l-.185.022c-11.793.36-22.158,8.891-25.212,20.761l-.109.415h-3.655c-13.692,0-24.841-11.575-24.841-25.812v-.753l.426-.109a6.2,6.2,0,1,0-2.924,0l.426.109V502.1l.022.2c.393,14.139,10.877,25.78,24.394,27.089h.087l.076.044a1.023,1.023,0,0,0,.393.087h5.149l-.087.633c-.065.458-.109.916-.153,1.375v.076l-.033.076a1.2,1.2,0,0,0-.087.436v21.656l-.8-.36c-40.126-18.143-50.741-27.438-61.007-36.428l-.153-.131c-1.222-1.069-2.433-2.127-3.687-3.2-6.808-5.793-9.557-17.521-6.382-27.307,2.651-8.171,8.837-13.026,17-13.332l.109-.022h7.211l.185-.022c13.572-.4,24.754-11.324,26.02-25.4v-.087l.033-.076a1.2,1.2,0,0,0,.087-.436v-6.742l.425-.109a6.2,6.2,0,1,0-2.924,0l.425.109v4.724c0,14.237-11.139,25.812-24.841,25.812h-6.873a1.045,1.045,0,0,0-.24.033h-.055l-.055.022c-8.837.48-15.568,5.869-18.459,14.794-.044.142-.076.284-.12.415l-.251.851-.535-.153c-7.593-2.193-32.554-12.328-35.14-50.545-1.844-17.772,2.749-27.612,6.928-32.74,3.491-4.288,8.139-6.993,12.459-7.244h15.481l.131.371a6.23,6.23,0,0,0,5.815,4.266,6.481,6.481,0,1,0-6.131-7.342l-.065.48H248.8c-4.888.284-10.113,3.284-13.964,8.008a30.645,30.645,0,0,0-4.113,6.742l-.24.524-.524-.262c-5.389-2.651-32.391-17.379-34.66-46.726l-.044-.6h34.933a1.207,1.207,0,0,0,.305-.055l.065-.022h.065c14.281-.949,24.132-10.517,24.514-23.86v-.131l.011-2.5.426-.109a6.2,6.2,0,1,0-2.924,0l.425.109v1.866c0,15.525-12.47,22.485-24.841,22.485H195.146V358.9l-.022-.338c0-.153-.011-.316-.011-.469-.109-37.191,18.241-45.384,47.9-46.53h7.429l.185-.022c13.572-.4,24.765-11.324,26.009-25.4v-.087l.033-.076a1.2,1.2,0,0,0,.087-.436V278.8l.426-.109a6.2,6.2,0,1,0-2.924,0l.426.109v4.724c0,14.226-11.139,25.812-24.841,25.812h-6.906c-6.131.24-14.106.764-21.372,2.738l-.513.142-.164-.5c-2.138-6.437-11.488-39.591,13.921-59.971,17.063-10.364,28.158-11.488,38.064-11.739H288.26l.1.425a6.234,6.234,0,0,0,6.011,4.931,6.475,6.475,0,0,0,0-12.939,6.234,6.234,0,0,0-6.011,4.931l-.1.425h-15.4a69.765,69.765,0,0,0-17.565,2.389l-.535.153-.153-.535c-2.607-9.153-13.91-55.8,19.528-75.451,15.546-8.88,24.4-10.081,31.005-10.081.5,0,.971,0,1.451.011.447,0,.862.011,1.276.011.8,0,1.4-.022,1.975-.076h28.223l.1.425a6.234,6.234,0,0,0,6.011,4.931,6.475,6.475,0,0,0,0-12.939,6.234,6.234,0,0,0-6.011,4.931l-.1.425H309.654a15.735,15.735,0,0,1-1.811.087c-.382,0-.8,0-1.233-.011-.491,0-1-.011-1.549-.011a46.193,46.193,0,0,0-16.975,3.218l-.753.273v-.8c0-3.895,1.429-14.521,14.434-28.943,16.245-18.023,44.315-35.4,83.426-51.657a55.261,55.261,0,0,1,19.561-4.44h.131c-.044.611,0,1.506,0,1.7v33.318c0,14.237-11.139,25.812-24.841,25.812H340.954l-.1-.425a6.234,6.234,0,0,0-6.011-4.931,6.481,6.481,0,0,0,0,12.95,6.234,6.234,0,0,0,6.011-4.931l.1-.425h20.717v26.456a1.2,1.2,0,0,0,.087.436l.033.076v.076c1.266,14.074,12.448,24.994,26.074,25.409h.12l13.932.022.1.425a6.234,6.234,0,0,0,6.011,4.931,6.475,6.475,0,0,0,0-12.939,6.234,6.234,0,0,0-6.011,4.931l-.1.425H388.6c-13.692,0-24.841-11.575-24.841-25.812V132.761h16.888l.185-.022c13.572-.4,24.754-11.324,26.009-25.4v-.076l.033-.076a1.2,1.2,0,0,0,.087-.436V71.416c0-.2.044-1.091,0-1.691h.142a34.737,34.737,0,0,1,16.354,4.658c18.557,10.812,23.958,36.3,24.187,37.486V246.56Z" transform="translate(-192.986 -67.401)" fill="#693fb7"/>
              <path id="Trazado_190093" data-name="Trazado 190093" d="M382.383,519.372c-8.935,0-18.7-2.2-29.02-6.557-4.691-1.975-9.186-3.917-13.408-5.771v-15.6c0-8.7,5.8-15.983,13.539-17.761a13.689,13.689,0,0,0,10.539,4.953,14.109,14.109,0,0,0,0-28.212,13.7,13.7,0,0,0-11.073,5.64,34.953,34.953,0,0,0-27.329,20.827,17.626,17.626,0,0,1-15.1-14.521,14.2,14.2,0,0,0,4.822-10.7,13.836,13.836,0,1,0-27.667,0,14.132,14.132,0,0,0,5.389,11.172c1.756,16.081,13.91,29.052,29.543,31.289v5.029c-30.951-14.674-40.18-22.758-49.126-30.591l-.251-.218c-1.211-1.069-2.422-2.117-3.677-3.186-4.429-3.764-6.262-12.35-4.058-19.125,1.669-5.16,5.04-7.866,10.015-8.051h.316l7.179-.011.316-.044c17.063-.7,31.093-14.2,32.958-31.682a8.859,8.859,0,0,0,.218-1.92V402.18a13.894,13.894,0,0,0,3.786-4.866v5.979l.033.316c.633,17.586,13.67,32.1,30.558,34.093a8.879,8.879,0,0,0,2.018.24h25.289v2.935l.033.316c.633,17.6,13.681,32.107,30.591,34.093a8.2,8.2,0,0,0,2,.24h19.954V487.7A66.829,66.829,0,0,1,413.5,508.56a49.527,49.527,0,0,1-31.1,10.833Z" transform="translate(-183.74 -24.792)" fill="#29083a"/>
              <path id="Trazado_190094" data-name="Trazado 190094" d="M420.7,480c-9.481,0-17.2-8.15-17.2-18.176V429.04a14.178,14.178,0,0,0,5.16-11,13.836,13.836,0,1,0-27.667,0,14.211,14.211,0,0,0,5.16,11v13.375H362.807c-9.48,0-17.2-8.15-17.2-18.176V412.654h13.7l.316-.033c17.063-.7,31.082-14.2,32.958-31.682a8.883,8.883,0,0,0,.218-1.931V362.436a14.178,14.178,0,0,0,5.16-11,13.836,13.836,0,1,0-27.667,0,14.211,14.211,0,0,0,5.16,11V376.99c0,10.015-7.713,18.176-17.2,18.176H345.6V378.245a8.674,8.674,0,1,0-17.346,0v3.011H303.414c-9.481,0-17.2-8.15-17.2-18.176V349.552h.611a10.757,10.757,0,0,0,1.6-.131c17.085-1.756,30.329-16.408,30.984-34.224l.033-.262V314.4a14.154,14.154,0,0,0,5.16-10.986,13.836,13.836,0,1,0-27.667,0,14.163,14.163,0,0,0,5.149,10.986c-.24,9.317-7.157,16.9-15.863,17.608v-1.6a8.674,8.674,0,1,0-17.346,0v29.172a13.778,13.778,0,0,0-11.226,6.088H247.077c-7.091.426-14.183,4.364-19.441,10.822-.447.556-.895,1.124-1.309,1.724-7.517-4.833-19.31-14.51-23.379-29.554h25.965a8.308,8.308,0,0,0,1.56-.153c17.117-1.353,29.6-13.255,30.929-29.358a14.26,14.26,0,0,0-.862-22.8,35.52,35.52,0,0,0,22.387-29.478,9.079,9.079,0,0,0,.218-1.953v-2.138a14.178,14.178,0,0,0,5.16-11,13.836,13.836,0,1,0-27.667,0,14.211,14.211,0,0,0,5.16,11v.12c0,10.015-7.713,18.176-17.2,18.176h-7.2l-.2.011a124.816,124.816,0,0,0-15.939,1.495c-2.313-10.79-3.928-31.529,12.71-45.2,15.164-9.121,24.634-10.124,33.766-10.364h10.539a13.639,13.639,0,0,0,19.67,2.127,34.338,34.338,0,0,0,24.743,14.881v30.034l.033.316c.633,17.6,13.681,32.1,30.58,34.082a8.786,8.786,0,0,0,2.007.24h25.289v2.924l.033.316c.633,17.6,13.67,32.107,30.569,34.1a8.862,8.862,0,0,0,2.007.24H438.76v58.88a17.8,17.8,0,0,1-12.83-13.877,14.231,14.231,0,0,0,5.106-10.953,13.836,13.836,0,1,0-27.667,0,14.3,14.3,0,0,0,5.018,10.855c1.658,16.5,14.259,29.794,30.373,31.714v57.134H420.748Z" transform="translate(-191.699 -46.786)" fill="#6836bf"/>
              <path id="Trazado_190095" data-name="Trazado 190095" d="M255.946,438.563c-8.728-4.375-22.092-15.284-23.87-41.435l-.022-.273c-1.571-15.154,1.986-23.118,5.258-27.122,2.466-3.022,5.171-4.266,6.819-4.429h10.9a13.733,13.733,0,0,0,10.244,4.637,13.525,13.525,0,0,0,7.56-2.3,34.191,34.191,0,0,0,22.9,13,8.309,8.309,0,0,0,2.018.24h26.783v8.291a13.836,13.836,0,0,0-12.47-8,13.989,13.989,0,0,0-13.833,14.106,14.211,14.211,0,0,0,5.16,11v.12c0,10.015-7.713,18.176-17.2,18.176h-6.873a8.348,8.348,0,0,0-1.266.1,27.113,27.113,0,0,0-22.1,13.877Z" transform="translate(-187.989 -28.926)" fill="#29083a"/>
              <path id="Trazado_190096" data-name="Trazado 190096" d="M201.778,322.967c1.7-26.085,15.241-31.627,40.235-32.609h.731a14.294,14.294,0,0,0,1.364,20.358c-1.636,11.63-14.335,12.252-17.03,12.252h-25.3Z" transform="translate(-191.85 -38.605)" fill="#6836bf"/>
              <path id="Trazado_190097" data-name="Trazado 190097" d="M285.711,143.618a59.356,59.356,0,0,1,9.742-14c15.481-17.172,42.635-33.907,80.688-49.715a56.163,56.163,0,0,1,9.12-2.891v26.423c0,10.026-7.713,18.176-17.2,18.176H333.714a13.674,13.674,0,0,0-10.866-5.368,13.989,13.989,0,0,0-13.833,14.106,14.138,14.138,0,0,0,7.833,12.71h-19.6l-.415.055a9.425,9.425,0,0,1-.971.033c-.349,0-.72,0-1.113-.011-.567,0-1.1-.011-1.669-.011a50.848,50.848,0,0,0-7.375.5Z" transform="translate(-181.011 -66.159)" fill="#f7ca18"/>
              <path id="Trazado_190098" data-name="Trazado 190098" d="M431.664,111.648V532.326a1.167,1.167,0,0,0,.1.469,74.053,74.053,0,0,0,20.968,26.172,59.177,59.177,0,0,0,37.235,12.775c10.255,0,21.208-2.422,32.544-7.211,58.072-24.5,70.5-35.38,82.51-45.908,0,0,2.618-2.084,3.818-3.306,7.244-5.6,9.71-16.092,8.008-25.867l-.087-.48.469-.142c7.953-2.422,34.136-13.375,36.777-52.5.982-9.47.273-17.75-2.117-24.612l-.164-.458.436-.218c5.749-2.826,34.518-18.514,36.122-50.032v-.065l.022-.065a1.05,1.05,0,0,0,.055-.349.947.947,0,0,0-.044-.284l-.022-.076.022-.611c.022-.491.044-.993.044-1.495.076-24.8-8.029-39.122-25.507-45.09l-.524-.175.164-.524c2.182-6.709,11.728-41.25-14.706-62.36a.735.735,0,0,0-.12-.076,88.546,88.546,0,0,0-18.536-8.771l-.5-.164.142-.513c2.673-9.448,14.226-57.6-20.532-78.026a107.041,107.041,0,0,0-11.815-5.891l-.371-.153.033-.4c.578-6.884-1.473-43.279-99.169-83.874A56.647,56.647,0,0,0,475.7,67.42a36.706,36.706,0,0,0-19.386,5.335c-19.234,11.684-24.623,38.511-24.667,38.773v.142Zm2.084.153c.229-1.189,5.618-26.674,24.187-37.486a34.6,34.6,0,0,1,16.343-4.648h.142c-.033.589,0,1.484,0,1.68v35.336a1.2,1.2,0,0,0,.087.436l.033.076v.076c1.266,14.074,12.448,24.994,26.02,25.4l.185.022h16.888v24.438c0,14.237-11.139,25.812-24.841,25.812H479.471l-.1-.425a6.234,6.234,0,0,0-6.011-4.931,6.475,6.475,0,0,0,0,12.939,6.234,6.234,0,0,0,6.011-4.931l.1-.425H493.4l.131-.022c13.637-.415,24.819-11.335,26.063-25.409v-.076l.044-.076a1.2,1.2,0,0,0,.087-.436V132.693h20.718l.1.425a6.234,6.234,0,0,0,6.011,4.931,6.481,6.481,0,0,0,0-12.95,6.234,6.234,0,0,0-6.011,4.931l-.1.425H501.355c-13.692,0-24.841-11.575-24.841-25.812V71.326c0-.2.033-1.091,0-1.7h.131a55.313,55.313,0,0,1,19.561,4.44c39.111,16.255,67.182,33.635,83.426,51.657,12.993,14.423,14.422,25.038,14.433,28.943v.8l-.753-.273a46.194,46.194,0,0,0-16.975-3.218c-.546,0-1.058,0-1.549.011-.436,0-.84.011-1.233.011a16.142,16.142,0,0,1-1.811-.076H543.336l-.1-.436a6.234,6.234,0,0,0-6.011-4.931,6.475,6.475,0,0,0,0,12.939,6.234,6.234,0,0,0,6.011-4.931l.1-.425h28.223c.589.055,1.178.076,1.975.076.4,0,.829,0,1.276-.011.48,0,.949-.011,1.462-.011,6.611,0,15.459,1.2,31.005,10.081,33.438,19.648,22.136,66.3,19.528,75.451l-.153.535-.534-.153a69.844,69.844,0,0,0-17.576-2.389h-15.4l-.1-.425a6.234,6.234,0,0,0-6.011-4.931,6.475,6.475,0,0,0,0,12.939,6.234,6.234,0,0,0,6.011-4.931l.1-.426h15.383c9.917.262,21.012,1.375,38.075,11.739,25.409,20.379,16.059,53.534,13.921,59.971l-.164.5-.513-.142c-7.255-1.986-15.23-2.509-21.372-2.738h-6.906c-13.692,0-24.841-11.575-24.841-25.812V278.73l.425-.109a6.415,6.415,0,0,0,4.735-6.284,6.2,6.2,0,1,0-7.659,6.284l.425.109v6.742a1.2,1.2,0,0,0,.087.436l.033.076v.087c1.266,14.073,12.448,24.994,26.02,25.4l.185.022h7.43c29.663,1.146,48.024,9.339,47.9,46.53,0,.153,0,.316-.011.469v.338l-.022.545H653.186c-12.361,0-24.841-6.949-24.841-22.485v-1.866l.426-.109a6.2,6.2,0,1,0-2.924,0l.425.109v2.5l.022.131c.382,13.343,10.233,22.9,24.514,23.849h.065l.065.033a.878.878,0,0,0,.316.055h34.933l-.044.6c-2.269,29.347-29.282,44.064-34.671,46.726l-.524.262-.24-.524a30.393,30.393,0,0,0-4.113-6.742c-3.862-4.724-9.077-7.724-13.964-8.008h-15.3l-.065-.48a6.218,6.218,0,1,0-6.131,7.342,6.23,6.23,0,0,0,5.815-4.266l.131-.371h15.481c4.32.251,8.957,2.967,12.459,7.244,4.178,5.128,8.771,14.968,6.928,32.74-2.586,38.217-27.558,48.352-35.14,50.545l-.535.153-.251-.851c-.033-.142-.076-.284-.12-.415-2.891-8.924-9.611-14.314-18.459-14.794h-.055l-.055-.022a1.128,1.128,0,0,0-.24-.033h-6.873c-13.692,0-24.841-11.575-24.841-25.812v-4.724l.426-.109a6.415,6.415,0,0,0,4.735-6.284,6.2,6.2,0,1,0-7.659,6.284l.425.109V446.9a1.2,1.2,0,0,0,.087.436l.033.076v.087c1.266,14.073,12.448,24.994,26.02,25.4l.185.022h7.211l.109.022c8.16.305,14.346,5.16,17,13.332,3.164,9.775.425,21.514-6.382,27.307-1.255,1.069-2.466,2.127-3.687,3.2l-.142.131c-10.266,8.99-20.881,18.285-61.007,36.427l-.785.36V532.042a1.2,1.2,0,0,0-.087-.436l-.033-.076v-.076q-.065-.687-.164-1.375l-.087-.633h5.149a1.022,1.022,0,0,0,.393-.087l.076-.033h.087c13.517-1.309,24-12.961,24.4-27.089l.022-.2v-1.386l.425-.109a6.415,6.415,0,0,0,4.735-6.284,6.2,6.2,0,1,0-7.659,6.284l.425.109v.753c0,14.237-11.139,25.812-24.841,25.812h-3.655l-.109-.415c-3.055-11.87-13.419-20.4-25.212-20.761l-.185-.022h-1.353l-.1-.425a6.234,6.234,0,0,0-6.011-4.931,6.475,6.475,0,0,0,0,12.939,6.234,6.234,0,0,0,6.011-4.931l.1-.426h.753c13.692,0,24.841,11.575,24.841,25.812v20l.065.546-.371.164c-5.5,2.455-11.477,5.051-17.772,7.7-11.259,4.746-22.027,7.157-31.987,7.157a57.012,57.012,0,0,1-35.795-12.448,73.111,73.111,0,0,1-20.161-24.983l-.055-.109v-21.6h27.591a.856.856,0,0,0,.393-.087l.076-.033h.087c13.517-1.309,24-12.961,24.394-27.089l.022-.2V472.9h32.925a1.024,1.024,0,0,0,.393-.087l.076-.033h.087c13.517-1.309,24-12.961,24.394-27.089l.022-.2V411.741h34.42a1.253,1.253,0,0,0,.393-.076l.076-.033h.087c13.517-1.309,24-12.961,24.394-27.089l.022-.2V351.04a1.044,1.044,0,1,0-2.084,0v9.328c-.458-.022-.916-.033-.949-.033h-5.346c-13.692,0-24.841-11.575-24.841-25.812v-4.091l.415-.109a6.2,6.2,0,1,0-2.924,0l.426.109v4.713l.022.142c.393,14.183,10.79,25.878,24.307,27.176,0,0,.524.076.654.076h7.288s.5.022.949.044V383.7c0,14.226-11.139,25.812-24.841,25.812H544.253V398.868a1.044,1.044,0,1,0-2.084,0v24.656c-.644-.076-1.495-.1-1.669-.1H521.888c-13.692,0-24.841-11.575-24.841-25.812V378.456l.425-.109a6.2,6.2,0,1,0-2.924,0l.426.109v21.176a1.2,1.2,0,0,0,.087.436l.033.076v.076c1.266,14.074,12.448,24.994,26.02,25.4l.185.022h19.212c.164,0,1,.033,1.669.022v19.2c0,14.237-11.139,25.812-24.841,25.812H486.355V445.059l.425-.109a6.415,6.415,0,0,0,4.735-6.284,6.2,6.2,0,1,0-7.659,6.284l.415.109v37.387c0,14.226-11.139,25.812-24.841,25.812H433.781V436.092h5.586a1.023,1.023,0,0,0,.393-.087l.076-.033h.087c13.517-1.309,24-12.961,24.394-27.089l.022-.2v-1.44l.393-.12a6.48,6.48,0,0,0,4.429-6.208,6.2,6.2,0,1,0-7.353,6.36l.447.087v.7c0,14.237-11.139,25.812-24.841,25.812H433.77V359.233h29.194a1.023,1.023,0,0,0,.393-.087l.076-.033h.087c13.517-1.309,24-12.961,24.394-27.089l.022-.2V321.649h32.925a.855.855,0,0,0,.393-.087l.076-.033h.087c13.517-1.309,24-12.961,24.394-27.089l.022-.2V257.151a7.028,7.028,0,0,0,.982,0l5.629-.12h.087c13.517-1.309,24-12.961,24.394-27.089l.022-.2V191.736l.426-.109a6.415,6.415,0,0,0,4.735-6.284,6.2,6.2,0,1,0-7.659,6.284l.425.109v37.388c0,14.226-11.139,25.812-24.841,25.812h-4.2V247.6a1.044,1.044,0,1,0-2.084,0v24.612c-.676-.044-1.516-.055-1.669-.055H523.47c-13.692,0-24.841-11.575-24.841-25.812v-7.4h5.182a1.022,1.022,0,0,0,.393-.087l.087-.033h.087c13.517-1.309,24.012-12.961,24.4-27.089l.022-.2v-1.375l.425-.109a6.2,6.2,0,1,0-2.924,0l.415.109v.753c0,14.237-11.139,25.812-24.841,25.812h-3.24V226.331l.425-.109a6.415,6.415,0,0,0,4.735-6.284,6.2,6.2,0,1,0-12.393,0,6.415,6.415,0,0,0,4.735,6.284l.425.109V248.38a1.2,1.2,0,0,0,.087.436l.033.076v.076c1.266,14.074,12.448,24.994,26.02,25.4l.185.022H542.1c.164,0,1,.022,1.669-.011v19.234c0,14.226-11.139,25.812-24.841,25.812H487.948V290.84l.425-.109a6.415,6.415,0,0,0,4.735-6.284,6.2,6.2,0,1,0-7.659,6.284l.426.109v40.366c0,14.226-11.139,25.812-24.841,25.812H433.781V248.74h5.182a1.023,1.023,0,0,0,.393-.087l.076-.033h.087c13.517-1.309,24-12.95,24.394-27.089l.022-.2v-3.993l.415-.109a6.2,6.2,0,1,0-2.924,0l.415.109v3.371c0,14.226-11.139,25.812-24.841,25.812h-3.24V111.8Z" transform="translate(-162.162 -67.398)" fill="#693fb7"/>
              <path id="Trazado_190099" data-name="Trazado 190099" d="M457.541,508.541a66.586,66.586,0,0,1-17.27-20.859V475.506h19.954a8.259,8.259,0,0,0,2-.24c16.91-1.986,29.958-16.5,30.591-34.093l.033-.316v-2.935h25.289a8.309,8.309,0,0,0,2.018-.24c16.9-2,29.936-16.5,30.558-34.093l.033-.316v-5.979a14.122,14.122,0,0,0,3.786,4.866v2.149a8.163,8.163,0,0,0,.218,1.92c1.866,17.477,15.9,30.984,32.958,31.682l.316.044h7.495c4.975.2,8.346,2.913,10.015,8.073,2.193,6.775.371,15.361-4.058,19.125-1.255,1.058-2.455,2.116-3.677,3.186l-.251.218c-8.946,7.833-18.176,15.917-49.126,30.591v-5.029c15.623-2.236,27.776-15.208,29.543-31.289a14.2,14.2,0,0,0,5.389-11.172,13.836,13.836,0,1,0-27.667,0,14.169,14.169,0,0,0,4.822,10.7c-1.462,7.724-7.571,13.7-15.1,14.521a34.975,34.975,0,0,0-27.329-20.827,13.7,13.7,0,0,0-11.073-5.64,14.109,14.109,0,0,0,0,28.212,13.706,13.706,0,0,0,10.539-4.953c7.735,1.778,13.539,9.066,13.539,17.761v15.6c-4.222,1.866-8.717,3.8-13.408,5.771-10.321,4.353-20.074,6.557-29.02,6.557a49.55,49.55,0,0,1-31.1-10.833Z" transform="translate(-161.048 -24.794)" fill="#e4bbd7"/>
              <path id="Trazado_190100" data-name="Trazado 190100" d="M440.261,480V422.869c16.114-1.92,28.714-15.219,30.373-31.714a14.3,14.3,0,0,0,5.018-10.855,13.836,13.836,0,1,0-27.667,0,14.247,14.247,0,0,0,5.106,10.953,17.8,17.8,0,0,1-12.83,13.877V346.25h21.558a8.285,8.285,0,0,0,2.007-.24c16.9-2,29.947-16.5,30.58-34.1l.033-.316v-2.924h25.289a8.284,8.284,0,0,0,2.008-.24c16.9-2,29.936-16.5,30.58-34.082l.033-.316V243.994a34.283,34.283,0,0,0,24.743-14.881,13.639,13.639,0,0,0,19.67-2.127h10.528c9.131.24,18.6,1.244,33.766,10.364,16.648,13.681,15.023,34.409,12.71,45.2a127.192,127.192,0,0,0-15.939-1.495l-.2-.022h-7.2c-9.481,0-17.2-8.139-17.2-18.165v-.12a14.178,14.178,0,0,0,5.16-11,13.836,13.836,0,1,0-27.667,0,14.177,14.177,0,0,0,5.16,11v2.138a8.928,8.928,0,0,0,.218,1.953,35.486,35.486,0,0,0,22.387,29.478,14.26,14.26,0,0,0-.862,22.8c1.331,16.1,13.812,28.016,30.929,29.358a8.517,8.517,0,0,0,1.571.153h25.965c-4.069,15.045-15.863,24.732-23.379,29.554-.425-.589-.862-1.167-1.32-1.724-5.258-6.448-12.35-10.386-19.441-10.8h-.218l-10.342-.011a13.766,13.766,0,0,0-11.226-6.088V330.388a8.679,8.679,0,1,0-17.357,0v1.6c-8.706-.709-15.612-8.291-15.863-17.608a14.163,14.163,0,0,0,5.149-10.986,13.836,13.836,0,1,0-27.667,0,14.154,14.154,0,0,0,5.16,10.986v.535l.033.262c.655,17.815,13.9,32.467,30.984,34.224a10.664,10.664,0,0,0,1.6.131h.6v13.528c0,10.015-7.713,18.176-17.2,18.176H550.754v-3.011a8.679,8.679,0,1,0-17.357,0v16.921H520.753c-9.481,0-17.2-8.15-17.2-18.176V362.418a14.178,14.178,0,0,0,5.16-11,13.836,13.836,0,1,0-27.667,0,14.211,14.211,0,0,0,5.16,11V378.99a8.322,8.322,0,0,0,.218,1.931c1.876,17.477,15.9,30.984,32.958,31.682l.316.044h13.7v11.586c0,10.015-7.713,18.176-17.2,18.176H492.846V429.033a14.178,14.178,0,0,0,5.16-11,13.836,13.836,0,1,0-27.667,0,14.211,14.211,0,0,0,5.16,11v32.784c0,10.015-7.713,18.176-17.2,18.176H440.283Z" transform="translate(-161.049 -46.79)" fill="#f7ca18"/>
              <path id="Trazado_190101" data-name="Trazado 190101" d="M584.593,424.685a8.349,8.349,0,0,0-1.266-.1h-6.873c-9.481,0-17.2-8.15-17.2-18.176v-.12a14.178,14.178,0,0,0,5.16-11,13.792,13.792,0,0,0-26.3-6.109v-8.291H564.89a8.308,8.308,0,0,0,2.018-.24,34.191,34.191,0,0,0,22.9-13,13.559,13.559,0,0,0,7.56,2.3,13.733,13.733,0,0,0,10.244-4.637h10.9c1.647.164,4.353,1.407,6.819,4.429,3.262,4,6.83,11.968,5.259,27.121l-.022.273c-1.767,26.15-15.132,37.071-23.87,41.435a27.128,27.128,0,0,0-22.1-13.877Z" transform="translate(-148.412 -28.925)" fill="#e4bbd7"/>
              <path id="Trazado_190102" data-name="Trazado 190102" d="M629.774,322.967c-2.684,0-15.383-.622-17.03-12.252a14.295,14.295,0,0,0,1.364-20.357h.731c24.994.993,38.533,6.535,40.235,32.609h-25.3Z" transform="translate(-138.772 -38.605)" fill="#f7ca18"/>
              <path id="Trazado_190103" data-name="Trazado 190103" d="M570.321,143.118c-.567,0-1.1,0-1.669.011-.393,0-.764.011-1.113.011a9.443,9.443,0,0,1-.971-.033l-.414-.044h-19.6a14.175,14.175,0,0,0,7.833-12.721,13.989,13.989,0,0,0-13.833-14.106,13.674,13.674,0,0,0-10.866,5.368H495.349c-9.48,0-17.2-8.15-17.2-18.176V77a56.5,56.5,0,0,1,9.12,2.891c38.064,15.819,65.207,32.544,80.688,49.715a59.355,59.355,0,0,1,9.742,14,50.71,50.71,0,0,0-7.364-.5Z" transform="translate(-156.156 -66.161)" fill="#ae4688"/>
              <path id="Trazado_190104" data-name="Trazado 190104" d="M400.56,187.368A13.674,13.674,0,0,1,389.694,182h-9.677l-.262-.033c-16.572-.7-30.274-13.452-32.784-30.264A13.651,13.651,0,0,1,325.85,151H302.711c-.709.055-1.44.076-2.313.076-.36,0-1.385-.011-1.385-.011-.447,0-.884-.011-1.342-.011-5.608,0-13.223,1.08-27.143,9.022-23.9,14.052-20.685,45.559-17.63,60.309a85.482,85.482,0,0,1,12.3-1.08h10.855a13.674,13.674,0,0,1,10.866-5.368,13.945,13.945,0,0,1,2.444.218V185.524a14.178,14.178,0,0,1-5.16-11,13.836,13.836,0,1,1,27.667,0,14.211,14.211,0,0,1-5.16,11v32.784c0,8.782,5.935,16.135,13.779,17.816a8.673,8.673,0,0,1,17.325.676v16.921h12.644c9.481,0,17.2-8.15,17.2-18.176v-.055c-15.819-2.084-28.158-15.132-29.936-31.344a14.2,14.2,0,0,1-5.389-11.172,13.836,13.836,0,1,1,27.667,0,14.21,14.21,0,0,1-4.822,10.713,18.115,18.115,0,0,0,9.306,12.753,14.288,14.288,0,0,1-2-7.309,13.836,13.836,0,1,1,27.667,0,14.2,14.2,0,0,1-5.16,11v17.445a8.927,8.927,0,0,1-.218,1.953c-1.887,17.466-15.906,30.962-32.958,31.649l-.316.044H337.8v11.586c0,10.015,7.713,18.176,17.2,18.176h23.347V284.628a14.178,14.178,0,0,1-5.16-11,13.836,13.836,0,1,1,27.667,0,14.138,14.138,0,0,1-5.16,10.986v35.762c0,10.026,7.713,18.176,17.2,18.176h19.616v-93.3c-16.681-2.193-29.5-16.594-30.122-34.038v-.087a14.227,14.227,0,0,1,3.556-24.121l-.415-.611a13.407,13.407,0,0,1-5,.971Z" transform="translate(-185.519 -56.605)" fill="#fff"/>
              <path id="Trazado_190105" data-name="Trazado 190105" d="M406.832,220.594A18.007,18.007,0,0,0,419.6,236.97V111.345c-.884-3.786-6.088-23.379-20.39-31.714a26.563,26.563,0,0,0-5.018-2.258V105.4a9,9,0,0,1-.218,1.953c-1.887,17.477-15.928,30.984-32.991,31.66l-.316.033h-9.677v16.8c0,10.015,7.713,18.176,17.2,18.176h8.575a13.674,13.674,0,0,1,10.866-5.368,13.989,13.989,0,0,1,13.833,14.106,14.13,14.13,0,0,1-8.837,13.146l.415.611a13.452,13.452,0,0,1,5.084-1,13.989,13.989,0,0,1,13.833,14.106,14.176,14.176,0,0,1-5.117,10.964Z" transform="translate(-172.579 -66.113)" fill="#f7ca18"/>
              <path id="Trazado_190106" data-name="Trazado 190106" d="M458.412,182.769a13.989,13.989,0,0,1,13.834-14.106,13.675,13.675,0,0,1,10.866,5.368h8.575c9.491,0,17.2-8.15,17.2-18.176v-16.8h-9.677l-.316-.033c-17.063-.676-31.1-14.183-32.991-31.66a8.931,8.931,0,0,1-.218-1.953V77.382a26.257,26.257,0,0,0-5.018,2.258c-14.3,8.335-19.507,27.929-20.39,31.714V236.98A18.007,18.007,0,0,0,453.044,220.6a14.176,14.176,0,0,1-5.117-10.964,13.989,13.989,0,0,1,13.833-14.106,13.476,13.476,0,0,1,5.182,1.036l.338-.644a14.111,14.111,0,0,1-8.859-13.146Z" transform="translate(-161.047 -66.112)" fill="#ae4688"/>
              <path id="Trazado_190107" data-name="Trazado 190107" d="M472.244,187.367a13.7,13.7,0,0,0,10.866-5.357h9.677l.262-.033c16.572-.7,30.274-13.452,32.784-30.263A13.651,13.651,0,0,0,546.954,151h23.139c.709.055,1.44.076,2.313.076.36,0,1.386-.011,1.386-.011.447,0,.884-.011,1.342-.011,5.608,0,13.223,1.08,27.143,9.022,23.9,14.052,20.685,45.559,17.63,60.309a85.48,85.48,0,0,0-12.3-1.08H596.757a13.675,13.675,0,0,0-10.866-5.368,13.943,13.943,0,0,0-2.444.218V185.534a14.179,14.179,0,0,0,5.16-11,13.836,13.836,0,1,0-27.667,0,14.211,14.211,0,0,0,5.16,11v32.784c0,8.782-5.935,16.135-13.779,17.816A8.673,8.673,0,0,0,535,236.81V253.73H522.353c-9.481,0-17.2-8.15-17.2-18.176V235.5c15.819-2.084,28.158-15.132,29.936-31.344a14.2,14.2,0,0,0,5.389-11.172,13.836,13.836,0,1,0-27.667,0,14.21,14.21,0,0,0,4.822,10.713,18.115,18.115,0,0,1-9.306,12.753,14.288,14.288,0,0,0,2-7.309,13.836,13.836,0,1,0-27.667,0,14.2,14.2,0,0,0,5.16,11v17.445a8.931,8.931,0,0,0,.218,1.953c1.887,17.466,15.906,30.962,32.958,31.649l.316.044h13.7v11.586c0,10.015-7.713,18.176-17.2,18.176H494.456V284.638a14.178,14.178,0,0,0,5.16-11,13.836,13.836,0,1,0-27.667,0,14.138,14.138,0,0,0,5.16,10.986v35.762c0,10.026-7.713,18.176-17.2,18.176H440.29v-93.3c16.681-2.193,29.5-16.594,30.122-34.038v-.087a14.227,14.227,0,0,0-3.557-24.121l.415-.611a13.407,13.407,0,0,0,5,.971Z" transform="translate(-161.045 -56.603)" fill="#b13e8d"/>
            </g>
            <g id="Grupo_133451" data-name="Grupo 133451">
              <g id="Grupo_133449" data-name="Grupo 133449">
                <path id="Trazado_190108" data-name="Trazado 190108" d="M381.817,86.833a4.541,4.541,0,0,0-2.193.589L351.314,43.609l-.251.164v-.295h-107.7v.6H350.9L379.112,87.75a4.511,4.511,0,1,0,2.695-.906Z" transform="translate(-78.659 -43.478)" fill="#29083a" stroke="#29083a" stroke-miterlimit="10" stroke-width="1.932"/>
                <path id="Trazado_190109" data-name="Trazado 190109" d="M277.954,181.51a5.531,5.531,0,0,0-2.444.589l-31.518-43.813-.273.164v-.295H123.778v.6H243.533l31.42,43.671a4.375,4.375,0,0,0-2.04,3.622,5.069,5.069,0,1,0,5.04-4.528Z" transform="translate(-94.103 -31.251)" fill="#29083a" stroke="#29083a" stroke-miterlimit="10" stroke-width="1.932"/>
                <path id="Trazado_190110" data-name="Trazado 190110" d="M235.942,348.157a4.54,4.54,0,0,0-2.193.589l-28.311-43.813-.251.164V304.8H97.5v.6H205.034l28.212,43.671a4.511,4.511,0,1,0,2.695-.905Z" transform="translate(-97.498 -9.728)" fill="#29083a" stroke="#29083a" stroke-miterlimit="10" stroke-width="1.932"/>
                <path id="Trazado_190111" data-name="Trazado 190111" d="M290.61,461.161a4.541,4.541,0,0,1-2.193-.589l-28.311,43.813-.251-.164v.295h-107.7v-.589H259.691L287.9,460.256a4.511,4.511,0,1,1,2.695.905Z" transform="translate(-90.438 9.297)" fill="#29083a" stroke="#29083a" stroke-miterlimit="10" stroke-width="1.932"/>
              </g>
              <g id="Grupo_133450" data-name="Grupo 133450" transform="translate(438.831 8.608)">
                <path id="Trazado_190112" data-name="Trazado 190112" d="M490.652,94.457a4.541,4.541,0,0,1,2.193.589l28.311-43.813.251.164V51.1h107.7v.6H521.57L493.357,95.373a4.511,4.511,0,1,1-2.695-.906Z" transform="translate(-486.135 -51.101)" fill="#29083a" stroke="#29083a" stroke-miterlimit="10" stroke-width="1.932"/>
                <path id="Trazado_190113" data-name="Trazado 190113" d="M594.362,181.51a4.541,4.541,0,0,1,2.193.589l28.311-43.813.251.164v-.295h107.7v.6H625.28l-28.212,43.671a4.511,4.511,0,1,1-2.695-.905Z" transform="translate(-454.741 44.142)" fill="#29083a" stroke="#29083a" stroke-miterlimit="10" stroke-width="1.932"/>
                <path id="Trazado_190114" data-name="Trazado 190114" d="M636.014,345.22a4.541,4.541,0,0,1,2.193.589L666.518,302l.251.164v-.295h107.7v.6H666.932L638.72,346.136a4.511,4.511,0,1,1-2.695-.905Z" transform="translate(-534.361 98.285)" fill="#29083a" stroke="#29083a" stroke-miterlimit="10" stroke-width="1.932"/>
              </g>
            </g>
          </g>
          <path id="Rectángulo_40717-2" data-name="Rectángulo 40717-2" d="M152.175,0h76.368a10.914,10.914,0,0,1,10.91,10.91V98.187H152.175a10.914,10.914,0,0,1-10.91-10.91V10.91A10.907,10.907,0,0,1,152.175,0Z" transform="translate(18.245)" fill="#ebebeb"/>
          <path id="Rectángulo_40717-2-2" data-name="Rectángulo 40717-2" d="M33.576,94.676h76.368a10.914,10.914,0,0,1,10.91,10.91v87.278H33.576a10.914,10.914,0,0,1-10.91-10.91V105.586A10.914,10.914,0,0,1,33.576,94.676Z" transform="translate(2.927 12.228)" fill="#ebebeb"/>
          <path id="Rectángulo_40717-2-3" data-name="Rectángulo 40717-2" d="M10.91,261.324H87.278a10.914,10.914,0,0,1,10.91,10.91v87.278H10.91A10.914,10.914,0,0,1,0,348.6V272.233A10.914,10.914,0,0,1,10.91,261.324Z" transform="translate(0 33.751)" fill="#ebebeb"/>
          <path id="Rectángulo_40717-2-4" data-name="Rectángulo 40717-2" d="M729.675,10.91V87.278a10.914,10.914,0,0,1-10.91,10.91H631.488V10.91A10.914,10.914,0,0,1,642.4,0h76.368A10.914,10.914,0,0,1,729.675,10.91Z" transform="translate(81.559)" fill="#ebebeb"/>
          <path id="Rectángulo_40717-2-5" data-name="Rectángulo 40717-2" d="M870.941,272.233V348.6a10.914,10.914,0,0,1-10.91,10.91H772.754V272.233a10.914,10.914,0,0,1,10.91-10.91h76.368A10.914,10.914,0,0,1,870.941,272.233Z" transform="translate(28.059 148.734)" fill="#ebebeb"/>
          <path id="Rectángulo_40717-2-6" data-name="Rectángulo 40717-2" d="M64.929,455.044H141.3a10.914,10.914,0,0,1,10.91,10.91v87.278H64.929a10.914,10.914,0,0,1-10.91-10.91V465.953a10.914,10.914,0,0,1,10.91-10.91Z" transform="translate(6.977 58.77)" fill="#ebebeb"/>
          <g id="Grupo_133453" data-name="Grupo 133453" transform="translate(181.865 14.292)">
            <path id="Trazado_190115" data-name="Trazado 190115" d="M187.8,82.261a1.72,1.72,0,0,0,1.036-.349c1.047-.8,25.7-19.736,25.7-42.515a26.74,26.74,0,1,0-53.479,0c0,22.779,24.656,41.73,25.7,42.515A1.744,1.744,0,0,0,187.8,82.261ZM164.51,39.386a23.292,23.292,0,1,1,46.584,0c0,18.525-18.645,35.086-23.292,38.937C183.144,74.482,164.51,57.932,164.51,39.386Z" transform="translate(-161.063 -12.657)" fill="#6836bf"/>
            <path id="Trazado_190116" data-name="Trazado 190116" d="M199.165,37.819a12.95,12.95,0,1,0-12.95,12.95A12.965,12.965,0,0,0,199.165,37.819Zm-22.441,0a9.5,9.5,0,1,1,9.5,9.5A9.517,9.517,0,0,1,176.724,37.819Z" transform="translate(-159.487 -11.08)" fill="#6836bf"/>
          </g>
          <g id="Grupo_133454" data-name="Grupo 133454" transform="translate(73.226 526.054)">
            <path id="Trazado_190117" data-name="Trazado 190117" d="M130.81,490.933h-.862V473.641a7.766,7.766,0,0,0-7.757-7.757H81.935a7.766,7.766,0,0,0-7.757,7.757v5.924H72.607a7.766,7.766,0,0,0-7.757,7.757V515.97a7.765,7.765,0,0,0,7.037,7.724l3.677,6.36a1.426,1.426,0,0,0,2.466,0l3.655-6.328H99.15V524.8a7.766,7.766,0,0,0,7.757,7.757H121.93l3.655,6.328a1.426,1.426,0,0,0,2.466,0l3.687-6.382a7.764,7.764,0,0,0,6.84-7.7V498.69a7.766,7.766,0,0,0-7.757-7.757ZM80.866,520.891a1.447,1.447,0,0,0-1.233.709L76.8,526.509,73.96,521.6a1.42,1.42,0,0,0-1.233-.709h-.12a4.921,4.921,0,0,1-4.92-4.92V487.322a4.921,4.921,0,0,1,4.92-4.92h1.571v13.343a7.758,7.758,0,0,0,7.386,7.746l4.691,8.128a1.426,1.426,0,0,0,2.466,0l4.691-8.117H99.15v17.39H80.866Zm18.285-22.2v1.975H92.594a1.447,1.447,0,0,0-1.233.709l-3.873,6.709-3.873-6.709a1.42,1.42,0,0,0-1.233-.709h-.458a4.921,4.921,0,0,1-4.92-4.92V473.652a4.921,4.921,0,0,1,4.92-4.92h40.257a4.921,4.921,0,0,1,4.92,4.92v17.292H106.9a7.766,7.766,0,0,0-7.757,7.757Zm36.58,26.107a4.921,4.921,0,0,1-4.92,4.92,1.415,1.415,0,0,0-1.375,1.08l-2.618,4.538-2.837-4.909a1.42,1.42,0,0,0-1.233-.709H106.907a4.921,4.921,0,0,1-4.92-4.92V498.689a4.921,4.921,0,0,1,4.92-4.92h23.9a4.921,4.921,0,0,1,4.92,4.92V524.8Z" transform="translate(-64.85 -465.884)" fill="#6836bf"/>
            <path id="Trazado_190118" data-name="Trazado 190118" d="M116.723,480.046a1.415,1.415,0,0,0-1.418-1.418H84.2a1.418,1.418,0,1,0,0,2.837h31.1A1.415,1.415,0,0,0,116.723,480.046Z" transform="translate(-62.534 -464.238)" fill="#6836bf"/>
            <path id="Trazado_190119" data-name="Trazado 190119" d="M90.745,486.155H84.211a1.418,1.418,0,1,0,0,2.836h6.535a1.418,1.418,0,1,0,0-2.836Z" transform="translate(-62.533 -463.266)" fill="#6836bf"/>
            <path id="Trazado_190120" data-name="Trazado 190120" d="M123.375,499.517H104.491a1.418,1.418,0,1,0,0,2.836h18.885a1.418,1.418,0,1,0,0-2.836Z" transform="translate(-59.914 -461.54)" fill="#6836bf"/>
            <path id="Trazado_190121" data-name="Trazado 190121" d="M113.405,507.053h-8.924a1.418,1.418,0,1,0,0,2.836h8.924a1.418,1.418,0,1,0,0-2.836Z" transform="translate(-59.915 -460.567)" fill="#6836bf"/>
          </g>
          <g id="Grupo_133456" data-name="Grupo 133456" transform="translate(800.932 414.776)">
            <path id="Trazado_190130" data-name="Trazado 190130" d="M832.287,303.374s-3.931-1.55-5.346-2.1a10.974,10.974,0,1,0-18.357.01c-2.1.811-5.356,2.08-5.356,2.08-2.766,1.071-6.948,2.694-6.948,8.425v10.993a1.536,1.536,0,0,0,1.539,1.539h39.886a1.536,1.536,0,0,0,1.539-1.539V311.789c0-5.731-4.181-7.353-6.948-8.425Zm-14.53-16a7.894,7.894,0,1,1-7.894,7.894A7.9,7.9,0,0,1,817.758,287.378Zm18.409,33.875h-5.98v-5.044a1.539,1.539,0,1,0-3.078,0v5.044h-18.69v-5.044a1.539,1.539,0,1,0-3.079,0v5.044h-5.98V311.8c0-3.37,1.976-4.389,4.982-5.554,0,0,3.931-1.539,6.438-2.507a10.963,10.963,0,0,0,13.979,0c2.5.967,6.438,2.507,6.438,2.507,3.016,1.165,4.982,2.184,4.982,5.554v9.454Z" transform="translate(-768.783 -261.979)" fill="#6836bf"/>
            <path id="Trazado_190131" data-name="Trazado 190131" d="M858.847,327.736a7.051,7.051,0,0,0-2.579-3.827,39.511,39.511,0,0,0-30.12-52.18,7.128,7.128,0,0,0-14.145,0,39.511,39.511,0,0,0-30.12,52.18,7.141,7.141,0,0,0,4.327,12.814,6.9,6.9,0,0,0,2.767-.572,39.452,39.452,0,0,0,60.2,0,7.139,7.139,0,0,0,9.673-8.414Zm-39.772-59.159a4.056,4.056,0,1,1-4.056,4.056A4.062,4.062,0,0,1,819.074,268.577ZM785.148,333.5a4.057,4.057,0,0,1,1.04-7.977,4.123,4.123,0,0,1,1.061.135,4,4,0,0,1,2.465,1.893,4.059,4.059,0,0,1-4.566,5.949Zm33.927,13.521a36.36,36.36,0,0,1-27.583-12.668,7.133,7.133,0,0,0-6.8-11.753,36.426,36.426,0,0,1,27.593-47.8,7.134,7.134,0,0,0,13.583,0,36.426,36.426,0,0,1,27.593,47.8,7.134,7.134,0,0,0-6.8,11.753A36.36,36.36,0,0,1,819.074,347.019ZM855.466,331.6a4.059,4.059,0,1,1-4.566-5.949,4.123,4.123,0,0,1,1.061-.135,4.053,4.053,0,0,1,3.911,3.006A4.03,4.03,0,0,1,855.466,331.6Z" transform="translate(-770.1 -263.417)" fill="#6836bf"/>
          </g>
          <path id="Trazado_190132" data-name="Trazado 190132" d="M80.744,114.982A8.508,8.508,0,1,0,75.2,118.32a8.4,8.4,0,0,0,5.542-3.338Zm-2.531-1.876a5.222,5.222,0,0,1-3.48,2.095,5.3,5.3,0,1,1-1.593-10.484,5.035,5.035,0,0,1,.807-.065,5.311,5.311,0,0,1,4.266,8.455Zm19.659,8.248a5.251,5.251,0,0,0-2.837-7.659,5.314,5.314,0,0,0-6.262,2.389l-3.96,6.709a2.314,2.314,0,0,1-2.935.938l-5.706-2.52a22.011,22.011,0,0,0-9.415-1.866l-8.3.229a13.748,13.748,0,0,0-13.375,12.8L44.6,139.2a5.253,5.253,0,0,0,6.655,5.433,5.365,5.365,0,0,0,3.84-4.822l.5-6.949a3.026,3.026,0,0,1,2.924-2.815l3.175-.109-3.753,15.819a9.522,9.522,0,0,0-.4,5.073,9.049,9.049,0,0,0,.425,1.451l-3.12,7.986s-12.993,14.335-13,14.346a5.731,5.731,0,0,0-1.462,4.168,5.777,5.777,0,0,0,10.07,3.546l13.626-15.034a7.374,7.374,0,0,0,1.2-2.007l.1-.218,2.837-7.255,9.142,1.571-2.8,10.517a5.767,5.767,0,0,0,5.586,7.244,5.806,5.806,0,0,0,5.6-4.309l4.429-16.583a5.8,5.8,0,0,0-4.124-7.069c-.1-.022-.2-.044-.284-.055a3.73,3.73,0,0,0-.469-.12l-10.266-1.866c.742-3.24,2.236-10.1,2.978-13.517l.742.316a11.493,11.493,0,0,0,14.324-4.637l4.811-8ZM60.146,155.391a10.509,10.509,0,0,0,4.9,1.9l-2.651,6.775a4.352,4.352,0,0,1-.7,1.2L48.113,180.244a2.631,2.631,0,1,1-3.927-3.5L57.375,162.2a1.464,1.464,0,0,0,.295-.48Zm35.009-35.642-4.8,7.986a8.341,8.341,0,0,1-10.386,3.36l-2.5-1.069a1.552,1.552,0,0,0-.622-.131,1.526,1.526,0,0,0-.72.175,1.6,1.6,0,0,0-.818,1.069c-1.266,5.848-3.317,15.219-3.687,16.681-.022.065-.033.142-.044.175a1.6,1.6,0,0,0,.055,1.036,2.333,2.333,0,0,0,.109.24A1.6,1.6,0,0,0,72.8,150l12.164,2.247a.444.444,0,0,0,.109.022c.044,0,.2.033.24.033A2.62,2.62,0,0,1,87.1,155.49l-4.429,16.583a2.628,2.628,0,1,1-5.084-1.331l3.251-12.175a1.588,1.588,0,0,0-.2-1.255,1.544,1.544,0,0,0-1.058-.7l-10.2-1.756s-3.142-.546-3.175-.546c-2.695-.36-4.047-1.058-4.8-2.127a5.247,5.247,0,0,1-.786-1.975,6.5,6.5,0,0,1,.316-3.447.908.908,0,0,0,.044-.164l.556-2.346L65.23,128.7a1.578,1.578,0,0,0-.316-1.364,1.557,1.557,0,0,0-1.276-.578l-5.248.175a6.161,6.161,0,0,0-5.957,5.739l-.5,6.949a2.223,2.223,0,0,1-1.538,2.018,2.007,2.007,0,0,1-.949.044,2.094,2.094,0,0,1-1.713-2.215l.48-6.829a10.6,10.6,0,0,1,10.31-9.873l8.3-.229a18.817,18.817,0,0,1,8.062,1.593l5.706,2.52a5.463,5.463,0,0,0,6.917-2.226l3.96-6.709a2.165,2.165,0,0,1,2.509-1.015,2.11,2.11,0,0,1,1.156,3.077Z" transform="translate(5.214 13.109)" fill="#6836bf"/>
          <g id="_12" data-name="12" transform="translate(11.881 311.341)">
            <path id="Trazado_190133" data-name="Trazado 190133" d="M25.533,318.873c0,2.913-3.36,5.269-7.506,5.269s-7.506-2.356-7.506-5.269,3.36-5.269,7.506-5.269a10,10,0,0,1,3.5.611" transform="translate(-10.522 -270.838)" fill="none" stroke="#6836bf" stroke-miterlimit="10" stroke-width="2.899"/>
            <path id="Trazado_190134" data-name="Trazado 190134" d="M69.978,329.8c0,2.913-3.36,5.269-7.506,5.269s-7.506-2.357-7.506-5.269,3.36-5.269,7.506-5.269a10,10,0,0,1,3.5.611" transform="translate(-4.782 -269.427)" fill="none" stroke="#6836bf" stroke-miterlimit="10" stroke-width="2.899"/>
            <line id="Línea_402" data-name="Línea 402" y2="25.049" transform="translate(47.599 14.03)" fill="none" stroke="#6836bf" stroke-miterlimit="10" stroke-width="2.899"/>
            <path id="Trazado_190135" data-name="Trazado 190135" d="M23.816,292.127,56.4,283.17v-7.44L23.816,284.7v39.068" transform="translate(-8.805 -275.729)" fill="none" stroke="#6836bf" stroke-miterlimit="10" stroke-width="2.899"/>
            <ellipse id="Elipse_5194" data-name="Elipse 5194" cx="7.506" cy="5.269" rx="7.506" ry="5.269" transform="translate(32.598 33.809)" fill="none" stroke="#6836bf" stroke-miterlimit="10" stroke-width="2.899"/>
            <path id="Trazado_190136" data-name="Trazado 190136" d="M68.261,333.542V295.565s9.23,3.273,9.23,13.452" transform="translate(-3.065 -273.168)" fill="none" stroke="#6836bf" stroke-miterlimit="10" stroke-width="2.899"/>
          </g>
          <g id="Grupo_133459" data-name="Grupo 133459" transform="translate(724.284 8.035)">
            <g id="Grupo_133457" data-name="Grupo 133457" transform="translate(0 3.191)">
              <path id="Trazado_190137" data-name="Trazado 190137" d="M708.272,9.942H650.331a8.907,8.907,0,0,0-8.891,8.891V76.775a8.907,8.907,0,0,0,8.891,8.891h57.941a8.907,8.907,0,0,0,8.891-8.891V18.833a8.907,8.907,0,0,0-8.891-8.891Zm7.091,8.891V46.9H680.2V11.742h28.071A7.1,7.1,0,0,1,715.364,18.833ZM650.32,11.742h28.071V46.915H643.229V18.833a7.105,7.105,0,0,1,7.091-7.091Zm-7.091,65.044V48.715h35.162V83.877H650.32A7.1,7.1,0,0,1,643.229,76.786Zm65.044,7.091H680.2V48.7h35.162V76.775a7.1,7.1,0,0,1-7.091,7.091Z" transform="translate(-641.44 -9.942)" fill="#6836bf"/>
              <path id="Trazado_190138" data-name="Trazado 190138" d="M649.88,55h3.742a.895.895,0,1,0,0-1.789H649.88a.895.895,0,0,0,0,1.789Z" transform="translate(-640.465 -4.354)" fill="#6836bf"/>
              <path id="Trazado_190139" data-name="Trazado 190139" d="M658.808,55h9.841a.895.895,0,0,0,0-1.789h-9.841a.895.895,0,0,0,0,1.789Z" transform="translate(-639.312 -4.354)" fill="#6836bf"/>
              <path id="Trazado_190140" data-name="Trazado 190140" d="M669.812,58.309H649.88a.895.895,0,1,0,0,1.789h19.932a.895.895,0,1,0,0-1.789Z" transform="translate(-640.465 -3.695)" fill="#6836bf"/>
              <path id="Trazado_190141" data-name="Trazado 190141" d="M653.612,63.42H649.87a.895.895,0,1,0,0,1.789h3.742a.895.895,0,1,0,0-1.789Z" transform="translate(-640.466 -3.035)" fill="#6836bf"/>
              <path id="Trazado_190142" data-name="Trazado 190142" d="M668.658,63.42h-9.841a.895.895,0,1,0,0,1.789h9.841a.895.895,0,1,0,0-1.789Z" transform="translate(-639.311 -3.035)" fill="#6836bf"/>
            </g>
            <g id="Grupo_133458" data-name="Grupo 133458" transform="translate(9.906)">
              <text id="_" data-name="=" transform="translate(0 31)" fill="#6836bf" font-size="30" font-family="Roboto-Bold, Roboto" font-weight="700"><tspan x="0" y="0">=</tspan></text>
              <text id="_2" data-name="%" transform="translate(33.995 33.771)" fill="#6836bf" font-size="30" font-family="Roboto-Black, Roboto" font-weight="800"><tspan x="0" y="0">%</tspan></text>
              <text id="_3" data-name="+" transform="translate(37.311 66.718)" fill="#6836bf" font-size="30" font-family="Roboto-Bold, Roboto" font-weight="700"><tspan x="0" y="0">+</tspan></text>
            </g>
          </g>
        </g>
      </g>
    </g>
    <path id="Trazado_190417" data-name="Trazado 190417" d="M5.019-12.8l2.856,8.9,2.848-8.9h4.061V0H11.689V-2.988l.3-6.117L8.895,0H6.855l-3.1-9.114.3,6.126V0H.967V-12.8ZM22.271-1.028a3.054,3.054,0,0,1-2.54,1.2,3,3,0,0,1-2.369-.91,3.826,3.826,0,0,1-.8-2.615V-9.51h2.962v6.179a1.065,1.065,0,0,0,1.187,1.222,1.548,1.548,0,0,0,1.45-.729V-9.51h2.979V0H22.359Zm9.466-1.644a.684.684,0,0,0-.4-.606,6.016,6.016,0,0,0-1.5-.475A6.853,6.853,0,0,1,28.011-4.4a3.062,3.062,0,0,1-1.1-.971,2.319,2.319,0,0,1-.378-1.31,2.628,2.628,0,0,1,1.081-2.158,4.453,4.453,0,0,1,2.83-.848,4.934,4.934,0,0,1,3.023.853,2.666,2.666,0,0,1,1.143,2.241H31.641q0-1.143-1.2-1.143a1.194,1.194,0,0,0-.782.259.8.8,0,0,0-.316.646.737.737,0,0,0,.387.642,3.654,3.654,0,0,0,1.235.4,10.671,10.671,0,0,1,1.49.378A2.706,2.706,0,0,1,34.594-2.76,2.491,2.491,0,0,1,33.438-.642a5.068,5.068,0,0,1-2.993.817,5.172,5.172,0,0,1-2.18-.439,3.645,3.645,0,0,1-1.494-1.2,2.707,2.707,0,0,1-.536-1.591H29a1.145,1.145,0,0,0,.439.962,1.808,1.808,0,0,0,1.081.3,1.422,1.422,0,0,0,.91-.246A.787.787,0,0,0,31.737-2.672ZM39.1,0H36.132V-9.51H39.1ZM35.956-11.962A1.322,1.322,0,0,1,36.413-13a1.724,1.724,0,0,1,1.187-.4,1.724,1.724,0,0,1,1.187.4,1.322,1.322,0,0,1,.457,1.037,1.322,1.322,0,0,1-.457,1.037,1.724,1.724,0,0,1-1.187.4,1.724,1.724,0,0,1-1.187-.4A1.322,1.322,0,0,1,35.956-11.962Zm8.991,9.853a1.317,1.317,0,0,0,.967-.338,1.241,1.241,0,0,0,.334-.945h2.777A3.288,3.288,0,0,1,47.9-.826a4.168,4.168,0,0,1-2.887,1,4.22,4.22,0,0,1-3.27-1.3,5.125,5.125,0,0,1-1.2-3.6v-.123A5.792,5.792,0,0,1,41.084-7.4a3.872,3.872,0,0,1,1.534-1.7,4.573,4.573,0,0,1,2.373-.593,4.116,4.116,0,0,1,2.944,1.028,3.647,3.647,0,0,1,1.09,2.786H46.248A1.626,1.626,0,0,0,45.888-7a1.244,1.244,0,0,0-.967-.4q-1.151,0-1.345,1.468a10.357,10.357,0,0,0-.062,1.283,4.068,4.068,0,0,0,.343,1.986A1.187,1.187,0,0,0,44.947-2.109ZM55.635,0a3.344,3.344,0,0,1-.281-.853A2.754,2.754,0,0,1,53.068.176a3.374,3.374,0,0,1-2.285-.813,2.588,2.588,0,0,1-.94-2.043,2.66,2.66,0,0,1,1.143-2.338,5.821,5.821,0,0,1,3.322-.791h.914v-.5q0-1.316-1.134-1.316a.927.927,0,0,0-1.055,1.042H50.071a2.655,2.655,0,0,1,1.173-2.239,4.931,4.931,0,0,1,2.993-.86,4.323,4.323,0,0,1,2.874.888,3.086,3.086,0,0,1,1.081,2.435v4.21a4.311,4.311,0,0,0,.4,2V0ZM53.78-1.934a1.652,1.652,0,0,0,.918-.237,1.487,1.487,0,0,0,.523-.536V-4.228H54.36q-1.547,0-1.547,1.389a.848.848,0,0,0,.272.655A.986.986,0,0,0,53.78-1.934ZM62.956,0H59.985V-13.5h2.971Z" transform="translate(349 5138)" fill="#12263f"/>
    <path id="Trazado_190416" data-name="Trazado 190416" d="M4.052-2.373h5.37V0H.967V-12.8H4.052ZM13.711,0H10.74V-9.51h2.971ZM10.564-11.962A1.322,1.322,0,0,1,11.021-13a1.724,1.724,0,0,1,1.187-.4,1.724,1.724,0,0,1,1.187.4,1.322,1.322,0,0,1,.457,1.037,1.322,1.322,0,0,1-.457,1.037,1.724,1.724,0,0,1-1.187.4,1.724,1.724,0,0,1-1.187-.4A1.322,1.322,0,0,1,10.564-11.962Zm7.69,2.452.1,1.116a3.225,3.225,0,0,1,2.716-1.292,2.713,2.713,0,0,1,2.219.888,4.226,4.226,0,0,1,.76,2.672V0H21.076V-6a1.6,1.6,0,0,0-.29-1.059A1.342,1.342,0,0,0,19.731-7.4a1.413,1.413,0,0,0-1.292.686V0H15.478V-9.51Zm7.084,4.685a6.421,6.421,0,0,1,.475-2.549,3.821,3.821,0,0,1,1.362-1.709,3.591,3.591,0,0,1,2.065-.6,2.855,2.855,0,0,1,2.32,1l.105-.826h2.689V-.36a4.009,4.009,0,0,1-.584,2.184A3.75,3.75,0,0,1,32.08,3.248a6.219,6.219,0,0,1-2.566.5,5.365,5.365,0,0,1-2.026-.4,3.657,3.657,0,0,1-1.5-1.028L27.229.58a2.716,2.716,0,0,0,2.18.976A1.764,1.764,0,0,0,31.377-.466v-.3a2.781,2.781,0,0,1-2.153.94,3.437,3.437,0,0,1-2.812-1.332A5.517,5.517,0,0,1,25.339-4.72Zm2.971.185a3.383,3.383,0,0,0,.439,1.85,1.386,1.386,0,0,0,1.23.681,1.573,1.573,0,0,0,1.4-.642v-4A1.534,1.534,0,0,0,30-7.4a1.4,1.4,0,0,0-1.239.708A3.858,3.858,0,0,0,28.31-4.641ZM41.7-1.028a3.054,3.054,0,0,1-2.54,1.2A3,3,0,0,1,36.8-.734a3.826,3.826,0,0,1-.8-2.615V-9.51h2.962v6.179A1.065,1.065,0,0,0,40.14-2.109a1.548,1.548,0,0,0,1.45-.729V-9.51h2.979V0H41.792ZM36.65-12a1.071,1.071,0,0,1,.382-.826,1.364,1.364,0,0,1,.945-.343,1.364,1.364,0,0,1,.945.343A1.071,1.071,0,0,1,39.3-12a1.071,1.071,0,0,1-.382.826,1.364,1.364,0,0,1-.945.343,1.364,1.364,0,0,1-.945-.343A1.071,1.071,0,0,1,36.65-12Zm4.562,0a1.071,1.071,0,0,1,.382-.826,1.364,1.364,0,0,1,.945-.343,1.364,1.364,0,0,1,.945.343,1.071,1.071,0,0,1,.382.826,1.071,1.071,0,0,1-.382.826,1.364,1.364,0,0,1-.945.343,1.364,1.364,0,0,1-.945-.343A1.071,1.071,0,0,1,41.212-12ZM49.421,0H46.441V-9.51h2.979ZM48.313-13.324h3.129L49-10.564l-2.417,0ZM56.3-2.672a.684.684,0,0,0-.4-.606,6.016,6.016,0,0,0-1.5-.475A6.853,6.853,0,0,1,52.576-4.4a3.062,3.062,0,0,1-1.1-.971A2.319,2.319,0,0,1,51.1-6.68a2.628,2.628,0,0,1,1.081-2.158,4.453,4.453,0,0,1,2.83-.848,4.934,4.934,0,0,1,3.023.853,2.666,2.666,0,0,1,1.143,2.241H56.206q0-1.143-1.2-1.143a1.194,1.194,0,0,0-.782.259.8.8,0,0,0-.316.646.737.737,0,0,0,.387.642,3.654,3.654,0,0,0,1.235.4,10.671,10.671,0,0,1,1.49.378A2.706,2.706,0,0,1,59.159-2.76,2.491,2.491,0,0,1,58-.642a5.068,5.068,0,0,1-2.993.817,5.172,5.172,0,0,1-2.18-.439,3.645,3.645,0,0,1-1.494-1.2A2.707,2.707,0,0,1,50.8-3.05h2.769a1.145,1.145,0,0,0,.439.962,1.808,1.808,0,0,0,1.081.3A1.422,1.422,0,0,0,56-2.03.787.787,0,0,0,56.3-2.672Zm7.69-9.2V-9.51h1.564v2.057H63.993V-3.1a1.111,1.111,0,0,0,.193.747,1.037,1.037,0,0,0,.765.211,4.345,4.345,0,0,0,.738-.053V-.079a5.466,5.466,0,0,1-1.67.255,3.1,3.1,0,0,1-2.259-.721,2.954,2.954,0,0,1-.729-2.188v-4.72H59.818V-9.51h1.213v-2.364ZM69.847,0H66.876V-9.51h2.971ZM66.7-11.962A1.322,1.322,0,0,1,67.157-13a1.724,1.724,0,0,1,1.187-.4,1.724,1.724,0,0,1,1.187.4,1.322,1.322,0,0,1,.457,1.037,1.322,1.322,0,0,1-.457,1.037,1.724,1.724,0,0,1-1.187.4,1.724,1.724,0,0,1-1.187-.4A1.322,1.322,0,0,1,66.7-11.962Zm8.991,9.853a1.317,1.317,0,0,0,.967-.338,1.241,1.241,0,0,0,.334-.945H79.77A3.288,3.288,0,0,1,78.649-.826a4.168,4.168,0,0,1-2.887,1,4.22,4.22,0,0,1-3.27-1.3,5.125,5.125,0,0,1-1.2-3.6v-.123A5.792,5.792,0,0,1,71.829-7.4a3.872,3.872,0,0,1,1.534-1.7,4.573,4.573,0,0,1,2.373-.593A4.116,4.116,0,0,1,78.68-8.657a3.647,3.647,0,0,1,1.09,2.786H76.992A1.626,1.626,0,0,0,76.632-7a1.244,1.244,0,0,0-.967-.4q-1.151,0-1.345,1.468a10.357,10.357,0,0,0-.062,1.283A4.068,4.068,0,0,0,74.6-2.663,1.187,1.187,0,0,0,75.691-2.109Zm4.957-2.733A5.613,5.613,0,0,1,81.2-7.378a3.96,3.96,0,0,1,1.591-1.709,4.791,4.791,0,0,1,2.435-.6,4.373,4.373,0,0,1,3.366,1.323,5.076,5.076,0,0,1,1.23,3.6v.105a4.925,4.925,0,0,1-1.235,3.529A4.384,4.384,0,0,1,85.245.176a4.434,4.434,0,0,1-3.261-1.217,4.761,4.761,0,0,1-1.327-3.3Zm2.962.185a3.538,3.538,0,0,0,.413,1.934,1.376,1.376,0,0,0,1.222.615q1.582,0,1.617-2.435v-.3q0-2.558-1.635-2.558-1.485,0-1.608,2.206Z" transform="translate(394 5355)" fill="#12263f"/>
    <path id="Trazado_190415" data-name="Trazado 190415" d="M4.254,0H1.178V-12.8H4.254ZM8.982-9.51l.1,1.116a3.225,3.225,0,0,1,2.716-1.292,2.713,2.713,0,0,1,2.219.888,4.226,4.226,0,0,1,.76,2.672V0H11.8V-6a1.6,1.6,0,0,0-.29-1.059A1.342,1.342,0,0,0,10.459-7.4a1.413,1.413,0,0,0-1.292.686V0H6.205V-9.51Zm10.881-2.364V-9.51h1.564v2.057H19.863V-3.1a1.111,1.111,0,0,0,.193.747,1.037,1.037,0,0,0,.765.211A4.345,4.345,0,0,0,21.56-2.2V-.079a5.466,5.466,0,0,1-1.67.255,3.1,3.1,0,0,1-2.259-.721A2.954,2.954,0,0,1,16.9-2.733v-4.72H15.688V-9.51H16.9v-2.364Zm8.481,5.045-.976-.07a1.752,1.752,0,0,0-1.793.879V0H22.614V-9.51h2.777l.1,1.222a2.294,2.294,0,0,1,2.083-1.4,2.888,2.888,0,0,1,.826.105ZM34.506,0a3.344,3.344,0,0,1-.281-.853A2.754,2.754,0,0,1,31.939.176a3.374,3.374,0,0,1-2.285-.813,2.588,2.588,0,0,1-.94-2.043,2.66,2.66,0,0,1,1.143-2.338,5.821,5.821,0,0,1,3.322-.791h.914v-.5q0-1.316-1.134-1.316A.927.927,0,0,0,31.9-6.587H28.942a2.655,2.655,0,0,1,1.173-2.239,4.931,4.931,0,0,1,2.993-.86,4.323,4.323,0,0,1,2.874.888,3.086,3.086,0,0,1,1.081,2.435v4.21a4.311,4.311,0,0,0,.4,2V0ZM32.651-1.934a1.652,1.652,0,0,0,.918-.237,1.487,1.487,0,0,0,.523-.536V-4.228h-.861q-1.547,0-1.547,1.389a.848.848,0,0,0,.272.655A.986.986,0,0,0,32.651-1.934Zm14.88-2.751a5.735,5.735,0,0,1-1,3.538A3.2,3.2,0,0,1,43.84.176a2.742,2.742,0,0,1-2.153-.958V3.656H38.725V-9.51h2.769l.088.879a2.742,2.742,0,0,1,2.241-1.055,3.224,3.224,0,0,1,2.733,1.3,5.805,5.805,0,0,1,.976,3.564Zm-2.962-.185q0-2.531-1.477-2.531a1.394,1.394,0,0,0-1.406.756V-2.9a1.439,1.439,0,0,0,1.424.791q1.415,0,1.459-2.443ZM53.438.176A4.889,4.889,0,0,1,49.9-1.129a4.507,4.507,0,0,1-1.354-3.4v-.246a5.84,5.84,0,0,1,.541-2.575A3.955,3.955,0,0,1,50.66-9.075a4.763,4.763,0,0,1,2.461-.611,4.117,4.117,0,0,1,3.164,1.244,4.887,4.887,0,0,1,1.16,3.467v1.151H51.557a2.135,2.135,0,0,0,.694,1.257,2.066,2.066,0,0,0,1.389.457,2.662,2.662,0,0,0,2.2-.984l1.354,1.6A3.784,3.784,0,0,1,55.622-.277,5.3,5.3,0,0,1,53.438.176ZM53.1-7.4q-1.3,0-1.547,1.723h2.988v-.229a1.467,1.467,0,0,0-.36-1.1A1.434,1.434,0,0,0,53.1-7.4Zm11.285.571-.976-.07a1.752,1.752,0,0,0-1.793.879V0H58.658V-9.51h2.777l.1,1.222a2.294,2.294,0,0,1,2.083-1.4,2.888,2.888,0,0,1,.826.105Zm6.047,4.157a.684.684,0,0,0-.4-.606,6.016,6.016,0,0,0-1.5-.475A6.853,6.853,0,0,1,66.709-4.4a3.062,3.062,0,0,1-1.1-.971,2.319,2.319,0,0,1-.378-1.31,2.628,2.628,0,0,1,1.081-2.158,4.453,4.453,0,0,1,2.83-.848,4.934,4.934,0,0,1,3.023.853A2.666,2.666,0,0,1,73.31-6.592H70.339q0-1.143-1.2-1.143a1.194,1.194,0,0,0-.782.259.8.8,0,0,0-.316.646.737.737,0,0,0,.387.642,3.654,3.654,0,0,0,1.235.4,10.671,10.671,0,0,1,1.49.378A2.706,2.706,0,0,1,73.292-2.76,2.491,2.491,0,0,1,72.136-.642a5.068,5.068,0,0,1-2.993.817,5.172,5.172,0,0,1-2.18-.439,3.645,3.645,0,0,1-1.494-1.2,2.707,2.707,0,0,1-.536-1.591H67.7a1.145,1.145,0,0,0,.439.962,1.808,1.808,0,0,0,1.081.3,1.422,1.422,0,0,0,.91-.246A.787.787,0,0,0,70.436-2.672ZM74.3-4.843a5.613,5.613,0,0,1,.554-2.536,3.96,3.96,0,0,1,1.591-1.709,4.791,4.791,0,0,1,2.435-.6,4.373,4.373,0,0,1,3.366,1.323,5.076,5.076,0,0,1,1.23,3.6v.105a4.925,4.925,0,0,1-1.235,3.529A4.384,4.384,0,0,1,78.9.176a4.434,4.434,0,0,1-3.261-1.217,4.761,4.761,0,0,1-1.327-3.3Zm2.962.185a3.538,3.538,0,0,0,.413,1.934,1.376,1.376,0,0,0,1.222.615q1.582,0,1.617-2.435v-.3q0-2.558-1.635-2.558-1.485,0-1.608,2.206ZM87.5-9.51l.1,1.116a3.225,3.225,0,0,1,2.716-1.292,2.713,2.713,0,0,1,2.219.888,4.226,4.226,0,0,1,.76,2.672V0H90.325V-6a1.6,1.6,0,0,0-.29-1.059A1.342,1.342,0,0,0,88.98-7.4a1.413,1.413,0,0,0-1.292.686V0H84.727V-9.51ZM100.292,0a3.344,3.344,0,0,1-.281-.853A2.754,2.754,0,0,1,97.726.176,3.374,3.374,0,0,1,95.44-.637a2.588,2.588,0,0,1-.94-2.043,2.66,2.66,0,0,1,1.143-2.338,5.821,5.821,0,0,1,3.322-.791h.914v-.5q0-1.316-1.134-1.316A.927.927,0,0,0,97.69-6.587H94.729A2.655,2.655,0,0,1,95.9-8.825a4.931,4.931,0,0,1,2.993-.86,4.323,4.323,0,0,1,2.874.888,3.086,3.086,0,0,1,1.081,2.435v4.21a4.311,4.311,0,0,0,.4,2V0ZM98.438-1.934a1.652,1.652,0,0,0,.918-.237,1.487,1.487,0,0,0,.523-.536V-4.228h-.861q-1.547,0-1.547,1.389a.848.848,0,0,0,.272.655A.986.986,0,0,0,98.438-1.934ZM107.613,0h-2.971V-13.5h2.971Z" transform="translate(1122 5250)" fill="#12263f"/>
    <g id="Grupo_133469" data-name="Grupo 133469" transform="translate(43 87)">
      <path id="Rectángulo_40717-2-7" data-name="Rectángulo 40717-2" d="M829.192,105.586v76.368a10.914,10.914,0,0,1-10.91,10.91H731V105.586a10.914,10.914,0,0,1,10.91-10.91h76.368A10.914,10.914,0,0,1,829.192,105.586Z" transform="translate(393.995 4733.227)" fill="#ebebeb"/>
      <g id="Grupo_133455" data-name="Grupo 133455" transform="translate(1135.993 4839.666)">
        <path id="Trazado_190122" data-name="Trazado 190122" d="M759.771,169.266a2.244,2.244,0,1,0,2.244,2.244A2.251,2.251,0,0,0,759.771,169.266Z" transform="translate(-737.321 -99.092)" fill="#6836bf"/>
        <path id="Trazado_190123" data-name="Trazado 190123" d="M750.205,169.266a2.244,2.244,0,1,0,2.244,2.244A2.251,2.251,0,0,0,750.205,169.266Z" transform="translate(-737.853 -99.092)" fill="#6836bf"/>
        <path id="Trazado_190124" data-name="Trazado 190124" d="M740.64,169.266a2.244,2.244,0,1,0,2.244,2.244A2.251,2.251,0,0,0,740.64,169.266Z" transform="translate(-738.386 -99.092)" fill="#6836bf"/>
        <path id="Trazado_190125" data-name="Trazado 190125" d="M740.64,159.7a2.244,2.244,0,1,0,2.244,2.244A2.251,2.251,0,0,0,740.64,159.7Z" transform="translate(-738.386 -99.624)" fill="#6836bf"/>
        <path id="Trazado_190126" data-name="Trazado 190126" d="M740.64,150.135a2.244,2.244,0,1,0,2.244,2.244A2.251,2.251,0,0,0,740.64,150.135Z" transform="translate(-738.386 -100.157)" fill="#6836bf"/>
        <path id="Trazado_190127" data-name="Trazado 190127" d="M776.146,128.832v4.559a1.469,1.469,0,1,0,2.938,0v-4.559c0-5.436-3.968-6.977-6.589-7.986,0,0-3.07-1.193-5.049-1.969a10.4,10.4,0,1,0-17.421,0c-1.979.765-5.049,1.969-5.049,1.969-2.621,1.02-6.589,2.56-6.589,7.986v13.882a1.469,1.469,0,0,0,2.938,0V128.832c0-3.182,1.867-4.141,4.712-5.243,0,0,3.713-1.448,6.079-2.366a10.287,10.287,0,0,0,2.754,1.632L752.217,135a1.484,1.484,0,0,0,.286,1.234l5.079,6.334a1.476,1.476,0,0,0,1.153.551,1.491,1.491,0,0,0,1.153-.551l5.079-6.334a1.45,1.45,0,0,0,.286-1.234L762.6,122.855a10.4,10.4,0,0,0,2.754-1.632c2.366.918,6.079,2.366,6.079,2.366C774.279,124.691,776.146,125.65,776.146,128.832Zm-17.4-23.1a7.456,7.456,0,1,1-7.456,7.456A7.465,7.465,0,0,1,758.745,105.73Zm3.488,29.212-3.488,4.355-3.488-4.355,2.489-11.393c.326.031.663.051,1,.051s.673-.02,1-.051Z" transform="translate(-738.386 -102.792)" fill="#6836bf"/>
        <path id="Trazado_190128" data-name="Trazado 190128" d="M804.688,147s-3.07-1.193-5.049-1.969a10.4,10.4,0,1,0-17.421,0c-1.979.765-5.049,1.969-5.049,1.969-2.621,1.02-6.589,2.56-6.589,7.986v19.543A1.469,1.469,0,0,0,772.048,176H809.8a1.469,1.469,0,0,0,1.469-1.469V154.987c0-5.436-3.968-6.977-6.589-7.986Zm-13.759-15.106a7.456,7.456,0,1,1-7.456,7.456A7.465,7.465,0,0,1,790.928,131.895Zm3.488,29.212-3.488,4.355-3.488-4.355,2.489-11.393c.326.031.663.051,1,.051s.673-.02,1-.051Zm13.912,11.954H773.517V155c0-3.182,1.867-4.141,4.712-5.243,0,0,3.713-1.448,6.079-2.366a10.286,10.286,0,0,0,2.754,1.632l-2.652,12.148a1.484,1.484,0,0,0,.286,1.234l5.079,6.334a1.476,1.476,0,0,0,1.153.551,1.491,1.491,0,0,0,1.153-.551l5.079-6.334a1.45,1.45,0,0,0,.286-1.234l-2.652-12.148a10.561,10.561,0,0,0,2.754-1.632c2.366.918,6.079,2.366,6.079,2.366,2.846,1.1,4.712,2.06,4.712,5.243V173.06Z" transform="translate(-736.594 -101.336)" fill="#6836bf"/>
        <path id="Trazado_190129" data-name="Trazado 190129" d="M804.465,102.792H786.309a7.9,7.9,0,0,0-7.884,7.884v6.456a7.9,7.9,0,0,0,7.884,7.884h13.056c.969.357,4.641,2.081,3.5,7.619a1.466,1.466,0,0,0,.612,1.51,1.435,1.435,0,0,0,.826.255,1.512,1.512,0,0,0,.806-.235c4.773-3.111,6.354-6.824,4.794-11.332a7.9,7.9,0,0,0,2.458-5.7v-6.456a7.9,7.9,0,0,0-7.884-7.884Zm4.947,14.341a4.964,4.964,0,0,1-2.122,4.049,1.471,1.471,0,0,0-.51,1.765c.02.041.031.071.051.112,1.142,2.642.918,4.7-.847,6.63a8.586,8.586,0,0,0-5.967-7.548,1.363,1.363,0,0,0-.408-.061H786.32a4.958,4.958,0,0,1-4.947-4.947v-6.456a4.958,4.958,0,0,1,4.947-4.947h18.155a4.958,4.958,0,0,1,4.947,4.947v6.456Z" transform="translate(-736.157 -102.792)" fill="#6836bf"/>
      </g>
      <path id="Trazado_190421" data-name="Trazado 190421" d="M4.254,0H1.178V-12.8H4.254ZM8.982-9.51l.1,1.116a3.225,3.225,0,0,1,2.716-1.292,2.713,2.713,0,0,1,2.219.888,4.226,4.226,0,0,1,.76,2.672V0H11.8V-6a1.6,1.6,0,0,0-.29-1.059A1.342,1.342,0,0,0,10.459-7.4a1.413,1.413,0,0,0-1.292.686V0H6.205V-9.51Zm10.881-2.364V-9.51h1.564v2.057H19.863V-3.1a1.111,1.111,0,0,0,.193.747,1.037,1.037,0,0,0,.765.211A4.345,4.345,0,0,0,21.56-2.2V-.079a5.466,5.466,0,0,1-1.67.255,3.1,3.1,0,0,1-2.259-.721A2.954,2.954,0,0,1,16.9-2.733v-4.72H15.688V-9.51H16.9v-2.364ZM27.193.176a4.889,4.889,0,0,1-3.542-1.305,4.507,4.507,0,0,1-1.354-3.4v-.246a5.84,5.84,0,0,1,.541-2.575,3.955,3.955,0,0,1,1.578-1.727,4.763,4.763,0,0,1,2.461-.611,4.117,4.117,0,0,1,3.164,1.244A4.887,4.887,0,0,1,31.2-4.975v1.151H25.313a2.135,2.135,0,0,0,.694,1.257,2.066,2.066,0,0,0,1.389.457,2.662,2.662,0,0,0,2.2-.984l1.354,1.6A3.784,3.784,0,0,1,29.377-.277,5.3,5.3,0,0,1,27.193.176ZM26.859-7.4q-1.3,0-1.547,1.723H28.3v-.229a1.467,1.467,0,0,0-.36-1.1A1.434,1.434,0,0,0,26.859-7.4Zm11.285.571-.976-.07a1.752,1.752,0,0,0-1.793.879V0H32.414V-9.51h2.777l.1,1.222a2.294,2.294,0,0,1,2.083-1.4,2.888,2.888,0,0,1,.826.105Zm9.9,2.145a5.735,5.735,0,0,1-1,3.538A3.2,3.2,0,0,1,44.35.176,2.742,2.742,0,0,1,42.2-.782V3.656H39.234V-9.51H42l.088.879a2.742,2.742,0,0,1,2.241-1.055,3.224,3.224,0,0,1,2.733,1.3,5.805,5.805,0,0,1,.976,3.564Zm-2.962-.185Q45.079-7.4,43.6-7.4a1.394,1.394,0,0,0-1.406.756V-2.9a1.439,1.439,0,0,0,1.424.791q1.415,0,1.459-2.443ZM53.947.176a4.889,4.889,0,0,1-3.542-1.305,4.507,4.507,0,0,1-1.354-3.4v-.246a5.84,5.84,0,0,1,.541-2.575A3.955,3.955,0,0,1,51.17-9.075a4.763,4.763,0,0,1,2.461-.611,4.117,4.117,0,0,1,3.164,1.244,4.887,4.887,0,0,1,1.16,3.467v1.151H52.066a2.135,2.135,0,0,0,.694,1.257,2.066,2.066,0,0,0,1.389.457,2.662,2.662,0,0,0,2.2-.984l1.354,1.6A3.784,3.784,0,0,1,56.131-.277,5.3,5.3,0,0,1,53.947.176ZM53.613-7.4q-1.3,0-1.547,1.723h2.988v-.229a1.467,1.467,0,0,0-.36-1.1A1.434,1.434,0,0,0,53.613-7.4ZM64.9-6.829l-.976-.07a1.752,1.752,0,0,0-1.793.879V0H59.168V-9.51h2.777l.1,1.222a2.294,2.294,0,0,1,2.083-1.4,2.888,2.888,0,0,1,.826.105Zm6.047,4.157a.684.684,0,0,0-.4-.606,6.016,6.016,0,0,0-1.5-.475A6.853,6.853,0,0,1,67.219-4.4a3.062,3.062,0,0,1-1.1-.971,2.319,2.319,0,0,1-.378-1.31,2.628,2.628,0,0,1,1.081-2.158,4.453,4.453,0,0,1,2.83-.848,4.934,4.934,0,0,1,3.023.853,2.666,2.666,0,0,1,1.143,2.241H70.849q0-1.143-1.2-1.143a1.194,1.194,0,0,0-.782.259.8.8,0,0,0-.316.646.737.737,0,0,0,.387.642,3.654,3.654,0,0,0,1.235.4,10.671,10.671,0,0,1,1.49.378A2.706,2.706,0,0,1,73.8-2.76,2.491,2.491,0,0,1,72.646-.642a5.068,5.068,0,0,1-2.993.817,5.172,5.172,0,0,1-2.18-.439,3.645,3.645,0,0,1-1.494-1.2,2.707,2.707,0,0,1-.536-1.591h2.769a1.145,1.145,0,0,0,.439.962,1.808,1.808,0,0,0,1.081.3,1.422,1.422,0,0,0,.91-.246A.787.787,0,0,0,70.945-2.672Zm3.867-2.171a5.613,5.613,0,0,1,.554-2.536,3.96,3.96,0,0,1,1.591-1.709,4.791,4.791,0,0,1,2.435-.6,4.373,4.373,0,0,1,3.366,1.323,5.076,5.076,0,0,1,1.23,3.6v.105a4.925,4.925,0,0,1-1.235,3.529A4.384,4.384,0,0,1,79.409.176a4.434,4.434,0,0,1-3.261-1.217,4.761,4.761,0,0,1-1.327-3.3Zm2.962.185a3.538,3.538,0,0,0,.413,1.934,1.376,1.376,0,0,0,1.222.615q1.582,0,1.617-2.435v-.3q0-2.558-1.635-2.558-1.485,0-1.608,2.206ZM88.014-9.51l.1,1.116a3.225,3.225,0,0,1,2.716-1.292,2.713,2.713,0,0,1,2.219.888,4.226,4.226,0,0,1,.76,2.672V0H90.835V-6a1.6,1.6,0,0,0-.29-1.059A1.342,1.342,0,0,0,89.49-7.4a1.413,1.413,0,0,0-1.292.686V0H85.236V-9.51ZM100.8,0a3.344,3.344,0,0,1-.281-.853A2.754,2.754,0,0,1,98.235.176,3.374,3.374,0,0,1,95.95-.637a2.588,2.588,0,0,1-.94-2.043,2.66,2.66,0,0,1,1.143-2.338,5.821,5.821,0,0,1,3.322-.791h.914v-.5q0-1.316-1.134-1.316A.927.927,0,0,0,98.2-6.587H95.238a2.655,2.655,0,0,1,1.173-2.239,4.931,4.931,0,0,1,2.993-.86,4.323,4.323,0,0,1,2.874.888,3.086,3.086,0,0,1,1.081,2.435v4.21a4.311,4.311,0,0,0,.4,2V0ZM98.947-1.934a1.652,1.652,0,0,0,.918-.237,1.487,1.487,0,0,0,.523-.536V-4.228h-.861q-1.547,0-1.547,1.389a.848.848,0,0,0,.272.655A.986.986,0,0,0,98.947-1.934ZM108.123,0h-2.971V-13.5h2.971Z" transform="translate(1121 4944)" fill="#12263f"/>
    </g>
    <path id="Trazado_190418" data-name="Trazado 190418" d="M5.317-4.764,4.052-3.375V0H.967V-12.8H4.052v5.643L5.124-8.78,7.884-12.8H11.7L7.374-7.137,11.7,0H8.042ZM15.469,0H12.5V-9.51h2.971ZM12.322-11.962A1.322,1.322,0,0,1,12.779-13a1.724,1.724,0,0,1,1.187-.4,1.724,1.724,0,0,1,1.187.4,1.322,1.322,0,0,1,.457,1.037,1.322,1.322,0,0,1-.457,1.037,1.724,1.724,0,0,1-1.187.4,1.724,1.724,0,0,1-1.187-.4A1.322,1.322,0,0,1,12.322-11.962Zm7.69,2.452.1,1.116a3.225,3.225,0,0,1,2.716-1.292,2.713,2.713,0,0,1,2.219.888,4.226,4.226,0,0,1,.76,2.672V0H22.834V-6a1.6,1.6,0,0,0-.29-1.059A1.342,1.342,0,0,0,21.489-7.4a1.413,1.413,0,0,0-1.292.686V0H17.235V-9.51ZM32.045.176A4.889,4.889,0,0,1,28.5-1.129a4.507,4.507,0,0,1-1.354-3.4v-.246a5.84,5.84,0,0,1,.541-2.575,3.955,3.955,0,0,1,1.578-1.727,4.763,4.763,0,0,1,2.461-.611,4.117,4.117,0,0,1,3.164,1.244,4.887,4.887,0,0,1,1.16,3.467v1.151H30.164a2.135,2.135,0,0,0,.694,1.257,2.066,2.066,0,0,0,1.389.457,2.662,2.662,0,0,0,2.2-.984l1.354,1.6A3.784,3.784,0,0,1,34.229-.277,5.3,5.3,0,0,1,32.045.176ZM31.711-7.4q-1.3,0-1.547,1.723h2.988v-.229a1.467,1.467,0,0,0-.36-1.1A1.434,1.434,0,0,0,31.711-7.4ZM42.223-2.672a.684.684,0,0,0-.4-.606,6.016,6.016,0,0,0-1.5-.475A6.853,6.853,0,0,1,38.5-4.4a3.062,3.062,0,0,1-1.1-.971,2.319,2.319,0,0,1-.378-1.31A2.628,2.628,0,0,1,38.1-8.837a4.453,4.453,0,0,1,2.83-.848,4.934,4.934,0,0,1,3.023.853A2.666,2.666,0,0,1,45.1-6.592H42.126q0-1.143-1.2-1.143a1.194,1.194,0,0,0-.782.259.8.8,0,0,0-.316.646.737.737,0,0,0,.387.642,3.654,3.654,0,0,0,1.235.4,10.671,10.671,0,0,1,1.49.378A2.706,2.706,0,0,1,45.079-2.76,2.491,2.491,0,0,1,43.923-.642a5.068,5.068,0,0,1-2.993.817,5.172,5.172,0,0,1-2.18-.439,3.645,3.645,0,0,1-1.494-1.2,2.707,2.707,0,0,1-.536-1.591h2.769a1.145,1.145,0,0,0,.439.962,1.808,1.808,0,0,0,1.081.3,1.422,1.422,0,0,0,.91-.246A.787.787,0,0,0,42.223-2.672Zm7.69-9.2V-9.51h1.564v2.057H49.913V-3.1a1.111,1.111,0,0,0,.193.747,1.037,1.037,0,0,0,.765.211,4.345,4.345,0,0,0,.738-.053V-.079a5.466,5.466,0,0,1-1.67.255,3.1,3.1,0,0,1-2.259-.721,2.954,2.954,0,0,1-.729-2.188v-4.72H45.738V-9.51h1.213v-2.364ZM57.243.176A4.889,4.889,0,0,1,53.7-1.129a4.507,4.507,0,0,1-1.354-3.4v-.246a5.84,5.84,0,0,1,.541-2.575,3.955,3.955,0,0,1,1.578-1.727,4.763,4.763,0,0,1,2.461-.611,4.117,4.117,0,0,1,3.164,1.244,4.887,4.887,0,0,1,1.16,3.467v1.151H55.362a2.135,2.135,0,0,0,.694,1.257,2.066,2.066,0,0,0,1.389.457,2.662,2.662,0,0,0,2.2-.984L61-1.494A3.784,3.784,0,0,1,59.427-.277,5.3,5.3,0,0,1,57.243.176ZM56.909-7.4q-1.3,0-1.547,1.723h2.988v-.229a1.467,1.467,0,0,0-.36-1.1A1.434,1.434,0,0,0,56.909-7.4Zm-.035-6.108H60l-2.443,2.76-2.417,0ZM67.421-2.672a.684.684,0,0,0-.4-.606,6.016,6.016,0,0,0-1.5-.475A6.853,6.853,0,0,1,63.694-4.4a3.062,3.062,0,0,1-1.1-.971,2.319,2.319,0,0,1-.378-1.31A2.628,2.628,0,0,1,63.3-8.837a4.453,4.453,0,0,1,2.83-.848,4.934,4.934,0,0,1,3.023.853,2.666,2.666,0,0,1,1.143,2.241H67.324q0-1.143-1.2-1.143a1.194,1.194,0,0,0-.782.259.8.8,0,0,0-.316.646.737.737,0,0,0,.387.642,3.654,3.654,0,0,0,1.235.4,10.671,10.671,0,0,1,1.49.378A2.706,2.706,0,0,1,70.277-2.76,2.491,2.491,0,0,1,69.122-.642a5.068,5.068,0,0,1-2.993.817,5.172,5.172,0,0,1-2.18-.439,3.645,3.645,0,0,1-1.494-1.2,2.707,2.707,0,0,1-.536-1.591h2.769a1.145,1.145,0,0,0,.439.962,1.808,1.808,0,0,0,1.081.3,1.422,1.422,0,0,0,.91-.246A.787.787,0,0,0,67.421-2.672ZM74.786,0H71.815V-9.51h2.971ZM71.64-11.962A1.322,1.322,0,0,1,72.1-13a1.724,1.724,0,0,1,1.187-.4,1.724,1.724,0,0,1,1.187.4,1.322,1.322,0,0,1,.457,1.037,1.322,1.322,0,0,1-.457,1.037,1.724,1.724,0,0,1-1.187.4,1.724,1.724,0,0,1-1.187-.4A1.322,1.322,0,0,1,71.64-11.962Zm8.991,9.853a1.317,1.317,0,0,0,.967-.338,1.241,1.241,0,0,0,.334-.945h2.777A3.288,3.288,0,0,1,83.588-.826a4.168,4.168,0,0,1-2.887,1,4.22,4.22,0,0,1-3.27-1.3,5.125,5.125,0,0,1-1.2-3.6v-.123A5.792,5.792,0,0,1,76.768-7.4a3.872,3.872,0,0,1,1.534-1.7,4.573,4.573,0,0,1,2.373-.593,4.116,4.116,0,0,1,2.944,1.028,3.647,3.647,0,0,1,1.09,2.786H81.932A1.626,1.626,0,0,0,81.571-7a1.244,1.244,0,0,0-.967-.4q-1.151,0-1.345,1.468A10.357,10.357,0,0,0,79.2-4.649a4.068,4.068,0,0,0,.343,1.986A1.187,1.187,0,0,0,80.631-2.109Zm4.957-2.733a5.613,5.613,0,0,1,.554-2.536,3.96,3.96,0,0,1,1.591-1.709,4.791,4.791,0,0,1,2.435-.6,4.373,4.373,0,0,1,3.366,1.323,5.076,5.076,0,0,1,1.23,3.6v.105a4.925,4.925,0,0,1-1.235,3.529A4.384,4.384,0,0,1,90.185.176a4.434,4.434,0,0,1-3.261-1.217,4.761,4.761,0,0,1-1.327-3.3Zm2.962.185a3.538,3.538,0,0,0,.413,1.934,1.376,1.376,0,0,0,1.222.615q1.582,0,1.617-2.435v-.3Q91.8-7.4,90.167-7.4q-1.485,0-1.608,2.206Z" transform="translate(356 4947)" fill="#12263f"/>
    <path id="Trazado_190419" data-name="Trazado 190419" d="M8.9-5.432H4.052v3.059h5.73V0H.967V-12.8H9.8v2.382H4.052v2.7H8.9Zm6.979,2.76a.684.684,0,0,0-.4-.606,6.016,6.016,0,0,0-1.5-.475A6.853,6.853,0,0,1,12.155-4.4a3.062,3.062,0,0,1-1.1-.971,2.319,2.319,0,0,1-.378-1.31A2.628,2.628,0,0,1,11.76-8.837a4.453,4.453,0,0,1,2.83-.848,4.934,4.934,0,0,1,3.023.853,2.666,2.666,0,0,1,1.143,2.241H15.785q0-1.143-1.2-1.143a1.194,1.194,0,0,0-.782.259.8.8,0,0,0-.316.646.737.737,0,0,0,.387.642,3.654,3.654,0,0,0,1.235.4,10.671,10.671,0,0,1,1.49.378A2.706,2.706,0,0,1,18.738-2.76,2.491,2.491,0,0,1,17.583-.642,5.068,5.068,0,0,1,14.59.176a5.172,5.172,0,0,1-2.18-.439,3.645,3.645,0,0,1-1.494-1.2A2.707,2.707,0,0,1,10.38-3.05h2.769a1.145,1.145,0,0,0,.439.962,1.808,1.808,0,0,0,1.081.3,1.422,1.422,0,0,0,.91-.246A.787.787,0,0,0,15.882-2.672ZM28.951-4.685a5.735,5.735,0,0,1-1,3.538A3.2,3.2,0,0,1,25.26.176a2.742,2.742,0,0,1-2.153-.958V3.656H20.145V-9.51h2.769L23-8.631a2.742,2.742,0,0,1,2.241-1.055,3.224,3.224,0,0,1,2.733,1.3,5.805,5.805,0,0,1,.976,3.564Zm-2.962-.185q0-2.531-1.477-2.531a1.394,1.394,0,0,0-1.406.756V-2.9a1.439,1.439,0,0,0,1.424.791q1.415,0,1.459-2.443ZM35.613,0a3.344,3.344,0,0,1-.281-.853A2.754,2.754,0,0,1,33.047.176a3.374,3.374,0,0,1-2.285-.813,2.588,2.588,0,0,1-.94-2.043,2.66,2.66,0,0,1,1.143-2.338,5.821,5.821,0,0,1,3.322-.791H35.2v-.5q0-1.316-1.134-1.316a.927.927,0,0,0-1.055,1.042H30.05a2.655,2.655,0,0,1,1.173-2.239,4.931,4.931,0,0,1,2.993-.86A4.323,4.323,0,0,1,37.09-8.8a3.086,3.086,0,0,1,1.081,2.435v4.21a4.311,4.311,0,0,0,.4,2V0ZM33.759-1.934a1.652,1.652,0,0,0,.918-.237,1.487,1.487,0,0,0,.523-.536V-4.228h-.861q-1.547,0-1.547,1.389a.848.848,0,0,0,.272.655A.986.986,0,0,0,33.759-1.934Zm10.072-.176a1.317,1.317,0,0,0,.967-.338,1.241,1.241,0,0,0,.334-.945h2.777A3.288,3.288,0,0,1,46.789-.826a4.168,4.168,0,0,1-2.887,1,4.22,4.22,0,0,1-3.27-1.3,5.125,5.125,0,0,1-1.2-3.6v-.123A5.792,5.792,0,0,1,39.968-7.4a3.872,3.872,0,0,1,1.534-1.7,4.573,4.573,0,0,1,2.373-.593,4.116,4.116,0,0,1,2.944,1.028,3.647,3.647,0,0,1,1.09,2.786H45.132A1.626,1.626,0,0,0,44.771-7a1.244,1.244,0,0,0-.967-.4q-1.151,0-1.345,1.468A10.357,10.357,0,0,0,42.4-4.649a4.068,4.068,0,0,0,.343,1.986A1.187,1.187,0,0,0,43.831-2.109ZM52.286,0H49.315V-9.51h2.971ZM49.14-11.962A1.322,1.322,0,0,1,49.6-13a1.724,1.724,0,0,1,1.187-.4,1.724,1.724,0,0,1,1.187.4,1.322,1.322,0,0,1,.457,1.037,1.322,1.322,0,0,1-.457,1.037,1.724,1.724,0,0,1-1.187.4,1.724,1.724,0,0,1-1.187-.4A1.322,1.322,0,0,1,49.14-11.962ZM59.467,0a3.344,3.344,0,0,1-.281-.853A2.754,2.754,0,0,1,56.9.176a3.374,3.374,0,0,1-2.285-.813,2.588,2.588,0,0,1-.94-2.043,2.66,2.66,0,0,1,1.143-2.338A5.821,5.821,0,0,1,58.14-5.81h.914v-.5q0-1.316-1.134-1.316a.927.927,0,0,0-1.055,1.042H53.9a2.655,2.655,0,0,1,1.173-2.239,4.931,4.931,0,0,1,2.993-.86,4.323,4.323,0,0,1,2.874.888,3.086,3.086,0,0,1,1.081,2.435v4.21a4.311,4.311,0,0,0,.4,2V0ZM57.612-1.934a1.652,1.652,0,0,0,.918-.237,1.487,1.487,0,0,0,.523-.536V-4.228h-.861q-1.547,0-1.547,1.389a.848.848,0,0,0,.272.655A.986.986,0,0,0,57.612-1.934ZM66.788,0H63.817V-13.5h2.971Z" transform="translate(503 4840)" fill="#12263f"/>
    <path id="Trazado_190420" data-name="Trazado 190420" d="M-75.647-2.373h5.37V0h-8.455V-12.8h3.085Zm6.161-2.47a5.613,5.613,0,0,1,.554-2.536,3.96,3.96,0,0,1,1.591-1.709,4.791,4.791,0,0,1,2.435-.6,4.373,4.373,0,0,1,3.366,1.323,5.076,5.076,0,0,1,1.23,3.6v.105a4.925,4.925,0,0,1-1.235,3.529A4.384,4.384,0,0,1-64.89.176,4.434,4.434,0,0,1-68.15-1.042a4.761,4.761,0,0,1-1.327-3.3Zm2.962.185a3.538,3.538,0,0,0,.413,1.934,1.376,1.376,0,0,0,1.222.615q1.582,0,1.617-2.435v-.3q0-2.558-1.635-2.558-1.485,0-1.608,2.206ZM-64.5-13.5h3.129l-2.443,2.76-2.417,0Zm5.15,8.675a6.421,6.421,0,0,1,.475-2.549,3.821,3.821,0,0,1,1.362-1.709,3.591,3.591,0,0,1,2.065-.6,2.855,2.855,0,0,1,2.32,1l.105-.826h2.689V-.36a4.009,4.009,0,0,1-.584,2.184,3.75,3.75,0,0,1-1.692,1.424,6.219,6.219,0,0,1-2.566.5,5.365,5.365,0,0,1-2.026-.4A3.657,3.657,0,0,1-58.7,2.32L-57.463.58a2.716,2.716,0,0,0,2.18.976A1.764,1.764,0,0,0-53.314-.466v-.3a2.781,2.781,0,0,1-2.153.94A3.437,3.437,0,0,1-58.28-1.156,5.517,5.517,0,0,1-59.353-4.72Zm2.971.185a3.383,3.383,0,0,0,.439,1.85,1.386,1.386,0,0,0,1.23.681,1.573,1.573,0,0,0,1.4-.642v-4a1.534,1.534,0,0,0-1.38-.65,1.4,1.4,0,0,0-1.239.708A3.858,3.858,0,0,0-56.382-4.641ZM-45.527,0H-48.5V-9.51h2.971Zm-3.146-11.962A1.322,1.322,0,0,1-48.217-13a1.724,1.724,0,0,1,1.187-.4,1.724,1.724,0,0,1,1.187.4,1.322,1.322,0,0,1,.457,1.037,1.322,1.322,0,0,1-.457,1.037,1.724,1.724,0,0,1-1.187.4,1.724,1.724,0,0,1-1.187-.4A1.322,1.322,0,0,1-48.674-11.962Zm8.991,9.853a1.317,1.317,0,0,0,.967-.338,1.241,1.241,0,0,0,.334-.945H-35.6A3.288,3.288,0,0,1-36.725-.826a4.168,4.168,0,0,1-2.887,1,4.22,4.22,0,0,1-3.27-1.3,5.125,5.125,0,0,1-1.2-3.6v-.123A5.792,5.792,0,0,1-43.545-7.4a3.872,3.872,0,0,1,1.534-1.7,4.573,4.573,0,0,1,2.373-.593,4.116,4.116,0,0,1,2.944,1.028A3.647,3.647,0,0,1-35.6-5.871h-2.777A1.626,1.626,0,0,0-38.742-7a1.244,1.244,0,0,0-.967-.4q-1.151,0-1.345,1.468a10.357,10.357,0,0,0-.062,1.283,4.068,4.068,0,0,0,.343,1.986A1.187,1.187,0,0,0-39.683-2.109Zm4.957-2.733a5.613,5.613,0,0,1,.554-2.536,3.96,3.96,0,0,1,1.591-1.709,4.791,4.791,0,0,1,2.435-.6A4.373,4.373,0,0,1-26.78-8.363a5.076,5.076,0,0,1,1.23,3.6v.105a4.925,4.925,0,0,1-1.235,3.529A4.384,4.384,0,0,1-30.129.176,4.434,4.434,0,0,1-33.39-1.042a4.761,4.761,0,0,1-1.327-3.3Zm2.962.185a3.538,3.538,0,0,0,.413,1.934,1.376,1.376,0,0,0,1.222.615q1.582,0,1.617-2.435v-.3q0-2.558-1.635-2.558-1.485,0-1.608,2.206Zm13.307.281h-5.282V-6.662h5.282Zm5.106-5.133.1,1.116a3.27,3.27,0,0,1,2.716-1.292A2.407,2.407,0,0,1-8.1-8.253,3.165,3.165,0,0,1-5.309-9.686q2.892,0,2.971,3.5V0H-5.309V-6a1.813,1.813,0,0,0-.246-1.063,1.048,1.048,0,0,0-.9-.334,1.4,1.4,0,0,0-1.31.782l.009.123V0h-2.971V-5.985a1.906,1.906,0,0,0-.237-1.081,1.045,1.045,0,0,0-.905-.334,1.42,1.42,0,0,0-1.3.782V0h-2.962V-9.51ZM4.711,0A3.344,3.344,0,0,1,4.43-.853,2.754,2.754,0,0,1,2.145.176,3.374,3.374,0,0,1-.141-.637a2.588,2.588,0,0,1-.94-2.043A2.66,2.66,0,0,1,.062-5.019,5.821,5.821,0,0,1,3.384-5.81H4.3v-.5q0-1.316-1.134-1.316A.927.927,0,0,0,2.109-6.587H-.853A2.655,2.655,0,0,1,.321-8.825a4.931,4.931,0,0,1,2.993-.86A4.323,4.323,0,0,1,6.188-8.8,3.086,3.086,0,0,1,7.269-6.363v4.21a4.311,4.311,0,0,0,.4,2V0ZM2.856-1.934a1.652,1.652,0,0,0,.918-.237A1.487,1.487,0,0,0,4.3-2.707V-4.228H3.437q-1.547,0-1.547,1.389a.848.848,0,0,0,.272.655A.986.986,0,0,0,2.856-1.934Zm9.5-9.94V-9.51h1.564v2.057H12.357V-3.1a1.111,1.111,0,0,0,.193.747,1.037,1.037,0,0,0,.765.211,4.345,4.345,0,0,0,.738-.053V-.079a5.466,5.466,0,0,1-1.67.255,3.1,3.1,0,0,1-2.259-.721A2.954,2.954,0,0,1,9.4-2.733v-4.72H8.183V-9.51H9.4v-2.364ZM19.688.176a4.889,4.889,0,0,1-3.542-1.305,4.507,4.507,0,0,1-1.354-3.4v-.246a5.84,5.84,0,0,1,.541-2.575A3.955,3.955,0,0,1,16.91-9.075a4.763,4.763,0,0,1,2.461-.611,4.117,4.117,0,0,1,3.164,1.244A4.887,4.887,0,0,1,23.7-4.975v1.151H17.807A2.135,2.135,0,0,0,18.5-2.566a2.066,2.066,0,0,0,1.389.457,2.662,2.662,0,0,0,2.2-.984l1.354,1.6A3.784,3.784,0,0,1,21.872-.277,5.3,5.3,0,0,1,19.688.176ZM19.354-7.4q-1.3,0-1.547,1.723h2.988v-.229a1.467,1.467,0,0,0-.36-1.1A1.434,1.434,0,0,0,19.354-7.4ZM27.686-9.51l.1,1.116A3.27,3.27,0,0,1,30.5-9.686a2.407,2.407,0,0,1,2.435,1.433,3.165,3.165,0,0,1,2.795-1.433q2.892,0,2.971,3.5V0H35.728V-6a1.813,1.813,0,0,0-.246-1.063,1.048,1.048,0,0,0-.9-.334,1.4,1.4,0,0,0-1.31.782l.009.123V0H30.313V-5.985a1.906,1.906,0,0,0-.237-1.081,1.045,1.045,0,0,0-.905-.334,1.42,1.42,0,0,0-1.3.782V0H24.908V-9.51ZM45.747,0a3.344,3.344,0,0,1-.281-.853A2.754,2.754,0,0,1,43.181.176,3.374,3.374,0,0,1,40.9-.637a2.588,2.588,0,0,1-.94-2.043A2.66,2.66,0,0,1,41.1-5.019,5.821,5.821,0,0,1,44.42-5.81h.914v-.5q0-1.316-1.134-1.316a.927.927,0,0,0-1.055,1.042H40.184a2.655,2.655,0,0,1,1.173-2.239,4.931,4.931,0,0,1,2.993-.86,4.323,4.323,0,0,1,2.874.888A3.086,3.086,0,0,1,48.3-6.363v4.21a4.311,4.311,0,0,0,.4,2V0ZM43.893-1.934a1.652,1.652,0,0,0,.918-.237,1.487,1.487,0,0,0,.523-.536V-4.228h-.861q-1.547,0-1.547,1.389a.848.848,0,0,0,.272.655A.986.986,0,0,0,43.893-1.934ZM44.631-13.5H47.76l-2.443,2.76-2.417,0Zm8.763,1.626V-9.51h1.564v2.057H53.394V-3.1a1.111,1.111,0,0,0,.193.747,1.037,1.037,0,0,0,.765.211A4.345,4.345,0,0,0,55.09-2.2V-.079a5.466,5.466,0,0,1-1.67.255,3.1,3.1,0,0,1-2.259-.721,2.954,2.954,0,0,1-.729-2.188v-4.72H49.219V-9.51h1.213v-2.364ZM59.247,0H56.276V-9.51h2.971ZM56.1-11.962A1.322,1.322,0,0,1,56.558-13a1.724,1.724,0,0,1,1.187-.4,1.724,1.724,0,0,1,1.187.4,1.322,1.322,0,0,1,.457,1.037,1.322,1.322,0,0,1-.457,1.037,1.724,1.724,0,0,1-1.187.4,1.724,1.724,0,0,1-1.187-.4A1.322,1.322,0,0,1,56.1-11.962Zm8.991,9.853a1.317,1.317,0,0,0,.967-.338,1.241,1.241,0,0,0,.334-.945H69.17A3.288,3.288,0,0,1,68.049-.826a4.168,4.168,0,0,1-2.887,1,4.22,4.22,0,0,1-3.27-1.3,5.125,5.125,0,0,1-1.2-3.6v-.123A5.792,5.792,0,0,1,61.229-7.4a3.872,3.872,0,0,1,1.534-1.7,4.573,4.573,0,0,1,2.373-.593A4.116,4.116,0,0,1,68.08-8.657a3.647,3.647,0,0,1,1.09,2.786H66.393A1.626,1.626,0,0,0,66.032-7a1.244,1.244,0,0,0-.967-.4q-1.151,0-1.345,1.468a10.357,10.357,0,0,0-.062,1.283A4.068,4.068,0,0,0,64-2.663,1.187,1.187,0,0,0,65.092-2.109Zm4.957-2.733A5.613,5.613,0,0,1,70.6-7.378a3.96,3.96,0,0,1,1.591-1.709,4.791,4.791,0,0,1,2.435-.6,4.373,4.373,0,0,1,3.366,1.323,5.076,5.076,0,0,1,1.23,3.6v.105A4.925,4.925,0,0,1,77.99-1.129,4.384,4.384,0,0,1,74.646.176a4.434,4.434,0,0,1-3.261-1.217,4.761,4.761,0,0,1-1.327-3.3Zm2.962.185a3.538,3.538,0,0,0,.413,1.934,1.376,1.376,0,0,0,1.222.615q1.582,0,1.617-2.435v-.3q0-2.558-1.635-2.558-1.485,0-1.608,2.206Z" transform="translate(1094 4840)" fill="#12263f"/>
  </g>
</svg>
