<svg xmlns="http://www.w3.org/2000/svg" xmlns:xlink="http://www.w3.org/1999/xlink" width="1328" height="154" viewBox="0 0 1328 154">
  <defs>
    <clipPath id="clip-path">
      <path id="Rectángulo_41319" data-name="Rectángulo 41319" d="M0,0H1328a0,0,0,0,1,0,0V134a20,20,0,0,1-20,20H20A20,20,0,0,1,0,134V0A0,0,0,0,1,0,0Z" transform="translate(0 -7)" fill="#7fc733"/>
    </clipPath>
    <linearGradient id="linear-gradient" x1="0.927" y1="0.062" x2="0.019" y2="-0.029" gradientUnits="objectBoundingBox">
      <stop offset="0" stop-color="#d2ebb7"/>
      <stop offset="0.256" stop-color="#d2ebb7"/>
      <stop offset="0.637" stop-color="#d2ebb7"/>
      <stop offset="1" stop-color="#d2ebb7"/>
    </linearGradient>
    <linearGradient id="linear-gradient-2" x1="0.5" x2="0.5" y2="1" gradientUnits="objectBoundingBox">
      <stop offset="0" stop-color="#f9c584"/>
      <stop offset="1" stop-color="#f9c887"/>
    </linearGradient>
  </defs>
  <g id="Grupo_172" data-name="Grupo 172" transform="translate(0 7)" opacity="0.15" clip-path="url(#clip-path)">
    <g id="Grupo_133474" data-name="Grupo 133474" transform="translate(-395.076 -4.854)">
      <path id="Trazado_190146" data-name="Trazado 190146" d="M-6870.859-9507.858s-258,106.477-339,60.477-351.955,38.822-618,35-352-68-352-68-41.8-40.114-77-33,13.642,128.016,13.642,128.016H-6852v-119.842Z" transform="translate(8593.936 9542.236)" fill="url(#linear-gradient)"/>
      <circle id="Elipse_5200" data-name="Elipse 5200" cx="24" cy="24" r="24" transform="translate(1650.076 67.854)" fill="url(#linear-gradient-2)"/>
    </g>
  </g>
</svg>
