<svg xmlns="http://www.w3.org/2000/svg" xmlns:xlink="http://www.w3.org/1999/xlink" width="190" height="112" viewBox="0 0 190 112">
  <defs>
    <linearGradient id="linear-gradient" x1="0.5" x2="0.5" y2="1" gradientUnits="objectBoundingBox">
      <stop offset="0" stop-color="#f7ca2e" stop-opacity="0"/>
      <stop offset="0.091" stop-color="#f7ca2e" stop-opacity="0.129"/>
      <stop offset="0.283" stop-color="#f7ca2e" stop-opacity="0.388"/>
      <stop offset="0.465" stop-color="#f7ca2e" stop-opacity="0.612"/>
      <stop offset="0.633" stop-color="#f7ca2e" stop-opacity="0.78"/>
      <stop offset="0.784" stop-color="#f7ca2e" stop-opacity="0.902"/>
      <stop offset="0.911" stop-color="#f7ca2e" stop-opacity="0.969"/>
      <stop offset="1" stop-color="#f7ca2e"/>
    </linearGradient>
    <linearGradient id="linear-gradient-2" x1="0.5" x2="0.5" y2="1" gradientUnits="objectBoundingBox">
      <stop offset="0" stop-color="#b13e8d" stop-opacity="0"/>
      <stop offset="0.091" stop-color="#b13e8d" stop-opacity="0.129"/>
      <stop offset="0.283" stop-color="#b13e8d" stop-opacity="0.388"/>
      <stop offset="0.465" stop-color="#b13e8d" stop-opacity="0.612"/>
      <stop offset="0.633" stop-color="#b13e8d" stop-opacity="0.78"/>
      <stop offset="0.784" stop-color="#b13e8d"/>
      <stop offset="0.911" stop-color="#b13e8d" stop-opacity="0.969"/>
      <stop offset="1" stop-color="#b13e8d"/>
    </linearGradient>
    <filter id="Rectángulo_40716" x="41" y="4" width="108" height="108" filterUnits="userSpaceOnUse">
      <feOffset dy="3" input="SourceAlpha"/>
      <feGaussianBlur stdDeviation="3" result="blur"/>
      <feFlood flood-opacity="0.161"/>
      <feComposite operator="in" in2="blur"/>
      <feComposite in="SourceGraphic"/>
    </filter>
  </defs>
  <g id="Grupo_136148" data-name="Grupo 136148" transform="translate(-180 -962)">
    <rect id="Rectángulo_40586" data-name="Rectángulo 40586" width="190" height="20" transform="translate(180 1007)" fill="none"/>
    <g id="Grupo_108405" data-name="Grupo 108405" transform="translate(209.5 1026)">
      <path id="Rectángulo_5242" data-name="Rectángulo 5242" d="M0,0H12a0,0,0,0,1,0,0V43.333a3,3,0,0,1-3,3H3a3,3,0,0,1-3-3V0A0,0,0,0,1,0,0Z" transform="translate(0 0)" fill="url(#linear-gradient)"/>
    </g>
    <g id="Grupo_108406" data-name="Grupo 108406" transform="translate(340 1014) rotate(180)">
      <path id="Rectángulo_5242-2" data-name="Rectángulo 5242" d="M0,0H12a0,0,0,0,1,0,0V49a3,3,0,0,1-3,3H3a3,3,0,0,1-3-3V0A0,0,0,0,1,0,0Z" transform="translate(0 0)" fill="url(#linear-gradient-2)"/>
    </g>
    <g transform="matrix(1, 0, 0, 1, 180, 962)" filter="url(#Rectángulo_40716)">
      <path id="Rectángulo_40716-2" data-name="Rectángulo 40716" d="M10,0H80A10,10,0,0,1,90,10V90a0,0,0,0,1,0,0H10A10,10,0,0,1,0,80V10A10,10,0,0,1,10,0Z" transform="translate(50 10)" fill="#f6f6f6"/>
    </g>
    <g id="Grupo_128311" data-name="Grupo 128311" transform="translate(-384.915 762.973)">
      <path id="Trazado_188308" data-name="Trazado 188308" d="M640.757,280.006h-2.263v-.752q0-6.7.007-13.4a.91.91,0,0,0-.544-.984,3.266,3.266,0,0,1-1.616-3.716,3.388,3.388,0,0,1,6.53-.17,3.252,3.252,0,0,1-1.491,3.829,1.1,1.1,0,0,0-.635,1.149C640.766,270.614,640.757,275.269,640.757,280.006Zm-1.117-19.163a1.124,1.124,0,1,0,1.111,1.139A1.134,1.134,0,0,0,639.64,260.843Z" fill="#6836bf"/>
      <path id="Trazado_188309" data-name="Trazado 188309" d="M690.551,280.021h-2.263v-.758c0-4.491-.006-8.982.009-13.473a.868.868,0,0,0-.539-.915,3.283,3.283,0,0,1-1.609-3.782,3.386,3.386,0,0,1,6.529-.051,3.286,3.286,0,0,1-1.552,3.808.984.984,0,0,0-.587,1.03c.021,4.468.012,8.935.012,13.4ZM689.4,263.09a1.124,1.124,0,1,0-1.106-1.143A1.138,1.138,0,0,0,689.4,263.09Z" fill="#6836bf"/>
      <path id="Trazado_188310" data-name="Trazado 188310" d="M631.7,258.612h2.263v.789q0,6.7-.007,13.4a.865.865,0,0,0,.518.926,3.274,3.274,0,0,1,1.631,3.771,3.383,3.383,0,0,1-6.543.026,3.262,3.262,0,0,1,1.606-3.781.914.914,0,0,0,.539-.987q-.018-6.664-.007-13.331Zm2.257,18.058a1.126,1.126,0,1,0-1.146,1.1A1.137,1.137,0,0,0,633.961,276.67Z" fill="#6836bf"/>
      <path id="Trazado_188311" data-name="Trazado 188311" d="M681.5,258.61h2.263v.752c0,4.467.005,8.934-.008,13.4a.911.911,0,0,0,.546.981,3.275,3.275,0,0,1,1.6,3.786,3.384,3.384,0,0,1-6.527.033,3.269,3.269,0,0,1,1.563-3.8.983.983,0,0,0,.577-1.037C681.49,268.049,681.5,263.371,681.5,258.61Zm1.1,19.163a1.124,1.124,0,1,0-1.1-1.152A1.139,1.139,0,0,0,682.6,277.773Z" fill="#6836bf"/>
      <path id="Trazado_188312" data-name="Trazado 188312" d="M677.048,235.912l-4.7-2.586c-.177.671-.3,1.311-.514,1.922a12.313,12.313,0,0,1-7.888,7.983c-.324.114-.569.193-.565.649.025,2.964.013,5.929.016,8.893a1.824,1.824,0,0,0,.04.274c1.807-.174,2-.134,3.343.7a3.458,3.458,0,0,1,5.535,1.559,10.539,10.539,0,0,1,2.082.023,3.21,3.21,0,0,1,2.564,3.141q.033,7.588-.009,15.176a7.145,7.145,0,0,1-1.339,4.028,12.7,12.7,0,0,1-1.267,1.693,3.092,3.092,0,0,0-.7,2.906h2.143v6.757h-24.8v-6.7h2.2a5.757,5.757,0,0,0-.36-2.862c-1.242-2.4-2.379-4.853-3.579-7.275a14,14,0,0,1-.982-4.522c-.173-1.282-.325-2.566-.474-3.85a6.066,6.066,0,0,0-1.1-2.863,17.369,17.369,0,0,1-1.005-1.535,2.829,2.829,0,0,1,2.487-4.264,7.289,7.289,0,0,1,7.16,5.944,43.613,43.613,0,0,0,1.054,4.411,7,7,0,0,0,.208-1.2c.014-6.8.008-13.6.019-20.4a.576.576,0,0,0-.463-.648,12.258,12.258,0,0,1-8.353-9.484,2.172,2.172,0,0,0-.082-.271,1.214,1.214,0,0,0-.093-.163l-4.671,2.562c.332.293.615.535.891.786a11.219,11.219,0,0,1,2.791,12.781,11.31,11.31,0,1,1-11.921-15.635,10.969,10.969,0,0,1,5.352.573,1.205,1.205,0,0,0,1.116-.1c1.909-1.072,3.825-2.13,5.76-3.154a1.233,1.233,0,0,0,.729-1.074,12.405,12.405,0,0,1,24.639-.177,1.5,1.5,0,0,0,.908,1.333c1.9.987,3.755,2.061,5.649,3.061a1.441,1.441,0,0,0,1.028.1,11.394,11.394,0,1,1-3.761,2.319C676.4,236.465,676.69,236.224,677.048,235.912ZM661.127,260.8v-.816q0-8.329,0-16.658a3.923,3.923,0,0,0-.019-.7,1.123,1.123,0,0,0-2.226,0,4.025,4.025,0,0,0-.017.7c0,6.847.022,13.694-.027,20.54a7.918,7.918,0,0,1-.59,2.862c-.833,2.04-.893,2-3.112,1.987-.482,0-.634-.17-.72-.619-.429-2.238-.861-4.477-1.355-6.7a4.792,4.792,0,0,0-3.856-3.86,1.93,1.93,0,0,0-1.493.166c-.5.462.14.933.412,1.319a9.494,9.494,0,0,1,1.927,4.629c.122,1.31.269,2.621.486,3.919a16.12,16.12,0,0,0,.821,3.686c1.053,2.46,2.288,4.844,3.5,7.232a4.753,4.753,0,0,1,.615,2.691,10.726,10.726,0,0,0-.006,1.074h15.844a10.269,10.269,0,0,0-.01-1.294,2.852,2.852,0,0,1,.8-2.368,25.1,25.1,0,0,0,1.57-2.086,5.4,5.4,0,0,0,1.033-3.169q.015-7.269,0-14.54c0-.833-.437-1.34-1.12-1.346s-1.128.5-1.139,1.327c-.009.672,0,1.344,0,2H670.18c0-1.492.011-2.926-.005-4.361a1.13,1.13,0,0,0-1.1-1.224,1.145,1.145,0,0,0-1.157,1.237c-.01.259,0,.518,0,.777v3.578h-2.263v-2.16c0-.73.014-1.46,0-2.188a1.125,1.125,0,0,0-1.559-1.148,1.159,1.159,0,0,0-.7,1.193c.006,1.428,0,2.857,0,4.319Zm6.939-23.266a10,10,0,0,0-1.148-13.513,10.167,10.167,0,0,0-14.263.416,9.92,9.92,0,0,0-.721,13.074,9.21,9.21,0,0,1,4.254-4.085c-2.423-2.976-2.442-6.058-.089-8.3a5.649,5.649,0,0,1,7.648-.133c2.477,2.208,2.514,5.23.073,8.438A9.244,9.244,0,0,1,668.066,237.537Zm-24.719,12.974a8.849,8.849,0,0,0-.875-12.011,9.016,9.016,0,0,0-12.766.273,8.808,8.808,0,0,0-.577,11.729l3.206-2.491c-2.309-2.932-2.354-5.887-.071-8.135a5.645,5.645,0,0,1,7.588-.31,5.49,5.49,0,0,1,1.988,3.622A5.636,5.636,0,0,1,640.112,248Zm36.516-2.5c-2.321-3-2.347-5.941-.02-8.183a5.648,5.648,0,0,1,7.591-.222,5.5,5.5,0,0,1,1.945,3.646A5.627,5.627,0,0,1,687.643,248l3.231,2.513a8.844,8.844,0,0,0-.868-12.009,9.016,9.016,0,0,0-12.767.267,8.812,8.812,0,0,0-.58,11.733Zm-16.769-6.718c1.014-.574,2.012-1.123,2.985-1.715a.619.619,0,0,0,.135-.565A6.732,6.732,0,0,0,653.782,239a.64.64,0,0,0,.116.574,8.626,8.626,0,0,0,3.08,1.583C658.608,238.719,661.529,238.88,663.094,241.295ZM673.542,284.6h-20.28v2.176h20.28ZM660.019,232.6a3.386,3.386,0,1,0-3.416-3.4A3.406,3.406,0,0,0,660.019,232.6Zm-20.4,11.3a3.392,3.392,0,1,0-3.36,3.384A3.4,3.4,0,0,0,639.623,243.9Zm47.53-.033a3.393,3.393,0,1,0-3.4,3.417A3.4,3.4,0,0,0,687.153,243.864Zm-45.558,8.382c-2.461-3.571-8.383-3.563-10.7-.027C633.5,254.645,638.5,254.671,641.595,252.246Zm36.832-.024c2.627,2.42,8.258,2.409,10.67-.02C686.64,248.673,680.72,248.684,678.427,252.222Z" fill="#6836bf"/>
    </g>
    <g id="Grupo_133476" data-name="Grupo 133476" transform="translate(-384.915 762.973)">
      <path id="Trazado_188308-2" data-name="Trazado 188308" d="M640.757,280.006h-2.263v-.752q0-6.7.007-13.4a.91.91,0,0,0-.544-.984,3.266,3.266,0,0,1-1.616-3.716,3.388,3.388,0,0,1,6.53-.17,3.252,3.252,0,0,1-1.491,3.829,1.1,1.1,0,0,0-.635,1.149C640.766,270.614,640.757,275.269,640.757,280.006Zm-1.117-19.163a1.124,1.124,0,1,0,1.111,1.139A1.134,1.134,0,0,0,639.64,260.843Z" fill="#6836bf"/>
      <path id="Trazado_188309-2" data-name="Trazado 188309" d="M690.551,280.021h-2.263v-.758c0-4.491-.006-8.982.009-13.473a.868.868,0,0,0-.539-.915,3.283,3.283,0,0,1-1.609-3.782,3.386,3.386,0,0,1,6.529-.051,3.286,3.286,0,0,1-1.552,3.808.984.984,0,0,0-.587,1.03c.021,4.468.012,8.935.012,13.4ZM689.4,263.09a1.124,1.124,0,1,0-1.106-1.143A1.138,1.138,0,0,0,689.4,263.09Z" fill="#6836bf"/>
      <path id="Trazado_188310-2" data-name="Trazado 188310" d="M631.7,258.612h2.263v.789q0,6.7-.007,13.4a.865.865,0,0,0,.518.926,3.274,3.274,0,0,1,1.631,3.771,3.383,3.383,0,0,1-6.543.026,3.262,3.262,0,0,1,1.606-3.781.914.914,0,0,0,.539-.987q-.018-6.664-.007-13.331Zm2.257,18.058a1.126,1.126,0,1,0-1.146,1.1A1.137,1.137,0,0,0,633.961,276.67Z" fill="#6836bf"/>
      <path id="Trazado_188311-2" data-name="Trazado 188311" d="M681.5,258.61h2.263v.752c0,4.467.005,8.934-.008,13.4a.911.911,0,0,0,.546.981,3.275,3.275,0,0,1,1.6,3.786,3.384,3.384,0,0,1-6.527.033,3.269,3.269,0,0,1,1.563-3.8.983.983,0,0,0,.577-1.037C681.49,268.049,681.5,263.371,681.5,258.61Zm1.1,19.163a1.124,1.124,0,1,0-1.1-1.152A1.139,1.139,0,0,0,682.6,277.773Z" fill="#6836bf"/>
      <path id="Trazado_188312-2" data-name="Trazado 188312" d="M677.048,235.912l-4.7-2.586c-.177.671-.3,1.311-.514,1.922a12.313,12.313,0,0,1-7.888,7.983c-.324.114-.569.193-.565.649.025,2.964.013,5.929.016,8.893a1.824,1.824,0,0,0,.04.274c1.807-.174,2-.134,3.343.7a3.458,3.458,0,0,1,5.535,1.559,10.539,10.539,0,0,1,2.082.023,3.21,3.21,0,0,1,2.564,3.141q.033,7.588-.009,15.176a7.145,7.145,0,0,1-1.339,4.028,12.7,12.7,0,0,1-1.267,1.693,3.092,3.092,0,0,0-.7,2.906h2.143v6.757h-24.8v-6.7h2.2a5.757,5.757,0,0,0-.36-2.862c-1.242-2.4-2.379-4.853-3.579-7.275a14,14,0,0,1-.982-4.522c-.173-1.282-.325-2.566-.474-3.85a6.066,6.066,0,0,0-1.1-2.863,17.369,17.369,0,0,1-1.005-1.535,2.829,2.829,0,0,1,2.487-4.264,7.289,7.289,0,0,1,7.16,5.944,43.613,43.613,0,0,0,1.054,4.411,7,7,0,0,0,.208-1.2c.014-6.8.008-13.6.019-20.4a.576.576,0,0,0-.463-.648,12.258,12.258,0,0,1-8.353-9.484,2.172,2.172,0,0,0-.082-.271,1.214,1.214,0,0,0-.093-.163l-4.671,2.562c.332.293.615.535.891.786a11.219,11.219,0,0,1,2.791,12.781,11.31,11.31,0,1,1-11.921-15.635,10.969,10.969,0,0,1,5.352.573,1.205,1.205,0,0,0,1.116-.1c1.909-1.072,3.825-2.13,5.76-3.154a1.233,1.233,0,0,0,.729-1.074,12.405,12.405,0,0,1,24.639-.177,1.5,1.5,0,0,0,.908,1.333c1.9.987,3.755,2.061,5.649,3.061a1.441,1.441,0,0,0,1.028.1,11.394,11.394,0,1,1-3.761,2.319C676.4,236.465,676.69,236.224,677.048,235.912ZM661.127,260.8v-.816q0-8.329,0-16.658a3.923,3.923,0,0,0-.019-.7,1.123,1.123,0,0,0-2.226,0,4.025,4.025,0,0,0-.017.7c0,6.847.022,13.694-.027,20.54a7.918,7.918,0,0,1-.59,2.862c-.833,2.04-.893,2-3.112,1.987-.482,0-.634-.17-.72-.619-.429-2.238-.861-4.477-1.355-6.7a4.792,4.792,0,0,0-3.856-3.86,1.93,1.93,0,0,0-1.493.166c-.5.462.14.933.412,1.319a9.494,9.494,0,0,1,1.927,4.629c.122,1.31.269,2.621.486,3.919a16.12,16.12,0,0,0,.821,3.686c1.053,2.46,2.288,4.844,3.5,7.232a4.753,4.753,0,0,1,.615,2.691,10.726,10.726,0,0,0-.006,1.074h15.844a10.269,10.269,0,0,0-.01-1.294,2.852,2.852,0,0,1,.8-2.368,25.1,25.1,0,0,0,1.57-2.086,5.4,5.4,0,0,0,1.033-3.169q.015-7.269,0-14.54c0-.833-.437-1.34-1.12-1.346s-1.128.5-1.139,1.327c-.009.672,0,1.344,0,2H670.18c0-1.492.011-2.926-.005-4.361a1.13,1.13,0,0,0-1.1-1.224,1.145,1.145,0,0,0-1.157,1.237c-.01.259,0,.518,0,.777v3.578h-2.263v-2.16c0-.73.014-1.46,0-2.188a1.125,1.125,0,0,0-1.559-1.148,1.159,1.159,0,0,0-.7,1.193c.006,1.428,0,2.857,0,4.319Zm6.939-23.266a10,10,0,0,0-1.148-13.513,10.167,10.167,0,0,0-14.263.416,9.92,9.92,0,0,0-.721,13.074,9.21,9.21,0,0,1,4.254-4.085c-2.423-2.976-2.442-6.058-.089-8.3a5.649,5.649,0,0,1,7.648-.133c2.477,2.208,2.514,5.23.073,8.438A9.244,9.244,0,0,1,668.066,237.537Zm-24.719,12.974a8.849,8.849,0,0,0-.875-12.011,9.016,9.016,0,0,0-12.766.273,8.808,8.808,0,0,0-.577,11.729l3.206-2.491c-2.309-2.932-2.354-5.887-.071-8.135a5.645,5.645,0,0,1,7.588-.31,5.49,5.49,0,0,1,1.988,3.622A5.636,5.636,0,0,1,640.112,248Zm36.516-2.5c-2.321-3-2.347-5.941-.02-8.183a5.648,5.648,0,0,1,7.591-.222,5.5,5.5,0,0,1,1.945,3.646A5.627,5.627,0,0,1,687.643,248l3.231,2.513a8.844,8.844,0,0,0-.868-12.009,9.016,9.016,0,0,0-12.767.267,8.812,8.812,0,0,0-.58,11.733Zm-16.769-6.718c1.014-.574,2.012-1.123,2.985-1.715a.619.619,0,0,0,.135-.565A6.732,6.732,0,0,0,653.782,239a.64.64,0,0,0,.116.574,8.626,8.626,0,0,0,3.08,1.583C658.608,238.719,661.529,238.88,663.094,241.295ZM673.542,284.6h-20.28v2.176h20.28ZM660.019,232.6a3.386,3.386,0,1,0-3.416-3.4A3.406,3.406,0,0,0,660.019,232.6Zm-20.4,11.3a3.392,3.392,0,1,0-3.36,3.384A3.4,3.4,0,0,0,639.623,243.9Zm47.53-.033a3.393,3.393,0,1,0-3.4,3.417A3.4,3.4,0,0,0,687.153,243.864Zm-45.558,8.382c-2.461-3.571-8.383-3.563-10.7-.027C633.5,254.645,638.5,254.671,641.595,252.246Zm36.832-.024c2.627,2.42,8.258,2.409,10.67-.02C686.64,248.673,680.72,248.684,678.427,252.222Z" fill="#6836bf"/>
    </g>
  </g>
</svg>
