<svg xmlns="http://www.w3.org/2000/svg" xmlns:xlink="http://www.w3.org/1999/xlink" width="101" height="101" viewBox="0 0 101 101">
  <defs>
    <clipPath id="clip-path">
      <rect id="Rectángulo_41339" data-name="Rectángulo 41339" width="60.362" height="60.668" fill="none"/>
    </clipPath>
  </defs>
  <g id="Grupo_136149" data-name="Grupo 136149" transform="translate(-750 -1205)">
    <circle id="Elipse_1142" data-name="Elipse 1142" cx="50.5" cy="50.5" r="50.5" transform="translate(750 1205)" fill="#6836bf"/>
    <g id="Grupo_133521" data-name="Grupo 133521" transform="translate(769.819 1225.014)">
      <g id="Grupo_133520" data-name="Grupo 133520" clip-path="url(#clip-path)">
        <path id="Trazado_190213" data-name="Trazado 190213" d="M52.855,0H7.507A7.515,7.515,0,0,0,0,7.507V53.162a7.515,7.515,0,0,0,7.507,7.507H52.855a7.515,7.515,0,0,0,7.507-7.507V7.507A7.515,7.515,0,0,0,52.855,0M39.561,14.063l18.656,0V44.533H39.563c0-11.625,0-26.362,0-30.47M7.507,2.145H52.855a5.368,5.368,0,0,1,5.362,5.362v4.416c-2.857,0-51.573-.009-56.073,0V7.507A5.368,5.368,0,0,1,7.507,2.145M2.145,53.162v-39.1c4.346-.006,21.04,0,35.272,0,.01,6.27,0,38.192,0,44.461H7.507a5.368,5.368,0,0,1-5.362-5.362m50.71,5.362h-13.3c0-2,0-6.459,0-11.846H58.217v6.484a5.368,5.368,0,0,1-5.362,5.362" fill="#fff"/>
        <path id="Trazado_190214" data-name="Trazado 190214" d="M41.759,75.323s-1.9-.741-3.123-1.216a6.84,6.84,0,1,0-11.615,0c-1.224.475-3.123,1.216-3.123,1.216-1.62.629-4.332,1.681-4.332,5.274v7.465a1.072,1.072,0,0,0,1.072,1.072h24.38a1.072,1.072,0,0,0,1.072-1.072V80.6c0-3.593-2.712-4.645-4.332-5.274M32.828,65.8a4.7,4.7,0,1,1-4.7,4.7,4.7,4.7,0,0,1,4.7-4.7M43.946,86.99H21.711V80.6c0-1.982,1.119-2.559,2.963-3.275,0,0,2.36-.92,3.863-1.5a6.821,6.821,0,0,0,8.583,0c1.5.583,3.863,1.5,3.863,1.5,1.844.715,2.963,1.293,2.963,3.275Z" transform="translate(-13.05 -42.458)" fill="#fff"/>
        <path id="Trazado_190215" data-name="Trazado 190215" d="M154.683,19.892A1.685,1.685,0,1,0,153,18.207a1.687,1.687,0,0,0,1.685,1.685" transform="translate(-102.044 -11.02)" fill="#fff"/>
        <path id="Trazado_190216" data-name="Trazado 190216" d="M133.619,19.892a1.685,1.685,0,1,0-1.685-1.685,1.687,1.687,0,0,0,1.685,1.685" transform="translate(-87.995 -11.02)" fill="#fff"/>
        <path id="Trazado_190217" data-name="Trazado 190217" d="M112.555,19.892a1.685,1.685,0,1,0-1.685-1.685,1.687,1.687,0,0,0,1.685,1.685" transform="translate(-73.947 -11.02)" fill="#fff"/>
        <path id="Trazado_190218" data-name="Trazado 190218" d="M52.893,154.089H44.22a1.072,1.072,0,1,0,0,2.145h8.673a1.072,1.072,0,0,0,0-2.145" transform="translate(-28.778 -102.772)" fill="#fff"/>
        <path id="Trazado_190219" data-name="Trazado 190219" d="M133.006,60.289h7.6a1.072,1.072,0,0,0,0-2.145h-7.6a1.072,1.072,0,0,0,0,2.145" transform="translate(-87.995 -38.78)" fill="#fff"/>
        <path id="Trazado_190220" data-name="Trazado 190220" d="M133.006,78.69h7.6a1.072,1.072,0,0,0,0-2.145h-7.6a1.072,1.072,0,0,0,0,2.145" transform="translate(-87.995 -51.053)" fill="#fff"/>
        <path id="Trazado_190221" data-name="Trazado 190221" d="M133.006,97.091h7.6a1.072,1.072,0,0,0,0-2.145h-7.6a1.072,1.072,0,0,0,0,2.145" transform="translate(-87.995 -63.326)" fill="#fff"/>
        <path id="Trazado_190222" data-name="Trazado 190222" d="M133.006,115.492h7.6a1.072,1.072,0,0,0,0-2.145h-7.6a1.072,1.072,0,0,0,0,2.145" transform="translate(-87.995 -75.599)" fill="#fff"/>
      </g>
    </g>
  </g>
</svg>
