<svg id="_08" data-name="08" xmlns="http://www.w3.org/2000/svg" xmlns:xlink="http://www.w3.org/1999/xlink" width="556.086" height="236.847" viewBox="0 0 556.086 236.847">
  <defs>
    <clipPath id="clip-path">
      <rect id="Rectángulo_41354" data-name="Rectángulo 41354" width="556.086" height="236.847" fill="none"/>
    </clipPath>
  </defs>
  <g id="Grupo_133558" data-name="Grupo 133558" clip-path="url(#clip-path)">
    <g id="Grupo_133557" data-name="Grupo 133557" transform="translate(1.814 -0.003)">
      <g id="Grupo_133552" data-name="Grupo 133552">
        <path id="Trazado_190265" data-name="Trazado 190265" d="M218.556,76.574C94.761,137.886-14.2,209.914,55.6,334.934s626.724,75.971,385.01-200.948c0,0-98.272-118.73-222.061-57.418Z" transform="translate(-17.097 -26.718)" fill="#f0e9ce"/>
        <g id="Grupo_133534" data-name="Grupo 133534" opacity="0.63">
          <path id="Trazado_190266" data-name="Trazado 190266" d="M201.3,18.836C68.689,84.518-48.044,161.676,26.74,295.6S698.1,376.983,439.176,80.334c0,0-105.274-127.186-237.88-61.5Z" transform="translate(-3.316 0.006)" fill="#f0e9ce"/>
        </g>
        <g id="love" transform="translate(306.191 164.456)">
          <path id="Trazado_190267" data-name="Trazado 190267" d="M595.51,300.65H568.144a5.053,5.053,0,0,0-5.054,5.054v17.159a5.053,5.053,0,0,0,5.054,5.054h5.891a1.684,1.684,0,0,1,1.22.52l5.355,5.6a1.688,1.688,0,0,0,2.44,0l5.355-5.6a1.684,1.684,0,0,1,1.22-.52h5.891a5.053,5.053,0,0,0,5.054-5.054V305.7a5.053,5.053,0,0,0-5.054-5.054Z" transform="translate(-563.09 -300.65)" fill="#6836b1" opacity="0.8"/>
          <path id="Trazado_190268" data-name="Trazado 190268" d="M594.192,313.125a4.485,4.485,0,0,0-3.156,1.291h0a4.5,4.5,0,0,0-6.34.033,4.618,4.618,0,0,0,.082,6.449l5.563,5.563a.984.984,0,0,0,1.389-.005l5.563-5.563a4.628,4.628,0,0,0,.082-6.449,4.478,4.478,0,0,0-3.184-1.324Z" transform="translate(-572.302 -306.299)" fill="#fff"/>
        </g>
        <g id="seen" transform="translate(378.224 81.494)">
          <path id="Trazado_190269" data-name="Trazado 190269" d="M722.168,148.98H699.052a4.274,4.274,0,0,0-4.272,4.272v14.5a4.274,4.274,0,0,0,4.272,4.272h4.978a1.427,1.427,0,0,1,1.028.438l4.524,4.731a1.424,1.424,0,0,0,2.057,0l4.524-4.731a1.427,1.427,0,0,1,1.028-.438h4.977a4.274,4.274,0,0,0,4.272-4.272v-14.5A4.274,4.274,0,0,0,722.168,148.98Z" transform="translate(-694.78 -148.98)" fill="#e9bc18"/>
        </g>
        <ellipse id="Elipse_5210" data-name="Elipse 5210" cx="233.647" cy="13.779" rx="233.647" ry="13.779" transform="translate(16.642 210.89)" fill="#a18014"/>
        <g id="Grupo_133551" data-name="Grupo 133551" transform="translate(67.162 37.817)">
          <path id="Trazado_190270" data-name="Trazado 190270" d="M306.169,156.419a2.793,2.793,0,1,0,2.855,2.729A2.789,2.789,0,0,0,306.169,156.419Z" transform="translate(-206.436 -108.673)" fill="#e9bc18"/>
          <path id="Trazado_190271" data-name="Trazado 190271" d="M320.455,157.3a2.268,2.268,0,1,0,2.319,2.215A2.267,2.267,0,0,0,320.455,157.3Z" transform="translate(-213.141 -109.072)" fill="#e9bc18"/>
          <path id="Trazado_190272" data-name="Trazado 190272" d="M287.791,147.359a4.246,4.246,0,1,0,4.338,4.152A4.25,4.25,0,0,0,287.791,147.359Z" transform="translate(-197.467 -104.568)" fill="#e9bc18"/>
          <g id="Grupo_133535" data-name="Grupo 133535" transform="translate(59.819)">
            <path id="Trazado_190273" data-name="Trazado 190273" d="M274.839,69.13H241.67c-1.411,0-2.56,1.417-2.56,3.162v31.961c0,1.745,1.143,3.162,2.56,3.162h33.169c1.411,0,2.56-1.417,2.56-3.162V72.292C277.4,70.547,276.256,69.13,274.839,69.13Z" transform="translate(-237.114 -69.13)" fill="#e9bc18"/>
            <path id="Trazado_190274" data-name="Trazado 190274" d="M271.189,69.13H238.02c-1.411,0-2.56,1.417-2.56,3.162v31.961c0,1.745,1.143,3.162,2.56,3.162h33.169c1.411,0,2.56-1.417,2.56-3.162V72.292C273.749,70.547,272.606,69.13,271.189,69.13Z" transform="translate(-235.46 -69.13)" fill="#e9bc18" opacity="0.35"/>
          </g>
          <g id="Grupo_133536" data-name="Grupo 133536" transform="translate(230.015 57.16)">
            <path id="Trazado_190275" data-name="Trazado 190275" d="M585.989,173.63H552.82c-1.411,0-2.56,1.417-2.56,3.162v31.961c0,1.745,1.143,3.162,2.56,3.162h33.169c1.411,0,2.56-1.417,2.56-3.162V176.792C588.549,175.047,587.406,173.63,585.989,173.63Z" transform="translate(-548.264 -173.63)" fill="#354659"/>
            <path id="Trazado_190276" data-name="Trazado 190276" d="M582.339,173.63H549.17c-1.411,0-2.56,1.417-2.56,3.162v31.961c0,1.745,1.143,3.162,2.56,3.162h33.169c1.411,0,2.56-1.417,2.56-3.162V176.792C584.9,175.047,583.756,173.63,582.339,173.63Z" transform="translate(-546.61 -173.63)" fill="#0a2240"/>
          </g>
          <g id="Grupo_133537" data-name="Grupo 133537" transform="translate(326.427 124.451)">
            <path id="Trazado_190277" data-name="Trazado 190277" d="M762.249,296.65H729.08c-1.411,0-2.56,1.417-2.56,3.162v31.961c0,1.745,1.143,3.162,2.56,3.162h33.169c1.411,0,2.56-1.417,2.56-3.162V299.812C764.809,298.067,763.666,296.65,762.249,296.65Z" transform="translate(-724.523 -296.65)" fill="#e9bc18" opacity="0.35"/>
            <path id="Trazado_190278" data-name="Trazado 190278" d="M758.6,296.65H725.43c-1.411,0-2.56,1.417-2.56,3.162v31.961c0,1.745,1.143,3.162,2.56,3.162H758.6c1.411,0,2.56-1.417,2.56-3.162V299.812C761.159,298.067,760.016,296.65,758.6,296.65Z" transform="translate(-722.87 -296.65)" fill="#e9bc18"/>
          </g>
          <g id="Grupo_133538" data-name="Grupo 133538" transform="translate(0 124.451)">
            <path id="Trazado_190279" data-name="Trazado 190279" d="M165.479,296.65H132.31c-1.411,0-2.56,1.417-2.56,3.162v31.961c0,1.745,1.143,3.162,2.56,3.162h33.169c1.411,0,2.56-1.417,2.56-3.162V299.812C168.039,298.067,166.9,296.65,165.479,296.65Z" transform="translate(-127.754 -296.65)" fill="#6b2758"/>
            <path id="Trazado_190280" data-name="Trazado 190280" d="M161.829,296.65H128.66c-1.411,0-2.56,1.417-2.56,3.162v31.961c0,1.745,1.143,3.162,2.56,3.162h33.169c1.411,0,2.56-1.417,2.56-3.162V299.812C164.389,298.067,163.246,296.65,161.829,296.65Z" transform="translate(-126.1 -296.65)" fill="#a33e80"/>
          </g>
          <g id="Grupo_133550" data-name="Grupo 133550" transform="translate(60.481 21.285)">
            <rect id="Rectángulo_41346" data-name="Rectángulo 41346" width="96.451" height="78.706" rx="8.1" transform="translate(5.694 40.311)" fill="#29083a"/>
            <rect id="Rectángulo_41347" data-name="Rectángulo 41347" width="96.451" height="78.706" rx="8.1" transform="translate(20.693 40.311)" fill="#8772a9"/>
            <g id="Grupo_133539" data-name="Grupo 133539" transform="translate(78.313 94.819)">
              <rect id="Rectángulo_41348" data-name="Rectángulo 41348" width="64.113" height="74.976" rx="4.73" transform="translate(19.249)" fill="#29083a"/>
              <rect id="Rectángulo_41349" data-name="Rectángulo 41349" width="64.113" height="74.976" rx="4.73" fill="#29083a"/>
            </g>
            <path id="Trazado_190281" data-name="Trazado 190281" d="M378.72,315.949v9.441a1.27,1.27,0,0,0,1.269,1.269h63.456V314.68H379.989A1.27,1.27,0,0,0,378.72,315.949Z" transform="translate(-301.02 -201.652)" fill="#8772a9"/>
            <g id="Grupo_133548" data-name="Grupo 133548" transform="translate(44.827)">
              <g id="Grupo_133540" data-name="Grupo 133540" transform="translate(22.173 86.904)">
                <path id="Trazado_190282" data-name="Trazado 190282" d="M386.5,271.9c-4.726,1.657-7.931,3.09-7.931,3.09l-5.092,2.232-11.52,5.049-2.8,10.77h35.346c10.2,0,18.882-1.548,24.44-4.551,6.465-3.5,8.7-8.96,4.168-16.24-5.869-9.436-25.468-4.261-36.61-.345Z" transform="translate(-359.16 -266.92)" fill="#0a2240"/>
                <path id="Trazado_190283" data-name="Trazado 190283" d="M422.9,282.1a7,7,0,0,1-2.319,1.1,15.619,15.619,0,0,1-11.284-.853l-13.357-6.307h0c-4.726,1.657-7.931,3.091-7.931,3.091l-5.092,2.232a6.132,6.132,0,0,1-.717,3.047c-1.69,2.193-2.193,7.2-2.193,7.2l8.019,5.568h15.917c10.2,0,18.882-1.548,24.439-4.551l.749-4.485s-4.163-7.784-6.236-6.039Z" transform="translate(-368.605 -271.052)" fill="#5b333b"/>
              </g>
              <g id="Grupo_133545" data-name="Grupo 133545">
                <path id="Trazado_190284" data-name="Trazado 190284" d="M423.306,239.545l-7.587-1.592a15.394,15.394,0,0,0-5.639-.126l-1.023.164a11.428,11.428,0,0,1-3.233.066l-19.719-2.27-.531-11.727-3.73.5-.377.109-5.683,1.657-3.484,7.729s-.23,13.456,9.113,13.773,42.43,0,42.43,0l-.454-7.062-.077-1.236Z" transform="translate(-342.939 -160.6)" fill="#e9a28b"/>
                <path id="Trazado_190285" data-name="Trazado 190285" d="M380.214,236.851l-.99-11.651-3.43,1.657-3.484,7.729s-.23,13.456,9.113,13.773,42.43,0,42.43,0L423.4,241.3l-43.179-4.452Z" transform="translate(-342.943 -161.116)" fill="#e1806e"/>
                <g id="Grupo_133541" data-name="Grupo 133541" transform="translate(5.353 40.235)">
                  <path id="Trazado_190286" data-name="Trazado 190286" d="M365.692,204.831c-.011-.624-.027-1.225-.066-1.816-.755-12.718-7.548-18.176-10.535-19.982a10.388,10.388,0,0,0-1.4-.733l-12.685-.509-4.737-.191c-9.78,15.638-7.669,60.464-7.669,60.464,7.056-7.724,32.2-9.4,32.2-9.4-3.233-5.06-2.74-23.553-2.74-23.553,1.548-3.162,7.641-4.288,7.641-4.288Z" transform="translate(-328.409 -181.6)" fill="#a18014"/>
                  <path id="Trazado_190287" data-name="Trazado 190287" d="M383.978,223.354l-1.378,3.5c1.548-3.162,7.641-4.288,7.641-4.288-.011-.624-.027-1.225-.066-1.816A14.2,14.2,0,0,0,383.978,223.354Z" transform="translate(-352.958 -199.335)" fill="#a18014"/>
                  <path id="Trazado_190288" data-name="Trazado 190288" d="M377.86,195.675a23.98,23.98,0,0,0,3.134,7.866c2.325,3.457-.542,11.952-.542,11.952s3.183-4.956,2.456-9.195c-.651-3.78-3.637-6.706-5.049-10.628Z" transform="translate(-350.811 -187.974)" fill="#a18014"/>
                  <path id="Trazado_190289" data-name="Trazado 190289" d="M364.125,182.459l-12.685-.509c1.182,1.57,4.463,5.4,8.982,6.247,5.721,1.072,5.054-4.928,5.054-4.928l.049-.077A10.4,10.4,0,0,0,364.125,182.459Z" transform="translate(-338.842 -181.759)" fill="#a18014"/>
                </g>
                <g id="Grupo_133543" data-name="Grupo 133543" transform="translate(1.224)">
                  <g id="Grupo_133542" data-name="Grupo 133542" transform="translate(15.528 8.444)">
                    <path id="Trazado_190290" data-name="Trazado 190290" d="M365.418,123.485l-.864,1.1L355.687,135.9s-4.507-3.73-6.208,1.548c-.793,2.483.591,4.387,2.117,5.639.005,0,0,.005.011.011.246.186.481.383.717.536a12.852,12.852,0,0,0,1.805,1.056.839.839,0,0,1,.492.738s.821,6.608-1.9,8.456c0,0,2.084,5.639,6.476,6.52s4.4-3.479,3.933-4.436a5.314,5.314,0,0,1-.033-2.6c.153-.957.367-1.778.367-1.778a5.325,5.325,0,0,0,2.33.864c8.139,1.214,9.873-14.118,9.873-14.118l.427-3.446.886-7.182-10.393-3.8-1.171-.427Z" transform="translate(-349.248 -123.48)" fill="#e9a28b"/>
                    <path id="Trazado_190291" data-name="Trazado 190291" d="M356.536,149.574s.011-.016.016-.027a.823.823,0,0,0-1.078-1.1c-.569.263-1.083.908-.815,2.445.525,2.987,2.237,1.871,2.2.979s-.8-1.357-.323-2.3Z" transform="translate(-351.666 -134.756)" fill="#e1806e"/>
                    <path id="Trazado_190292" data-name="Trazado 190292" d="M378.118,145.65a2.624,2.624,0,0,0-1.373.366,1.814,1.814,0,0,0-.908,1.072.441.441,0,0,0,.252.552.434.434,0,0,0,.552-.252,1.45,1.45,0,0,1,1.4-.881,1.2,1.2,0,0,1,.766.257.992.992,0,0,1,.361.585.431.431,0,0,0,.848-.153A1.966,1.966,0,0,0,378.118,145.65Z" transform="translate(-361.286 -133.523)" fill="#441d0c"/>
                    <path id="Trazado_190293" data-name="Trazado 190293" d="M391.346,146.158a2.284,2.284,0,0,0-2.117,1.231.441.441,0,0,0,.1.6.435.435,0,0,0,.6-.1,1.531,1.531,0,0,1,1.291-.875,1.419,1.419,0,0,1,1.138.935.434.434,0,0,0,.5.345.441.441,0,0,0,.345-.5,2.237,2.237,0,0,0-1.86-1.625Z" transform="translate(-367.326 -133.747)" fill="#441d0c"/>
                    <path id="Trazado_190294" data-name="Trazado 190294" d="M391.9,151.808c-.421-.038-.81.476-.87,1.149s.235,1.247.656,1.285.81-.476.87-1.149S392.325,151.847,391.9,151.808Z" transform="translate(-368.174 -136.312)" fill="#441d0c"/>
                    <path id="Trazado_190295" data-name="Trazado 190295" d="M379.093,150.578c-.443-.038-.853.5-.919,1.214s.246,1.313.695,1.351.853-.5.919-1.214S379.541,150.617,379.093,150.578Z" transform="translate(-362.348 -135.755)" fill="#441d0c"/>
                    <path id="Trazado_190296" data-name="Trazado 190296" d="M354.86,160.068a13.619,13.619,0,0,0,1.805,1.05,1.96,1.96,0,0,0,2.259-1.378A3.239,3.239,0,0,1,354.86,160.068Z" transform="translate(-351.79 -139.906)" fill="#e1806e"/>
                    <path id="Trazado_190297" data-name="Trazado 190297" d="M384.643,166.821a13.163,13.163,0,0,0-3.927-.252c-.213.016-.219.356,0,.339a12.937,12.937,0,0,1,3.84.241c.213.044.3-.279.087-.328Z" transform="translate(-363.43 -142.978)" fill="#441d0c"/>
                  </g>
                  <path id="Trazado_190298" data-name="Trazado 190298" d="M361.218,131.264l-.208,5.557c2.237-1.2,6.05-.7,6.05-.7,9.758.892,10.606-3.763,10.606-3.763,1.685,4.392,3.6,3.845,3.6,3.845l.383-10.666-3.566-.027-16.875,5.754Z" transform="translate(-339.048 -115.956)" fill="#e1806e"/>
                  <path id="Trazado_190299" data-name="Trazado 190299" d="M359.377,113.757c-3.8-6.422-11.924-6.974-18.286-3.916h0c-4.617,2.221-8.309,6.34-8.752,11.492-1.061,12.269-5.109,18.073-5.109,18.073-3.774,5.235-6.351,7.926-6.351,11.541a2.945,2.945,0,0,0,.613,1.816,1.752,1.752,0,0,0,1.46.673c2.275-.077,9.55.109,13.024,5.344,2.746,4.141,6.214,4.972,8.243,5.06a.965.965,0,0,0,.892-1.417c-3.4-6.547-3.052-19.741-2.9-23.067a1.814,1.814,0,0,0-.859-1.641,1.336,1.336,0,0,0-.312-.142,15.543,15.543,0,0,1-3.506-2.7,4.98,4.98,0,0,1-.728-1.154,4.515,4.515,0,0,1-.312-2.653,5.272,5.272,0,0,1,.624-1.756c1.964-3.473,5.727-.41,5.727-.41a4.135,4.135,0,0,1,2.8-1.406,12.217,12.217,0,0,1,3.709-.066c9.091,1.138,10.338-5.284,10.338-5.284a8.8,8.8,0,0,0,3.419,6.137,32.966,32.966,0,0,1-1.039,7.176,23.318,23.318,0,0,1-2.79,6.662c-.055.082-.109.164-.164.241-.011.022-.033.055-.06.1a6.137,6.137,0,0,1-5.175,3.03,6.726,6.726,0,0,1-3.255-.9,7.892,7.892,0,0,0-.334,4.376,22.786,22.786,0,0,1,7.669,7,19.487,19.487,0,0,1,2.21,4.3s3.32-1.45,2.6-9.266c-.553-6.039,3.424-16.612,3.528-27.027.126-13.161-6.908-10.229-6.908-10.229Z" transform="translate(-320.869 -108.043)" fill="#131e36"/>
                  <path id="Trazado_190300" data-name="Trazado 190300" d="M370.093,128.689a7.633,7.633,0,0,1-3.145.52c-7.707-.416-7.827,4.7-7.827,4.7a3.875,3.875,0,0,1,2.861-2.8,8.178,8.178,0,0,1,3.391-.366c6.876.6,8.544-4.321,8.544-4.321a10.457,10.457,0,0,1-3.818,2.259Z" transform="translate(-338.192 -116.373)" fill="#000102"/>
                  <path id="Trazado_190301" data-name="Trazado 190301" d="M367.855,167.64a8.485,8.485,0,0,0,3.6,5.765l.06-.027c.153-.957.367-1.778.367-1.778a11.944,11.944,0,0,1-4.037-3.96Z" transform="translate(-342.147 -135.041)" fill="#e1806e"/>
                  <path id="Trazado_190302" data-name="Trazado 190302" d="M372.772,129.75s-3.266,6.815-10.19,5.76-7.034,1.958-7.034,1.958-6.006-3.468-6.2,3.43l.033.011a5.273,5.273,0,0,1,.624-1.756c1.964-3.473,5.727-.41,5.727-.41a4.147,4.147,0,0,1,2.8-1.406,12.218,12.218,0,0,1,3.709-.066c9.091,1.138,10.338-5.284,10.338-5.284a8.8,8.8,0,0,0,3.419,6.137C374.276,136.5,372.772,129.75,372.772,129.75Z" transform="translate(-333.766 -117.877)" fill="#000102"/>
                  <path id="Trazado_190303" data-name="Trazado 190303" d="M393.958,176.953c-1.389-2.981,2.122-20.753,2.122-20.753C390.484,173.425,393.958,176.953,393.958,176.953Z" transform="translate(-353.491 -129.859)" fill="#000102"/>
                  <path id="Trazado_190304" data-name="Trazado 190304" d="M342.187,160.624a1.814,1.814,0,0,0-.859-1.641,1.338,1.338,0,0,0-.312-.142,15.545,15.545,0,0,1-3.506-2.7,4.979,4.979,0,0,1-.727-1.154s-.744,2.15,4.288,5.492c0,0-2.587,10.956.46,19.692s-8.549-10.951-20.671-7.959a2.945,2.945,0,0,0,.613,1.816,1.752,1.752,0,0,0,1.46.673c2.275-.077,9.55.109,13.024,5.344,2.746,4.141,6.214,4.972,8.243,5.06a.965.965,0,0,0,.892-1.417C341.689,177.143,342.039,163.95,342.187,160.624Z" transform="translate(-320.86 -129.311)" fill="#000102"/>
                  <path id="Trazado_190305" data-name="Trazado 190305" d="M378.083,175.773a6.727,6.727,0,0,1-3.255-.9,7.891,7.891,0,0,0-.334,4.376,22.785,22.785,0,0,1,7.669,7,19.629,19.629,0,0,0-2.177-6.919C379.423,178.267,378.761,177.036,378.083,175.773Z" transform="translate(-345.083 -138.316)" fill="#000102"/>
                  <path id="Trazado_190306" data-name="Trazado 190306" d="M333.427,170.377s-1.1-4.978,1.264-8.724a17.931,17.931,0,0,0,1.417-2.68,23.849,23.849,0,0,0,1.887-6.542,86.671,86.671,0,0,1-4.529,9.31,8.067,8.067,0,0,0-.038,8.642Z" transform="translate(-326.004 -128.151)" fill="#000102"/>
                  <path id="Trazado_190307" data-name="Trazado 190307" d="M344.044,172.651a50.854,50.854,0,0,1,1.428-13.341C341.73,167.548,344.044,172.651,344.044,172.651Z" transform="translate(-331.042 -131.268)" fill="#000102"/>
                </g>
                <g id="Grupo_133544" data-name="Grupo 133544" transform="translate(0 42.236)">
                  <path id="Trazado_190308" data-name="Trazado 190308" d="M341.551,209.352l-1.209-.722-2.861,1.346-3.971,7.6.815,7.959,2.522,3.955,3.955,3.785,11.886,2.1,7.658-4.113-19.965-3.845c1.264-5.886,1.171-18.073,1.171-18.073Z" transform="translate(-325.367 -195.846)" fill="#7a5f13"/>
                  <path id="Trazado_190309" data-name="Trazado 190309" d="M369.642,239.962l-7.587-1.592a15.4,15.4,0,0,0-5.639-.126l-1.023.164a11.431,11.431,0,0,1-3.233.066l-19.719-2.27.771-7.915-5.032-3.309-6.061,1.772-1.6,3.539-1.893,4.19s-.23,13.456,9.113,13.773,42.43,0,42.43,0l-.1-1.559Z" transform="translate(-318.626 -203.253)" fill="#e9a28b"/>
                  <path id="Trazado_190310" data-name="Trazado 190310" d="M330.613,251.089c-11.979-1.707-9.922-14.834-9.922-14.834l-.159-1.564-1.893,4.19s-.23,13.456,9.113,13.773,42.43,0,42.43,0l-.1-1.559c-1.816.109-27.907,1.646-39.471-.005Z" transform="translate(-318.63 -207.651)" fill="#e1806e"/>
                  <path id="Trazado_190311" data-name="Trazado 190311" d="M330.551,185.265s-7.166-.629-9.643,10.573a101.062,101.062,0,0,0-2.155,15.917c-.164,2.943-.126,4.731-.126,4.731s2.9-6.843,14.577-6.186c0,0,.191-.875.443-2.3,1.072-6.011,3.271-21.808-3.1-22.738Z" transform="translate(-318.623 -185.258)" fill="#a18014"/>
                  <path id="Trazado_190312" data-name="Trazado 190312" d="M318.763,230.264c-.164,2.943-.126,4.731-.126,4.731s2.9-6.843,14.577-6.186c0,0,.191-.875.443-2.3a17.054,17.054,0,0,0-14.9,3.752Z" transform="translate(-318.627 -203.761)" fill="#fff"/>
                </g>
              </g>
              <path id="Trazado_190313" data-name="Trazado 190313" d="M403.265,264.06H370.221a1.639,1.639,0,0,0-1.641,1.641h0a1.639,1.639,0,0,0,1.641,1.641h33.044a1.639,1.639,0,0,0,1.641-1.641h0A1.639,1.639,0,0,0,403.265,264.06Z" transform="translate(-341.254 -178.72)" fill="#6b2758"/>
              <path id="Trazado_190314" data-name="Trazado 190314" d="M451.449,264.06H409.221a1.639,1.639,0,0,0-1.641,1.641h0a1.639,1.639,0,0,0,1.641,1.641h42.228a1.639,1.639,0,0,0,1.641-1.641h0a1.639,1.639,0,0,0-1.641-1.641Z" transform="translate(-358.921 -178.72)" fill="#a33e80"/>
              <path id="Trazado_190315" data-name="Trazado 190315" d="M454.993,208.84H416.261a1.447,1.447,0,0,0-1.422,1.176l-5.18,27.306a1.447,1.447,0,0,0,1.422,1.718h38.732a1.447,1.447,0,0,0,1.422-1.176l5.18-27.306A1.447,1.447,0,0,0,454.993,208.84Z" transform="translate(-359.851 -153.705)" fill="#6b2758"/>
              <path id="Trazado_190316" data-name="Trazado 190316" d="M458.043,208.84H419.311a1.448,1.448,0,0,0-1.422,1.176l-5.18,27.306a1.447,1.447,0,0,0,1.422,1.718h38.732a1.447,1.447,0,0,0,1.422-1.176l5.18-27.306A1.447,1.447,0,0,0,458.043,208.84Z" transform="translate(-361.233 -153.705)" fill="#a33e80"/>
              <g id="Grupo_133546" data-name="Grupo 133546" transform="translate(54.933 97.681)">
                <path id="Trazado_190317" data-name="Trazado 190317" d="M443.73,287.8c-1.2-1.061-2.44-1.515-3.145-.908-2.04,1.767-9.534,3.938-9.534,3.938l-4.939,1.05L419.05,295.8l2.5,4.551.886,1.614s20.944.312,23.843-4.666c1.9-3.266-.263-7.483-2.555-9.5Z" transform="translate(-419.05 -286.622)" fill="#e1806e"/>
                <path id="Trazado_190318" data-name="Trazado 190318" d="M440.6,286.895c-2.04,1.767-9.534,3.938-9.534,3.938l-4.939,1.05L419.06,295.8l2.5,4.551c3.359.005,20.66-.181,23.28-4.671,1.482-2.544.492-5.672-1.1-7.882C442.537,286.741,441.3,286.287,440.6,286.895Z" transform="translate(-419.055 -286.622)" fill="#e9a28b"/>
              </g>
              <g id="Grupo_133547" data-name="Grupo 133547" transform="translate(1.221 86.005)">
                <path id="Trazado_190319" data-name="Trazado 190319" d="M369.387,273.631s-37.431-16.732-46.068-2.839c-.077.12-.153.246-.224.367h0c-8.216,13.768,7.177,21.141,29.811,21.141h25.052a8.9,8.9,0,0,0,8.615-11.137l-17.186-7.527Z" transform="translate(-320.856 -265.276)" fill="#0a2240"/>
                <path id="Trazado_190320" data-name="Trazado 190320" d="M372.389,295.443c-15.1-2.325-52.659,1.625-49.284-19.413-8.216,13.768,7.176,21.141,29.811,21.141h25.052a8.9,8.9,0,0,0,8.615-11.137s.908,11.733-14.189,9.408Z" transform="translate(-320.86 -270.147)" fill="#5b333b"/>
              </g>
            </g>
            <g id="Grupo_133549" data-name="Grupo 133549" transform="translate(0 94.819)">
              <rect id="Rectángulo_41350" data-name="Rectángulo 41350" width="64.113" height="74.976" rx="4.73" transform="translate(19.249)" fill="#693fa9"/>
              <rect id="Rectángulo_41351" data-name="Rectángulo 41351" width="64.113" height="74.976" rx="4.73" fill="#29083a"/>
            </g>
          </g>
        </g>
        <g id="like" transform="translate(243.921 53.198)">
          <path id="Trazado_190321" data-name="Trazado 190321" d="M482.835,97.25H454.49a5.241,5.241,0,0,0-5.24,5.24v17.772a5.241,5.241,0,0,0,5.24,5.24h6.1a1.76,1.76,0,0,1,1.263.542l5.547,5.8a1.739,1.739,0,0,0,2.522,0l5.547-5.8a1.75,1.75,0,0,1,1.263-.542h6.1a5.241,5.241,0,0,0,5.24-5.24V102.49a5.241,5.241,0,0,0-5.24-5.24Z" transform="translate(-449.25 -97.25)" fill="#a33e80"/>
          <g id="like_icon" data-name="like icon" transform="translate(10.869 6.459)">
            <rect id="Rectángulo_41352" data-name="Rectángulo 41352" width="2.833" height="9.233" transform="translate(0 6.089)" fill="#fff"/>
            <path id="Trazado_190322" data-name="Trazado 190322" d="M487.585,114.458h-4.059l.744-3.966a.624.624,0,0,0-.175-.558l-.831-.831a.155.155,0,0,0-.219,0l-4.9,4.9a1.556,1.556,0,0,0-.459,1.1v7.713a1.564,1.564,0,0,0,1.564,1.564h6.766a1.56,1.56,0,0,0,1.428-.93l2.418-5.481a2.5,2.5,0,0,0-2.286-3.506Z" transform="translate(-473.002 -109.058)" fill="#fff"/>
          </g>
          <g id="like_icon-2" data-name="like icon" transform="translate(141.133 33.722)">
            <rect id="Rectángulo_41353" data-name="Rectángulo 41353" width="2.833" height="9.233" transform="translate(14.245)" fill="#6836b1"/>
            <path id="Trazado_190323" data-name="Trazado 190323" d="M709.763,168.822h4.059l-.744,3.966a.624.624,0,0,0,.175.558l.831.831a.155.155,0,0,0,.219,0l4.9-4.9a1.556,1.556,0,0,0,.459-1.1v-7.713a1.564,1.564,0,0,0-1.564-1.564h-6.766a1.56,1.56,0,0,0-1.428.93l-2.418,5.481a2.5,2.5,0,0,0,2.286,3.506Z" transform="translate(-707.267 -158.9)" fill="#6836b1"/>
          </g>
        </g>
      </g>
      <g id="Grupo_133553" data-name="Grupo 133553" transform="translate(133.583 41.569)">
        <path id="Trazado_190324" data-name="Trazado 190324" d="M248.028,91.472h15.108a.5.5,0,0,0,.5-.5V86.347c0-2.111-1.553-2.713-2.576-3.112,0,0-1.16-.454-2.128-.826a4.022,4.022,0,0,0,.728-2.314,4.075,4.075,0,0,0-8.15,0,4.022,4.022,0,0,0,.728,2.314c-.968.377-2.128.826-2.128.826-1.028.4-2.576,1-2.576,3.112v4.628A.5.5,0,0,0,248.028,91.472Zm7.554-14.457a3.074,3.074,0,1,1-3.074,3.074A3.077,3.077,0,0,1,255.582,77.016Zm-7.056,9.332c0-1.428.941-1.794,1.942-2.182,0,0,1.378-.536,2.483-.968a4.077,4.077,0,0,0,5.262,0l2.483.968c1,.388,1.942.755,1.942,2.182v4.124H260.51V88.015a.5.5,0,1,0-1,0v2.456h-7.86V88.015a.5.5,0,0,0-1,0v2.456h-2.128V86.347Z" transform="translate(-247.53 -76.004)" fill="#6836b1"/>
        <path id="Trazado_190325" data-name="Trazado 190325" d="M272,77.182a3.075,3.075,0,0,1,3.211,5.071.5.5,0,0,0,.17.815l2.768,1.078c1,.388,1.942.755,1.942,2.182v4.124H276.76a.5.5,0,0,0,0,1h3.829a.5.5,0,0,0,.5-.5V86.323c0-2.111-1.553-2.713-2.576-3.112l-2.122-.826a4.078,4.078,0,0,0-3.353-6.394,4.084,4.084,0,0,0-1.378.241.5.5,0,1,0,.339.941Z" transform="translate(-258.31 -75.99)" fill="#6836b1"/>
        <path id="Trazado_190326" data-name="Trazado 190326" d="M290.81,83.23l-2.122-.826a4.078,4.078,0,0,0-3.353-6.394,4.086,4.086,0,0,0-1.378.241.5.5,0,1,0,.339.941,3.075,3.075,0,0,1,3.211,5.071.5.5,0,0,0,.17.815l2.768,1.078c1,.388,1.942.755,1.942,2.182v4.124h-3.331a.5.5,0,1,0,0,1h3.829a.5.5,0,0,0,.5-.5V86.332c0-2.111-1.553-2.713-2.576-3.112Z" transform="translate(-263.882 -75.999)" fill="#6836b1"/>
        <path id="Trazado_190327" data-name="Trazado 190327" d="M273.616,110.24H250.949a3.42,3.42,0,0,0-3.419,3.419v3.1a3.42,3.42,0,0,0,3.419,3.419h.881l1.072,1.854a.5.5,0,0,0,.432.252.488.488,0,0,0,.432-.252l1.072-1.854h18.784a3.42,3.42,0,0,0,3.419-3.419v-3.1a3.42,3.42,0,0,0-3.419-3.419Zm2.423,6.515a2.428,2.428,0,0,1-2.423,2.423H254.542a.488.488,0,0,0-.432.252l-.782,1.357-.782-1.357a.5.5,0,0,0-.432-.252h-1.165a2.428,2.428,0,0,1-2.423-2.423v-3.1a2.428,2.428,0,0,1,2.423-2.423h22.667a2.428,2.428,0,0,1,2.423,2.423Z" transform="translate(-247.53 -91.506)" fill="#6836b1"/>
        <path id="Trazado_190328" data-name="Trazado 190328" d="M275.627,116.12H257.708a.5.5,0,1,0,0,1h17.919a.5.5,0,1,0,0-1Z" transform="translate(-251.915 -94.169)" fill="#6836b1"/>
        <path id="Trazado_190329" data-name="Trazado 190329" d="M265.432,120.69H257.7a.5.5,0,1,0,0,1h7.734a.5.5,0,1,0,0-1Z" transform="translate(-251.911 -96.24)" fill="#6836b1"/>
      </g>
      <g id="Grupo_133554" data-name="Grupo 133554" transform="translate(72.615 168.093)">
        <path id="Trazado_190330" data-name="Trazado 190330" d="M148.623,338.9l-.148-.055c-.706-.279-1.307-.514-1.821-.717a3.781,3.781,0,1,0-6.219.005c-.771.3-1.975.766-1.975.766-.952.372-2.39.93-2.39,2.888v4.288a.465.465,0,0,0,.465.465h14.008a.465.465,0,0,0,.465-.465v-4.288c0-1.958-1.439-2.516-2.39-2.888Zm-5.076-5.771a2.85,2.85,0,1,1-2.85,2.85A2.851,2.851,0,0,1,143.547,333.124Zm6.542,12.482h-1.975v-2.275a.465.465,0,1,0-.93,0v2.275h-7.291v-2.275a.465.465,0,1,0-.93,0v2.275h-1.975v-3.829c0-1.324.875-1.668,1.8-2.024,0,0,1.411-.547,2.3-.9a3.766,3.766,0,0,0,4.879,0c.892.345,1.767.684,2.155.837l.148.06c.924.361,1.8.7,1.8,2.024v3.829Z" transform="translate(-136.07 -318.58)" fill="#fff"/>
        <path id="Trazado_190331" data-name="Trazado 190331" d="M164.827,338.9l-1.969-.766a3.732,3.732,0,0,0,.667-2.15,3.778,3.778,0,0,0-5.06-3.555.462.462,0,1,0,.312.87,2.908,2.908,0,0,1,.968-.17,2.851,2.851,0,0,1,2.85,2.85,2.816,2.816,0,0,1-.837,2.018.461.461,0,0,0-.126.421.482.482,0,0,0,.284.339c.979.377,2.571,1,2.571,1,.924.361,1.8.7,1.8,2.024v3.829H163.2a.465.465,0,1,0,0,.93h3.555a.465.465,0,0,0,.465-.465v-4.288c0-1.958-1.439-2.516-2.39-2.888Z" transform="translate(-146.077 -318.58)" fill="#fff"/>
        <path id="Trazado_190332" data-name="Trazado 190332" d="M176.217,338.9l-1.969-.766a3.732,3.732,0,0,0,.667-2.15,3.777,3.777,0,0,0-5.06-3.555.462.462,0,1,0,.312.87,2.908,2.908,0,0,1,.968-.17,2.851,2.851,0,0,1,2.85,2.85,2.816,2.816,0,0,1-.837,2.018.461.461,0,0,0-.126.421.482.482,0,0,0,.284.339c.979.377,2.571,1,2.571,1,.924.361,1.8.7,1.8,2.024v3.829h-3.09a.465.465,0,1,0,0,.93h3.555a.465.465,0,0,0,.465-.465v-4.288C178.608,339.825,177.169,339.267,176.217,338.9Z" transform="translate(-151.236 -318.58)" fill="#fff"/>
        <path id="Trazado_190333" data-name="Trazado 190333" d="M171.11,318.6a5.65,5.65,0,1,0-5.65-5.65A5.658,5.658,0,0,0,171.11,318.6Zm0-10.371a4.721,4.721,0,1,1-4.72,4.721A4.725,4.725,0,0,1,171.11,308.23Z" transform="translate(-149.384 -307.3)" fill="#fff"/>
        <path id="Trazado_190334" data-name="Trazado 190334" d="M175.4,315.264h1.871a.465.465,0,0,0,0-.93H175.87v-2.489a.465.465,0,0,0-.93,0v2.948a.465.465,0,0,0,.465.465Z" transform="translate(-153.678 -309.148)" fill="#fff"/>
        <path id="Trazado_190335" data-name="Trazado 190335" d="M140.125,309.5h13.21a.465.465,0,0,0,0-.93h-13.21a.465.465,0,0,0,0,.93Z" transform="translate(-137.696 -307.875)" fill="#fff"/>
        <path id="Trazado_190336" data-name="Trazado 190336" d="M136.555,314.82H150.41a.465.465,0,0,0,0-.93H136.555a.465.465,0,0,0,0,.93Z" transform="translate(-136.079 -310.285)" fill="#fff"/>
        <path id="Trazado_190337" data-name="Trazado 190337" d="M136.555,320.14h13.806a.465.465,0,1,0,0-.93H136.555a.465.465,0,1,0,0,.93Z" transform="translate(-136.079 -312.695)" fill="#fff"/>
        <path id="Trazado_190338" data-name="Trazado 190338" d="M140.125,324.53a.465.465,0,0,0,0,.93h13.04a.465.465,0,1,0,0-.93Z" transform="translate(-137.696 -315.105)" fill="#fff"/>
      </g>
      <g id="Grupo_133555" data-name="Grupo 133555" transform="translate(302.885 100.458)">
        <path id="Trazado_190339" data-name="Trazado 190339" d="M595.444,183.655h-15.8a.487.487,0,1,0,0,.974h15.31V202.2h-13.8a.487.487,0,1,0,0,.974h14.293a.488.488,0,0,0,.487-.487V184.137a.488.488,0,0,0-.487-.487Z" transform="translate(-567.064 -183.65)" fill="#fff"/>
        <path id="Trazado_190340" data-name="Trazado 190340" d="M600.466,227.13a.766.766,0,1,0,.766.766A.768.768,0,0,0,600.466,227.13Z" transform="translate(-576.369 -203.347)" fill="#fff"/>
        <path id="Trazado_190341" data-name="Trazado 190341" d="M594.066,227.13a.766.766,0,1,0,.766.766A.768.768,0,0,0,594.066,227.13Z" transform="translate(-573.47 -203.347)" fill="#fff"/>
        <path id="Trazado_190342" data-name="Trazado 190342" d="M587.676,227.13a.766.766,0,1,0,.766.766A.768.768,0,0,0,587.676,227.13Z" transform="translate(-570.575 -203.347)" fill="#fff"/>
        <path id="Trazado_190343" data-name="Trazado 190343" d="M572.61,197.548l3.09-2.368a1.876,1.876,0,0,0,.695-1.264,1.9,1.9,0,0,0-.186-1.045l4.3-3.446a.486.486,0,0,0-.607-.76l-4.332,3.473a1.88,1.88,0,0,0-2.21.1l-1.882,1.411-4-2.822a4.129,4.129,0,1,0-5.842-.252c-.76.421-2.39,1.34-2.5,1.4-1.444.8-2.254,1.373-2.057,3.922s.547,6.072.547,6.1a.486.486,0,0,0,.224.361l2.39,1.532v7.127a1.515,1.515,0,0,0,1.515,1.515H567.6a1.515,1.515,0,0,0,1.515-1.515V197.007l1.165.678a.079.079,0,0,0,.022.011,2.322,2.322,0,0,0,1.143.257,1.91,1.91,0,0,0,1.171-.4Zm-7.937-12.909a3.151,3.151,0,1,1-3.151,3.151A3.152,3.152,0,0,1,564.674,184.639Zm4.2,11.1a.49.49,0,0,0-.733.421V211.02a.543.543,0,0,1-.542.542H565.16v-5.8a.487.487,0,0,0-.974,0v5.8h-2.434a.543.543,0,0,1-.542-.542v-7.4a.494.494,0,0,0-.224-.41l-2.418-1.548c-.082-.831-.361-3.7-.525-5.847-.159-2.046.345-2.319,1.559-2.992.115-.06,1.975-1.1,2.828-1.581a4.094,4.094,0,0,0,2.243.667,4.137,4.137,0,0,0,1.953-.492l4.578,3.227a.484.484,0,0,0,.574-.011l2.172-1.63.011-.011a.894.894,0,0,1,.667-.191.918.918,0,0,1,.607.334h0a.894.894,0,0,1,.191.667.909.909,0,0,1-.328.6l-3.09,2.368a.888.888,0,0,1-.569.2,1.326,1.326,0,0,1-.684-.148l-1.887-1.1Z" transform="translate(-557.047 -183.655)" fill="#fff"/>
      </g>
      <g id="Grupo_133556" data-name="Grupo 133556" transform="translate(398.145 166.605)">
        <path id="Trazado_190344" data-name="Trazado 190344" d="M758.618,323.1c0-.038.356-3.588.552-6.148.2-2.593-.667-3.211-2.1-4-.109-.06-1.712-.963-2.456-1.373a4.212,4.212,0,1,0-6.3,0c-.744.41-2.346,1.313-2.456,1.373-1.433.793-2.3,1.406-2.1,4,.2,2.56.547,6.11.552,6.148a.532.532,0,0,0,.252.4l2.379,1.521v7.144a1.582,1.582,0,0,0,1.581,1.581h5.886a1.582,1.582,0,0,0,1.581-1.581v-7.144l2.379-1.521A.552.552,0,0,0,758.618,323.1Zm-7.155-17.422a3.118,3.118,0,1,1-3.118,3.118A3.12,3.12,0,0,1,751.463,305.68Zm0,7.324a4.762,4.762,0,0,0,.487-.027l1.083,5.246-1.57,1.586-1.57-1.586,1.083-5.246A4.756,4.756,0,0,0,751.463,313Zm6.619,3.867c-.164,2.144-.438,4.989-.525,5.858l-2.407,1.543a.539.539,0,0,0-.251.46v7.444a.488.488,0,0,1-.487.487h-2.4v-5.782a.547.547,0,0,0-1.094,0v5.782h-2.4a.488.488,0,0,1-.487-.487v-7.444a.539.539,0,0,0-.252-.46l-2.407-1.543c-.088-.87-.361-3.714-.525-5.858-.153-2.024.339-2.3,1.537-2.959.115-.06,1.964-1.1,2.817-1.57a4.375,4.375,0,0,0,.711.367l-1.154,5.579a.542.542,0,0,0,.148.5l2.155,2.177a.547.547,0,0,0,.388.164h.016a.546.546,0,0,0,.388-.164l2.155-2.177a.542.542,0,0,0,.148-.5l-1.154-5.579a4.169,4.169,0,0,0,.711-.367c.848.47,2.7,1.51,2.817,1.57,1.2.662,1.7.935,1.537,2.959Z" transform="translate(-736.874 -304.58)" fill="#fff"/>
        <path id="Trazado_190345" data-name="Trazado 190345" d="M739.076,337.533h-4.064a.252.252,0,0,1-.246-.246v-5.721a.539.539,0,0,0-.252-.46l-1.8-1.149c-.071-.733-.273-2.839-.4-4.436-.115-1.471.2-1.646,1.116-2.15.088-.049,1.5-.842,2.39-1.335a.527.527,0,0,0,.279-.438.54.54,0,0,0-.213-.476,2.27,2.27,0,0,1,1.384-4.07,2.229,2.229,0,0,1,.749.131.548.548,0,1,0,.367-1.034,3.362,3.362,0,0,0-4.48,3.173,3.324,3.324,0,0,0,.744,2.111c-.6.334-1.668.93-1.75.979-1.143.634-1.838,1.127-1.679,3.194.153,1.969.421,4.7.427,4.726a.542.542,0,0,0,.252.4l1.772,1.132v5.421a1.348,1.348,0,0,0,1.346,1.346h4.064a.547.547,0,0,0,0-1.094Z" transform="translate(-731.199 -309.735)" fill="#fff"/>
        <path id="Trazado_190346" data-name="Trazado 190346" d="M775.863,322.395c-.082-.044-1.149-.645-1.75-.979a3.365,3.365,0,0,0-2.62-5.475,3.416,3.416,0,0,0-1.116.192.548.548,0,1,0,.367,1.034,2.23,2.23,0,0,1,.749-.131,2.27,2.27,0,0,1,1.384,4.07.548.548,0,0,0,.066.913c.886.492,2.3,1.285,2.39,1.335.919.509,1.231.678,1.116,2.15-.12,1.6-.328,3.709-.4,4.436l-1.8,1.149a.539.539,0,0,0-.252.46v5.721a.252.252,0,0,1-.246.246h-4.064a.547.547,0,1,0,0,1.094h4.064a1.348,1.348,0,0,0,1.346-1.346v-5.421l1.772-1.132a.551.551,0,0,0,.252-.4c0-.027.273-2.757.427-4.726.159-2.068-.536-2.565-1.679-3.194Z" transform="translate(-748.387 -309.726)" fill="#fff"/>
      </g>
    </g>
  </g>
</svg>
