<svg xmlns="http://www.w3.org/2000/svg" xmlns:xlink="http://www.w3.org/1999/xlink" width="70" height="70" viewBox="0 0 70 70">
  <defs>
    <clipPath id="clip-path">
      <rect id="Rectángulo_41325" data-name="Rectángulo 41325" width="44" height="46" transform="translate(0.281 0.25)" fill="none" stroke="#6836bf" stroke-width="1"/>
    </clipPath>
  </defs>
  <g id="Grupo_136148" data-name="Grupo 136148" transform="translate(-760 -1078)">
    <g id="Grupo_53259" data-name="Grupo 53259" transform="translate(759.563 1078)">
      <circle id="Elipse_3952" data-name="Elipse 3952" cx="35" cy="35" r="35" transform="translate(0.438)" fill="#f6f6f6"/>
    </g>
    <g id="Grupo_133505" data-name="Grupo 133505" transform="translate(772.719 1088.75)">
      <g id="Grupo_133504" data-name="Grupo 133504" clip-path="url(#clip-path)">
        <path id="Trazado_190159" data-name="Trazado 190159" d="M37.813,25.219V2.938A1.937,1.937,0,0,0,35.875,1H8.75L1,8.75V43.625a1.937,1.937,0,0,0,1.938,1.938H35.875a1.937,1.937,0,0,0,1.938-1.937V34.906" transform="translate(-0.031 -0.031)" fill="none" stroke="#6836bf" stroke-linejoin="round" stroke-width="2"/>
        <path id="Trazado_190160" data-name="Trazado 190160" d="M8.75,1V6.813A1.937,1.937,0,0,1,6.813,8.75H1" transform="translate(-0.031 -0.031)" fill="none" stroke="#6836bf" stroke-linejoin="round" stroke-width="2"/>
        <path id="Trazado_190161" data-name="Trazado 190161" d="M31,5h1.938a1.937,1.937,0,0,1,1.938,1.938V8.875" transform="translate(-0.969 -0.156)" fill="none" stroke="#6836bf" stroke-linejoin="round" stroke-width="2"/>
        <line id="Línea_403" data-name="Línea 403" x1="2" transform="translate(26.281 5.25)" fill="none" stroke="#6836bf" stroke-linejoin="round" stroke-width="2"/>
        <path id="Trazado_190162" data-name="Trazado 190162" d="M28.5,42.875H14.938a1.938,1.938,0,0,1,0-3.875H28.5a1.938,1.938,0,0,1,0,3.875Z" transform="translate(-0.406 -1.219)" fill="none" stroke="#6836bf" stroke-linejoin="round" stroke-width="2"/>
        <path id="Trazado_190163" data-name="Trazado 190163" d="M28.5,22.875H14.938a1.938,1.938,0,0,1,0-3.875H28.5a1.938,1.938,0,0,1,0,3.875Z" transform="translate(-0.406 -0.594)" fill="none" stroke="#6836bf" stroke-linejoin="round" stroke-width="2"/>
        <rect id="Rectángulo_41324" data-name="Rectángulo 41324" width="12" height="16" transform="translate(15.281 22.25)" fill="none" stroke="#6836bf" stroke-linejoin="round" stroke-width="2"/>
        <path id="Trazado_190164" data-name="Trazado 190164" d="M28,28h1.938a1.937,1.937,0,0,1,1.938,1.938v1.938a1.937,1.937,0,0,1-1.937,1.938H28" transform="translate(-0.875 -0.875)" fill="none" stroke="#6836bf" stroke-linejoin="round" stroke-width="2"/>
        <path id="Trazado_190165" data-name="Trazado 190165" d="M32,29H44.594v3.875H32" transform="translate(-1 -0.906)" fill="none" stroke="#6836bf" stroke-linejoin="round" stroke-width="2"/>
        <line id="Línea_404" data-name="Línea 404" x2="28" transform="translate(6.281 13.25)" fill="none" stroke="#6836bf" stroke-linejoin="round" stroke-width="2"/>
        <line id="Línea_405" data-name="Línea 405" x2="3" transform="translate(6.281 18.25)" fill="none" stroke="#6836bf" stroke-linejoin="round" stroke-width="2"/>
        <line id="Línea_406" data-name="Línea 406" x2="3" transform="translate(6.281 23.25)" fill="none" stroke="#6836bf" stroke-linejoin="round" stroke-width="2"/>
        <line id="Línea_407" data-name="Línea 407" x2="6" transform="translate(6.281 28.25)" fill="none" stroke="#6836bf" stroke-linejoin="round" stroke-width="2"/>
        <line id="Línea_408" data-name="Línea 408" x2="6" transform="translate(6.281 33.25)" fill="none" stroke="#6836bf" stroke-linejoin="round" stroke-width="2"/>
        <line id="Línea_409" data-name="Línea 409" x2="3" transform="translate(6.281 38.25)" fill="none" stroke="#6836bf" stroke-linejoin="round" stroke-width="2"/>
      </g>
    </g>
  </g>
</svg>
