<svg xmlns="http://www.w3.org/2000/svg" xmlns:xlink="http://www.w3.org/1999/xlink" width="80" height="80" viewBox="0 0 80 80">
  <defs>
    <clipPath id="clip-path">
      <rect id="Rectángulo_41341" data-name="Rectángulo 41341" width="55" height="55" fill="none"/>
    </clipPath>
  </defs>
  <g id="Grupo_136149" data-name="Grupo 136149" transform="translate(-603 -2024)">
    <circle id="Elipse_5202" data-name="Elipse 5202" cx="40" cy="40" r="40" transform="translate(603 2024)" fill="#b13e8d"/>
    <g id="Grupo_133525" data-name="Grupo 133525" transform="translate(616 2037)">
      <g id="Grupo_133524" data-name="Grupo 133524" clip-path="url(#clip-path)">
        <path id="Trazado_190224" data-name="Trazado 190224" d="M1.058,31.515H29.082a1.057,1.057,0,0,0,1.057-1.057V19.3c0-4.011-2.93-5.147-4.868-5.9,0,0-2.3-.9-3.789-1.476a7.688,7.688,0,1,0-12.825,0C7.171,12.5,4.869,13.4,4.869,13.4,2.93,14.149,0,15.286,0,19.3V30.457a1.058,1.058,0,0,0,1.058,1.057M15.07,2.115A5.572,5.572,0,1,1,9.5,7.688,5.579,5.579,0,0,1,15.07,2.115M2.115,19.3c0-2.384,1.393-3.1,3.518-3.928,0,0,2.772-1.081,4.533-1.764a7.673,7.673,0,0,0,9.8,0c1.762.683,4.534,1.764,4.534,1.764,2.125.825,3.518,1.543,3.518,3.927V29.4h-3.68v-7a1.058,1.058,0,0,0-2.115,0v7H7.911v-7a1.058,1.058,0,1,0-2.115,0v7H2.115Z" fill="#fff"/>
        <path id="Trazado_190225" data-name="Trazado 190225" d="M86.8,2.444a5.573,5.573,0,0,1,5.821,9.191,1.057,1.057,0,0,0,.364,1.735c1.961.76,5.14,2,5.14,2,2.125.824,3.518,1.543,3.518,3.927V29.4h-6.05a1.058,1.058,0,1,0,0,2.115H102.7a1.058,1.058,0,0,0,1.058-1.058V19.3c0-4.011-2.93-5.147-4.868-5.9,0,0-2.3-.9-3.784-1.473A7.69,7.69,0,0,0,86.085.454a1.058,1.058,0,1,0,.717,1.99" transform="translate(-61.224)" fill="#fff"/>
        <path id="Trazado_190226" data-name="Trazado 190226" d="M142.939,13.4s-2.3-.9-3.784-1.473A7.69,7.69,0,0,0,130.133.454a1.058,1.058,0,1,0,.717,1.99,5.573,5.573,0,0,1,5.821,9.191,1.058,1.058,0,0,0,.364,1.735c1.961.76,5.139,2,5.139,2,2.125.824,3.518,1.543,3.518,3.927V29.4h-6.05a1.058,1.058,0,0,0,0,2.115h7.108a1.058,1.058,0,0,0,1.057-1.058V19.3c0-4.011-2.93-5.147-4.868-5.9" transform="translate(-92.807)" fill="#fff"/>
        <path id="Trazado_190227" data-name="Trazado 190227" d="M21.663,150.85a1.058,1.058,0,0,0-1.058,1.058,4.887,4.887,0,0,1-4.882,4.882H7a4.882,4.882,0,1,1,0-9.764h7.676a1.058,1.058,0,0,0,0-2.115H7A7,7,0,0,0,7,158.9h8.727a7.005,7.005,0,0,0,7-7,1.058,1.058,0,0,0-1.058-1.058" transform="translate(0 -103.905)" fill="#fff"/>
        <path id="Trazado_190228" data-name="Trazado 190228" d="M71.708,144.91H64.032a7.005,7.005,0,0,0-7,7,1.058,1.058,0,0,0,2.115,0,4.887,4.887,0,0,1,4.882-4.882h7.676a1.058,1.058,0,1,0,0-2.115" transform="translate(-40.896 -103.905)" fill="#fff"/>
        <path id="Trazado_190229" data-name="Trazado 190229" d="M95.747,165.9a1.058,1.058,0,0,0-1.058,1.058,4.887,4.887,0,0,1-4.882,4.882H81.869a1.058,1.058,0,1,0,0,2.115h7.938a7.005,7.005,0,0,0,7-7,1.058,1.058,0,0,0-1.058-1.058" transform="translate(-57.944 -118.955)" fill="#fff"/>
        <path id="Trazado_190230" data-name="Trazado 190230" d="M129.795,144.91h-8.727a7.005,7.005,0,0,0-7,7,1.058,1.058,0,0,0,2.115,0,4.887,4.887,0,0,1,4.882-4.882h8.727a4.882,4.882,0,1,1,0,9.764h-7.938a1.058,1.058,0,1,0,0,2.115h7.938a7,7,0,0,0,0-13.995" transform="translate(-81.792 -103.905)" fill="#fff"/>
      </g>
    </g>
  </g>
</svg>
