<svg xmlns="http://www.w3.org/2000/svg" xmlns:xlink="http://www.w3.org/1999/xlink" width="80" height="80" viewBox="0 0 80 80">
  <defs>
    <clipPath id="clip-path">
      <rect id="Rectángulo_41342" data-name="Rectángulo 41342" width="55" height="55" fill="none"/>
    </clipPath>
  </defs>
  <g id="Grupo_136150" data-name="Grupo 136150" transform="translate(-918 -2024)">
    <circle id="Elipse_5203" data-name="Elipse 5203" cx="40" cy="40" r="40" transform="translate(918 2024)" fill="#b13e8d"/>
    <g id="Grupo_133527" data-name="Grupo 133527" transform="translate(931 2037)">
      <g id="Grupo_133526" data-name="Grupo 133526" clip-path="url(#clip-path)">
        <path id="Trazado_190231" data-name="Trazado 190231" d="M48.731,15.238a6.77,6.77,0,0,0,.85-3.294,6.527,6.527,0,1,0-13.05,0,6.821,6.821,0,0,0,.273,1.91c-6.009-3.226-7.619-12.494-7.637-12.6a1.044,1.044,0,0,0-.241-.515A1.874,1.874,0,0,0,26.9.1c-.833.317-1.307,1.25-1.484,2.965-.79,2.885-2.828,8.44-7.217,10.79a6.812,6.812,0,0,0,.273-1.912,6.614,6.614,0,0,0-6.525-6.686,6.614,6.614,0,0,0-6.525,6.686,6.77,6.77,0,0,0,.85,3.294A9.87,9.87,0,0,0,0,24.77v9.95c0,1.236,1.141,2.157,2.245,3.049.492.4,1.407,1.136,1.476,1.433C5.449,50.486,5.83,54.043,5.834,54.078a1.017,1.017,0,0,0,1,.922H16.2a1.017,1.017,0,0,0,1-.91c.023-.2,2.368-20.173,3.516-27.96a16.066,16.066,0,0,1,4.168-8.758,18.93,18.93,0,0,0,2.613-3.6,19.028,19.028,0,0,0,2.62,3.6,16.068,16.068,0,0,1,4.168,8.758c1.149,7.787,3.493,27.759,3.517,27.96a1.017,1.017,0,0,0,1,.91h9.362a1.017,1.017,0,0,0,1-.922c0-.035.382-3.57,2.11-14.855.073-.317.988-1.056,1.48-1.453,1.1-.891,2.245-1.813,2.245-3.049V24.77a9.87,9.87,0,0,0-6.269-9.533M43.056,7.324a4.622,4.622,0,1,1-4.509,4.62,4.571,4.571,0,0,1,4.509-4.62M45.271,26.65l-2.216,2.833L40.84,26.65l1.715-8.042c.166.013.333.022.5.022s.335-.009.5-.022ZM11.944,7.324a4.622,4.622,0,0,1,0,9.24,4.622,4.622,0,0,1,0-9.24M14.16,26.65l-2.216,2.833L9.729,26.65l1.715-8.042c.166.013.332.022.5.022s.335-.009.5-.022Zm9.252-10.689a18.093,18.093,0,0,0-4.69,9.861C17.711,32.68,15.78,48.916,15.3,52.934H12.422V40.494a1.008,1.008,0,1,0-2.016,0v12.44H7.73c-.2-1.653-.745-5.747-2.02-14.07-.183-1.075-1.171-1.873-2.217-2.717-.491-.4-1.405-1.135-1.476-1.426V24.77a7.882,7.882,0,0,1,5.577-7.85,6.515,6.515,0,0,0,1.888,1.213L7.656,26.691a1.051,1.051,0,0,0,.2.866l3.3,4.224a.993.993,0,0,0,1.573,0l3.3-4.224a1.052,1.052,0,0,0,.2-.866l-1.825-8.557a6.538,6.538,0,0,0,2.139-1.455c4.592-1.131,7.4-4.851,9.069-8.318a17.246,17.246,0,0,0,.79,3.02,16.061,16.061,0,0,1-2.994,4.581m28.1,20.186c-1.046.845-2.034,1.642-2.22,2.735-1.273,8.309-1.813,12.4-2.017,14.052H44.594V40.494a1.008,1.008,0,1,0-2.016,0v12.44H39.7c-.475-4.018-2.406-20.254-3.418-27.112a18.089,18.089,0,0,0-4.69-9.861A15.637,15.637,0,0,1,27.35,4.517a12.807,12.807,0,0,1,.108-1.589c.811,3.35,3.586,11.92,10.991,13.747a6.535,6.535,0,0,0,2.143,1.459l-1.825,8.557a1.051,1.051,0,0,0,.2.866l3.3,4.224a.993.993,0,0,0,1.573,0l3.3-4.224a1.053,1.053,0,0,0,.2-.866l-1.825-8.557a6.518,6.518,0,0,0,1.888-1.213,7.881,7.881,0,0,1,5.577,7.85l0,9.925c-.073.317-.988,1.055-1.479,1.452" transform="translate(0 0)" fill="#fff"/>
        <path id="Trazado_190232" data-name="Trazado 190232" d="M97.846,115.9a1.563,1.563,0,1,0,1.524,1.562,1.546,1.546,0,0,0-1.524-1.562" transform="translate(-70.346 -83.873)" fill="#fff"/>
        <path id="Trazado_190233" data-name="Trazado 190233" d="M97.846,140.892a1.563,1.563,0,1,0,1.524,1.562,1.545,1.545,0,0,0-1.524-1.562" transform="translate(-70.346 -101.96)" fill="#fff"/>
        <path id="Trazado_190234" data-name="Trazado 190234" d="M97.846,165.884a1.563,1.563,0,1,0,1.524,1.562,1.545,1.545,0,0,0-1.524-1.562" transform="translate(-70.346 -120.046)" fill="#fff"/>
      </g>
    </g>
  </g>
</svg>
