<svg xmlns="http://www.w3.org/2000/svg" xmlns:xlink="http://www.w3.org/1999/xlink" width="80" height="80" viewBox="0 0 80 80">
  <defs>
    <clipPath id="clip-path">
      <rect id="Rectángulo_41344" data-name="Rectángulo 41344" width="51.673" height="52.823" transform="translate(0 0)" fill="none"/>
    </clipPath>
  </defs>
  <g id="Grupo_136152" data-name="Grupo 136152" transform="translate(-4278 9679)">
    <circle id="Elipse_5213" data-name="Elipse 5213" cx="40" cy="40" r="40" transform="translate(4278 -9679)" fill="#b13e8d"/>
    <g id="Grupo_133589" data-name="Grupo 133589" transform="translate(4292.164 -9665.412)">
      <g id="Grupo_133530" data-name="Grupo 133530" clip-path="url(#clip-path)">
        <path id="Trazado_190247" data-name="Trazado 190247" d="M25.836,26.4A25.364,25.364,0,0,0,.5,51.737a.587.587,0,0,0,.586.586h49.5a.587.587,0,0,0,.586-.586A25.364,25.364,0,0,0,25.836,26.4M4.75,39.948h8.637A42.411,42.411,0,0,0,11.8,51.15H1.68a24,24,0,0,1,3.07-11.2m9.855,0H25.25v11.2H12.97a41.189,41.189,0,0,1,1.635-11.2M26.422,27.6c4.315.365,8.083,4.737,10.272,11.177H26.422ZM25.25,38.776H14.978c2.189-6.44,5.957-10.812,10.272-11.177Zm1.172,1.172H37.067A41.227,41.227,0,0,1,38.7,51.15H26.422Zm11.863,0h8.637a24,24,0,0,1,3.07,11.2H39.871a42.411,42.411,0,0,0-1.586-11.2m7.936-1.172h-8.3a29.126,29.126,0,0,0-2.056-4.82,16.8,16.8,0,0,0-4.886-5.83,24.239,24.239,0,0,1,15.241,10.65M20.692,28.126a16.81,16.81,0,0,0-4.886,5.83,29.211,29.211,0,0,0-2.056,4.82h-8.3a24.232,24.232,0,0,1,15.241-10.65" fill="#fff"/>
        <path id="Trazado_190248" data-name="Trazado 190248" d="M25.836,26.4A25.364,25.364,0,0,0,.5,51.737a.587.587,0,0,0,.586.586h49.5a.587.587,0,0,0,.586-.586A25.364,25.364,0,0,0,25.836,26.4ZM4.75,39.948h8.637A42.411,42.411,0,0,0,11.8,51.15H1.68A24,24,0,0,1,4.75,39.948Zm9.855,0H25.25v11.2H12.97A41.189,41.189,0,0,1,14.6,39.948ZM26.422,27.6c4.315.365,8.083,4.737,10.272,11.177H26.422ZM25.25,38.776H14.978c2.189-6.44,5.957-10.812,10.272-11.177Zm1.172,1.172H37.067A41.227,41.227,0,0,1,38.7,51.15H26.422Zm11.863,0h8.637a24,24,0,0,1,3.07,11.2H39.871A42.411,42.411,0,0,0,38.285,39.948Zm7.936-1.172h-8.3a29.126,29.126,0,0,0-2.056-4.82,16.8,16.8,0,0,0-4.886-5.83A24.239,24.239,0,0,1,46.221,38.776ZM20.692,28.126a16.81,16.81,0,0,0-4.886,5.83,29.211,29.211,0,0,0-2.056,4.82h-8.3A24.232,24.232,0,0,1,20.692,28.126Z" fill="none" stroke="#fff" stroke-miterlimit="10" stroke-width="1"/>
        <path id="Trazado_190249" data-name="Trazado 190249" d="M3.156,22.448a7.544,7.544,0,0,0-.019,7.825.588.588,0,0,0,.362.266.6.6,0,0,0,.14.017.591.591,0,0,0,.3-.084l13.7-8.284a.587.587,0,0,0,.2-.805A7.547,7.547,0,0,0,10.9,17.764a5.2,5.2,0,1,0-9.649,2.842,5.163,5.163,0,0,0,1.9,1.842m7.6-3.289c.017-.068.026-.136.04-.2A6.368,6.368,0,0,1,16.51,21.5L3.86,29.151a6.367,6.367,0,0,1,.4-6.244A5.175,5.175,0,0,0,8.4,22.366a5.167,5.167,0,0,0,2.359-3.207M3.618,14.466A4.03,4.03,0,1,1,2.255,20a4.011,4.011,0,0,1,1.363-5.534" fill="#fff"/>
        <path id="Trazado_190250" data-name="Trazado 190250" d="M3.156,22.448a7.544,7.544,0,0,0-.019,7.825.588.588,0,0,0,.362.266.6.6,0,0,0,.14.017.591.591,0,0,0,.3-.084l13.7-8.284a.587.587,0,0,0,.2-.805A7.547,7.547,0,0,0,10.9,17.764a5.2,5.2,0,1,0-9.649,2.842A5.163,5.163,0,0,0,3.156,22.448Zm7.6-3.289c.017-.068.026-.136.04-.2A6.368,6.368,0,0,1,16.51,21.5L3.86,29.151a6.367,6.367,0,0,1,.4-6.244A5.175,5.175,0,0,0,8.4,22.366,5.167,5.167,0,0,0,10.754,19.159ZM3.618,14.466A4.03,4.03,0,1,1,2.255,20,4.011,4.011,0,0,1,3.618,14.466Z" fill="none" stroke="#fff" stroke-miterlimit="10" stroke-width="1"/>
        <path id="Trazado_190251" data-name="Trazado 190251" d="M41.518,15.222a5.161,5.161,0,0,0-.746,2.539,7.544,7.544,0,0,0-6.939,3.622.586.586,0,0,0,.2.805l13.7,8.283a.585.585,0,0,0,.805-.2,7.544,7.544,0,0,0-.016-7.827,5.2,5.2,0,1,0-7-7.224m6.294,13.929L35.162,21.5a6.373,6.373,0,0,1,5.714-2.556c.015.071.025.142.042.213a5.2,5.2,0,0,0,5.043,3.957,5.268,5.268,0,0,0,1.451-.208,6.367,6.367,0,0,1,.4,6.244M45.976,13.885a4.03,4.03,0,1,1-3.455,1.944,4,4,0,0,1,3.455-1.944" fill="#fff"/>
        <path id="Trazado_190252" data-name="Trazado 190252" d="M41.518,15.222a5.161,5.161,0,0,0-.746,2.539,7.544,7.544,0,0,0-6.939,3.622.586.586,0,0,0,.2.805l13.7,8.283a.585.585,0,0,0,.805-.2,7.544,7.544,0,0,0-.016-7.827,5.2,5.2,0,1,0-7-7.224Zm6.294,13.929L35.162,21.5a6.373,6.373,0,0,1,5.714-2.556c.015.071.025.142.042.213a5.2,5.2,0,0,0,5.043,3.957,5.268,5.268,0,0,0,1.451-.208A6.367,6.367,0,0,1,47.812,29.151ZM45.976,13.885a4.03,4.03,0,1,1-3.455,1.944A4,4,0,0,1,45.976,13.885Z" fill="none" stroke="#fff" stroke-miterlimit="10" stroke-width="1"/>
        <path id="Trazado_190253" data-name="Trazado 190253" d="M10.3,10.225a31.532,31.532,0,0,1,8.235-3.714,7.418,7.418,0,0,0,.378,4.15,28.337,28.337,0,0,0-5.676,2.276.586.586,0,0,0,.548,1.036,27.127,27.127,0,0,1,5.654-2.238,7.436,7.436,0,0,0,12.8,0,27.1,27.1,0,0,1,5.654,2.238.586.586,0,0,0,.548-1.036,28.337,28.337,0,0,0-5.676-2.276,7.41,7.41,0,0,0,.517-2.72,7.488,7.488,0,0,0-.139-1.43,31.532,31.532,0,0,1,8.235,3.714A.586.586,0,1,0,42,9.233a32.457,32.457,0,0,0-9.253-4.051,7.439,7.439,0,0,0-13.818,0A32.457,32.457,0,0,0,9.674,9.233a.586.586,0,1,0,.625.992M25.836,1.672a6.268,6.268,0,1,1-6.269,6.269,6.276,6.276,0,0,1,6.269-6.269" fill="#fff"/>
        <path id="Trazado_190254" data-name="Trazado 190254" d="M10.3,10.225a31.532,31.532,0,0,1,8.235-3.714,7.418,7.418,0,0,0,.378,4.15,28.337,28.337,0,0,0-5.676,2.276.586.586,0,0,0,.548,1.036,27.127,27.127,0,0,1,5.654-2.238,7.436,7.436,0,0,0,12.8,0,27.1,27.1,0,0,1,5.654,2.238.586.586,0,0,0,.548-1.036,28.337,28.337,0,0,0-5.676-2.276,7.41,7.41,0,0,0,.517-2.72,7.488,7.488,0,0,0-.139-1.43,31.532,31.532,0,0,1,8.235,3.714A.586.586,0,1,0,42,9.233a32.457,32.457,0,0,0-9.253-4.051,7.439,7.439,0,0,0-13.818,0A32.457,32.457,0,0,0,9.674,9.233a.586.586,0,1,0,.625.992ZM25.836,1.672a6.268,6.268,0,1,1-6.269,6.269A6.276,6.276,0,0,1,25.836,1.672Z" fill="none" stroke="#fff" stroke-miterlimit="10" stroke-width="1"/>
        <path id="Trazado_190255" data-name="Trazado 190255" d="M25.367,10.682a.586.586,0,0,0,.938,0l2.8-3.736a.586.586,0,1,0-.938-.7l-2.333,3.11L23.5,6.243a.586.586,0,1,0-.938.7Z" fill="#fff"/>
        <path id="Trazado_190256" data-name="Trazado 190256" d="M25.367,10.682a.586.586,0,0,0,.938,0l2.8-3.736a.586.586,0,1,0-.938-.7l-2.333,3.11L23.5,6.243a.586.586,0,1,0-.938.7Z" fill="none" stroke="#fff" stroke-miterlimit="10" stroke-width="1"/>
      </g>
    </g>
  </g>
</svg>
