<svg xmlns="http://www.w3.org/2000/svg" xmlns:xlink="http://www.w3.org/1999/xlink" width="80" height="80" viewBox="0 0 80 80">
  <defs>
    <clipPath id="clip-path">
      <rect id="Rectángulo_41345" data-name="Rectángulo 41345" width="53.713" height="53.713" transform="translate(0 0)" fill="none"/>
    </clipPath>
  </defs>
  <g id="Grupo_136153" data-name="Grupo 136153" transform="translate(-4593 9679)">
    <circle id="Elipse_5212" data-name="Elipse 5212" cx="40" cy="40" r="40" transform="translate(4593 -9679)" fill="#b13e8d"/>
    <g id="Grupo_133588" data-name="Grupo 133588" transform="translate(4606 -9666)">
      <g id="Grupo_133532" data-name="Grupo 133532" clip-path="url(#clip-path)">
        <path id="Trazado_190257" data-name="Trazado 190257" d="M45.714,47.2h-3.43V30a3.025,3.025,0,0,0-3.022-3.022H14.45A3.026,3.026,0,0,0,11.428,30V47.2H8a.58.58,0,0,0-.58.58v2.348a3.093,3.093,0,0,0,3.089,3.089h32.7a3.093,3.093,0,0,0,3.089-3.089V47.776a.58.58,0,0,0-.58-.58M12.588,30a1.864,1.864,0,0,1,1.862-1.862H24.975l-5.434,7.079a.58.58,0,0,0,.921.706l5.976-7.785h6.5L21.712,42.754a.58.58,0,1,0,.92.706L34.4,28.133h4.865A1.864,1.864,0,0,1,41.124,30V47.2H12.588ZM45.134,50.124a1.931,1.931,0,0,1-1.929,1.929h-32.7a1.931,1.931,0,0,1-1.929-1.929V48.356H45.134Z" fill="#fff"/>
        <path id="Trazado_190258" data-name="Trazado 190258" d="M45.714,47.2h-3.43V30a3.025,3.025,0,0,0-3.022-3.022H14.45A3.026,3.026,0,0,0,11.428,30V47.2H8a.58.58,0,0,0-.58.58v2.348a3.093,3.093,0,0,0,3.089,3.089h32.7a3.093,3.093,0,0,0,3.089-3.089V47.776A.58.58,0,0,0,45.714,47.2ZM12.588,30a1.864,1.864,0,0,1,1.862-1.862H24.975l-5.434,7.079a.58.58,0,0,0,.921.706l5.976-7.785h6.5L21.712,42.754a.58.58,0,1,0,.92.706L34.4,28.133h4.865A1.864,1.864,0,0,1,41.124,30V47.2H12.588ZM45.134,50.124a1.931,1.931,0,0,1-1.929,1.929h-32.7a1.931,1.931,0,0,1-1.929-1.929V48.356H45.134Z" fill="none" stroke="#fff" stroke-miterlimit="10" stroke-width="1"/>
        <path id="Trazado_190259" data-name="Trazado 190259" d="M26.276,12.321V22.4a.581.581,0,0,0,1.161,0V12.321a5.925,5.925,0,1,0-1.161,0M26.857,1.66a4.765,4.765,0,1,1-4.766,4.765A4.771,4.771,0,0,1,26.857,1.66" fill="#fff"/>
        <path id="Trazado_190260" data-name="Trazado 190260" d="M26.276,12.321V22.4a.581.581,0,0,0,1.161,0V12.321a5.925,5.925,0,1,0-1.161,0ZM26.857,1.66a4.765,4.765,0,1,1-4.766,4.765A4.771,4.771,0,0,1,26.857,1.66Z" fill="none" stroke="#fff" stroke-miterlimit="10" stroke-width="1"/>
        <path id="Trazado_190261" data-name="Trazado 190261" d="M16.352,22.4a.58.58,0,0,0,1.16,0V16.224a.58.58,0,0,0-.58-.58H7.005V12.321a5.925,5.925,0,1,0-1.16,0v3.9a.58.58,0,0,0,.58.58h9.927ZM1.66,6.425A4.765,4.765,0,1,1,6.425,11.19,4.77,4.77,0,0,1,1.66,6.425" fill="#fff"/>
        <path id="Trazado_190262" data-name="Trazado 190262" d="M16.352,22.4a.58.58,0,0,0,1.16,0V16.224a.58.58,0,0,0-.58-.58H7.005V12.321a5.925,5.925,0,1,0-1.16,0v3.9a.58.58,0,0,0,.58.58h9.927ZM1.66,6.425A4.765,4.765,0,1,1,6.425,11.19,4.77,4.77,0,0,1,1.66,6.425Z" fill="none" stroke="#fff" stroke-miterlimit="10" stroke-width="1"/>
        <path id="Trazado_190263" data-name="Trazado 190263" d="M53.213,6.425a5.925,5.925,0,1,0-6.505,5.9v3.323H36.781a.58.58,0,0,0-.58.579V22.4a.58.58,0,0,0,1.16,0V16.8h9.927a.58.58,0,0,0,.58-.58v-3.9a5.932,5.932,0,0,0,5.345-5.9M47.288,11.19a4.765,4.765,0,1,1,4.765-4.765,4.771,4.771,0,0,1-4.765,4.765" fill="#fff"/>
        <path id="Trazado_190264" data-name="Trazado 190264" d="M53.213,6.425a5.925,5.925,0,1,0-6.505,5.9v3.323H36.781a.58.58,0,0,0-.58.579V22.4a.58.58,0,0,0,1.16,0V16.8h9.927a.58.58,0,0,0,.58-.58v-3.9A5.932,5.932,0,0,0,53.213,6.425ZM47.288,11.19a4.765,4.765,0,1,1,4.765-4.765A4.771,4.771,0,0,1,47.288,11.19Z" fill="none" stroke="#fff" stroke-miterlimit="10" stroke-width="1"/>
      </g>
    </g>
  </g>
</svg>
