<svg xmlns="http://www.w3.org/2000/svg" xmlns:xlink="http://www.w3.org/1999/xlink" width="190" height="111" viewBox="0 0 190 111">
  <defs>
    <linearGradient id="linear-gradient" x1="0.5" x2="0.5" y2="1" gradientUnits="objectBoundingBox">
      <stop offset="0" stop-color="#f7ca2e" stop-opacity="0"/>
      <stop offset="0.091" stop-color="#f7ca2e" stop-opacity="0.129"/>
      <stop offset="0.283" stop-color="#f7ca2e" stop-opacity="0.388"/>
      <stop offset="0.465" stop-color="#f7ca2e" stop-opacity="0.612"/>
      <stop offset="0.633" stop-color="#f7ca2e" stop-opacity="0.78"/>
      <stop offset="0.784" stop-color="#f7ca2e" stop-opacity="0.902"/>
      <stop offset="0.911" stop-color="#f7ca2e" stop-opacity="0.969"/>
      <stop offset="1" stop-color="#f7ca2e"/>
    </linearGradient>
    <linearGradient id="linear-gradient-2" x1="0.5" x2="0.5" y2="1" gradientUnits="objectBoundingBox">
      <stop offset="0" stop-color="#b13e8d" stop-opacity="0"/>
      <stop offset="0.091" stop-color="#b13e8d" stop-opacity="0.129"/>
      <stop offset="0.283" stop-color="#b13e8d" stop-opacity="0.388"/>
      <stop offset="0.465" stop-color="#b13e8d" stop-opacity="0.612"/>
      <stop offset="0.633" stop-color="#b13e8d" stop-opacity="0.78"/>
      <stop offset="0.784" stop-color="#b13e8d"/>
      <stop offset="0.911" stop-color="#b13e8d" stop-opacity="0.969"/>
      <stop offset="1" stop-color="#b13e8d"/>
    </linearGradient>
    <filter id="Rectángulo_40715" x="41" y="3" width="108" height="108" filterUnits="userSpaceOnUse">
      <feOffset dy="3" input="SourceAlpha"/>
      <feGaussianBlur stdDeviation="3" result="blur"/>
      <feFlood flood-opacity="0.161"/>
      <feComposite operator="in" in2="blur"/>
      <feComposite in="SourceGraphic"/>
    </filter>
    <clipPath id="clip-path">
      <rect id="Rectángulo_41361" data-name="Rectángulo 41361" width="62.433" height="68.436" fill="#6836bf"/>
    </clipPath>
  </defs>
  <g id="Grupo_136156" data-name="Grupo 136156" transform="translate(-600 -562)">
    <g id="Grupo_131878" data-name="Grupo 131878" transform="translate(420 114)">
      <rect id="Rectángulo_40586" data-name="Rectángulo 40586" width="190" height="20" transform="translate(180 493)" fill="none"/>
      <g id="Grupo_108405" data-name="Grupo 108405" transform="translate(209.5 512)">
        <path id="Rectángulo_5242" data-name="Rectángulo 5242" d="M0,0H12a0,0,0,0,1,0,0V43.333a3,3,0,0,1-3,3H3a3,3,0,0,1-3-3V0A0,0,0,0,1,0,0Z" transform="translate(0 0)" fill="url(#linear-gradient)"/>
      </g>
      <g id="Grupo_108406" data-name="Grupo 108406" transform="translate(340 500) rotate(180)">
        <path id="Rectángulo_5242-2" data-name="Rectángulo 5242" d="M0,0H12a0,0,0,0,1,0,0V49a3,3,0,0,1-3,3H3a3,3,0,0,1-3-3V0A0,0,0,0,1,0,0Z" transform="translate(0 0)" fill="url(#linear-gradient-2)"/>
      </g>
      <g transform="matrix(1, 0, 0, 1, 180, 448)" filter="url(#Rectángulo_40715)">
        <path id="Rectángulo_40715-2" data-name="Rectángulo 40715" d="M10,0H80A10,10,0,0,1,90,10V90a0,0,0,0,1,0,0H10A10,10,0,0,1,0,80V10A10,10,0,0,1,10,0Z" transform="translate(50 9)" fill="#f6f6f6"/>
      </g>
    </g>
    <g id="Grupo_133575" data-name="Grupo 133575" transform="translate(663.784 582.949)">
      <g id="Grupo_133573" data-name="Grupo 133573" clip-path="url(#clip-path)">
        <path id="Trazado_190356" data-name="Trazado 190356" d="M33.59,37.711H72.814a1.2,1.2,0,0,0,1.2-1.2V25.541c0-3.442-1.543-4.7-4.389-5.821-1.2-.47-4.588-1.79-7.941-3.094a10.48,10.48,0,1,0-16.965,0c-3.354,1.3-6.745,2.624-7.941,3.094-2.846,1.12-4.389,2.379-4.389,5.821V36.51a1.2,1.2,0,0,0,1.2,1.2M53.2,2.4a8.079,8.079,0,1,1-8.079,8.079A8.088,8.088,0,0,1,53.2,2.4M34.79,25.541c0-2.045.482-2.649,2.867-3.587,1.3-.511,5.2-2.029,8.826-3.438a10.455,10.455,0,0,0,13.438,0c3.623,1.408,7.526,2.926,8.826,3.438,2.384.938,2.867,1.541,2.867,3.587V35.31H64.218V29.765a1.2,1.2,0,0,0-2.4,0V35.31H44.586V29.765a1.2,1.2,0,1,0-2.4,0V35.31H34.79Z" transform="translate(-21.985 -0.001)" fill="#6836bf"/>
        <path id="Trazado_190357" data-name="Trazado 190357" d="M58.231,147.607v-6.893a1.2,1.2,0,0,0-1.2-1.2H32.417v-5.963a1.2,1.2,0,1,0-2.4,0v5.963H5.4a1.2,1.2,0,0,0-1.2,1.2v6.893a5.4,5.4,0,1,0,2.4,0v-5.692H30.016v5.692a5.4,5.4,0,1,0,2.4,0v-5.692H55.829v5.692a5.4,5.4,0,1,0,2.4,0M8.4,152.871a3,3,0,1,1-3-3,3,3,0,0,1,3,3m25.814,0a3,3,0,1,1-3-3,3.005,3.005,0,0,1,3,3m22.812,3a3,3,0,1,1,3-3,3,3,0,0,1-3,3" transform="translate(0 -89.838)" fill="#6836bf"/>
      </g>
    </g>
  </g>
</svg>
