<svg xmlns="http://www.w3.org/2000/svg" xmlns:xlink="http://www.w3.org/1999/xlink" width="1332" height="260.675" viewBox="0 0 1332 260.675">
  <defs>
    <clipPath id="clip-path">
      <path id="Trazado_189439" data-name="Trazado 189439" d="M0-36.675H1332V204a20,20,0,0,1-20,20H20A20,20,0,0,1,0,204Z" transform="translate(136 2166.666)" fill="#7fc733"/>
    </clipPath>
    <linearGradient id="linear-gradient" x1="0.073" y1="0.062" x2="0.981" y2="-0.029" gradientUnits="objectBoundingBox">
      <stop offset="0" stop-color="#7fc733"/>
      <stop offset="0.256" stop-color="#7fc733"/>
      <stop offset="0.637" stop-color="#d2ebb7"/>
      <stop offset="1" stop-color="#ecf7e0"/>
    </linearGradient>
    <linearGradient id="linear-gradient-2" x1="0.666" y1="-0.309" x2="0.346" y2="1.251" gradientUnits="objectBoundingBox">
      <stop offset="0" stop-color="#ffc431"/>
      <stop offset="1" stop-color="#ff8300"/>
    </linearGradient>
    <linearGradient id="linear-gradient-4" x1="0.666" y1="-0.309" x2="0.346" y2="1.251" gradientUnits="objectBoundingBox">
      <stop offset="0" stop-color="#7fc533"/>
      <stop offset="1" stop-color="#52a333"/>
    </linearGradient>
  </defs>
  <g id="Enmascarar_grupo_143" data-name="Enmascarar grupo 143" transform="translate(-136 -2129.991)" opacity="0.151" clip-path="url(#clip-path)">
    <g id="Grupo_131888" data-name="Grupo 131888" transform="translate(110.842 2174.474)">
      <path id="Trazado_189430" data-name="Trazado 189430" d="M-8239.841-9504.268s146.861-85.57,221.817,33.447,280.494,123.153,698.863,104.082,407.173-153.7,407.173-153.7,20.5,110.229,56,122.989,0,112.9,0,112.9H-8258.862v-214.966Z" transform="translate(8277.183 9512.382)" fill="url(#linear-gradient)"/>
      <path id="Uni贸n_29" data-name="Uni贸n 29" d="M74.251,249.128a115.483,115.483,0,0,1-24.43-7.382,98.664,98.664,0,0,1-22.127-12.979,75.725,75.725,0,0,1-17.105-18.559,64.575,64.575,0,0,1-9.366-24.124,83.158,83.158,0,0,1-.749-23.033,70.9,70.9,0,0,1,6.012-22.081c.366-.795.761-1.6,1.213-2.472a61.124,61.124,0,0,1,18.07-20.945,72.279,72.279,0,0,1,11.9-7.123,80.834,80.834,0,0,1,13.107-4.893,89.558,89.558,0,0,1,24.385-3.172c12.594,0,24.9,2.1,37.931,4.32l.02.006.965.163a135.918,135.918,0,0,0,23.032,2.236,69.744,69.744,0,0,0,18.544-2.272,51.459,51.459,0,0,0,8.731-3.234,46.885,46.885,0,0,0,8.154-4.986,58.607,58.607,0,0,0,9.2-8.768,80.887,80.887,0,0,0,7.383-10.281c4.459-7.256,8.175-15.323,11.767-23.123l.011-.023c3.23-7.01,6.57-14.257,10.448-20.932a94.144,94.144,0,0,1,6.34-9.615,66.729,66.729,0,0,1,7.67-8.563A64.757,64.757,0,0,1,269.091,0h.2a66.4,66.4,0,0,1,13.939,1.575,67.653,67.653,0,0,1,13.982,4.67c9.79,4.541,17.144,11.043,21.275,18.805a31.554,31.554,0,0,1,2.791,7.255,36.363,36.363,0,0,1,1.019,7.232,89.344,89.344,0,0,1-.915,14.451V54c-.767,6.5-1.558,13.229-.35,19.966a33.627,33.627,0,0,0,2.132,7.253,31.127,31.127,0,0,0,3.441,6.089,38.03,38.03,0,0,0,10.036,9.343c7.83,5.184,17.683,8.606,27.21,11.915l.018.008c5.131,1.782,10.435,3.623,15.252,5.695a59.4,59.4,0,0,1,13,7.307q1.332,1.033,2.617,2.178h81.582v44.229s2.87,49.673-64.475,33.289l-.065-.016-.181-.043c-2.351-.576-4.762-1.225-7.2-1.94a255.721,255.721,0,0,0-36.392-7.674l-.192-.027-.395-.055q-6.483-.894-12.921-1.507l-.032,0-.471-.044-.316-.031-.123-.011c-8.774-.818-17.892-1.326-27.255-1.516-11.736-.235-22.944.048-33.18.608l-.252.014c-.16.008-.324.017-.484.026-.247.015-.495.028-.743.042l-.041,0q-1.893.111-3.786.236c-4.352.289-8.707.635-13.034,1.037-6.966.649-13.157,1.377-18.347,2.068q-1.991.264-3.941.544h-.024c-8.586,1.224-13.56,2.207-13.56,2.207l-.032,0a124.4,124.4,0,0,0-18.025,5.9,250.466,250.466,0,0,0-29.8,15.029c-14.876,8.565-30.763,17.472-47.03,24.026a158.746,158.746,0,0,1-24.619,7.817,123.455,123.455,0,0,1-12.693,2.181,111.813,111.813,0,0,1-12.991.77A107.242,107.242,0,0,1,74.251,249.128Z" transform="translate(252.575 0) rotate(69)" fill="#912bd7" stroke="rgba(0,0,0,0)" stroke-miterlimit="10" stroke-width="1" opacity="0.15" style="mix-blend-mode: color-burn;isolation: isolate"/>
      <path id="Uni贸n_30" data-name="Uni贸n 30" d="M43.87,147.157A68.261,68.261,0,0,1,29.436,142.8a58.321,58.321,0,0,1-13.073-7.666A44.712,44.712,0,0,1,6.257,124.167,38.126,38.126,0,0,1,.723,109.918,49.089,49.089,0,0,1,.28,96.313,41.878,41.878,0,0,1,3.833,83.269c.216-.469.449-.947.716-1.46A36.114,36.114,0,0,1,15.225,69.437a42.757,42.757,0,0,1,7.029-4.207A47.736,47.736,0,0,1,30,62.34a52.915,52.915,0,0,1,14.408-1.874c7.44,0,14.712,1.239,22.41,2.552l.012,0,.57.1a80.352,80.352,0,0,0,13.607,1.321A41.2,41.2,0,0,0,91.962,63.1a30.4,30.4,0,0,0,5.159-1.91,27.674,27.674,0,0,0,4.817-2.945,34.63,34.63,0,0,0,5.433-5.179,47.884,47.884,0,0,0,4.362-6.073,130.071,130.071,0,0,0,6.952-13.658l.006-.014c1.909-4.14,3.882-8.421,6.173-12.364a55.637,55.637,0,0,1,3.746-5.68,39.491,39.491,0,0,1,4.531-5.058A38.263,38.263,0,0,1,158.986,0h.121a39.226,39.226,0,0,1,8.235.93A39.983,39.983,0,0,1,175.6,3.689c5.784,2.682,10.129,6.523,12.57,11.108a18.666,18.666,0,0,1,1.648,4.286,21.483,21.483,0,0,1,.6,4.272,52.776,52.776,0,0,1-.54,8.536V31.9c-.453,3.841-.92,7.814-.207,11.794a19.874,19.874,0,0,0,1.26,4.284,18.355,18.355,0,0,0,2.033,3.6,22.467,22.467,0,0,0,5.93,5.519c4.625,3.062,10.448,5.084,16.077,7.039l.01,0c3.032,1.052,6.166,2.14,9.012,3.364a35.118,35.118,0,0,1,7.68,4.316q.787.61,1.546,1.287h48.2V99.228s1.7,29.341-38.093,19.664l-.039-.009-.107-.026c-1.389-.34-2.813-.723-4.256-1.146a151.169,151.169,0,0,0-21.5-4.533l-.113-.016-.233-.032q-3.831-.527-7.635-.89l-.019,0-.278-.026-.187-.018-.073-.007c-5.183-.483-10.571-.784-16.1-.9-6.934-.139-13.556.028-19.6.359l-.149.008-.285.016-.439.025h-.024q-1.118.065-2.237.139c-2.571.17-5.144.375-7.7.612-4.116.383-7.773.814-10.84,1.222q-1.176.156-2.329.322h-.014c-5.073.723-8.011,1.3-8.011,1.3h-.019a73.513,73.513,0,0,0-10.649,3.487,148.013,148.013,0,0,0-17.6,8.877c-8.789,5.059-18.175,10.32-27.787,14.191a93.743,93.743,0,0,1-14.546,4.618,73.289,73.289,0,0,1-7.5,1.289,66.237,66.237,0,0,1-7.676.454A63.349,63.349,0,0,1,43.87,147.157Z" transform="translate(1175.347 114.416) rotate(-2)" fill="#912bd7" stroke="rgba(0,0,0,0)" stroke-miterlimit="10" stroke-width="1" opacity="0.15" style="mix-blend-mode: color-burn;isolation: isolate"/>
      <ellipse id="Elipse_5162" data-name="Elipse 5162" cx="42.097" cy="42.097" rx="42.097" ry="42.097" transform="translate(79.324 139.718) rotate(75)" fill="url(#linear-gradient-2)"/>
      <ellipse id="Elipse_5163" data-name="Elipse 5163" cx="13.925" cy="13.924" rx="13.925" ry="13.924" transform="translate(132.95 152.931) rotate(75)" fill="url(#linear-gradient-2)"/>
      <circle id="Elipse_5164" data-name="Elipse 5164" cx="22.599" cy="22.599" r="22.599" transform="translate(1288.501 167.341) rotate(-80.839)" fill="url(#linear-gradient-4)"/>
    </g>
  </g>
</svg>
