<svg xmlns="http://www.w3.org/2000/svg" xmlns:xlink="http://www.w3.org/1999/xlink" width="88" height="88" viewBox="0 0 88 88">
  <defs>
    <filter id="Trazado_188616" x="0" y="0" width="88" height="88" filterUnits="userSpaceOnUse">
      <feOffset dy="3" input="SourceAlpha"/>
      <feGaussianBlur stdDeviation="3" result="blur"/>
      <feFlood flood-opacity="0.161"/>
      <feComposite operator="in" in2="blur"/>
      <feComposite in="SourceGraphic"/>
    </filter>
  </defs>
  <g id="Grupo_128476" data-name="Grupo 128476" transform="translate(-1221.333 -118)">
    <g transform="matrix(1, 0, 0, 1, 1221.33, 118)" filter="url(#Trazado_188616)">
      <path id="Trazado_188616-2" data-name="Trazado 188616" d="M7.778,0H62.222A7.778,7.778,0,0,1,70,7.778V70H7.778A7.778,7.778,0,0,1,0,62.222V7.778A7.778,7.778,0,0,1,7.778,0Z" transform="translate(9 6)" fill="#f7ca18"/>
    </g>
    <g id="Capa_1" data-name="Capa 1" transform="translate(1240.641 134.311)">
      <g id="Grupo_133239" data-name="Grupo 133239">
        <path id="Trazado_189495" data-name="Trazado 189495" d="M45.01,0h-30.7A4.375,4.375,0,0,0,9.946,4.368V5.536H4.271A4.276,4.276,0,0,0,0,9.807v26.4a4.276,4.276,0,0,0,4.271,4.271H18.14v2.7L12.867,45.75a.551.551,0,0,0-.311.5v2.572a.56.56,0,0,0,.557.557H31.506a.56.56,0,0,0,.557-.557V46.248a.555.555,0,0,0-.311-.5l-5.273-2.567v-2.7H40.348a4.276,4.276,0,0,0,4.271-4.271V27.765h.4A4.375,4.375,0,0,0,49.383,23.4V4.368A4.375,4.375,0,0,0,45.016,0Zm-30.7,27.76H16.04L18.2,32.4a.555.555,0,0,0,1.007,0l2.16-4.641H39.432v7.535H5.177V10.713h4.77V23.4a4.375,4.375,0,0,0,4.368,4.368ZM25.675,44.024l5.273,2.567v1.672H13.666V46.591l5.273-2.567a.551.551,0,0,0,.311-.5V40.477h6.109v3.049a.555.555,0,0,0,.311.5ZM43.5,36.205a3.158,3.158,0,0,1-3.156,3.156H4.271a3.158,3.158,0,0,1-3.156-3.156V9.8A3.158,3.158,0,0,1,4.271,6.645H9.946V9.6H4.619a.56.56,0,0,0-.557.557v25.7a.56.56,0,0,0,.557.557H39.994a.56.56,0,0,0,.557-.557V27.765H43.5v8.446Zm4.764-12.813a3.255,3.255,0,0,1-3.253,3.253h-24a.554.554,0,0,0-.5.322L18.7,30.846,16.9,26.967a.554.554,0,0,0-.5-.322H14.314a3.255,3.255,0,0,1-3.253-3.253V4.368a3.255,3.255,0,0,1,3.253-3.253h30.7a3.255,3.255,0,0,1,3.253,3.253V23.392Z" fill="#6836bf" stroke="#683cbc" stroke-width="0.5"/>
        <path id="Trazado_189496" data-name="Trazado 189496" d="M52.1,17.843a5.632,5.632,0,1,0-9.711,0,8.21,8.21,0,0,0-4.5,7.315.56.56,0,0,0,.557.557h17.6a.56.56,0,0,0,.557-.557A8.2,8.2,0,0,0,52.1,17.843Zm-4.855-7.369a4.518,4.518,0,1,1-4.518,4.518A4.522,4.522,0,0,1,47.247,10.475ZM39.026,24.6a7.1,7.1,0,0,1,4.041-5.847,5.629,5.629,0,0,0,8.371,0A7.1,7.1,0,0,1,55.478,24.6H39.037Z" transform="translate(-17.585 -4.344)" fill="#6836bf" stroke="#683cbc" stroke-width="0.5"/>
      </g>
    </g>
  </g>
</svg>
