<svg xmlns="http://www.w3.org/2000/svg" xmlns:xlink="http://www.w3.org/1999/xlink" width="88" height="88" viewBox="0 0 88 88">
  <defs>
    <filter id="Rect치ngulo_40719" x="0" y="0" width="88" height="88" filterUnits="userSpaceOnUse">
      <feOffset dy="3" input="SourceAlpha"/>
      <feGaussianBlur stdDeviation="3" result="blur"/>
      <feFlood flood-opacity="0.161"/>
      <feComposite operator="in" in2="blur"/>
      <feComposite in="SourceGraphic"/>
    </filter>
  </defs>
  <g id="Grupo_128459" data-name="Grupo 128459" transform="translate(-225 -909)">
    <g transform="matrix(1, 0, 0, 1, 225, 909)" filter="url(#Rect치ngulo_40719)">
      <path id="Rect치ngulo_40719-2" data-name="Rect치ngulo 40719" d="M10,0H60A10,10,0,0,1,70,10V70a0,0,0,0,1,0,0H10A10,10,0,0,1,0,60V10A10,10,0,0,1,10,0Z" transform="translate(9 6)" fill="#b13e8d"/>
    </g>
    <g id="Capa_1" data-name="Capa 1" transform="translate(245.153 923.934)">
      <g id="Grupo_133240" data-name="Grupo 133240" transform="translate(0 0)">
        <path id="Trazado_189497" data-name="Trazado 189497" d="M74.881,34.578a.518.518,0,0,0-.7.214l-4.235,7.952H61.167a.518.518,0,0,0,0,1.035h9.091a.52.52,0,0,0,.458-.274L75.1,35.28a.518.518,0,0,0-.214-.7Z" transform="translate(-30.47 -17.346)" fill="#fff" stroke="#fff" stroke-width="0.5"/>
        <path id="Trazado_189498" data-name="Trazado 189498" d="M37.8,30.314a3.581,3.581,0,0,0-3.249-2.09H27.8a2.569,2.569,0,0,1-2.627-2.647V23.4a2.76,2.76,0,0,0,1.4.383H34.8a2.747,2.747,0,1,0,0-5.494H28.433l-2.2-5.538a6.785,6.785,0,1,0-8.808-2.08,12.97,12.97,0,0,0-4.3,5.255c-.816-1.806-1.677-3.085-2.961-3.354-1.229-.259-2.642.463-4.439,2.259a19.518,19.518,0,0,0,13.8,33.324,19.4,19.4,0,0,0,13.808-5.717,10.348,10.348,0,0,0,1.095-1.294l2.16,4.742a3.587,3.587,0,0,0,3.254,2.095A3.573,3.573,0,0,0,43.1,42.938L37.8,30.324ZM22.984,1.04a5.747,5.747,0,1,1-5.747,5.747A5.753,5.753,0,0,1,22.984,1.04ZM32.6,41.7A18.494,18.494,0,0,1,6.449,15.55c1.344-1.344,2.4-2.005,3.215-2.005a1.292,1.292,0,0,1,.279.03c1.289.269,2.2,2.593,3.269,5.285,1.264,3.2,2.836,7.2,5.862,10.221,2.931,2.931,6.1,3.518,9.449,4.14.945.174,1.921.358,2.906.6a4.007,4.007,0,0,1,3.105,2.727c.453,1.6-.254,3.483-1.931,5.16Zm9.614,3.583a2.53,2.53,0,0,1-1.324,1.423,2.48,2.48,0,0,1-1.05.229,2.545,2.545,0,0,1-2.314-1.488l-2.458-5.394a5.3,5.3,0,0,0,.458-3.8,5.079,5.079,0,0,0-3.856-3.453c-1.01-.244-2.005-.428-2.961-.607-3.329-.617-6.205-1.154-8.907-3.856-2.871-2.871-4.4-6.752-5.628-9.867-.164-.413-.318-.811-.478-1.194a11.964,11.964,0,0,1,4.384-5.817,6.767,6.767,0,0,0,7.2,1.7L27.6,18.984a.518.518,0,0,0,.483.328h6.713a1.717,1.717,0,0,1,0,3.433H26.567a1.7,1.7,0,0,1-1.592-1.08l-1.747-4.4a.517.517,0,1,0-.96.383l1.747,4.4c.035.085.075.169.114.249v3.289a3.606,3.606,0,0,0,3.662,3.672h6.757a2.537,2.537,0,0,1,2.3,1.473l5.294,12.614a2.525,2.525,0,0,1,.07,1.941Z" transform="translate(0 -0.01)" fill="#fff" stroke="#fff" stroke-width="0.5"/>
      </g>
    </g>
  </g>
</svg>
